<?xml version="1.0" encoding="utf-8"?>
<!-- Generator: Adobe Illustrator 23.0.1, SVG Export Plug-In . SVG Version: 6.00 Build 0)  -->
<svg version="1.1" id="Hair" xmlns="http://www.w3.org/2000/svg" xmlns:xlink="http://www.w3.org/1999/xlink" x="0px" y="0px"
	 width="450px" height="378px" viewBox="0 0 450 378" enable-background="new 0 0 450 378" xml:space="preserve">
<g>
	<path fill="#D0C5B7" stroke="#3E2670" stroke-width="2.4" stroke-miterlimit="10" d="M125.979,222.34
		c0,0,15.267-15.5,13.745-36.255c-0.468-6.383-8.575-19.593-6.909-12.638C140.277,204.596,125.979,222.34,125.979,222.34z"/>
	<path fill="#D0C5B7" stroke="#3E2670" stroke-width="2.4" stroke-miterlimit="10" d="M144.489,219.106
		c0,0,18.383-31.489,9.447-42.468c-3.065-3.766-15.956-13.481-10.878-8.447C158.277,183.277,144.489,219.106,144.489,219.106z"/>
	<path fill="#D0C5B7" stroke="#3E2670" stroke-width="2.4" stroke-miterlimit="10" d="M136.149,219.617
		c0,0,17.532-29.447,9.077-42.979c-2.574-4.119-15.837-15.266-11.503-9.576C151.128,189.915,136.149,219.617,136.149,219.617z"/>
	<path fill="#937D5C" d="M208.957,79.362c0,0-3.288-2.021-4.252-1.617c-0.397,0.167-0.917,2.255-0.917,2.255
		s-4.904-4.511-6.461-3.532c-0.817,0.514,0.292,4.511,0.292,4.511s-1.979-1.268-3.376-2.213c-1.582-1.071-3.105-2.399-3.918-1.787
		c-0.883,0.664,0.834,5.447,0.834,5.447s-2.065-1.017-4.168-1.532c-2.166-0.531-4.549-1.569-5.335-0.681
		c-1.119,1.263,1.626,7.149,1.626,7.149s-8.361-3.631-9.962-1.702c-0.87,1.048,2.126,4.894,2.126,4.894s-1.858-0.041-4.293-0.213
		c-2.539-0.179-5.169-1.106-7.003,1.106c-0.891,1.075,2.334,5.404,2.334,5.404s-1.318-0.49-4.001-0.809
		c-2.049-0.243-5.588-0.793-5.835,0c-0.332,1.064,5.669,4.085,5.669,4.085s-1.01,0.604-3.168,1.191
		c-1.428,0.389-4.196,0.627-4.502,1.191c-0.447,0.824,3.335,2.383,3.335,2.383s-1.816,2.02-4.001,2.723
		c-1.872,0.602-6.145,1.332-6.336,2.383c-0.335,1.842,7.169,2.936,7.169,2.936s-1.443,1.997-4.668,3.191
		c-3.643,1.349-8.926,2.653-8.391,4.604c0.78,2.846,12.56-1.413,12.56-1.413s-1.016,1.392-4.335,3.702
		c-3.523,2.452-10.334,6.606-9.337,8.596c1.419,2.831,13.672-4.085,13.672-4.085s-1.079,2.658-2.501,4.426
		c-3.835,4.766-8.218,6.091-7.003,7.66c1.336,1.724,11.004-1.702,11.004-1.702s-0.985,2.01-2.334,4.085
		c-1.657,2.549-5.999,5.187-5.002,6.468c1.328,1.706,10.004-3.064,10.004-3.064s-1.155,5.479-2.501,8.17
		c-3.567,7.133-9.936,18.209-10.671,18.043c-0.764-0.173-36.237,0.82-41.765-22.043c-5.334-22.057-4.001-49.787,19.257-68
		c10.72-8.395,51.186-17.702,51.186-17.702l24.009,5.447c0,0,5.189,1.553,8.336,4.766C207.749,75.532,208.957,79.362,208.957,79.362
		z"/>
	<path fill="#F4EDC9" stroke="#3E2670" stroke-width="2.4" stroke-miterlimit="10" d="M201.08,69.532c0,0,1.316,2.071,4.505,4.407
		c1.94,1.422,3.123,3.125,3.123,3.125s0.875-1.915-0.75-3.511C206.102,71.732,201.08,69.532,201.08,69.532z"/>
	<path fill="#F4EDC9" stroke="#3E2670" stroke-width="2.4" stroke-miterlimit="10" d="M190.382,66.649c0,0,1.286,2.411,5.443,5.344
		c0.644,0.455,2.872,1.006,3.552,1.518c0.668,0.502,4.175,4.455,4.175,4.455s2.085-3.806-0.733-6.898
		C199.108,66.993,190.382,66.649,190.382,66.649z"/>
	<path fill="#D0C5B7" stroke="#3E2670" stroke-width="2.4" stroke-miterlimit="10" d="M135.389,167.277
		c11.391,2.246,20.424-9.021,20.424-9.021s-8.702,2.911-19.507-0.766c-4.502-1.532-10.965-1.362-13.755,3.83
		c-4.074,7.581,2.441,12.768,3.726,24.255c2.17,19.404-10.638,37.532-10.638,37.532s20.11-22.59,17.106-38.298
		C129.913,170,133.794,166.962,135.389,167.277z"/>
	<path fill="#D0C5B7" stroke="#3E2670" stroke-width="2.4" stroke-miterlimit="10" d="M104.404,225.915
		c0,0,25.277-20.255,19.147-47.362c-1.942-8.587-5.73-14.147-3.918-18.17c1.878-4.17,6.654-7.362,17.325-6.34
		c5.55,0.531,9.512,0.008,13.568-1.989c1.618-0.796,3.072-1.577,4.105-2.449c1.093-0.923,1.859-2.455,1.859-2.455
		s-1.277,0.255-2.936,0.511c-0.803,0.123-2.2-0.841-3.179-0.705c-0.785,0.109-1.622,0.218-2.499,0.316
		c-1.052,0.117-2.16-0.315-3.316-0.25c-1.388,0.079-2.843,0.639-4.331,0.582c-1.555-0.06-2.794-0.685-4.422-0.752
		c-8.253-0.34-15.006-0.723-20.007,2.851c-3.795,2.712-7.828,9.873-4.502,18c3.027,7.394,8.118,14.862,8.172,21.277
		C119.638,209.234,104.404,225.915,104.404,225.915z"/>
	<path fill="#F4EDC9" stroke="#3E2670" stroke-width="2.4" stroke-miterlimit="10" d="M165.566,63.277c0,0,9.737,1.971,19.34,6.383
		c1.301,0.598,1.928,1.547,2.918,2.128c0.799,0.469,1.587,0.762,2.251,1.277c0.621,0.482,1.614,0.797,2.167,1.362
		c0.333,0.34,1.384,1.321,2.368,2.231c1.02,0.944,1.967,1.812,1.967,1.812s0.208-4.748-0.417-5.66
		c-0.569-0.83-0.783-1.978-1.459-2.766c-0.844-0.983-2.175-1.58-3.126-2.298c-1.263-0.954-3.596-2.09-6.752-3.064
		C172.819,60.979,165.566,63.277,165.566,63.277z"/>
	<path fill="#F4EDC9" stroke="#3E2670" stroke-width="2.4" stroke-miterlimit="10" d="M149.644,65.915c0,0,11.352,1.73,23.707,5.773
		c1.081,0.354,4.298,2.711,5.304,3.163c1.863,0.837,2.523,0.766,4.085,1.787c0.946,0.618,2.167,0.426,3.501,1.191
		c1.633,0.938,3.751,2.383,3.751,2.383s-0.333-4.681-2.167-6.043c-0.523-0.388-0.994-1.956-1.917-2.723
		c-0.751-0.625-1.766-0.616-2.861-1.318c-0.629-0.403-1.146-1.17-1.891-1.576c-0.875-0.477-2.001-0.592-3.038-1.047
		c-2.251-0.987-4.887-1.89-7.924-2.571c-2.626-0.588-5.25-1.787-10.129-1.787C153.812,63.149,149.644,65.915,149.644,65.915z"/>
	<path fill="#F4EDC9" stroke="#3E2670" stroke-width="2.4" stroke-miterlimit="10" d="M101.96,148.979c0,0,0.952-5.419,4.085-9.617
		c4.001-5.362,12.004-7.66,21.174-7.149c1.071,0.06,2.461,1.292,3.416,1.539c1.681,0.435,3.188,0.177,4.67,0.333
		c1.5,0.158,2.974,0.729,4.245,0.682c1.493-0.055,2.367-0.638,3.507-0.852c0.937-0.176,2.202,0.032,2.876-0.17
		c0.758-0.227,1.459-0.96,2.126-1.277c0.737-0.351,1.489-1.303,2.084-1.702c1.887-1.265,2.501-2.383,2.501-2.383
		s-3.335-0.17-6.169,0.17c-0.738,0.089-1.596,0.485-2.418,0.511c-0.984,0.031-1.95-0.325-3.068-0.432
		c-1.194-0.113-2.233,0.166-3.601-0.164c-0.843-0.204-1.957-0.941-2.871-1.246c-0.969-0.324-2.408-0.342-3.464-0.797
		c-1.508-0.649-12.255-5.787-21.758-1.872c-4.508,1.857-8.67,6.553-10.004,12.681C98.261,141.97,101.96,148.979,101.96,148.979z"/>
	<path fill="#F4EDC9" stroke="#3E2670" stroke-width="2.4" stroke-miterlimit="10" d="M107.795,95.702c0,0,4.666-7.99,22.69-3.826
		c3.621,0.837,10.32,3.978,13.407,4.933c0.714,0.221,1.374,0.209,2.059,0.399c0.626,0.174,1.28,0.554,1.878,0.705
		c0.747,0.188,1.624,0.319,2.319,0.472c0.639,0.14,1.1,0.303,1.689,0.415c0.779,0.147,1.985,0.146,2.663,0.247
		c1.006,0.149,1.763,0.224,2.508,0.28c1.563,0.118,3.246-0.248,3.246-0.248s-2.268-1.827-4.442-3.375
		c-0.605-0.431-1.406-0.456-2.077-0.895c-0.698-0.457-1.267-1.327-1.975-1.762c-0.424-0.261-1.424-0.455-1.834-0.7
		c-1.048-0.626-1.449-1.248-2.249-1.691c-1.368-0.759-12.244-6.438-13.375-6.872c-3.78-1.452-10.386-1.933-15.685-0.347
		C110.046,86,107.795,95.702,107.795,95.702z"/>
	<path fill="#F4EDC9" stroke="#3E2670" stroke-width="2.4" stroke-miterlimit="10" d="M118.299,82.426c0,0,4.372-2.621,18.257,1.787
		c3.266,1.037,10.535,4.479,13.044,5.226c0.714,0.213,1.643,0.098,2.295,0.306c0.648,0.207,1.021,0.737,1.611,0.939
		c0.876,0.299,1.552,0.227,2.307,0.508c0.775,0.289,1.626,0.93,2.282,1.195c0.962,0.387,2.821,0.784,3.553,1.103
		c0.59,0.258,3.422,1.433,3.422,1.433s-0.229-1.541-1.446-3.314c-0.431-0.628-1.195-1.072-1.81-1.779
		c-0.386-0.444-0.568-1.136-1.027-1.591c-0.465-0.461-1.268-0.589-1.807-1.047c-0.523-0.444-0.781-1.218-1.374-1.644
		c-1.446-1.037-3.154-1.875-4.962-2.782c-6.148-3.085-11.713-4.872-20.341-6.085C123.251,75.408,118.299,82.426,118.299,82.426z"/>
	<path fill="#F4EDC9" stroke="#3E2670" stroke-width="2.4" stroke-miterlimit="10" d="M98.958,119.702c0,0,1.756-5.628,11.588-8.17
		c12.505-3.234,19.545,0.221,22.038,1.15c0.839,0.313,1.83,0.087,2.721,0.34c1.023,0.29,1.894,1.044,2.857,1.244
		c0.758,0.158,1.931,0.051,2.645,0.16c1.084,0.165,1.677,0.515,2.638,0.581c0.818,0.056,2.212-0.322,2.926-0.325
		c3.452-0.017,6.023-1.447,6.023-1.447s-2.392-0.722-4.773-1.617c-0.705-0.265-1.043-0.774-1.984-1.132
		c-0.501-0.19-1.135-0.174-1.705-0.4c-0.619-0.246-1.179-0.739-1.881-1.036c-0.467-0.198-1.492-0.145-1.996-0.369
		c-0.862-0.382-1.24-1.067-2.213-1.536c-0.797-0.384-1.743-0.477-2.476-0.89c-0.533-0.3-0.868-0.914-1.368-1.226
		c-1.453-0.906-9.506-2.537-14.367-2.689C97.791,101.66,98.958,119.702,98.958,119.702z"/>
	<path fill="#F4EDC9" stroke="#3E2670" stroke-width="2.4" stroke-miterlimit="10" d="M101.626,108.809
		c0,0,4.001-7.915,18.173-8.255c8.515-0.205,22.362,4.684,23.259,4.851c0.918,0.172,1.724,0.799,2.546,0.899
		c1.005,0.122,1.684-0.164,2.539-0.133c0.953,0.035,2.063,0.378,2.821,0.322c2.457-0.178,5.098-1.344,5.098-1.344
		s-1.637-0.726-2.818-1.315c-0.717-0.358-1.598-0.757-2.558-1.171c-0.87-0.375-1.524-1.049-2.46-1.429
		c-1.047-0.425-2.623-0.727-3.585-1.106c-1.733-0.683-15.106-9.167-26.093-7.745C100.792,94.681,101.626,108.809,101.626,108.809z"
		/>
	<path fill="#F4EDC9" stroke="#3E2670" stroke-width="2.4" stroke-miterlimit="10" d="M136.306,70.681c0,0,8.708,0.817,24.259,4.851
		c2.097,0.544,4.005,1.131,5.74,1.739c0.828,0.29,1.93,0.347,2.68,0.644c0.798,0.316,1.24,0.872,1.955,1.189
		c0.708,0.315,1.584,0.118,2.213,0.428c0.906,0.447,1.526,1.397,2.279,1.819c0.758,0.425,3.59,1.981,4.14,2.351
		c1.552,1.044,2.626,1.66,2.626,1.66s-0.333-2.511-0.834-3.787c-0.253-0.647-0.615-1.289-1.042-1.957
		c-0.362-0.566-1.08-1.101-1.501-1.66c-0.483-0.642-0.712-1.173-1.25-1.745c-0.465-0.494-1.136-0.667-1.626-1.064
		c-0.492-0.399-1-0.778-1.522-1.139c-8.505-5.882-20.267-7.205-25.28-7.584C140.14,65.745,136.306,70.681,136.306,70.681z"/>
	<path fill="#F4EDC9" stroke="#3E2670" stroke-width="2.4" stroke-miterlimit="10" d="M127.302,75.787
		c0,0,20.508,3.106,30.386,6.553c1.362,0.475,1.954,1.013,3.251,1.532c0.7,0.28,2.208,0.145,2.876,0.426
		c0.637,0.267,1.19,0.922,1.79,1.182c0.822,0.356,1.392,0.193,2.128,0.52c0.762,0.338,1.685,1.165,2.332,1.452
		c0.695,0.308,4.003,1.399,4.003,1.399s-0.232-1.51-1.445-3.193c-0.505-0.701-1.137-1.481-1.892-2.305
		c-0.641-0.7-1.012-1.717-1.831-2.46c-0.758-0.686-2.301-1.824-3.21-2.511c-1.745-1.319-3.417-1.881-5.71-3.021
		c-4.877-2.426-14.733-4.05-19.674-4.681C130.303,69.404,127.302,75.787,127.302,75.787z"/>
	<path fill="#F4EDC9" stroke="#3E2670" stroke-width="2.4" stroke-miterlimit="10" d="M99.292,134.851c0,0,2.264-7.616,5.002-9.702
		c3.228-2.459,7.67-3.915,15.172-4.426c2.349-0.16,6.157,0.719,7.9,1.391c1.371,0.529,2.97,0.266,4.146,0.561
		c1.254,0.315,2.071,1.174,3.105,1.296c1.347,0.159,2.175-0.192,3.151-0.211c1.273-0.026,2.563,0.247,3.21,0.244
		c0.667-0.002,3.47-0.987,5.081-1.324c1.476-0.309,5.252-2.723,5.252-2.723s-2.409-0.369-4.759-0.816
		c-0.782-0.149-1.589-0.289-2.355-0.418c-0.946-0.159-1.996,0.209-2.695,0.089c-0.849-0.146-1.506-0.825-2.299-1.011
		c-0.59-0.138-1.396,0.078-1.956-0.081c-0.847-0.24-1.428-0.866-2.208-1.147c-4.149-1.492-9.237-3.68-12.572-4.191
		c-7.757-1.188-18.402,1.06-22.675,8.596C96.124,127.447,99.292,134.851,99.292,134.851z"/>
	<path fill="#F4EDC9" stroke="#3E2670" stroke-width="2.4" stroke-miterlimit="10" d="M138.723,144.298
		c0.636-0.043,2.272-0.527,2.918-0.596c1.667-0.177,3.001-0.006,4.333-0.433c1.116-0.358,1.794-1.258,2.67-1.694
		c0.854-0.425,1.913-0.385,2.536-0.801c1.634-1.091,2.466-2.008,2.466-2.008s-6.273,0.064-7.253,0.085
		c-1.344,0.029-3.343-0.749-4.584-0.8c-1.27-0.052-2.335,0.077-3.503-0.051c-1.216-0.134-2.557-0.811-3.668-1.021
		c-1.311-0.248-2.577,0.088-3.751-0.255c-1.168-0.342-2.808-0.508-3.918-0.681c-7.67-1.191-11.796-0.638-16.298,1.915
		c-4.107,2.33-8.878,8.298-7.378,16.468c1.182,6.436,7.253,13.021,7.253,13.021s-4.127-16.383,5.752-21.362
		C125.133,141.633,137.397,144.388,138.723,144.298z"/>
	<path opacity="0.6" fill="#FFFFFF" enable-background="new    " d="M141.87,68.574c0,0,12.788,2.39,16.49,3.946
		c1.913,0.804,3.788,1.185,5.624,1.86c2.754,1.012,5.152,1.416,5.799,1.642c0.567,0.198,1.447,1.004,1.962,1.204
		c0.547,0.213,1.432,0.209,1.866,0.414c0.237,0.112,1.511,1.295,2.853,1.858c1.631,0.685,4.112,2.472,4.112,2.472
		s-0.91-1.603-1.457-2.306c-1.054-1.355-2.021-2.378-2.399-2.738c-0.327-0.311-3.246-1.994-3.608-2.226
		c-5.899-3.784-10.212-4.711-13.61-5.614C147.497,65.894,141.87,68.574,141.87,68.574z"/>
	<path opacity="0.6" fill="#FFFFFF" enable-background="new    " d="M128.428,77.447c-2.831-0.289-6.627,3.191-6.627,3.191
		s5.919-3.319,26.176,4.426c2.632,1.006,7.128,2.788,9.337,3.915c1.667,0.851,5.335,3.319,5.335,3.319s-4.335-4.83-7.211-6.553
		c-1.074-0.644-6.127-3.574-8.378-4.34C138.56,78.512,132.179,77.83,128.428,77.447z"/>
	<path opacity="0.6" fill="#FFFFFF" enable-background="new    " d="M112.047,89.83c0,0,7.503-6.468,24.176-0.17
		c4.648,1.756,8.211,3.557,11.921,5.106c3.668,1.532,6.636,1.975,6.636,1.975s-1.858-1.131-3.16-2.045
		c-0.363-0.254-0.853-0.318-1.255-0.58c-0.419-0.273-0.751-0.745-1.176-1.008c-0.255-0.158-0.863-0.318-1.11-0.467
		c-0.63-0.38-0.847-0.751-1.345-0.99c-1.876-0.901-6.144-3.497-7.802-4.119c-1.503-0.564-3.585-2.426-7.003-3.191
		C116.109,80.795,112.047,89.83,112.047,89.83z"/>
	<path opacity="0.6" fill="#FFFFFF" enable-background="new    " d="M105.919,99.66c0,0,11.796-7.702,25.968-2
		c4.611,1.855,10.922,4.633,14.172,5.787c3.835,1.362,6.919,1.532,6.919,1.532s-3.66-1.598-5.419-2.383
		c-1.334-0.596-4.085-1.617-5.585-2.298c-1.894-0.859-7-4.607-15.006-6.213C112.964,91.277,105.919,99.66,105.919,99.66z"/>
	<path opacity="0.6" fill="#FFFFFF" enable-background="new    " d="M102.668,109.681c0,0,13.693-8.489,27.885-2.809
		c4.614,1.847,7.442,3.187,10.691,4.34c3.835,1.362,7.94,2.17,7.94,2.17s-4.251-1.725-4.814-1.787
		c-0.707-0.078-1.587-0.873-2.688-1.277c-1.27-0.465-2.438-0.574-2.939-1.213c-1-1.277-3.939-1.021-5.189-2.617
		c-0.857-1.094-7.857-2.213-10.191-2.553c-4.349-0.634-7.759-0.512-10.816,0.255C106.097,105.81,102.668,109.681,102.668,109.681z"
		/>
	<path opacity="0.6" fill="#FFFFFF" enable-background="new    " d="M129.866,74.574c0,0,8.763-0.79,23.071,3.383
		c3.501,1.021,5.822,2.548,6.708,2.9c0.478,0.19,1.482,0.166,1.94,0.355c0.436,0.18,0.829,0.585,1.24,0.76
		c0.563,0.239,0.939,0.165,1.443,0.383c0.522,0.227,1.169,0.746,1.612,0.938c0.476,0.206,5.69,3.217,5.69,3.217
		s-2.317-2.797-3.189-3.83c-0.363-0.43-1.404-1.148-1.938-1.66c-0.454-0.434-0.999-1.155-1.574-1.621
		c-0.531-0.431-1.604-1.155-2.236-1.592c-1.214-0.839-2.606-0.677-4.068-1.639c-2.827-1.859-16.653-4.93-22.446-4.34
		C131.995,72.249,129.866,74.574,129.866,74.574z"/>
	<path opacity="0.6" fill="#FFFFFF" enable-background="new    " d="M155.479,64.723c0,0,10.129,2.069,19.799,5.581
		c0.846,0.307,3.887,2.141,4.687,2.477c1.482,0.623,1.579,0.308,2.854,0.961c0.772,0.395,1.667,0.5,2.745,1.014
		c1.319,0.629,2.761,2.435,2.761,2.435s-0.436-2.863-1.949-3.696c-0.432-0.238-0.945-0.951-1.715-1.404
		c-0.627-0.369-1.386-0.518-2.279-0.97c-0.513-0.26-0.816-0.729-1.415-1.007c-0.704-0.327-2.056-0.731-2.88-1.073
		c-1.787-0.742-3.355-1.405-5.7-2.14c-2.027-0.636-7.238-2.572-9.904-2.689C159.879,64.099,155.479,64.723,155.479,64.723z"/>
	<path opacity="0.6" fill="#FFFFFF" enable-background="new    " d="M173.511,64.128c0,0,8.387,2.964,9.343,3.266
		c1.313,0.415,3.873,1.905,4.403,2.231c0.428,0.263,1.005,0.865,1.662,1.343c0.344,0.251,1.936,0.972,2.282,1.213
		c0.688,0.479,4.033,3.383,4.033,3.383s-1.522-2.254-2.251-3.16c-0.719-0.894-2.024-2.914-7.878-5.33
		C177.758,64.043,173.511,64.128,173.511,64.128z"/>
	<g>
		
			<path fill="none" stroke="#3E2670" stroke-width="0.9897" stroke-linecap="round" stroke-linejoin="round" stroke-miterlimit="10" d="
			M152.38,103.345c-1.614,1.435-4.571,0.548-4.571,0.548s2.611,0.627,3.649,2.239"/>
		
			<path fill="none" stroke="#3E2670" stroke-width="0.9897" stroke-linecap="round" stroke-linejoin="round" stroke-miterlimit="10" d="
			M148.546,101.862c-1.077,1.201-5.227,0.891-5.227,0.891s3.38,1.805,3.849,2.877"/>
		
			<path fill="none" stroke="#3E2670" stroke-width="0.9897" stroke-linecap="round" stroke-linejoin="round" stroke-miterlimit="10" d="
			M143.892,100.029c-2.274-0.084-5.023,1.091-5.023,1.091s1.633,2.891,3.67,3.475"/>
		
			<path fill="none" stroke="#3E2670" stroke-width="0.9897" stroke-linecap="round" stroke-linejoin="round" stroke-miterlimit="10" d="
			M138.719,99.061c-2.235,1.4-5.633-0.284-5.633-0.284s3.587,2.049,4.166,4.371"/>
		
			<path fill="none" stroke="#3E2670" stroke-width="0.9897" stroke-linecap="round" stroke-linejoin="round" stroke-miterlimit="10" d="
			M134.907,96.956c-1.881-0.712-5.365-0.324-5.365-0.324s0.86,3.107,2.408,4.171"/>
		
			<path fill="none" stroke="#3E2670" stroke-width="0.9897" stroke-linecap="round" stroke-linejoin="round" stroke-miterlimit="10" d="
			M124.744,93.706c-1.985,0.299-4.857,2.349-4.857,2.349s2.218,2.302,4.076,2.475"/>
		
			<path fill="none" stroke="#3E2670" stroke-width="0.9897" stroke-linecap="round" stroke-linejoin="round" stroke-miterlimit="10" d="
			M114.566,94.655c-1.707,1.076-3.551,4.119-3.551,4.119s2.928,1.219,4.702,0.627"/>
		
			<path fill="none" stroke="#3E2670" stroke-width="0.9897" stroke-linecap="round" stroke-linejoin="round" stroke-miterlimit="10" d="
			M129.497,94.443c-2.208,1.681-5.613,1.264-5.613,1.264s3.481,1.859,3.804,3.529"/>
		
			<path fill="none" stroke="#3E2670" stroke-width="0.9897" stroke-linecap="round" stroke-linejoin="round" stroke-miterlimit="10" d="
			M119.349,93.974c-1.593,2.294-4.958,2.969-4.958,2.969s3.872,0.674,4.684,2.16"/>
		
			<path fill="none" stroke="#3E2670" stroke-width="0.9897" stroke-linecap="round" stroke-linejoin="round" stroke-miterlimit="10" d="
			M108.986,96.592c-0.533,2.759-3.332,4.781-3.332,4.781s3.803-1.004,5.14,0.012"/>
	</g>
	<g>
		
			<path fill="none" stroke="#3E2670" stroke-width="0.9897" stroke-linecap="round" stroke-linejoin="round" stroke-miterlimit="10" d="
			M148.456,111.412c-1.525,1.533-4.53,0.832-4.53,0.832s2.644,0.463,3.777,2.007"/>
		
			<path fill="none" stroke="#3E2670" stroke-width="0.9897" stroke-linecap="round" stroke-linejoin="round" stroke-miterlimit="10" d="
			M144.541,110.172c-1.004,1.266-5.163,1.216-5.163,1.216s3.481,1.591,4.014,2.632"/>
		
			<path fill="none" stroke="#3E2670" stroke-width="0.9897" stroke-linecap="round" stroke-linejoin="round" stroke-miterlimit="10" d="
			M139.786,108.633c-2.275,0.058-4.948,1.403-4.948,1.403s1.803,2.783,3.872,3.24"/>
		
			<path fill="none" stroke="#3E2670" stroke-width="0.9897" stroke-linecap="round" stroke-linejoin="round" stroke-miterlimit="10" d="
			M134.564,107.989c-2.147,1.537-5.639,0.068-5.639,0.068s3.703,1.821,4.42,4.103"/>
		
			<path fill="none" stroke="#3E2670" stroke-width="0.9897" stroke-linecap="round" stroke-linejoin="round" stroke-miterlimit="10" d="
			M130.634,106.125c-1.92-0.593-5.375,0.011-5.375,0.011s1.045,3.047,2.654,4.012"/>
		
			<path fill="none" stroke="#3E2670" stroke-width="0.9897" stroke-linecap="round" stroke-linejoin="round" stroke-miterlimit="10" d="
			M120.295,103.517c-1.963,0.422-4.708,2.648-4.708,2.648s2.351,2.159,4.216,2.216"/>
		
			<path fill="none" stroke="#3E2670" stroke-width="0.9897" stroke-linecap="round" stroke-linejoin="round" stroke-miterlimit="10" d="
			M110.193,105.099c-1.639,1.181-3.298,4.333-3.298,4.333s2.996,1.034,4.731,0.333"/>
		
			<path fill="none" stroke="#3E2670" stroke-width="0.9897" stroke-linecap="round" stroke-linejoin="round" stroke-miterlimit="10" d="
			M125.084,103.955c-2.103,1.816-5.527,1.612-5.527,1.612s3.585,1.639,4.008,3.285"/>
		
			<path fill="none" stroke="#3E2670" stroke-width="0.9897" stroke-linecap="round" stroke-linejoin="round" stroke-miterlimit="10" d="
			M114.926,104.121c-1.453,2.389-4.771,3.272-4.771,3.272s3.906,0.431,4.805,1.864"/>
		
			<path fill="none" stroke="#3E2670" stroke-width="0.9897" stroke-linecap="round" stroke-linejoin="round" stroke-miterlimit="10" d="
			M104.74,107.38c-0.367,2.787-3.04,4.98-3.04,4.98s3.736-1.24,5.131-0.309"/>
	</g>
	<g>
		
			<path fill="none" stroke="#3E2670" stroke-width="0.9897" stroke-linecap="round" stroke-linejoin="round" stroke-miterlimit="10" d="
			M145.587,119.578c-1.367,1.681-4.426,1.29-4.426,1.29s2.676,0.191,3.954,1.613"/>
		
			<path fill="none" stroke="#3E2670" stroke-width="0.9897" stroke-linecap="round" stroke-linejoin="round" stroke-miterlimit="10" d="
			M141.57,118.743c-0.875,1.362-5.019,1.736-5.019,1.736s3.619,1.228,4.252,2.21"/>
		
			<path fill="none" stroke="#3E2670" stroke-width="0.9897" stroke-linecap="round" stroke-linejoin="round" stroke-miterlimit="10" d="
			M136.688,117.696c-2.258,0.289-4.786,1.9-4.786,1.9s2.066,2.586,4.169,2.829"/>
		
			<path fill="none" stroke="#3E2670" stroke-width="0.9897" stroke-linecap="round" stroke-linejoin="round" stroke-miterlimit="10" d="
			M131.43,117.587c-1.986,1.748-5.605,0.642-5.605,0.642s3.862,1.435,4.799,3.632"/>
		
			<path fill="none" stroke="#3E2670" stroke-width="0.9897" stroke-linecap="round" stroke-linejoin="round" stroke-miterlimit="10" d="
			M127.337,116.133c-1.969-0.395-5.347,0.559-5.347,0.559s1.337,2.926,3.032,3.722"/>
		
			<path fill="none" stroke="#3E2670" stroke-width="0.9897" stroke-linecap="round" stroke-linejoin="round" stroke-miterlimit="10" d="
			M116.795,114.591c-1.912,0.62-4.425,3.114-4.425,3.114s2.551,1.909,4.412,1.775"/>
		
			<path fill="none" stroke="#3E2670" stroke-width="0.9897" stroke-linecap="round" stroke-linejoin="round" stroke-miterlimit="10" d="
			M106.898,117.194c-1.516,1.342-2.858,4.647-2.858,4.647s3.082,0.723,4.74-0.151"/>
		
			<path fill="none" stroke="#3E2670" stroke-width="0.9897" stroke-linecap="round" stroke-linejoin="round" stroke-miterlimit="10" d="
			M121.602,114.539c-1.915,2.021-5.342,2.167-5.342,2.167s3.728,1.265,4.31,2.86"/>
		
			<path fill="none" stroke="#3E2670" stroke-width="0.9897" stroke-linecap="round" stroke-linejoin="round" stroke-miterlimit="10" d="
			M111.512,115.739c-1.212,2.525-4.427,3.742-4.427,3.742s3.928,0.031,4.963,1.365"/>
		
			<path fill="none" stroke="#3E2670" stroke-width="0.9897" stroke-linecap="round" stroke-linejoin="round" stroke-miterlimit="10" d="
			M101.695,120.02c-0.093,2.81-2.538,5.265-2.538,5.265s3.596-1.614,5.076-0.83"/>
	</g>
	<g>
		
			<path fill="none" stroke="#3E2670" stroke-width="0.9897" stroke-linecap="round" stroke-linejoin="round" stroke-miterlimit="10" d="
			M146.83,130.035c-1.343,1.702-4.407,1.357-4.407,1.357s2.678,0.151,3.977,1.553"/>
		
			<path fill="none" stroke="#3E2670" stroke-width="0.9897" stroke-linecap="round" stroke-linejoin="round" stroke-miterlimit="10" d="
			M142.801,129.26c-0.855,1.375-4.993,1.812-4.993,1.812s3.637,1.173,4.283,2.145"/>
		
			<path fill="none" stroke="#3E2670" stroke-width="0.9897" stroke-linecap="round" stroke-linejoin="round" stroke-miterlimit="10" d="
			M137.905,128.287c-2.254,0.323-4.758,1.972-4.758,1.972s2.103,2.554,4.21,2.765"/>
		
			<path fill="none" stroke="#3E2670" stroke-width="0.9897" stroke-linecap="round" stroke-linejoin="round" stroke-miterlimit="10" d="
			M132.645,128.258c-1.96,1.778-5.595,0.727-5.595,0.727s3.883,1.376,4.851,3.559"/>
		
			<path fill="none" stroke="#3E2670" stroke-width="0.9897" stroke-linecap="round" stroke-linejoin="round" stroke-miterlimit="10" d="
			M128.532,126.867c-1.974-0.365-5.338,0.64-5.338,0.64s1.38,2.905,3.086,3.676"/>
		
			<path fill="none" stroke="#3E2670" stroke-width="0.9897" stroke-linecap="round" stroke-linejoin="round" stroke-miterlimit="10" d="
			M117.969,125.484c-1.903,0.649-4.379,3.181-4.379,3.181s2.578,1.87,4.437,1.708"/>
		
			<path fill="none" stroke="#3E2670" stroke-width="0.9897" stroke-linecap="round" stroke-linejoin="round" stroke-miterlimit="10" d="
			M108.11,128.238c-1.496,1.365-2.79,4.69-2.79,4.69s3.092,0.676,4.737-0.223"/>
		
			<path fill="none" stroke="#3E2670" stroke-width="0.9897" stroke-linecap="round" stroke-linejoin="round" stroke-miterlimit="10" d="
			M100.152,137.41c-0.122,2.044,1.252,5.336,1.252,5.336s2.663-1.742,3.211-3.563"/>
		
			<path fill="none" stroke="#3E2670" stroke-width="0.9897" stroke-linecap="round" stroke-linejoin="round" stroke-miterlimit="10" d="
			M122.775,125.36c-1.886,2.05-5.31,2.247-5.31,2.247s3.746,1.209,4.351,2.795"/>
		
			<path fill="none" stroke="#3E2670" stroke-width="0.9897" stroke-linecap="round" stroke-linejoin="round" stroke-miterlimit="10" d="
			M112.703,126.713c-1.175,2.543-4.372,3.809-4.372,3.809s3.928-0.029,4.983,1.29"/>
		
			<path fill="none" stroke="#3E2670" stroke-width="0.9897" stroke-linecap="round" stroke-linejoin="round" stroke-miterlimit="10" d="
			M103.128,131.974c0.504,2.764-1.364,5.7-1.364,5.7s3.169-2.369,4.78-1.93"/>
	</g>
	<g>
		
			<path fill="none" stroke="#3E2670" stroke-width="0.9897" stroke-linecap="round" stroke-linejoin="round" stroke-miterlimit="10" d="
			M145.24,139.347c-1.17,1.829-4.253,1.797-4.253,1.797s2.68-0.122,4.109,1.141"/>
		
			<path fill="none" stroke="#3E2670" stroke-width="0.9897" stroke-linecap="round" stroke-linejoin="round" stroke-miterlimit="10" d="
			M141.072,138.815c-0.717,1.455-4.792,2.309-4.792,2.309s3.733,0.798,4.471,1.7"/>
		
			<path fill="none" stroke="#3E2670" stroke-width="0.9897" stroke-linecap="round" stroke-linejoin="round" stroke-miterlimit="10" d="
			M136.355,138.173c-2.211,0.55-4.543,2.445-4.543,2.445s2.341,2.328,4.458,2.325"/>
		
			<path fill="none" stroke="#3E2670" stroke-width="0.9897" stroke-linecap="round" stroke-linejoin="round" stroke-miterlimit="10" d="
			M130.869,138.848c-1.778,1.968-5.496,1.291-5.496,1.291s3.997,0.975,5.173,3.049"/>
		
			<path fill="none" stroke="#3E2670" stroke-width="0.9897" stroke-linecap="round" stroke-linejoin="round" stroke-miterlimit="10" d="
			M126.64,138.306c-2-0.163-5.25,1.178-5.25,1.178s1.656,2.751,3.429,3.345"/>
		
			<path fill="none" stroke="#3E2670" stroke-width="0.9897" stroke-linecap="round" stroke-linejoin="round" stroke-miterlimit="10" d="
			M116.015,138.247c-1.83,0.839-4.048,3.61-4.048,3.61s2.747,1.599,4.582,1.25"/>
		
			<path fill="none" stroke="#3E2670" stroke-width="0.9897" stroke-linecap="round" stroke-linejoin="round" stroke-miterlimit="10" d="
			M107.974,143.568c-0.968,1.794-1.107,5.37-1.107,5.37s3.137-0.41,4.396-1.815"/>
		
			<path fill="none" stroke="#3E2670" stroke-width="0.9897" stroke-linecap="round" stroke-linejoin="round" stroke-miterlimit="10" d="
			M104.351,153.912c0.496,1.985,2.791,4.69,2.791,4.69s2.014-2.489,1.99-4.394"/>
		
			<path fill="none" stroke="#3E2670" stroke-width="0.9897" stroke-linecap="round" stroke-linejoin="round" stroke-miterlimit="10" d="
			M120.848,137.731c-1.677,2.231-5.065,2.775-5.065,2.775s3.845,0.823,4.601,2.34"/>
		
			<path fill="none" stroke="#3E2670" stroke-width="0.9897" stroke-linecap="round" stroke-linejoin="round" stroke-miterlimit="10" d="
			M110.825,140.606c0.37,2.786-1.637,5.625-1.637,5.625s3.28-2.207,4.867-1.687"/>
		
			<path fill="none" stroke="#3E2670" stroke-width="0.9897" stroke-linecap="round" stroke-linejoin="round" stroke-miterlimit="10" d="
			M105.043,148.661c1.702,2.211,1.38,5.696,1.38,5.696s1.732-3.599,3.359-3.972"/>
	</g>
	<g>
		
			<path fill="none" stroke="#3E2670" stroke-width="0.9897" stroke-linecap="round" stroke-linejoin="round" stroke-miterlimit="10" d="
			M150.708,147.873c-1.003,1.93-4.076,2.183-4.076,2.183s2.658-0.369,4.193,0.756"/>
		
			<path fill="none" stroke="#3E2670" stroke-width="0.9897" stroke-linecap="round" stroke-linejoin="round" stroke-miterlimit="10" d="
			M146.51,147.729c-0.585,1.515-4.567,2.743-4.567,2.743s3.789,0.449,4.603,1.279"/>
		
			<path fill="none" stroke="#3E2670" stroke-width="0.9897" stroke-linecap="round" stroke-linejoin="round" stroke-miterlimit="10" d="
			M141.755,147.527c-2.153,0.753-4.307,2.856-4.307,2.856s2.538,2.102,4.646,1.902"/>
		
			<path fill="none" stroke="#3E2670" stroke-width="0.9897" stroke-linecap="round" stroke-linejoin="round" stroke-miterlimit="10" d="
			M136.352,148.707c-1.595,2.125-5.359,1.795-5.359,1.795s4.068,0.601,5.423,2.558"/>
		
			<path fill="none" stroke="#3E2670" stroke-width="0.9897" stroke-linecap="round" stroke-linejoin="round" stroke-miterlimit="10" d="
			M132.092,148.559c-2.006,0.023-5.123,1.659-5.123,1.659s1.893,2.586,3.712,3.013"/>
		
			<path fill="none" stroke="#3E2670" stroke-width="0.9897" stroke-linecap="round" stroke-linejoin="round" stroke-miterlimit="10" d="
			M121.506,149.484c-1.748,1.005-3.711,3.97-3.711,3.97s2.878,1.338,4.674,0.82"/>
		
			<path fill="none" stroke="#3E2670" stroke-width="0.9897" stroke-linecap="round" stroke-linejoin="round" stroke-miterlimit="10" d="
			M113.712,155.834c-0.345,2.018,0.659,5.446,0.659,5.446s2.837-1.426,3.582-3.173"/>
		
			<path fill="none" stroke="#3E2670" stroke-width="0.9897" stroke-linecap="round" stroke-linejoin="round" stroke-miterlimit="10" d="
			M112.198,166.931c0.671,1.93,3.196,4.412,3.196,4.412s1.784-2.666,1.592-4.56"/>
		
			<path fill="none" stroke="#3E2670" stroke-width="0.9897" stroke-linecap="round" stroke-linejoin="round" stroke-miterlimit="10" d="
			M126.273,148.522c-1.472,2.377-4.797,3.232-4.797,3.232s3.902,0.463,4.79,1.904"/>
		
			<path fill="none" stroke="#3E2670" stroke-width="0.9897" stroke-linecap="round" stroke-linejoin="round" stroke-miterlimit="10" d="
			M116.547,152.313c0.616,2.741-1.13,5.753-1.13,5.753s3.07-2.502,4.697-2.131"/>
		
			<path fill="none" stroke="#3E2670" stroke-width="0.9897" stroke-linecap="round" stroke-linejoin="round" stroke-miterlimit="10" d="
			M111.497,161.704c2.213,1.675,2.802,5.124,2.802,5.124s0.742-3.938,2.215-4.736"/>
		
			<path fill="none" stroke="#3E2670" stroke-width="0.8606" stroke-linecap="round" stroke-linejoin="round" stroke-miterlimit="10" d="
			M116.39,177.448c1.093,1.389,3.862,2.687,3.862,2.687s0.716-2.711,0.027-4.21"/>
		
			<path fill="none" stroke="#3E2670" stroke-width="0.8606" stroke-linecap="round" stroke-linejoin="round" stroke-miterlimit="10" d="
			M114.347,173.362c2.287,0.727,3.739,3.387,3.739,3.387s-0.497-3.45,0.489-4.536"/>
		
			<path fill="none" stroke="#3E2670" stroke-width="0.7055" stroke-linecap="round" stroke-linejoin="round" stroke-miterlimit="10" d="
			M120.048,184.673c0.383,1.392,2.064,3.246,2.064,3.246s1.41-1.819,1.367-3.167"/>
		
			<path fill="none" stroke="#3E2670" stroke-width="0.7055" stroke-linecap="round" stroke-linejoin="round" stroke-miterlimit="10" d="
			M119.058,181.737c1.878,0.577,3.078,2.743,3.078,2.743s-0.419-2.823,0.386-3.721"/>
		
			<path fill="none" stroke="#3E2670" stroke-width="0.7055" stroke-linecap="round" stroke-linejoin="round" stroke-miterlimit="10" d="
			M120.199,192.512c-0.047,1.443,1.01,3.712,1.01,3.712s1.885-1.319,2.244-2.62"/>
		
			<path fill="none" stroke="#3E2670" stroke-width="0.7055" stroke-linecap="round" stroke-linejoin="round" stroke-miterlimit="10" d="
			M119.901,188.579c1.612,1.123,2.091,3.553,2.091,3.553s0.464-2.816,1.505-3.425"/>
		
			<path fill="none" stroke="#3E2670" stroke-width="0.7055" stroke-linecap="round" stroke-linejoin="round" stroke-miterlimit="10" d="
			M118.348,199.901c-0.11,1.435,0.851,3.742,0.851,3.742s1.947-1.227,2.363-2.506"/>
		
			<path fill="none" stroke="#3E2670" stroke-width="0.7055" stroke-linecap="round" stroke-linejoin="round" stroke-miterlimit="10" d="
			M119.043,196.024c1.327,1.447,1.255,3.914,1.255,3.914s1.081-2.634,2.235-2.995"/>
	</g>
	<g>
		
			<path fill="none" stroke="#3E2670" stroke-width="0.9897" stroke-linecap="round" stroke-linejoin="round" stroke-miterlimit="10" d="
			M154.503,95.973c-1.673,1.363-4.59,0.347-4.59,0.347s2.582,0.741,3.552,2.398"/>
		
			<path fill="none" stroke="#3E2670" stroke-width="0.9897" stroke-linecap="round" stroke-linejoin="round" stroke-miterlimit="10" d="
			M150.751,94.726c-1.777-0.523-4.074-0.216-4.074-0.216s0.796,1.905,2.29,2.775"/>
		
			<path fill="none" stroke="#3E2670" stroke-width="0.9897" stroke-linecap="round" stroke-linejoin="round" stroke-miterlimit="10" d="
			M147.599,92.673c-1.263,0.995-5.299-0.035-5.299-0.035s3.027,2.369,3.31,3.508"/>
		
			<path fill="none" stroke="#3E2670" stroke-width="0.9897" stroke-linecap="round" stroke-linejoin="round" stroke-miterlimit="10" d="
			M143.431,90.229c-2.195-0.613-5.134-0.11-5.134-0.11s0.942,3.195,2.794,4.24"/>
		
			<path fill="none" stroke="#3E2670" stroke-width="0.9897" stroke-linecap="round" stroke-linejoin="round" stroke-miterlimit="10" d="
			M137.872,87.905c-2.324,1.24-5.6-0.679-5.6-0.679s3.44,2.296,3.861,4.654"/>
		
			<path fill="none" stroke="#3E2670" stroke-width="0.9897" stroke-linecap="round" stroke-linejoin="round" stroke-miterlimit="10" d="
			M131.43,84.693c-2.27,0.172-4.874,1.65-4.874,1.65s1.934,2.689,4.023,3.041"/>
		
			<path fill="none" stroke="#3E2670" stroke-width="0.9897" stroke-linecap="round" stroke-linejoin="round" stroke-miterlimit="10" d="
			M118.808,84.338c-2.13,0.818-4.221,2.986-4.221,2.986s2.599,2.024,4.699,1.76"/>
		
			<path fill="none" stroke="#3E2670" stroke-width="0.9897" stroke-linecap="round" stroke-linejoin="round" stroke-miterlimit="10" d="
			M125.43,84.401c-1.784,1.962-5.5,1.273-5.5,1.273s3.994,0.989,5.164,3.067"/>
	</g>
	<g>
		
			<path fill="none" stroke="#3E2670" stroke-width="0.9897" stroke-linecap="round" stroke-linejoin="round" stroke-miterlimit="10" d="
			M160.774,92.615c-0.043-1.594-2.711-3.636-2.711-3.636s2.334,1.277,3.693,0.87"/>
		
			<path fill="none" stroke="#3E2670" stroke-width="0.9897" stroke-linecap="round" stroke-linejoin="round" stroke-miterlimit="10" d="
			M156.871,91.333c-0.475-2.95-3.476-4.993-3.476-4.993s3.73,1.22,4.752,0.681"/>
		
			<path fill="none" stroke="#3E2670" stroke-width="0.9897" stroke-linecap="round" stroke-linejoin="round" stroke-miterlimit="10" d="
			M152.114,89.803c-1.83-1.382-2.97-5.25-2.97-5.25s2.051-1.096,4.001-0.255"/>
		
			<path fill="none" stroke="#3E2670" stroke-width="0.9897" stroke-linecap="round" stroke-linejoin="round" stroke-miterlimit="10" d="
			M147.478,87.267c-0.168-2.714-4.086-4.416-4.086-4.416s3.585,0.511,5.502-0.34"/>
		
			<path fill="none" stroke="#3E2670" stroke-width="0.9897" stroke-linecap="round" stroke-linejoin="round" stroke-miterlimit="10" d="
			M142.962,85.848c-1.906-0.641-3.822-4.572-3.822-4.572s1.975-1.005,3.835-0.851"/>
		
			<path fill="none" stroke="#3E2670" stroke-width="0.9897" stroke-linecap="round" stroke-linejoin="round" stroke-miterlimit="10" d="
			M133.459,83.04c-1.906-0.641-3.822-4.572-3.822-4.572s1.975-1.005,3.835-0.851"/>
		
			<path fill="none" stroke="#3E2670" stroke-width="0.9897" stroke-linecap="round" stroke-linejoin="round" stroke-miterlimit="10" d="
			M137.764,84.34c0.5-3.404-3.585-4.851-3.585-4.851s3.708,0.641,4.335-0.936"/>
		
			<path fill="none" stroke="#3E2670" stroke-width="0.9897" stroke-linecap="round" stroke-linejoin="round" stroke-miterlimit="10" d="
			M128.667,82.83c-0.114-3.44-4.389-4.105-4.389-4.105s3.76-0.058,4.096-1.725"/>
	</g>
	<g>
		
			<path fill="none" stroke="#3E2670" stroke-width="0.9897" stroke-linecap="round" stroke-linejoin="round" stroke-miterlimit="10" d="
			M168.752,85.722c0.362-1.542-1.935-3.408-1.935-3.408s1.816,1.063,2.923,0.64"/>
		
			<path fill="none" stroke="#3E2670" stroke-width="0.9897" stroke-linecap="round" stroke-linejoin="round" stroke-miterlimit="10" d="
			M162.941,83.648C162.92,80.617,159.418,78,159.418,78s3.646,0.678,4.627,0.064"/>
		
			<path fill="none" stroke="#3E2670" stroke-width="0.9897" stroke-linecap="round" stroke-linejoin="round" stroke-miterlimit="10" d="
			M159.272,82.17c-2.438-1.723-3.439-5.617-3.439-5.617s1.934-1.075,3.939-0.383"/>
		
			<path fill="none" stroke="#3E2670" stroke-width="0.9897" stroke-linecap="round" stroke-linejoin="round" stroke-miterlimit="10" d="
			M153.781,80.509c-0.363-2.694-3.241-5.233-3.241-5.233s2.4,0.418,4.252-0.574"/>
		
			<path fill="none" stroke="#3E2670" stroke-width="0.9897" stroke-linecap="round" stroke-linejoin="round" stroke-miterlimit="10" d="
			M150.179,79.922c-1.946-0.497-3.558-5.539-3.558-5.539s1.073-0.652,2.939-0.638"/>
		
			<path fill="none" stroke="#3E2670" stroke-width="0.9897" stroke-linecap="round" stroke-linejoin="round" stroke-miterlimit="10" d="
			M142.542,78.759c-1.999-0.178-4.366-4.9-4.366-4.9s0.959-0.816,2.804-1.102"/>
		
			<path fill="none" stroke="#3E2670" stroke-width="0.9897" stroke-linecap="round" stroke-linejoin="round" stroke-miterlimit="10" d="
			M145.027,79.302c0.254-3.433-3.344-5.089-3.344-5.089s2.709,0.298,3.677-0.739"/>
		
			<path fill="none" stroke="#3E2670" stroke-width="0.9897" stroke-linecap="round" stroke-linejoin="round" stroke-miterlimit="10" d="
			M137.137,77.583c-0.502-3.404-4.372-4.199-4.372-4.199s2.706-0.327,3.423-1.557"/>
		
			<path fill="none" stroke="#3E2670" stroke-width="0.9897" stroke-linecap="round" stroke-linejoin="round" stroke-miterlimit="10" d="
			M168.611,81.645c-1.962-1.025-4.717-1.199-4.717-1.199s0.506,2.413,2.06,3.778"/>
	</g>
	<g>
		
			<path fill="none" stroke="#3E2670" stroke-width="0.9897" stroke-linecap="round" stroke-linejoin="round" stroke-miterlimit="10" d="
			M176.447,80.786c0.413-1.529-1.82-3.473-1.82-3.473s1.78,1.125,2.9,0.741"/>
		
			<path fill="none" stroke="#3E2670" stroke-width="0.9897" stroke-linecap="round" stroke-linejoin="round" stroke-miterlimit="10" d="
			M170.708,78.511c0.08-3.03-3.332-5.768-3.332-5.768s3.621,0.805,4.622,0.225"/>
		
			<path fill="none" stroke="#3E2670" stroke-width="0.9897" stroke-linecap="round" stroke-linejoin="round" stroke-miterlimit="10" d="
			M167.091,76.907c-2.379-1.807-3.249-5.733-3.249-5.733s1.969-1.007,3.949-0.246"/>
		
			<path fill="none" stroke="#3E2670" stroke-width="0.9897" stroke-linecap="round" stroke-linejoin="round" stroke-miterlimit="10" d="
			M161.658,75.056c-0.272-2.705-2.844-4.821-2.844-4.821s2.165-0.02,4.048-0.947"/>
		
			<path fill="none" stroke="#3E2670" stroke-width="0.9897" stroke-linecap="round" stroke-linejoin="round" stroke-miterlimit="10" d="
			M158.078,74.344c-1.929-0.564-3.516-5.131-3.516-5.131s1.887-0.973,3.751-0.894"/>
		
			<path fill="none" stroke="#3E2670" stroke-width="0.9897" stroke-linecap="round" stroke-linejoin="round" stroke-miterlimit="10" d="
			M150.484,72.915c-2.424-0.894-4.55-3.575-4.55-3.575s1.648-1.821,3.501-2.043"/>
		
			<path fill="none" stroke="#3E2670" stroke-width="0.9897" stroke-linecap="round" stroke-linejoin="round" stroke-miterlimit="10" d="
			M152.949,73.544c0.369-3.422-3.076-4.459-3.076-4.459s2.602-0.351,3.603-1.354"/>
		
			<path fill="none" stroke="#3E2670" stroke-width="0.9897" stroke-linecap="round" stroke-linejoin="round" stroke-miterlimit="10" d="
			M176.442,76.707c-1.927-1.092-4.674-1.362-4.674-1.362s0.425,2.429,1.932,3.847"/>
	</g>
	<g>
		
			<path fill="none" stroke="#3E2670" stroke-width="0.9897" stroke-linecap="round" stroke-linejoin="round" stroke-miterlimit="10" d="
			M186.877,78.769c0.48-1.508-1.665-3.553-1.665-3.553s1.728,1.206,2.865,0.874"/>
		
			<path fill="none" stroke="#3E2670" stroke-width="0.9897" stroke-linecap="round" stroke-linejoin="round" stroke-miterlimit="10" d="
			M181.245,76.232c0.214-3.024-3.074-5.915-3.074-5.915s3.582,0.971,4.607,0.437"/>
		
			<path fill="none" stroke="#3E2670" stroke-width="0.9897" stroke-linecap="round" stroke-linejoin="round" stroke-miterlimit="10" d="
			M177.702,74.463c-2.297-1.915-2.993-5.877-2.993-5.877s2.011-0.916,3.956-0.064"/>
		
			<path fill="none" stroke="#3E2670" stroke-width="0.9897" stroke-linecap="round" stroke-linejoin="round" stroke-miterlimit="10" d="
			M172.357,72.363c-0.153-2.715-2.825-5.478-2.825-5.478s2.361,0.61,4.283-0.229"/>
		
			<path fill="none" stroke="#3E2670" stroke-width="0.9897" stroke-linecap="round" stroke-linejoin="round" stroke-miterlimit="10" d="
			M168.812,71.487c-1.902-0.652-3.117-5.809-3.117-5.809s1.12-0.564,2.979-0.399"/>
		
			<path fill="none" stroke="#3E2670" stroke-width="0.9897" stroke-linecap="round" stroke-linejoin="round" stroke-miterlimit="10" d="
			M161.288,69.711c-1.979-0.339-3.973-5.237-3.973-5.237s1.019-0.736,2.88-0.872"/>
		
			<path fill="none" stroke="#3E2670" stroke-width="0.9897" stroke-linecap="round" stroke-linejoin="round" stroke-miterlimit="10" d="
			M163.878,69.915c0.52-3.401-3.094-4.806-3.094-4.806s2.678,0.516,3.722-0.439"/>
		
			<path fill="none" stroke="#3E2670" stroke-width="0.9897" stroke-linecap="round" stroke-linejoin="round" stroke-miterlimit="10" d="
			M187.052,74.694c-1.876-1.18-4.609-1.576-4.609-1.576s0.317,2.447,1.76,3.932"/>
	</g>
	<g>
		
			<path fill="none" stroke="#3E2670" stroke-width="0.9222" stroke-linecap="round" stroke-linejoin="round" stroke-miterlimit="10" d="
			M194.344,74.255c0.415-1.303-1.438-3.07-1.438-3.07s1.493,1.042,2.475,0.755"/>
		
			<path fill="none" stroke="#3E2670" stroke-width="0.9222" stroke-linecap="round" stroke-linejoin="round" stroke-miterlimit="10" d="
			M189.477,72.063c0.185-2.612-2.684-4.638-2.684-4.638s2.615,0.844,3.501,0.383"/>
		
			<path fill="none" stroke="#3E2670" stroke-width="0.9222" stroke-linecap="round" stroke-linejoin="round" stroke-miterlimit="10" d="
			M186.417,70.534c-1.985-1.655-3.062-4.512-3.062-4.512s2.071-0.864,3.751-0.128"/>
		
			<path fill="none" stroke="#3E2670" stroke-width="0.9222" stroke-linecap="round" stroke-linejoin="round" stroke-miterlimit="10" d="
			M181.798,68.719c-0.132-2.346-2.82-3.815-2.82-3.815s2.278,0.215,3.939-0.511"/>
		
			<path fill="none" stroke="#3E2670" stroke-width="0.9222" stroke-linecap="round" stroke-linejoin="round" stroke-miterlimit="10" d="
			M194.496,70.734c-1.621-1.02-3.982-1.362-3.982-1.362s0.274,2.114,1.521,3.398"/>
	</g>
	<g>
		
			<path fill="none" stroke="#3E2670" stroke-width="0.2628" stroke-linecap="round" stroke-linejoin="round" stroke-miterlimit="10" d="
			M202.116,74.517c0.319-1.092-1.257-2.522-1.257-2.522s1.262,0.835,2.072,0.576"/>
		
			<path fill="none" stroke="#3E2670" stroke-width="0.4303" stroke-linecap="round" stroke-linejoin="round" stroke-miterlimit="10" d="
			M197.561,72.891c0.46-2.127-1.582-4.531-1.582-4.531s2.447,1.071,3.23,0.8"/>
		
			<path fill="none" stroke="#3E2670" stroke-width="0.3555" stroke-linecap="round" stroke-linejoin="round" stroke-miterlimit="10" d="
			M202.172,71.587c-1.368-0.814-3.337-1.049-3.337-1.049s0.27,1.751,1.332,2.793"/>
	</g>
	<path fill="#D0C5B7" stroke="#3E2670" stroke-width="2.4" stroke-miterlimit="10" d="M153.34,216.553
		c0,0,15.169-32.24,8.555-43.297c-2.493-4.167-15.951-14.684-11.218-9.335C164.925,180.023,153.34,216.553,153.34,216.553z"/>
	<path fill="#D0C5B7" stroke="#3E2670" stroke-width="2.4" stroke-miterlimit="10" d="M160.984,213.846
		c0,0,11.56-24.55,7.449-39.676c-1.274-4.686-5.195-3.391-4.155,3.668C166.448,192.572,160.984,213.846,160.984,213.846z"/>
	<path fill="#D0C5B7" stroke="#3E2670" stroke-width="2.4" stroke-miterlimit="10" d="M168.159,211.036
		c0,0,6.273-16.511,5.521-28.744c-0.298-4.847-4.547-7.403-3.638-0.326C171.526,193.523,168.159,211.036,168.159,211.036z"/>
	<g>
		
			<path fill="none" stroke="#3E2670" stroke-width="0.9897" stroke-linecap="round" stroke-linejoin="round" stroke-miterlimit="10" d="
			M123.352,160.468c1.569,1.486,1.018,4.583,1.018,4.583s0.334-2.717,1.795-3.942"/>
		
			<path fill="none" stroke="#3E2670" stroke-width="0.9897" stroke-linecap="round" stroke-linejoin="round" stroke-miterlimit="10" d="
			M122.072,165.363c1.514,0.513,2.933,4.505,2.933,4.505s0.232-3.887,0.999-4.763"/>
		
			<path fill="none" stroke="#3E2670" stroke-width="0.9897" stroke-linecap="round" stroke-linejoin="round" stroke-miterlimit="10" d="
			M122.514,170.169c0.99,2.092,3.293,4.023,3.293,4.023s1.74-2.825,1.294-4.937"/>
		
			<path fill="none" stroke="#3E2670" stroke-width="0.9897" stroke-linecap="round" stroke-linejoin="round" stroke-miterlimit="10" d="
			M124.572,176.033c2.581,0.471,4.022,4.036,4.022,4.036s-1.345-3.965-0.264-6.093"/>
		
			<path fill="none" stroke="#3E2670" stroke-width="0.8315" stroke-linecap="round" stroke-linejoin="round" stroke-miterlimit="10" d="
			M126.753,181.008c1.091,1.312,3.799,2.491,3.799,2.491s0.622-2.637-0.083-4.066"/>
		
			<path fill="none" stroke="#3E2670" stroke-width="0.862" stroke-linecap="round" stroke-linejoin="round" stroke-miterlimit="10" d="
			M128.414,189.233c0.25,1.746,2.003,4.251,2.003,4.251s1.988-1.988,2.144-3.629"/>
		
			<path fill="none" stroke="#3E2670" stroke-width="0.8419" stroke-linecap="round" stroke-linejoin="round" stroke-miterlimit="10" d="
			M127.003,198.428c-0.252,1.705,0.691,4.54,0.691,4.54s2.414-1.308,3.016-2.802"/>
		
			<path fill="none" stroke="#3E2670" stroke-width="0.9897" stroke-linecap="round" stroke-linejoin="round" stroke-miterlimit="10" d="
			M127.912,184.27c2.121,1.758,2.487,5.195,2.487,5.195s1.008-3.858,2.547-4.578"/>
		
			<path fill="none" stroke="#3E2670" stroke-width="0.8419" stroke-linecap="round" stroke-linejoin="round" stroke-miterlimit="10" d="
			M127.824,193.83c1.436,1.852,1.107,4.775,1.107,4.775s1.548-3.021,2.957-3.336"/>
	</g>
	
		<path fill="none" stroke="#3E2670" stroke-width="0.735" stroke-linecap="round" stroke-linejoin="round" stroke-miterlimit="10" d="
		M136.245,186.096c1.236,0.983,1.005,3.333,1.005,3.333s0.093-2.051,1.097-3.079"/>
	
		<path fill="none" stroke="#3E2670" stroke-width="0.735" stroke-linecap="round" stroke-linejoin="round" stroke-miterlimit="10" d="
		M135.571,189.429c0.997,0.618,1.337,3.77,1.337,3.77s0.825-2.809,1.522-3.328"/>
	
		<path fill="none" stroke="#3E2670" stroke-width="0.735" stroke-linecap="round" stroke-linejoin="round" stroke-miterlimit="10" d="
		M135.621,192.962c0.247,1.714,1.451,3.586,1.451,3.586s1.83-1.672,1.97-3.288"/>
	
		<path fill="none" stroke="#3E2670" stroke-width="0.8864" stroke-linecap="round" stroke-linejoin="round" stroke-miterlimit="10" d="
		M151.796,188.444c1.392,1.318,0.831,4.059,0.831,4.059s0.357-2.405,1.704-3.487"/>
	
		<path fill="none" stroke="#3E2670" stroke-width="0.8864" stroke-linecap="round" stroke-linejoin="round" stroke-miterlimit="10" d="
		M150.775,192.027c1.144,0.858,1.184,4.616,1.184,4.616s1.341-3.204,2.254-3.725"/>
	
		<path fill="none" stroke="#3E2670" stroke-width="0.756" stroke-linecap="round" stroke-linejoin="round" stroke-miterlimit="10" d="
		M144.218,186.805c1.313,0.974,1.117,3.352,1.117,3.352s0.057-2.073,1.088-3.126"/>
	
		<path fill="none" stroke="#3E2670" stroke-width="0.756" stroke-linecap="round" stroke-linejoin="round" stroke-miterlimit="10" d="
		M143.591,189.688c1.056,0.61,1.473,3.788,1.473,3.788s0.809-2.85,1.529-3.384"/>
	
		<path fill="none" stroke="#3E2670" stroke-width="0.6497" stroke-linecap="round" stroke-linejoin="round" stroke-miterlimit="10" d="
		M143.607,193.839c0.251,1.485,1.366,3.095,1.366,3.095s1.619-1.475,1.718-2.879"/>
</g>
</svg>
