<?xml version="1.0" encoding="utf-8"?>
<!-- Generator: Adobe Illustrator 23.0.1, SVG Export Plug-In . SVG Version: 6.00 Build 0)  -->
<svg version="1.1" id="Fakial_hair" xmlns="http://www.w3.org/2000/svg" xmlns:xlink="http://www.w3.org/1999/xlink" x="0px"
	 y="0px" width="450px" height="378px" viewBox="0 0 450 378" enable-background="new 0 0 450 378" xml:space="preserve">
<path fill="#F4EDC9" stroke="#3E2670" stroke-width="3" stroke-linejoin="round" stroke-miterlimit="10" d="M164.192,184.328
	c0,0,46.871,12.826,62.848-4.401c2.172-2.342,4.318-7.283,4.318-7.283l4.78-1.661c0,0,4.143,2.73,7.808,2.62
	c8.854-0.265,13.212-12.313,13.212-12.313s-1.006,18.205-18.789,27.585C194.308,212.118,164.192,184.328,164.192,184.328z"/>
<path opacity="0.6" fill="#FFFFFF" d="M237.023,186.79c-0.199-0.002-0.402-0.043-0.596-0.13c-0.757-0.337-1.098-1.223-0.761-1.98
	c0.049-0.118,1.335-3.359-1.548-8.357c-0.414-0.718-0.168-1.635,0.55-2.049c0.718-0.413,1.636-0.168,2.049,0.55
	c3.694,6.404,1.774,10.888,1.691,11.076C238.157,186.462,237.602,186.795,237.023,186.79z"/>
<path opacity="0.6" fill="#FFFFFF" d="M225.234,192.306c-0.585-0.005-1.138-0.353-1.375-0.929c-0.316-0.765,0.049-1.642,0.815-1.958
	c0.267-0.112,6.634-2.852,5.978-8.947c-0.089-0.824,0.507-1.564,1.332-1.652c0.822-0.088,1.563,0.507,1.652,1.331
	c0.718,6.68-4.8,10.798-7.819,12.042C225.626,192.271,225.428,192.307,225.234,192.306z"/>
<path opacity="0.6" fill="#FFFFFF" d="M242.499,183.772c-0.053,0-0.105-0.003-0.159-0.01c-0.822-0.093-1.414-0.837-1.321-1.66
	c0.086-0.773,0.136-3.111-0.641-4.585c-0.387-0.733-0.106-1.64,0.627-2.026c0.732-0.385,1.641-0.106,2.026,0.627
	c1.35,2.558,1.012,5.945,0.97,6.323C243.913,183.211,243.257,183.778,242.499,183.772z"/>
</svg>
