<?xml version="1.0" encoding="utf-8"?>
<!-- Generator: Adobe Illustrator 23.0.1, SVG Export Plug-In . SVG Version: 6.00 Build 0)  -->
<svg version="1.1" id="Fakial_hair" xmlns="http://www.w3.org/2000/svg" xmlns:xlink="http://www.w3.org/1999/xlink" x="0px"
	 y="0px" width="450px" height="378px" viewBox="0 0 450 378" enable-background="new 0 0 450 378" xml:space="preserve">
<path fill="#453823" stroke="#3E2670" stroke-width="3" stroke-linecap="round" stroke-linejoin="round" stroke-miterlimit="10" d="
	M164.234,184.723c0,0,46.979,12.426,62.809-4.936c2.152-2.361,4.255-7.319,4.255-7.319l4.766-1.702c0,0,4.166,2.694,7.83,2.553
	c8.851-0.34,13.106-12.426,13.106-12.426s-0.851,18.213-18.553,27.745C194.586,212.255,164.234,184.723,164.234,184.723z"/>
<path fill="none" stroke="#6A604F" stroke-width="3" stroke-linecap="round" stroke-miterlimit="10" d="M235.383,175.362
	c3.404,5.787,1.702,9.702,1.702,9.702"/>
<path fill="none" stroke="#6A604F" stroke-width="3" stroke-linecap="round" stroke-miterlimit="10" d="M232.149,180.128
	c0.851,7.319-6.809,10.553-6.809,10.553"/>
<path fill="none" stroke="#6A604F" stroke-width="3" stroke-linecap="round" stroke-miterlimit="10" d="M241.681,176.553
	c1.191,2.213,0.851,5.447,0.851,5.447"/>
</svg>
