<?xml version="1.0" encoding="utf-8"?>
<!-- Generator: Adobe Illustrator 23.0.1, SVG Export Plug-In . SVG Version: 6.00 Build 0)  -->
<svg version="1.1" id="Fakial_hair" xmlns="http://www.w3.org/2000/svg" xmlns:xlink="http://www.w3.org/1999/xlink" x="0px"
	 y="0px" width="450px" height="378px" viewBox="0 0 450 378" enable-background="new 0 0 450 378" xml:space="preserve">
<path fill="#DC4A26" stroke="#3E2670" stroke-width="4" stroke-linejoin="round" stroke-miterlimit="10" d="M164.234,184.723
	c0,0,46.979,12.426,62.809-4.936c2.152-2.361,4.255-7.319,4.255-7.319l4.766-1.702c0,0,4.166,2.694,7.83,2.553
	c8.851-0.34,13.106-12.426,13.106-12.426s-0.851,18.213-18.553,27.745C194.586,212.255,164.234,184.723,164.234,184.723z"/>
<path opacity="0.4" fill="#FFFFFF" d="M237.084,186.564c-0.199,0-0.402-0.04-0.597-0.125c-0.76-0.33-1.108-1.214-0.778-1.974
	c0.048-0.119,1.307-3.37-1.619-8.343c-0.42-0.714-0.182-1.634,0.532-2.054c0.715-0.419,1.635-0.182,2.054,0.532
	c3.748,6.372,1.867,10.873,1.785,11.061C238.215,186.227,237.663,186.564,237.084,186.564z"/>
<path opacity="0.4" fill="#FFFFFF" d="M225.342,192.181c-0.585,0-1.141-0.344-1.383-0.917c-0.322-0.763,0.035-1.643,0.798-1.965
	c0.266-0.114,6.61-2.909,5.902-8.998c-0.096-0.823,0.494-1.568,1.317-1.663c0.821-0.095,1.567,0.494,1.663,1.316
	c0.775,6.674-4.708,10.839-7.716,12.108C225.733,192.143,225.536,192.181,225.342,192.181z"/>
<path opacity="0.4" fill="#FFFFFF" d="M242.534,183.5c-0.053,0-0.105-0.002-0.159-0.008c-0.823-0.086-1.421-0.825-1.335-1.648
	c0.079-0.774,0.109-3.112-0.68-4.579c-0.394-0.729-0.12-1.639,0.609-2.032c0.729-0.391,1.64-0.12,2.031,0.61
	c1.372,2.547,1.063,5.937,1.023,6.314C243.943,182.927,243.292,183.5,242.534,183.5z"/>
</svg>
