<svg width="450" height="378" viewBox="0 0 450 378" fill="none" xmlns="http://www.w3.org/2000/svg">
<path d="M164.192 184.328C164.192 184.328 211.063 197.154 227.04 179.927C229.212 177.585 231.358 172.644 231.358 172.644L236.138 170.983C236.138 170.983 240.281 173.713 243.946 173.603C252.8 173.338 257.158 161.29 257.158 161.29C257.158 161.29 256.152 179.495 238.369 188.875C194.308 212.118 164.192 184.328 164.192 184.328Z" fill="#9C1F00" stroke="#3E2670" stroke-width="3" stroke-miterlimit="10" stroke-linejoin="round"/>
<path opacity="0.6" d="M237.023 186.79C236.824 186.788 236.621 186.747 236.427 186.66C235.67 186.323 235.329 185.437 235.666 184.68C235.715 184.562 237.001 181.321 234.118 176.323C233.704 175.605 233.95 174.688 234.668 174.274C235.386 173.861 236.304 174.106 236.717 174.824C240.411 181.228 238.491 185.712 238.408 185.9C238.157 186.462 237.602 186.795 237.023 186.79Z" fill="#CC6C55"/>
<path opacity="0.6" d="M225.234 192.306C224.649 192.301 224.096 191.953 223.859 191.377C223.543 190.612 223.908 189.735 224.674 189.419C224.941 189.307 231.308 186.567 230.652 180.472C230.563 179.648 231.159 178.908 231.984 178.82C232.806 178.732 233.547 179.327 233.636 180.151C234.354 186.831 228.836 190.949 225.817 192.193C225.626 192.271 225.428 192.307 225.234 192.306Z" fill="#DA725A"/>
<path opacity="0.6" d="M242.499 183.772C242.446 183.772 242.394 183.769 242.34 183.762C241.518 183.669 240.926 182.925 241.019 182.102C241.105 181.329 241.155 178.991 240.378 177.517C239.991 176.784 240.272 175.877 241.005 175.491C241.737 175.106 242.646 175.385 243.031 176.118C244.381 178.676 244.043 182.063 244.001 182.441C243.913 183.211 243.257 183.778 242.499 183.772Z" fill="#D37159"/>
</svg>
