<svg width="450" height="378" viewBox="0 0 450 378" fill="none" xmlns="http://www.w3.org/2000/svg">
<path d="M248.473 142.796L251.569 139.228C251.569 139.228 244.858 140.299 236.495 139.558C228.714 138.868 224.457 143.652 224.457 143.652C224.457 143.652 217.179 143.047 210.776 150.351C204.827 157.137 202.043 159.832 202.043 159.832L206.99 160.361L201.619 165.259C201.619 165.259 206.295 166.366 211.503 162.691C220.743 156.171 226.072 147.221 226.072 147.221C226.072 147.221 237.666 151.123 248.041 148.025C252.067 146.823 255.398 143.074 255.398 143.074L248.473 142.796Z" fill="#FFE896" stroke="#3E2670" stroke-width="2.9473" stroke-miterlimit="10" stroke-linecap="round"/>
<path d="M230.787 177.596L234.711 177.106L235.097 171.905L238.679 175.192L240.871 173.064C240.871 173.064 244.345 179.2 239.904 182.168C234.617 185.702 230.787 177.596 230.787 177.596Z" fill="#FFE896" stroke="#3E2670" stroke-width="2.4852" stroke-miterlimit="10" stroke-linecap="round"/>
</svg>
