<svg width="451" height="378" viewBox="0 0 451 378" fill="none" xmlns="http://www.w3.org/2000/svg">
<path d="M1 0H451V378H1V0Z" fill="#1B003D"/>
<path fill-rule="evenodd" clip-rule="evenodd" d="M440.348 35.9564C453.138 39.9044 447.217 58.5334 434.894 54.9974C422.25 51.3684 427.879 32.1094 440.348 35.9564ZM431.877 12.3954C444.84 16.6374 438.272 34.9874 426.188 31.3444C421.807 30.0244 417.708 25.0554 419.531 18.9504C420.834 14.5844 425.782 10.4004 431.877 12.3954ZM406.559 22.8314C416.79 24.5254 414.132 39.6944 403.998 37.9174C400.216 37.2544 397.105 33.5244 397.913 28.9364C398.54 25.3804 402.155 22.1034 406.559 22.8314ZM416.246 46.9354C426.011 50.3604 420.786 64.1464 411.63 61.1344C402.166 58.0204 407.1 43.7294 416.246 46.9354ZM424.339 70.4974C434.217 73.2284 429.804 87.4104 420.441 84.7134C411.175 82.0444 415.271 67.9914 424.339 70.4974ZM399.1 0.473419C408.414 4.04043 403.012 16.7194 394.361 13.7054C391.37 12.6624 388.846 8.87944 390.145 4.83743C391.136 1.75443 394.811 -1.17058 399.1 0.473419ZM432.375 94.8344C441.276 96.7994 437.973 109.599 429.53 107.597C421.54 105.703 423.992 92.9854 432.375 94.8344ZM441.218 118.767C448.314 120.6 446.109 132.481 438.023 130.336C430.838 128.431 433.264 116.713 441.218 118.767ZM392.123 57.3214C398.834 59.0994 396.465 69.7554 389.102 67.7684C382.603 66.0144 384.866 55.3994 392.123 57.3214ZM374.348 10.6044C381.424 12.3654 378.596 22.4984 371.776 20.6494C365.528 18.9544 367.777 8.96943 374.348 10.6044ZM383.718 34.1124C390.063 36.4684 386.479 46.2794 379.878 43.8144C374.133 41.6694 376.84 31.5584 383.718 34.1124ZM400.62 81.4644C407.234 83.5825 403.887 92.9624 397.541 90.9074C391.946 89.0954 394.219 79.4134 400.62 81.4644ZM409.641 105.553C415.665 108.457 411.448 116.491 405.877 114.171C400.344 111.866 403.814 102.745 409.641 105.553ZM417.484 129.367C422.687 131.1 419.977 138.406 415.138 136.872C410.844 135.51 412.216 127.612 417.484 129.367ZM368.023 67.5594C372.893 68.9764 370.769 75.9814 366.052 74.7374C361.641 73.5724 363.109 66.1294 368.023 67.5594ZM360.22 44.4834C361.935 45.4514 362.753 47.0274 361.739 49.1364C361.039 50.5934 358.817 51.8374 356.667 50.6854C352.858 48.6434 355.585 41.8684 360.22 44.4834ZM377.093 91.6075C381.362 93.7645 378.336 99.7375 374.116 97.9355C369.945 96.1545 372.849 89.4614 377.093 91.6075ZM351.516 21.1714C355.756 23.2864 352.415 29.2294 348.365 27.3504C344.589 25.5994 346.834 18.8364 351.516 21.1714ZM385.241 115.386C389.563 117.235 387.054 122.754 383.015 121.453C379.193 120.223 381.064 113.6 385.241 115.386ZM428.143 157.527C427.472 161.099 420.917 160.706 421.716 156.109C422.412 152.102 429.001 152.954 428.143 157.527ZM395.47 142.257C394.952 145.39 389.477 145.041 390.027 141.192C390.528 137.68 396.085 138.543 395.47 142.257ZM435.848 181.158C435.145 183.79 430.025 183.056 431.187 179.41C431.992 176.883 436.753 177.765 435.848 181.158ZM344.682 77.8644C345.272 78.2484 345.394 77.8494 345.699 79.1154C345.862 79.7864 345.743 80.3404 345.475 80.8434C344.985 81.7624 343.489 82.4544 342.118 81.5964C339.807 80.1484 341.778 75.9694 344.682 77.8644ZM403.621 165.525C403.44 168.188 398.873 168.537 399.001 165.189C399.114 162.223 403.834 162.381 403.621 165.525ZM327.277 30.9094C329.879 32.2744 327.885 35.7884 325.386 34.6994C322.949 33.6374 324.479 29.4414 327.277 30.9094ZM352.948 101.536C353.042 101.59 355.129 102.313 353.814 104.462C353.352 105.219 352.116 105.827 350.932 105.122C348.846 103.88 350.345 100.046 352.948 101.536ZM336.829 56.8554C335.692 58.7294 334.068 58.7364 332.925 56.8644C331.836 52.9594 337.929 53.0024 336.829 56.8554ZM361.759 125.558C363.904 127.43 361.137 129.956 359.243 128.441C357.564 127.098 359.484 123.572 361.759 125.558ZM319.487 10.1894L318.749 10.8464C317.348 11.1694 316.795 10.8474 316.028 10.2984L316.075 7.59143C318.513 6.79043 320.097 7.32742 319.487 10.1894ZM443.798 204.657C441.316 206.838 438.834 204.942 440.937 201.885C443.209 201.611 444.25 202.331 443.798 204.657ZM367.885 148.766C371.158 148.002 371.625 150.689 370.116 151.687C368.237 152.931 366.88 151.097 367.885 148.766ZM410.783 190.473C407.338 191.107 407.792 188.169 408.902 187.502C410.77 186.379 412.593 188.23 410.783 190.473ZM338.434 134.912L338.094 136.668C333.485 138.262 335.786 131.394 338.434 134.912ZM318.465 87.2574C319.097 86.9504 319.646 86.5565 320.428 86.9265C320.885 87.1425 321.501 87.8005 321.278 88.6855C320.97 89.9055 318.105 91.0005 318.465 87.2574ZM376.461 174.856C375.733 172.14 378.181 171.666 378.987 173.061C379.835 174.53 378.496 175.97 376.461 174.856ZM419.103 211.138C419.967 212.07 420.331 212.215 419.434 213.722C416.282 214.737 415.715 210.809 419.103 211.138ZM303.671 42.6554L301.727 42.7304C299.692 38.8634 305.705 38.8614 303.671 42.6554ZM329.749 110.976C329.954 112.904 329.326 113.629 327.351 113.069C325.983 110.324 328.673 109.791 329.749 110.976ZM312.676 65.1834C311.449 66.6814 309.809 66.5364 309.844 64.0924C311.075 62.6114 312.809 62.7434 312.676 65.1834ZM426.147 234.961C428.109 233.999 428.653 235.872 427.868 236.678C427.076 237.49 424.99 237.23 426.147 234.961ZM355.077 183.193C352.126 184.814 352.103 180.238 354.879 181.508C355.482 182.631 355.338 181.918 355.077 183.193ZM344.496 158.033C347.448 156.431 347.459 160.983 344.698 159.729C344.093 158.61 344.233 159.318 344.496 158.033ZM387.012 198.376C384.498 199.424 383.933 195.684 387.127 196.547C387.415 197.34 387.345 196.753 387.337 197.525C387.319 199.29 387.423 197.638 387.012 198.376ZM295.111 18.5234C294.358 18.8864 293.946 18.8924 293.173 18.5504L293 16.8524C294.566 16.2454 295.614 16.4634 295.111 18.5234Z" fill="#3D2346"/>
<path fill-rule="evenodd" clip-rule="evenodd" d="M434.991 0.0276939C434.986 5.00337 430.956 9.03283 425.991 9.02774C421.025 9.02266 417.004 4.98495 417.009 0.00927734L426 0.0184905C427.963 0.0205008 429.077 0.018035 429.984 0.0160272C431.372 0.0129559 432.275 0.0109568 434.991 0.0276939ZM451 96.001V100.501V102.574C448.087 101.545 446 98.7665 446 95.501C446 92.2354 448.087 89.4573 451 88.4277V88.5011V96.001ZM451 178.829V176V173.171C450.687 173.06 450.351 173 450 173C448.343 173 447 174.343 447 176C447 177.657 448.343 179 450 179C450.351 179 450.687 178.94 451 178.829ZM450 152.5C450 154.985 447.985 157 445.5 157C443.015 157 441 154.985 441 152.5C441 150.015 443.015 148 445.5 148C447.985 148 450 150.015 450 152.5ZM451 79.446V70.5V61.554C449.4 60.5685 447.517 60 445.5 60C439.701 60 435 64.701 435 70.5C435 76.299 439.701 81 445.5 81C447.517 81 449.4 80.4315 451 79.446Z" fill="#3D2346"/>
<path fill-rule="evenodd" clip-rule="evenodd" d="M68.2727 156.737C87.0134 160.664 80.6424 188.086 62.5142 184.029C44.7753 180.06 50.4578 153.003 68.2727 156.737ZM117.55 204.202C135.912 207.345 130.542 234.235 112.859 230.931C106.246 229.696 100.503 223.29 102.039 214.983C103.234 208.52 109.517 202.827 117.55 204.202ZM139.88 261.837C157.383 266.701 149.998 292.561 132.691 287.892C126.585 286.246 120.986 279.494 123.251 271.277C124.966 265.05 131.497 259.508 139.88 261.837ZM131.104 329.621C149.168 332.958 143.684 359.657 126.05 356.158C109.133 352.801 113.457 326.362 131.104 329.621ZM108.031 176.137C125.071 180.6 118.288 205.749 101.647 201.37C95.5989 199.778 90.2075 193.378 92.3257 185.447C93.9157 179.492 100.128 174.067 108.031 176.137ZM149.458 290.962C166.5 294.763 160.798 320.144 143.855 316.294C137.687 314.894 132.431 308.519 134.14 300.734C135.461 294.718 141.846 289.266 149.458 290.962ZM18.6456 110.955C36.133 114.738 29.7164 140.054 13.1487 136.111C7.11341 134.674 1.84262 128.683 3.55628 120.801C4.86433 114.784 10.8915 109.278 18.6456 110.955ZM58.0343 129.688C74.7318 133.802 68.3548 158.26 51.9433 154.197C46.1178 152.756 40.9322 146.682 42.871 138.728C44.2926 132.896 50.3107 127.784 58.0343 129.688ZM96.3563 148.271C112.496 151.484 107.47 174.391 92.2983 171.611C86.5276 170.554 81.5155 164.82 82.8175 157.705C83.8122 152.271 89.592 146.925 96.3563 148.271ZM159.972 321.211C174.847 324.782 169.765 347.238 154.482 343.741C149.089 342.507 144.228 336.606 146.028 329.497C147.379 324.165 153.145 319.574 159.972 321.211ZM157.156 224.667C172.739 228.869 165.814 250.098 151.94 246.473C146.826 245.137 142.158 239.783 143.813 232.812C145.036 227.664 150.796 222.952 157.156 224.667ZM167.89 253.859C182.517 257.76 175.951 278.994 162.139 274.906C148.494 270.866 154.171 250.201 167.89 253.859ZM146.946 196.665C161.363 200.563 155.239 221.395 141.317 217.596C127.798 213.908 133.077 192.914 146.946 196.665ZM46.5904 102.554C60.8837 105.398 56.632 126.469 42.5039 123.688C37.3853 122.681 32.8071 117.471 34.108 110.917C35.118 105.831 40.3776 101.317 46.5904 102.554ZM177.765 283.061C191.68 286.319 186.707 306.055 173.608 303.397C168.572 302.375 164.094 297.295 165.54 290.848C166.59 286.175 171.702 281.643 177.765 283.061ZM135.268 168.071C148.913 170.126 145.882 190.553 132.205 188.524C127.084 187.764 122.747 182.912 123.578 176.754C124.259 171.708 129.347 167.178 135.268 168.071ZM86.9373 121.318C100.817 126.09 93.4431 144.988 80.7773 140.967C76.1565 139.501 72.1441 134.064 74.1832 127.845C75.616 123.474 80.7915 119.205 86.9373 121.318ZM169.933 351.278C182.706 354.4 178.385 373.284 165.47 370.54C160.94 369.577 156.835 364.704 158.068 358.816C159.085 353.959 164.066 349.846 169.933 351.278ZM125.466 140.61C129.968 141.689 133.632 146.135 132.289 151.687C131.258 155.952 126.62 159.71 121.129 158.389C109.673 155.634 113.648 137.78 125.466 140.61ZM188.098 313.167C199.989 315.83 195.802 333.772 183.899 330.833C172.661 328.056 176.395 310.546 188.098 313.167ZM36.0641 75.4462C47.9288 78.0085 44.0766 95.7058 32.2129 93.1607C20.7233 90.6965 24.3514 72.9163 36.0641 75.4462ZM75.6181 94.0644C87.4849 97.1873 82.565 114.377 71.0804 111.229C60.0674 108.212 64.4773 91.1317 75.6181 94.0644ZM175.316 188.47C185.978 191.227 182.164 207.685 170.945 204.883C160.603 202.299 164.072 185.561 175.316 188.47ZM196.423 245.851C207.104 249.072 202.815 264.912 191.816 262.134C181.27 259.468 185.371 242.519 196.423 245.851ZM185.414 216.934C196.678 219.515 192.401 235.923 181.604 233.316C170.976 230.751 174.654 214.469 185.414 216.934ZM114.565 112.797C125.621 115.541 121.298 131.016 110.937 128.585C100.613 126.16 104.429 110.28 114.565 112.797ZM199.129 342.961C209.426 346.461 203.92 361.663 193.639 357.917C184.37 354.541 189.07 339.541 199.129 342.961ZM206.861 275.437C216.52 278.298 212.151 293.262 202.082 290.039C193.094 287.163 196.687 272.424 206.861 275.437ZM164.538 160.595C174.517 163.389 170.28 177.598 160.751 175.157C151.266 172.728 154.963 157.915 164.538 160.595ZM217.268 304.887C226.609 308.377 221.42 321.108 212.79 318.351C204.011 315.545 208.281 301.53 217.268 304.887ZM154.747 132.692C163.111 136.064 158.465 148.727 149.628 145.477C141.897 142.635 145.705 129.047 154.747 132.692ZM25.2244 48.9165C34.2956 51.077 30.9423 64.184 22.0364 62.0902C13.6283 60.1129 16.4148 46.8176 25.2244 48.9165ZM65.2418 67.6004C74.0514 70.8599 68.9805 82.9914 60.7833 80.1994C52.7251 77.4549 56.7577 64.4613 65.2418 67.6004ZM104.783 86.2621C113.206 89.7696 107.94 101.325 99.9712 98.3015C92.1766 95.3445 96.5906 82.8507 104.783 86.2621ZM213.434 208.479C222.154 210.567 218.662 222.906 210.545 220.853C202.47 218.809 205.564 206.594 213.434 208.479ZM224.715 238.006C227.497 239.014 229.948 241.346 228.541 245.542C227.666 248.15 224.703 250.331 220.924 249.043C213.908 246.651 217.33 235.328 224.715 238.006ZM203.441 180.728C211.163 183.581 207.208 194.101 199.729 191.792C192.915 189.688 195.815 177.911 203.441 180.728ZM235.735 267.027C242.082 269.707 238.776 280.703 231.025 277.587C224.706 275.046 228.022 263.769 235.735 267.027ZM193.374 152.246C200.597 155.366 195.812 165.56 188.858 162.658C182.586 160.042 186.05 149.084 193.374 152.246ZM226.933 334.625C234.919 337.18 230.595 347.817 223.562 345.395C217.266 343.227 219.701 332.312 226.933 334.625ZM143.86 105.054C150.672 107.727 146.681 118.139 139.71 115.462C133.27 112.989 136.566 102.193 143.86 105.054ZM53.8161 39.9636C60.7295 41.7639 58.1347 51.7419 51.3511 50.1622C44.61 48.5916 47.215 38.2443 53.8161 39.9636ZM93.939 58.5635C100.161 60.972 96.8552 70.778 90.0513 68.325C84.2685 66.2413 86.8907 55.8343 93.939 58.5635ZM15.0723 22.3058C21.934 25.0391 17.4217 34.5475 11.1167 31.7403C5.72221 29.3379 8.61716 19.7344 15.0723 22.3058ZM245.16 296.227C251.176 297.724 249.355 307.696 242.571 305.99C236.437 304.449 238.452 294.559 245.16 296.227ZM181.743 123.846C188.415 125.397 185.97 134.934 179.51 133.38C173.456 131.926 175.369 122.364 181.743 123.846ZM237.292 364.307C243.889 366.468 240.231 375.486 234.211 373.309C229.187 371.491 231.108 362.28 237.292 364.307ZM132.665 77.459C139.232 80.0102 135.215 88.1342 129.574 86.1295C124.058 84.1683 127.001 75.259 132.665 77.459ZM255.992 325.703C261.454 328.367 257.816 335.396 252.739 333.566C247.849 331.803 250.494 323.022 255.992 325.703ZM171.812 96.1257C173.481 96.91 175.434 98.089 174.088 101.548C173.444 103.203 171.174 104.683 168.492 103.565C163.868 101.637 166.595 93.6737 171.812 96.1257ZM232.108 172.159C236.924 174.269 234.063 181.125 229.221 179.603C224.384 178.082 226.903 169.878 232.108 172.159ZM252.966 229.402C257.918 231.526 254.972 238.428 250.085 236.852C245.322 235.317 247.888 227.224 252.966 229.402ZM83.4644 31.292C88.5394 34.4443 83.5495 40.8076 79.1954 37.8921C75.398 35.349 78.8253 28.411 83.4644 31.292ZM242.129 200.645C247.442 202.685 244.393 209.165 239.912 207.962C235.09 206.666 237.23 198.763 242.129 200.645ZM43.5544 13.4359C48.1124 15.7675 44.9234 21.4577 40.8075 19.9044C36.5609 18.3014 39.1659 11.1913 43.5544 13.4359ZM263.467 258.824C268.034 261.229 264.257 267.153 260.14 264.949C256.232 262.857 259.343 256.653 263.467 258.824ZM266.605 355.518C267.387 356.01 267.878 355.806 268.29 357.497C269.035 360.559 265.937 362.869 263.303 361.6C259.249 359.648 262.246 352.775 266.605 355.518ZM161.362 68.4474C165.34 70.3489 162.502 76.3408 158.213 74.3836C154.71 72.7837 156.817 66.2747 161.362 68.4474ZM221.234 143.923C225.56 145.812 223.164 151.469 218.859 150.129C214.915 148.901 216.789 141.981 221.234 143.923ZM122.027 49.9972C123.477 50.6823 125.109 51.7328 123.875 54.5187C123.244 55.9436 121.024 56.9565 119.014 55.8596C115.556 53.9712 118.25 48.2131 122.027 49.9972ZM273.637 287.704C275.104 288.387 276.684 289.495 275.424 292.238C274.791 293.616 272.633 294.679 270.607 293.573C267.295 291.765 269.636 285.843 273.637 287.704ZM210.712 115.432C214.818 117.326 211.9 122.295 208.453 120.932C204.929 119.539 207.087 113.759 210.712 115.432ZM281.435 220.068C284.683 221.607 282.674 226.721 279.101 225.197C275.995 223.872 277.888 218.389 281.435 220.068ZM72.5203 4.13693C75.5237 6.26206 72.1481 10.2897 69.3728 8.23033C66.9402 6.42397 69.4185 1.94298 72.5203 4.13693ZM260.958 163.394C263.807 165.571 260.574 169.384 257.816 167.476C255.299 165.736 257.802 160.982 260.958 163.394ZM271.304 191.389C273.709 194.559 271.812 197.43 268.698 196.145C266.89 195.4 265.804 190.665 271.304 191.389ZM147.926 40.1194C153.494 39.4262 152.331 44.1288 150.541 44.8757C147.439 46.169 145.574 43.3172 147.926 40.1194ZM283.94 316.911C285.008 317.456 286.101 318.12 285.267 320.255C284.832 321.37 283.3 322.201 281.736 321.483C278.843 320.154 280.658 315.235 283.94 316.911ZM111.466 21.9617C112.485 22.5082 113.588 23.1912 112.759 25.2627C112.33 26.3334 110.853 27.2401 109.269 26.5328C106.338 25.2273 108.147 20.1837 111.466 21.9617ZM197.294 87.4815C201.345 86.0607 202.65 89.295 200.888 91.0639C199.143 92.8166 195.828 91.5719 197.294 87.4815ZM291.941 249.516C292.918 250.147 293.93 250.896 292.768 252.78C292.163 253.76 290.546 254.127 289.46 253.447C287.131 251.988 289.025 247.63 291.941 249.516ZM302.348 278.166C305.369 279.773 302.834 283.832 300.109 282.294C297.613 280.884 299.485 276.642 302.348 278.166ZM251.163 137.815C249.306 139.217 248.63 139.203 246.757 137.833C246.12 132.747 251.767 132.708 251.163 137.815ZM294.845 349.751C290.898 350.654 290.276 347.425 292.113 346.193C294.394 344.66 296.136 346.86 294.845 349.751ZM240.125 109.366C238.984 109.785 238.02 109.796 236.868 109.401C236.36 108.072 236.343 107.409 236.785 106.038C239.912 104.962 241.317 106.249 240.125 109.366ZM190.713 61.9779C188.353 63.7995 185.983 62.7177 186.706 60.1827C187.224 58.3672 190.943 57.5425 190.713 61.9779ZM320.553 336.376C321.147 336.025 321.798 335.36 322.91 335.825C323.546 336.092 324.311 336.941 323.989 338.071C323.573 339.532 320.1 340.667 320.553 336.376ZM313.405 307.538L313.478 309.832C311.863 310.692 311.419 310.772 309.939 309.455L309.924 307.917C311.044 306.912 312.31 306.45 313.405 307.538ZM289.074 156.707L287.52 156.721C286.194 155.231 286.287 154.763 287.15 153.249L289.443 153.172C290.309 154.781 290.39 155.227 289.074 156.707ZM140.553 12.519C140.795 15.0257 140.267 16.1075 137.599 15.0925C136.03 12.265 138.973 11.0557 140.553 12.519ZM318.247 242.433L317.993 239.543C322.634 238.111 323.016 243.852 318.247 242.433ZM300.265 181.701L300.383 184.847L297.3 184.988L297.086 181.889L300.265 181.701ZM229.29 80.3745C226.882 81.0292 226.106 80.1781 226.358 77.8243C228.548 76.4531 230.753 77.4509 229.29 80.3745ZM307.76 213.428C307.079 211.008 307.953 210.245 310.323 210.497C311.682 212.698 310.67 214.846 307.76 213.428ZM318.202 145.25C316.841 146.229 314.895 146.036 315.37 144.044C315.722 142.569 318.289 142.029 318.202 145.25ZM218.69 51.6073C215.321 52.3754 215.663 49.9062 216.78 49.2292C218.88 47.9561 219.182 50.1956 218.69 51.6073ZM333.86 367.456C332.133 368.007 330.476 367.613 331.641 365.236C333.879 364.066 334.413 365.619 333.86 367.456ZM329.116 268.262C332.217 267.477 332.086 269.962 330.99 270.636C329.068 271.82 328.434 269.784 329.116 268.262ZM338.622 200.818C340.348 202.527 337.926 203.951 336.71 202.729C335.498 201.512 336.941 199.153 338.622 200.818ZM177.29 33.1389C176.782 32.2838 176.932 34.2025 176.885 32.1441C176.863 31.1747 176.846 31.883 177.124 30.9814C181.104 29.7609 180.333 34.5921 177.29 33.1389ZM278.9 125.129C280.29 128.252 275.579 128.879 276.699 125.015C277.482 124.754 276.874 124.647 277.867 124.748C279.581 124.925 278.316 124.813 278.9 125.129ZM341.576 299.308C338.468 300.694 337.816 295.996 341.696 297.111C341.953 297.887 342.066 297.291 341.961 298.279C341.777 300.015 341.932 298.694 341.576 299.308ZM268.28 98.4249C266.015 99.1981 265.587 97.923 266.283 96.0013L268.454 95.9699C268.778 96.9444 269.018 97.4342 268.28 98.4249ZM128.051 232.998C121.095 232.998 115.457 238.625 115.457 245.567C115.457 252.508 121.095 258.135 128.051 258.135C135.005 258.135 140.643 252.508 140.643 245.567C140.643 238.625 135.005 232.998 128.051 232.998Z" fill="#3C2647"/>
<path fill-rule="evenodd" clip-rule="evenodd" d="M16 63.5C16 67.6421 12.6421 71 8.5 71C4.35786 71 1 67.6421 1 63.5C1 59.3579 4.35786 56 8.5 56C12.6421 56 16 59.3579 16 63.5ZM12.5 104C18.8513 104 24 98.8513 24 92.5C24 86.1487 18.8513 81 12.5 81C6.14873 81 1 86.1487 1 92.5C1 98.8513 6.14873 104 12.5 104ZM26.5 165C33.4036 165 39 159.404 39 152.5C39 145.596 33.4036 140 26.5 140C19.5964 140 14 145.596 14 152.5C14 159.404 19.5964 165 26.5 165ZM47.4421 197.473C50.8513 194.175 53 189.361 53 184C53 174.059 45.6127 166 36.5 166C27.3873 166 20 174.059 20 184C20 193.941 27.3873 202 36.5 202C37.5528 202 38.5825 201.892 39.5804 201.687C36.1474 204.882 34 209.44 34 214.5C34 215.615 34.1043 216.706 34.3036 217.763C30.4532 213.026 24.58 210 18 210C11.0097 210 4.81714 213.415 1.00003 218.669L1 231L1.00003 243.331C2.31185 245.137 3.90423 246.725 5.71313 248.032C5.31097 248.011 4.90602 248 4.49854 248C3.30801 248 2.13908 248.092 0.998535 248.271L0.998636 259.382L0.998736 270.5C0.998736 274.64 0.998881 276.612 0.999 278.238C0.999204 281.025 0.999333 282.796 0.998535 292.729L0.999962 292.73L0.999976 304.5L0.999988 321.937L1.00017 321.937L1.00008 327.704L1 335L1.00008 342.046L1.00018 352.324L1.0001 356.586L1 363.437L1.0001 370.346L1.00022 378H8.5H17.9985H18.5H33.5H50.0015C51.6292 375.833 52.827 373.324 53.4682 370.601C57.1352 375.115 62.7307 378 69 378C74.8796 378 80.1667 375.463 83.826 371.424C85.0445 373.923 86.8215 376.114 89 377.844H101H113C117.272 374.452 120 369.286 120 363.5C120 353.687 112.153 345.658 102.235 345.038C109.083 342.664 114 336.156 114 328.5C114 327.717 113.949 326.945 113.849 326.189C115.974 327.344 118.411 328 121 328C129.284 328 136 321.284 136 313C136 304.781 129.39 298.107 121.197 298.001C124.151 295.262 126 291.347 126 287C126 278.716 119.284 272 111 272C110.434 272 109.876 272.031 109.326 272.092C113.905 269.524 117 264.624 117 259C117 250.716 110.284 244 102 244C100.939 244 99.9038 244.11 98.9051 244.32C103.715 241.821 107 236.794 107 231C107 222.716 100.284 216 92 216C91.2458 216 90.5045 216.056 89.7802 216.163C93.5483 213.438 96 209.005 96 204C96 195.716 89.2843 189 81 189C72.7157 189 66 195.716 66 204C66 204.243 66.0058 204.484 66.0172 204.724C62.8731 200.064 57.5444 197 51.5 197C50.1031 197 48.7444 197.164 47.4421 197.473ZM17.5813 252.192C17.4852 252.124 17.3886 252.056 17.2914 251.988C17.4158 251.992 17.5404 251.995 17.6653 251.997C17.637 252.062 17.609 252.127 17.5813 252.192ZM23.7677 282.123C24.6761 280.62 25.4137 279.003 25.9535 277.297C27.5167 278.207 29.2145 278.911 31.0097 279.372C31.0032 279.581 31 279.79 31 280C31 280.908 31.0605 281.801 31.1776 282.677C29.5262 282.235 27.7906 282 26 282C25.2454 282 24.5006 282.042 23.7677 282.123ZM49.5318 353.399C48.1476 351.695 46.4887 350.223 44.6225 349.051C46.4348 348.184 48.0962 347.052 49.5565 345.705C49.875 347.026 50.3246 348.296 50.8909 349.5C50.3099 350.736 49.8516 352.041 49.5318 353.399ZM87.5278 350.455C89.6017 348.424 92.1564 346.86 95.0117 345.938C92.7774 345.749 90.6627 345.142 88.7465 344.193C88.4468 346.061 87.8883 347.843 87.1091 349.5C87.2567 349.814 87.3963 350.132 87.5278 350.455ZM79.5779 324.023C78.8142 323.546 78.0161 323.12 77.188 322.747C79.0893 320.132 80.3721 317.038 80.8219 313.681C82.2918 314.288 83.8624 314.701 85.5018 314.887C82.652 317.193 80.5406 320.375 79.5779 324.023ZM70.4858 293.388C71.0914 290.873 72.2404 288.569 73.8015 286.608C72.5651 286.342 71.3772 285.946 70.2531 285.434C69.5842 287.808 68.4878 290.004 67.0523 291.932C68.2495 292.312 69.3979 292.801 70.4858 293.388ZM61.3053 262.856C59.6713 261.872 57.8851 261.114 55.9903 260.628C55.9968 260.419 56 260.21 56 260C56 258.71 55.8779 257.449 55.6447 256.227C57.7634 257.905 60.2797 259.103 63.0293 259.656C62.3493 260.653 61.7698 261.725 61.3053 262.856ZM106.022 313.815C106.007 313.545 106 313.273 106 313C106 308.653 107.849 304.738 110.803 301.999C108.634 301.971 106.576 301.482 104.721 300.627C103.962 304.839 101.694 308.527 98.4982 311.113C101.25 311.426 103.809 312.377 106.022 313.815ZM96.66 282.586C95.0023 281.566 93.1616 280.814 91.1985 280.392C93.0551 278.06 94.3287 275.243 94.7989 272.162C96.9363 273.334 99.3903 274 102 274C102.566 274 103.124 273.969 103.674 273.908C100.346 275.774 97.8016 278.873 96.66 282.586ZM87.5019 255.138C88.5951 251.023 91.3937 247.603 95.0949 245.68C94.0962 245.89 93.061 246 92 246C89.0426 246 86.2851 245.144 83.9617 243.667C83.7508 246.871 82.6771 249.841 80.9707 252.344C83.3598 252.825 85.5728 253.792 87.5019 255.138ZM49.1698 244.948C49.0579 244.148 49 243.331 49 242.5C49 238.547 50.3105 234.901 52.5208 231.971C52.183 231.99 51.8426 232 51.5 232C46.3061 232 41.6407 229.737 38.4358 226.144C38.8047 227.703 39 229.329 39 231C39 234.23 38.2709 237.289 36.9682 240.023C41.6324 240.245 45.878 242.065 49.1698 244.948ZM66.5 225C66.1574 225 65.817 225.01 65.4792 225.029C67.6895 222.099 69 218.453 69 214.5C69 213.962 68.9758 213.43 68.9283 212.905C71.6603 216.602 76.0501 219 81 219C81.7542 219 82.4955 218.944 83.2198 218.837C80.0564 221.124 77.8207 224.616 77.1847 228.639C74.2289 226.357 70.523 225 66.5 225ZM155.404 378C155.792 376.681 156 375.286 156 373.844C156 365.646 149.284 359 141 359C132.716 359 126 365.646 126 373.844C126 375.286 126.208 376.681 126.596 378H141H155.404ZM21 194C21 204.179 12.3082 212.599 1.00114 214L1.00057 208.031C1.00022 204.819 1 202.748 1 195.155C1 189.385 1.00026 186.495 1.00051 183.722C1.00074 181.131 1.00097 178.641 1.00096 174C12.308 175.401 21 183.821 21 194ZM1 172C7.99068 169.744 13 163.656 13 156.5C13 149.344 7.99149 143.256 1.00081 141C1.00081 147.199 1.00065 148.778 1.0005 150.259C1.00037 151.565 1.00025 152.795 1.00025 157.048L1.00012 167.929L1 172ZM206.5 378C210.642 378 214 374.642 214 370.5C214 366.358 210.642 363 206.5 363C202.358 363 199 366.358 199 370.5C199 374.642 202.358 378 206.5 378Z" fill="#3C2647"/>
<path fill-rule="evenodd" clip-rule="evenodd" d="M291.393 134.52L450.999 137.499V136.494L291.395 134.52L450.999 132.995V131.994L291.393 134.52H291.395L450.999 128.494V127.494L291.395 134.52L450.999 122.993V121.993L291.395 134.52L450.999 118.492V117.492L291.395 134.52L450.999 113.991V112.991L291.395 134.52L450.999 108.991V107.991L291.395 134.52L450.999 104.49V103.49L291.395 134.52L450.999 99.4895V98.4893L291.395 134.52H291.393L450.999 94.4961V93.496L291.393 134.52L450.999 89.9955V88.9954L291.393 134.52L450.999 84.9948V83.9947L291.393 134.52H291.395L450.999 80.4942V79.4941L291.395 134.52L450.999 75.9936V74.9934L291.395 134.52H291.393L450.999 70.4928V69.4927L291.393 134.52L450.999 64.492V63.4918L291.393 134.52L450.999 57.9911V56.9909L291.394 134.519L450.999 52.4981V51.7401L291.394 134.519L450.999 45.2392V44.239L291.394 134.519L450.999 37.2381V36.238L291.394 134.519L450.999 29.237V28.2369L291.394 134.519L450.999 21.2359V20.2357L291.394 134.519L450.999 12.2346V11.2345L291.394 134.519L450.999 2.73328V1.73314L291.394 134.519L291.393 134.52L443.455 0.000799104H442.195L291.393 134.52L291.394 134.519L434.875 0.000799104H433.899L291.394 134.519L426.34 0.000799104H425.364L291.394 134.519L418.769 0.000799104H417.793L291.394 134.519L291.393 134.52L411.449 0.000799104H410.473L291.393 134.52L291.394 134.519L403.64 0.000789568H402.664L291.394 134.518L394.368 0.000911632H393.392L291.394 134.518L386.071 0.000768588H385.095L291.394 134.518L291.394 134.519L291.393 134.52L378.75 0.000911632H377.858L291.393 134.52L291.394 134.518L371.918 0.000911632H370.942L291.394 134.518L365.042 0.000911632H364.066L291.394 134.518L357.277 0.00071137H356.301L291.394 134.518L291.394 134.519L350.444 0.000936426L349.468 0.00071137L291.394 134.519L291.393 134.52L291.394 134.518L344.1 0.000936426L343.124 0.00071137L291.394 134.518L338.732 0.00071137H337.755L291.394 134.519L332.387 0.00071137H331.411L291.394 134.519L326.043 0.000936426H325.067L291.394 134.519L320.674 0.000936426L319.698 0.00071137L291.393 134.518L315.306 0.000936426H314.33L291.394 134.519L291.393 134.517L309.45 0.00071137H308.473L291.393 134.517L303.593 0.000936426L302.617 0.00071137L291.393 134.517L291.393 134.52L291.393 134.518L297.737 0.000888745L296.761 0.000644616L291.393 134.518L291.75 0.000821991L290.904 0.000911632L291.393 134.518L285.758 0.000524459L284.777 0.0006141L291.393 134.518L291.393 134.52L291.394 134.519L280.364 0.000976479L279.383 0.000655106L291.394 134.519L274.48 0.000995551L273.499 0.000673225L291.394 134.519L268.596 0.000995551L267.615 0.00114432L291.394 134.519L291.392 134.519L262.712 0.000524459H261.731L291.392 134.519L256.828 0.00114432H255.847L291.392 134.519L249.963 0.000524459H248.983L291.392 134.519L243.099 0.000524459H242.118L291.392 134.519L291.391 134.517L237 -3.59141e-08L235.744 0.000524459L291.391 134.517L229.5 0.00131597H227.801L291.391 134.517L291.392 134.519L220 -3.59141e-08L218.582 0.00071137L291.392 134.518L291.391 134.517L212.208 0.00071137H210.737L291.391 134.517L203.872 0.00131597H202.401L291.391 134.517L291.392 134.518L195.046 0.00071137H193.575L291.392 134.518L291.392 134.519L187.691 0.00131597L186.22 0.00071137L291.392 134.519L291.391 134.518L173.962 0.00071137H172.491L291.391 134.518L180.827 0.00071137H179.356L291.391 134.518L291.392 134.518L167.097 0.00071137H165.626L291.392 134.518L158.762 0.00071137H157.291L291.392 134.518L151.407 0.00071137H149.936L291.392 134.518L141.6 0.00131597L140.129 0.00071137L291.392 134.518L291.392 134.519L291.391 134.518L131.793 0.00071137H130.322L291.39 134.518L118.064 0.00071137H116.103L291.391 134.518L291.392 134.518L103.844 0.00131597L101.883 0.00071137L291.392 134.518L91.0956 0.000650338L89.1342 0.00131597L291.392 134.518L291.392 134.519L77.3663 -8.20479e-05L75.4049 0.00131597L291.392 134.519L65.1079 -8.20479e-05L62.6563 0.00131597L291.392 134.519L291.39 134.518L13.6148 -0.00058133H9.70041L291.39 134.518L49.9989 -0.000680926L47.0569 -0.000732422L291.39 134.518L291.392 134.519L291.391 134.52L31.941 -0.000680926L28.9989 -7.44189e-05L291.391 134.52L0.99892 3.49975V5.49965L291.391 134.52L0.998768 14.4993V16.4992L291.391 134.52L0.998768 23.4988V25.4987L291.391 134.52L0.998617 32.9984V34.9983L291.391 134.52L291.39 134.519L0.998768 42.9979V44.9978L291.39 134.519L0.998617 52.9974L0.998768 54.9973L291.39 134.519L291.391 134.52L0.998768 62.9969L0.998535 64.9968L291.391 134.52L0.999023 71.9965V73.9964L291.391 134.52L0.99917 81.996L0.999023 83.9959L291.391 134.52L1.00008 90.9955V92.9954L291.391 134.52L0.999817 99.4951V101.495L291.391 134.52H291.388L0.999817 107.495V109.495L291.388 134.52L0.999676 115.994V117.994L291.388 134.52H291.391L291.39 134.519L1.00026 126.493L0.999676 128.494L291.388 134.52L1.00008 136.993L0.999676 138.993L291.389 134.52L1.00026 146.993L0.99987 148.993L291.39 134.519L291.391 134.52L291.389 134.52L0.999676 157.992V159.992L291.389 134.52L0.99987 169.492V170.992L291.389 134.52L0.99987 179.991L0.999817 181.991L291.389 134.52L291.391 134.52L1.00026 188.991L0.999817 190.991L291.391 134.52L0.999817 197.99V199.99L291.391 134.52L0.999817 208.49V210.49L291.391 134.52L0.999817 218.989V220.989L291.391 134.52L0.999817 229.489V231.489L291.391 134.52L291.391 134.521L0.999817 237.988V239.988L291.391 134.521L0.999817 246.488V248.488L291.391 134.521L291.388 134.522L0.999817 255.487V257.487L291.388 134.522L0.999817 263.487V265.487L291.388 134.522L291.391 134.52L1.00026 273.987L0.999817 275.986L291.391 134.52L291.392 134.519L1.00023 283.986L1.00026 285.986L291.392 134.519L1.00041 294.486L0.999939 296.485L291.392 134.519L291.391 134.52L291.391 134.521L1 305.363V307.985L291.391 134.521L1 317.484V319.984L291.391 134.521L291.391 134.52L1 331.484V333.984L291.391 134.52L291.391 134.521L1 347.052V349.483L291.391 134.521L1.00041 360.482L0.999743 362.982L291.39 134.522L0.999743 371.982L0.999071 374.482L291.39 134.522L291.391 134.52L9.5 377.981H12.5L291.391 134.52L29.5 377.981H32L291.391 134.52L48 377.981H50L291.391 134.52L291.39 134.522L66 377.981H68L291.39 134.522L80 377.981H81.5L291.39 134.522L93.5 377.981H95L291.39 134.522L107 377.981H108.5L291.39 134.522L291.392 134.521L291.391 134.52L291.391 134.521L119.5 377.981H121L291.391 134.522L132 377.981H133L291.391 134.521L291.392 134.519L145.5 377.981H146.5L291.392 134.521L158 377.981H159L291.392 134.521L170 377.981H171L291.392 134.521L182 377.981H183L291.392 134.521L193.5 377.981H194.5L291.392 134.521L204 377.981H205L291.392 134.521V134.522L214.5 377.981L215.5 377.981L291.392 134.522L291.392 134.524L224 377.981H225L291.392 134.524L235 377.981L235.945 377.999L291.392 134.524L291.392 134.521L245.055 377.992L246 377.981L291.392 134.521L256.5 377.999L257.5 377.999L291.392 134.521L267.5 377.981H268.5L291.392 134.521V134.522L279.5 377.981L280.5 377.981L291.392 134.522V377.981L292.5 377.981L291.392 134.522L303.409 377.981H304.39L291.393 134.522L314.687 377.981L316 377.981L291.393 134.522L325 377.981H326.455L291.393 134.522L337.5 377.981L338.713 377.981L291.392 134.522V134.521L351.5 377.981L352.932 377.981L291.392 134.521L366.662 377.981L368 377.981L291.392 134.521L291.394 134.524L380.881 377.981L382.5 377.981L291.394 134.524L394.12 377.981L395.5 377.981L291.394 134.524L291.392 134.521L409 377.981L410.792 377.981L291.393 134.521L422.56 377.981L424 377.981L291.393 134.521L434.818 377.981L436 377.981L291.393 134.521L443.644 377.981L445 377.981L291.393 134.521L450.999 373.982V372.482L291.393 134.521L450.999 361.482V359.982L291.393 134.521L450.999 348.483L451 346.983L291.393 134.521L450.999 334.984V333.484L291.393 134.521L291.392 134.521L450.999 320.484L451 318.984L291.392 134.521L291.393 134.521L450.999 308.985L451 307.485L291.393 134.521L450.999 296.985V295.486L291.394 134.522L450.999 288.486V286.986L291.393 134.521L450.999 279.486L451 277.986L291.393 134.521L291.394 134.522L450.999 270.987L451 269.487L291.395 134.522L450.999 261.987L451 260.487L291.394 134.522L291.393 134.521L450.999 254.988L451 253.488L291.393 134.52L450.999 247.989L451 246.488L291.393 134.52L450.999 240.489V238.988L291.393 134.52L450.999 234.489V232.99L291.393 134.521L450.999 227.882V226.49L291.393 134.52L450.999 221.99V220.953L291.393 134.521L291.393 134.52L450.999 215.914V214.99L291.393 134.52H291.395L450.999 208.996V207.991L291.395 134.521L291.397 134.522L450.999 201.991V201.022L291.397 134.522L450.999 196.911V195.991L291.397 134.522L291.393 134.52L291.395 134.521L450.999 191.992V190.992L291.395 134.521L450.999 186.992V185.992L291.397 134.522L450.999 181.492V180.492L291.395 134.521L291.395 134.52L450.999 175.492V174.492L291.395 134.52H291.393L450.999 168.993V167.993L291.393 134.52H291.395L450.999 163.993V162.993L291.396 134.521L450.999 157.993V156.993L291.395 134.52L291.395 134.521L450.999 152.994V151.994L291.395 134.521L291.393 134.52L291.396 134.521L450.999 147.494V146.494L291.396 134.521L450.999 142.494V141.494L291.396 134.521L291.393 134.52ZM291.392 134.519L291.394 134.519L291.393 134.52L291.392 134.519ZM291.395 134.52H291.393L291.394 134.519L291.395 134.52ZM291.394 134.519L291.393 134.52L291.392 134.519L291.394 134.519ZM291.393 134.518L291.394 134.519L291.393 134.52L291.393 134.518ZM291.391 134.517L291.392 134.519L291.392 134.518L291.391 134.517ZM291.391 134.518L291.392 134.519L291.392 134.518L291.391 134.518ZM291.391 134.52L291.392 134.521L291.389 134.52L291.391 134.52ZM291.39 134.519L291.392 134.519L291.392 134.521L291.391 134.52L291.39 134.519ZM291.389 134.521L291.391 134.521L291.391 134.52L291.389 134.521ZM291.391 134.52L291.392 134.521L291.391 134.521L291.391 134.52ZM291.39 134.522L291.391 134.52L291.392 134.521L291.39 134.522ZM291.391 134.522L291.391 134.52L291.392 134.519L291.391 134.522ZM291.392 134.524L291.392 134.522V134.521L291.392 134.524ZM291.392 134.522V134.521L291.393 134.521L291.392 134.522ZM291.394 134.524L291.392 134.521L291.393 134.521L291.394 134.524ZM291.392 134.521L291.393 134.52L291.393 134.521L291.392 134.521ZM291.397 134.522L291.395 134.52H291.393L291.397 134.522ZM291.393 134.52H291.395L291.395 134.521L291.393 134.52Z" fill="#39294C"/>
</svg>
