<svg width="450" height="378" viewBox="0 0 450 378" fill="none" xmlns="http://www.w3.org/2000/svg">
<g filter="url(#filter0_d_356_900)">
<path d="M138.532 57.4885C160.472 46.7295 177.596 45.7435 177.596 45.7435C177.596 45.7435 179.639 34.7645 189.341 34.2545C195.736 33.9175 198.788 40.6375 198.788 40.6375C198.788 40.6375 206.057 20.9775 221.511 20.9775C245.511 20.9775 251.894 73.0625 223.298 81.7435C213.158 84.8215 209.419 76.2965 179.638 88.3815C162.021 95.5305 151.808 114.935 151.808 114.935C151.808 114.935 156.163 123.669 156.659 126.424C157.906 133.352 154.361 140.211 158.446 153.233C161.452 162.814 174.531 192.382 174.531 192.382C174.531 192.382 166.924 188.598 153.34 190.254C132.404 192.807 119.042 182.339 110.191 167.02C105.469 158.847 103.808 147.616 103.808 147.616C103.808 147.616 94.1061 145.318 92.3191 136.127C90.4511 126.521 97.4251 121.574 97.4251 121.574C97.4251 121.574 89.5101 118 90.4461 110.68C91.5031 102.418 100.233 101.403 100.233 101.403C100.233 101.403 95.1941 95.9325 98.9561 89.9135C102.786 83.7855 109.935 85.0625 109.935 85.0625C109.935 85.0625 111.979 70.5105 138.532 57.4885Z" fill="#FFE896" stroke="#3E2670" stroke-width="4" stroke-miterlimit="10"/>
<path opacity="0.2" d="M158.532 155.191C161.538 164.772 173.979 191.148 173.979 191.148C173.979 191.148 166.372 187.364 152.788 189.02C131.852 191.573 118.49 181.105 109.639 165.786C104.917 157.613 103.256 146.382 103.256 146.382C103.256 146.382 93.554 144.084 91.767 134.893C89.899 125.287 100.405 120.467 100.405 120.467C100.405 120.467 95.673 128.24 100.065 134.765C106.022 143.616 119.943 143.615 128.661 141.914C142.617 139.191 154.447 142.17 158.532 155.191Z" fill="#3E2670" fill-opacity="0.62"/>
<path opacity="0.6" d="M137.298 57.9148C159.238 47.1558 176.362 46.1698 176.362 46.1698C176.362 46.1698 178.405 35.1908 188.107 34.6808C194.502 34.3438 199.213 41.4898 199.213 41.4898C199.213 41.4898 207.318 22.3408 221.511 22.3408C227.979 22.3408 231.724 27.3618 231.724 27.3618C231.724 27.3618 217.086 15.6168 205.256 39.0218C202.645 44.1868 200.405 51.0218 200.405 51.0218C200.405 51.0218 199.384 41.3198 192.32 41.9158C183.917 42.6248 183.894 53.0648 183.894 53.0648C183.894 53.0648 163.113 54.8898 143.979 62.5118C112.575 75.0228 111.553 86.7668 111.553 86.7668C111.553 86.7668 110.745 70.9358 137.298 57.9148Z" fill="white"/>
<g opacity="0.6">
<path d="M228.83 35.3623C233.052 38.5743 235.698 43.8093 236.63 49.1933C237.574 54.6143 236.96 60.3023 234.954 65.4753C232.96 70.6353 229.459 75.3653 224.736 78.4083C222.386 79.9213 219.761 80.9903 217.07 81.4813C214.376 81.9503 211.648 81.9383 209.086 81.3203C214.27 80.4243 218.837 78.3993 222.39 75.2533C225.961 72.1403 228.569 68.0783 230.296 63.6613C232.013 59.2353 232.873 54.4353 232.734 49.6103C232.594 44.7813 231.434 39.9273 228.83 35.3623Z" fill="white"/>
</g>
<g opacity="0.6">
<path d="M217.766 43.5322C220.659 47.1732 222.439 51.8702 222.604 56.7982C222.786 61.7212 221.282 66.7622 218.489 70.8842C215.715 75.0282 211.722 78.2722 207.259 80.2082C202.798 82.1382 197.83 82.7952 193.255 81.8302C197.77 80.6992 201.845 79.0462 205.425 76.7302C208.997 74.4272 212.046 71.4992 214.342 68.0932C216.637 64.6882 218.151 60.7972 218.689 56.6322C219.258 52.4572 218.789 48.0752 217.766 43.5322Z" fill="white"/>
</g>
<g opacity="0.6">
<path d="M206.94 52.6895C207.959 55.9225 208.554 59.3495 208.238 62.9355L208.182 63.6085L208.038 64.2755L207.739 65.6185C207.627 66.0655 207.432 66.4935 207.277 66.9355C207.106 67.3715 206.967 67.8265 206.716 68.2305C206.487 68.6445 206.261 69.0665 206.018 69.4785C205.764 69.8815 205.448 70.2385 205.16 70.6215C204.872 71.0075 204.565 71.3755 204.215 71.6925C203.878 72.0255 203.536 72.3595 203.186 72.6815C200.268 75.0905 196.897 76.5155 193.662 77.6615C190.406 78.8005 187.181 79.6955 184.052 80.6995C177.789 82.6545 171.858 85.0565 166.682 88.8255C164.119 90.7235 161.727 92.9015 159.56 95.3525L157.941 97.2155C157.435 97.8655 156.963 98.5425 156.441 99.1955L155.676 100.19L154.982 101.234C154.499 101.923 154.032 102.625 153.527 103.316C154.053 101.716 154.503 100.046 155.239 98.5055C155.577 97.7185 155.939 96.9395 156.314 96.1635L157.579 93.9035C159.401 90.9675 161.579 88.1765 164.186 85.7885C166.797 83.4115 169.768 81.4275 172.887 79.8145C176.011 78.1985 179.284 76.9715 182.545 75.9355C185.811 74.9105 189.072 74.0735 192.204 73.1625C195.332 72.2495 198.306 71.1945 200.791 69.5825C203.181 67.9255 205.045 65.5505 205.841 62.4715C206.757 59.4415 206.877 56.0795 206.94 52.6895Z" fill="white"/>
</g>
<path d="M138.532 57.4885C160.472 46.7295 177.596 45.7435 177.596 45.7435C177.596 45.7435 179.639 34.7645 189.341 34.2545C195.736 33.9175 198.788 40.6375 198.788 40.6375C198.788 40.6375 206.057 20.9775 221.511 20.9775C245.511 20.9775 251.894 73.0625 223.298 81.7435C213.158 84.8215 209.419 76.2965 179.638 88.3815C162.021 95.5305 151.808 114.935 151.808 114.935C151.808 114.935 156.163 123.669 156.659 126.424C157.906 133.352 154.361 140.211 158.446 153.233C161.452 162.814 174.531 192.382 174.531 192.382C174.531 192.382 166.924 188.598 153.34 190.254C132.404 192.807 119.042 182.339 110.191 167.02C105.469 158.847 103.808 147.616 103.808 147.616C103.808 147.616 94.1061 145.318 92.3191 136.127C90.4511 126.521 97.4251 121.574 97.4251 121.574C97.4251 121.574 89.5101 118 90.4461 110.68C91.5031 102.418 100.233 101.403 100.233 101.403C100.233 101.403 95.1941 95.9325 98.9561 89.9135C102.786 83.7855 109.935 85.0625 109.935 85.0625C109.935 85.0625 111.979 70.5105 138.532 57.4885Z" stroke="#3E2670" stroke-width="4" stroke-miterlimit="10"/>
</g>
<defs>
<filter id="filter0_d_356_900" x="-4" y="0" width="458" height="386" filterUnits="userSpaceOnUse" color-interpolation-filters="sRGB">
<feFlood flood-opacity="0" result="BackgroundImageFix"/>
<feColorMatrix in="SourceAlpha" type="matrix" values="0 0 0 0 0 0 0 0 0 0 0 0 0 0 0 0 0 0 127 0" result="hardAlpha"/>
<feOffset dy="4"/>
<feGaussianBlur stdDeviation="2"/>
<feComposite in2="hardAlpha" operator="out"/>
<feColorMatrix type="matrix" values="0 0 0 0 0 0 0 0 0 0 0 0 0 0 0 0 0 0 0.25 0"/>
<feBlend mode="normal" in2="BackgroundImageFix" result="effect1_dropShadow_356_900"/>
<feBlend mode="normal" in="SourceGraphic" in2="effect1_dropShadow_356_900" result="shape"/>
</filter>
</defs>
</svg>
