<?xml version="1.0" encoding="utf-8"?>
<!-- Generator: Adobe Illustrator 23.0.1, SVG Export Plug-In . SVG Version: 6.00 Build 0)  -->
<svg version="1.1" id="Слой_17" xmlns="http://www.w3.org/2000/svg" xmlns:xlink="http://www.w3.org/1999/xlink" x="0px"
	 y="0px" width="450px" height="378px" viewBox="0 0 450 378" enable-background="new 0 0 450 378" xml:space="preserve">
<path fill="#989898" d="M203.872,207.687c0,0,0.877,13.5,3.725,18.024l-35.551,0.02c0,0,0.282-16.175,11.527-19.718
	C194.818,202.469,203.872,207.687,203.872,207.687"/>
<path opacity="0.4" fill="#FFFFFF" d="M183.575,210.542c11.245-3.544,20.299,1.675,20.299,1.675s0.289,6.553,1.62,11.758
	l1.743-0.001c-2.848-4.524-3.366-16.287-3.366-16.287s-9.053-5.218-20.298-1.675c-11.246,3.544-11.663,17.981-11.663,17.981h0.676
	C173.658,219.443,176.428,212.796,183.575,210.542"/>
<path opacity="0.3" fill="#3E2670" d="M187.225,204.755c0,0,10.008,13.817,10.012,20.962l10.359-0.006c0,0-6.8-13.71-5.044-17.701
	C202.552,208.01,193.035,204.752,187.225,204.755"/>
<path opacity="0.3" fill="#3E2670" d="M183.964,205.544c0,0-8.587,13.618-6.013,20.183l-6.04,0.47
	C171.911,226.197,169.876,210.778,183.964,205.544"/>
<path fill="#3E2670" d="M203.577,206.112c-0.596-0.322-14.741-7.801-26.046,0.146c-9.445,6.637-7.68,17.363-7.6,17.767
	c0.08,0.407,0.113,1.054,0.186,1.687l5.723-0.004c-0.014-0.071-3.006-10.877,4.171-15.92c9.109-6.401,21.396,0.055,21.518,0.122
	c1.049,0.563,2.355,0.173,2.921-0.875C205.016,207.987,204.625,206.678,203.577,206.112"/>
</svg>
