<?xml version="1.0" encoding="utf-8"?>
<!-- Generator: Adobe Illustrator 23.0.1, SVG Export Plug-In . SVG Version: 6.00 Build 0)  -->
<svg version="1.1" id="Nose" xmlns="http://www.w3.org/2000/svg" xmlns:xlink="http://www.w3.org/1999/xlink" x="0px" y="0px"
	 width="450px" height="378px" viewBox="0 0 450 378" enable-background="new 0 0 450 378" xml:space="preserve">
<path fill="#3E2670" d="M222.685,140.656c-0.492,0-0.975-0.242-1.261-0.686c-0.45-0.696-0.25-1.625,0.446-2.074l3.403-2.199
	c1.134-0.977,1.21-2.322,0.896-3.266c-0.319-0.96-1.209-2.012-2.75-2.085l-4.906-0.232l-4.583-8.668
	c-0.387-0.732-0.107-1.64,0.625-2.027c0.733-0.387,1.64-0.107,2.027,0.625l3.783,7.154l3.196,0.151
	c2.52,0.12,4.661,1.743,5.455,4.137c0.795,2.394,0.05,4.976-1.897,6.578l-0.139,0.102l-3.482,2.25
	C223.246,140.579,222.963,140.656,222.685,140.656z M226.165,136.907h0.01H226.165z"/>
</svg>
