<?xml version="1.0" encoding="utf-8"?>
<!-- Generator: Adobe Illustrator 23.0.1, SVG Export Plug-In . SVG Version: 6.00 Build 0)  -->
<svg version="1.1" id="Nose" xmlns="http://www.w3.org/2000/svg" xmlns:xlink="http://www.w3.org/1999/xlink" x="0px" y="0px"
	 width="450px" height="378px" viewBox="0 0 450 378" enable-background="new 0 0 450 378" xml:space="preserve">
<path fill="#3E2670" d="M212.393,141.116c-0.521,0-1.047-0.076-1.552-0.264c-0.827-0.307-1.926-1.038-2.469-2.776
	c-0.454-1.454-0.334-2.564-0.154-3.239c0.213-0.8,1.037-1.276,1.836-1.063c0.8,0.213,1.276,1.036,1.063,1.836
	c-0.078,0.292-0.121,0.803,0.119,1.572c0.217,0.696,0.53,0.813,0.647,0.857c0.886,0.333,2.554-0.41,3.222-0.821l0.798-0.491
	l0.794,0.5c0.574,0.364,2.233,0.753,3.497,0.232c1.601-0.658,1.688-2.208,1.688-2.223l0.025-0.921l0.833-0.394l0,0
	c0,0,0.856-0.468,0.755-0.91c-0.213-0.928-1.057-1.486-1.065-1.491c-0.688-0.448-0.897-1.371-0.458-2.065
	c0.44-0.694,1.348-0.911,2.046-0.48c0.194,0.12,1.911,1.23,2.401,3.365c0.408,1.779-0.661,3.113-1.65,3.841
	c-0.297,1.344-1.233,3.148-3.434,4.053c-1.792,0.737-3.925,0.542-5.407-0.051C215.115,140.583,213.772,141.116,212.393,141.116z"/>
</svg>
