<?xml version="1.0" encoding="utf-8"?>
<!-- Generator: Adobe Illustrator 23.0.1, SVG Export Plug-In . SVG Version: 6.00 Build 0)  -->
<svg version="1.1" id="Nose" xmlns="http://www.w3.org/2000/svg" xmlns:xlink="http://www.w3.org/1999/xlink" x="0px" y="0px"
	 width="450px" height="378px" viewBox="0 0 450 378" enable-background="new 0 0 450 378" xml:space="preserve">
<path fill="#3E2670" d="M218.584,141.961c-0.751,0-1.523-0.136-2.147-0.545c-2.563-1.68-2.256-4.497-1.735-5.751
	c0.317-0.765,1.195-1.128,1.96-0.811c0.765,0.317,1.128,1.195,0.811,1.96c-0.117,0.305-0.438,1.406,0.609,2.093
	c0.671,0.311,3.232-0.386,3.681-1.023c0.24-0.669,0.55-1.506,1.583-1.546c1.945-0.047,7.124-0.815,8.023-3.762
	c0.184-0.604-0.066-1.168-0.309-1.536c-0.448-0.68-1.971-2.314-6.42-2.801c-4.68-0.512-7.967-1.292-10.9-7.235
	c-0.367-0.743-0.062-1.642,0.682-2.009c0.741-0.368,1.642-0.063,2.009,0.682c2.321,4.703,4.408,5.128,8.536,5.58
	c4.083,0.446,7.137,1.914,8.599,4.132c0.844,1.279,1.082,2.722,0.673,4.063c-1.394,4.572-7.415,5.595-9.817,5.821
	c-0.634,1.237-2.22,1.92-3.15,2.227C220.826,141.645,219.73,141.961,218.584,141.961z"/>
</svg>
