<?xml version="1.0" encoding="utf-8"?>
<!-- Generator: Adobe Illustrator 23.0.1, SVG Export Plug-In . SVG Version: 6.00 Build 0)  -->
<svg version="1.1" id="Hair" xmlns="http://www.w3.org/2000/svg" xmlns:xlink="http://www.w3.org/1999/xlink" x="0px" y="0px"
	 width="450px" height="378px" viewBox="0 0 450 378" enable-background="new 0 0 450 378" xml:space="preserve">
<g>
	<path opacity="0.4" fill="#23160F" d="M207.851,80.723c0,0-2.25-3.383-3.234-2.979c-0.405,0.167-0.936,2.255-0.936,2.255
		s-5.007-4.511-6.596-3.532c-0.834,0.514,0.298,4.511,0.298,4.511s-2.021-1.268-3.447-2.213c-1.615-1.071-3.17-2.399-4-1.787
		c-0.901,0.664,0.851,5.447,0.851,5.447s-2.108-1.017-4.255-1.532c-2.211-0.531-4.644-1.569-5.447-0.681
		c-1.143,1.263,1.66,7.149,1.66,7.149s-8.535-3.631-10.17-1.702c-0.888,1.048,2.17,4.894,2.17,4.894s-1.897-0.041-4.383-0.213
		c-2.592-0.179-5.277-1.106-7.149,1.106c-0.91,1.075,2.383,5.404,2.383,5.404s-1.345-0.49-4.085-0.809
		c-2.092-0.243-5.705-0.793-5.957,0c-0.339,1.064,5.787,4.085,5.787,4.085s-1.031,0.604-3.234,1.191
		c-1.458,0.389-4.283,0.627-4.596,1.191c-0.456,0.824,3.404,2.383,3.404,2.383s-1.854,2.02-4.085,2.723
		c-1.911,0.602-6.273,1.332-6.468,2.383c-0.342,1.842,7.319,2.936,7.319,2.936s-1.473,1.997-4.766,3.191
		c-3.72,1.349-9.113,2.653-8.567,4.604c0.796,2.846,12.822-1.413,12.822-1.413s-1.037,1.392-4.426,3.702
		c-3.596,2.452-10.549,6.606-9.532,8.596c1.448,2.831,13.957-4.085,13.957-4.085s-1.101,2.658-2.553,4.426
		c-3.915,4.766-8.39,6.091-7.149,7.66c1.364,1.724,11.234-1.702,11.234-1.702s-1.006,2.01-2.383,4.085
		c-1.691,2.549-6.125,5.187-5.106,6.468c1.355,1.706,10.213-3.064,10.213-3.064s-1.179,5.479-2.553,8.17
		c-3.642,7.133-10.144,18.209-10.894,18.043c-0.78-0.173-17.505-18.5-23.149-41.362c-5.445-22.057,0.17-48.681,0.17-48.681
		l52.255-17.702l24.511,5.447c0,0,6,0.979,8.511,4.766C207.219,75.507,207.851,80.723,207.851,80.723z"/>
	<path fill="#DFC890" stroke="#3E2670" stroke-width="2.5" stroke-miterlimit="10" d="M101.766,108.468
		c0,0-11.234,51.745,38.34,55.085c11.817,0.796,18.894-6.128,18.894-6.128s-10.139-0.433-20.936-2.043
		C106.532,150.681,101.766,108.468,101.766,108.468z"/>
	<path fill="#DFC890" stroke="#3E2670" stroke-width="2.5" stroke-miterlimit="10" d="M96.489,133.617c0,0-0.008,7.555,1.277,13.149
		c0.304,1.324,1.705,4.335,2.158,5.83c0.33,1.09,0.994,3.738,1.416,4.894c0.697,1.906,1.239,2.367,2.229,4.376
		c0.738,1.497,1.313,3.563,2.239,5.071c1.011,1.648,2.392,2.737,3.653,4.349c1.363,1.742,1.807,3.33,3.496,4.97
		c1.266,1.229,3.701,2.539,5.167,3.678c1.071,0.833,2.116,1.975,3.301,2.747c1.068,0.696,2.267,1.029,3.431,1.667
		c1.326,0.727,2.516,1.946,3.973,2.588c1.153,0.508,2.548,0.457,3.786,0.906c1.508,0.546,3.17,1.539,4.809,1.987
		c2.639,0.722,3.809,0.799,6.809,1.234c1.801,0.261,4.831,0.934,6.468,0.979c1.735,0.047,3.618-0.525,5.105-0.694
		c4.767-0.54,8.874-6.391,8.874-6.391s-10.109-0.654-20.936-2.043C123.83,180.362,96.489,133.617,96.489,133.617z"/>
	<path fill="#DFC890" stroke="#3E2670" stroke-width="2.5" stroke-miterlimit="10" d="M102.277,130.766
		c0,0,0.085,42.298,40.872,48.574c11.706,1.801,18.894-6.128,18.894-6.128s-10.119-0.578-20.936-2.043
		C113.596,167.447,102.277,130.766,102.277,130.766z"/>
	<path fill="#FFE896" stroke="#3E2670" stroke-width="2.5" stroke-miterlimit="10" d="M102.957,136.553
		c0,0-0.596,40.085,35.106,42.745c11.811,0.88,19.957-8.66,19.957-8.66s-11.172,1.878-22,0.489
		C116.106,168.574,102.957,136.553,102.957,136.553z"/>
	<path fill="#FFE896" stroke="#3E2670" stroke-width="2.5" stroke-miterlimit="10" d="M200.149,69.532c0,0,0.679,2.543,4.596,4.851
		c2.383,1.404,3.574,4.128,3.574,4.128s3.064-3.362-0.511-5.66C202.946,69.725,200.149,69.532,200.149,69.532z"/>
	<path fill="#FFE896" stroke="#3E2670" stroke-width="2.5" stroke-miterlimit="10" d="M189.994,66.649c0,0,1.313,2.411,5.556,5.344
		c0.658,0.455,2.933,1.006,3.627,1.518c0.682,0.502,4.263,4.455,4.263,4.455s2.128-3.806-0.748-6.898
		C198.902,66.993,189.994,66.649,189.994,66.649z"/>
	<path fill="#FFE896" stroke="#3E2670" stroke-width="2.5" stroke-miterlimit="10" d="M108.745,97.574
		c-5.619-1.176-11.339,9.688-12.229,23.117c-0.108,1.626-0.58,2.773-0.537,4.458c0.024,0.955,0.509,2.433,0.586,3.398
		c0.126,1.585-0.355,3.351-0.075,4.942c0.178,1.01,1.221,2.239,1.668,3.755c0.411,1.391,0.748,3.042,1.226,4.415
		c0.739,2.124,1.611,3.81,2.043,4.596c0.777,1.415,0.902,2.513,1.702,3.745c0.596,0.918,1.862,2.009,2.467,2.832
		c1.006,1.368,1.789,3.192,2.81,4.317c1.243,1.37,2.726,1.985,3.966,3.034c0.966,0.817,1.892,1.766,2.842,2.413
		c1.225,0.834,2.468,1.312,3.644,1.903c1.594,0.801,3.08,2.072,4.526,2.523c4.757,1.484,8.585,0.707,10.213,1.021
		c11.629,2.246,21.489-5.596,21.489-5.596s-10.009-0.684-20.809-2.277c-3.203-0.472-15.66-1.83-23.149-12.723
		c-1.693-2.463-6.169-11.37-6.723-13.319c-0.713-2.508-1.267-3.843-1.617-6.34c-0.293-2.09,0.08-4.808-0.029-6.795
		c-0.123-2.248,0.982-4.144,1.008-6.141c0.031-2.388-0.994-4.808-0.894-6.638C103.296,100.513,111.607,98.174,108.745,97.574z"/>
	<path fill="#FFE896" stroke="#3E2670" stroke-width="2.5" stroke-miterlimit="10" d="M100.064,106.255
		c0,0-4.13,20.539,8.681,36.936c4.255,5.447,10.043,10.383,25.191,11.915c5.662,0.573,11.227-1.056,15.369-3.053
		c1.651-0.796,3.076-1.652,4.19-2.449c1.907-1.365,2.569-3.008,2.569-3.008s-1.972,0.193-4.255,0.511
		c-0.821,0.114-1.659-0.288-2.659-0.152c-0.802,0.109-1.655,0.218-2.552,0.316c-1.074,0.117-2.205-0.315-3.385-0.25
		c-1.417,0.079-2.902,0.639-4.422,0.582c-1.587-0.06-2.876-0.468-4.514-0.752C93.936,139.872,100.064,106.255,100.064,106.255z"/>
	<path fill="#FFE896" stroke="#3E2670" stroke-width="2.5" stroke-miterlimit="10" d="M158.872,66.596
		c0,0,15.727-1.348,25.532,3.064c1.328,0.598,1.968,1.547,2.979,2.128c0.816,0.469,1.62,0.762,2.298,1.277
		c0.634,0.482,1.648,0.797,2.213,1.362c0.34,0.34,1.413,1.321,2.417,2.231c1.041,0.944,2.008,1.812,2.008,1.812
		s0.213-4.748-0.426-5.66c-0.581-0.83-0.799-1.978-1.489-2.766c-0.861-0.983-2.221-1.58-3.191-2.298
		c-1.29-0.954-3.66-2.128-6.894-3.064C174.441,61.821,158.872,66.596,158.872,66.596z"/>
	<path fill="#FFE896" stroke="#3E2670" stroke-width="2.5" stroke-miterlimit="10" d="M143.298,69.66c0,0,16.696-2.015,29.308,2.028
		c1.103,0.354,4.388,2.711,5.415,3.163c1.902,0.837,2.576,0.766,4.17,1.787c0.965,0.618,2.213,0.426,3.574,1.191
		c1.667,0.938,3.83,2.383,3.83,2.383s-0.34-4.681-2.213-6.043c-0.534-0.388-1.015-1.956-1.957-2.723
		c-0.767-0.625-1.803-0.616-2.921-1.318c-0.642-0.403-1.169-1.17-1.93-1.576c-0.893-0.477-2.042-0.592-3.102-1.047
		c-2.298-0.987-4.989-1.89-8.09-2.571c-2.681-0.588-10.809-0.851-14.553,0C148.567,66.359,143.298,69.66,143.298,69.66z"/>
	<path fill="#FFE896" stroke="#3E2670" stroke-width="2.5" stroke-miterlimit="10" d="M104.745,93.787
		c-5.625,0.201-0.275,28.424,15.617,36.638c1.951,1.008,3.357,1.168,5.149,1.787c1.035,0.358,2.512,1.292,3.487,1.539
		c1.716,0.435,3.255,0.177,4.768,0.333c1.532,0.158,3.036,0.729,4.334,0.682c1.524-0.055,2.416-0.638,3.581-0.852
		c0.957-0.176,2.248,0.032,2.936-0.17c0.773-0.227,1.49-0.96,2.17-1.277c0.752-0.351,1.52-1.303,2.128-1.702
		c1.926-1.265,2.553-2.383,2.553-2.383s-3.404-0.17-6.298,0.17c-0.753,0.089-1.629,0.485-2.468,0.511
		c-1.004,0.031-1.99-0.325-3.133-0.432c-1.219-0.113-2.28,0.166-3.676-0.164c-0.86-0.204-1.997-0.941-2.931-1.246
		c-0.99-0.324-2.459-0.342-3.537-0.797c-1.539-0.649-2.735-1.807-4.468-2.766c-10.709-5.927-13.513-17.965-13.787-19.149
		C109.788,98.532,107.78,93.679,104.745,93.787z"/>
	<path fill="#FFE896" stroke="#3E2670" stroke-width="2.5" stroke-miterlimit="10" d="M124.574,84.468
		c-2.248,3.196,0.716,5.026,7.915,8.553c3.403,1.668,6.779,2.99,9.908,4.019c0.724,0.238,1.398,0.242,2.092,0.449
		c0.635,0.189,1.293,0.585,1.9,0.75c0.758,0.206,1.65,0.358,2.355,0.527c0.649,0.155,1.116,0.33,1.714,0.455
		c0.791,0.166,2.022,0.194,2.712,0.311c1.023,0.173,1.794,0.266,2.553,0.34c1.592,0.156,3.319-0.17,3.319-0.17
		s-2.272-1.881-4.454-3.481c-0.608-0.446-1.424-0.49-2.099-0.945c-0.702-0.473-1.262-1.357-1.974-1.809
		c-0.427-0.271-1.442-0.489-1.855-0.744c-1.055-0.651-1.45-1.282-2.255-1.745c-1.379-0.791-12.345-6.73-13.489-7.191
		C126.501,81.2,126.023,82.409,124.574,84.468z"/>
	<path fill="#FFE896" stroke="#3E2670" stroke-width="2.5" stroke-miterlimit="10" d="M128.714,79.89
		c-2.317,3.306,2.628,5.507,10.717,7.285c3.41,0.75,6.367,1.517,8.928,2.264c0.729,0.213,1.677,0.098,2.343,0.306
		c0.662,0.207,1.042,0.737,1.645,0.939c0.894,0.299,1.585,0.227,2.355,0.508c0.792,0.289,1.659,0.93,2.33,1.195
		c0.982,0.387,2.88,0.784,3.627,1.103c0.602,0.258,3.494,1.433,3.494,1.433s-0.234-1.541-1.476-3.314
		c-0.44-0.628-1.22-1.072-1.848-1.779c-0.395-0.444-0.58-1.136-1.049-1.591c-0.475-0.461-1.294-0.589-1.845-1.047
		c-0.534-0.444-0.797-1.218-1.403-1.644c-1.476-1.037-3.164-1.999-5.065-2.782C139.894,78,130.206,77.76,128.714,79.89z"/>
	<path fill="#FFE896" stroke="#3E2670" stroke-width="2.5" stroke-miterlimit="10" d="M115.065,92.566
		c-5.159,1.89,1.631,14.898,15.923,20.116c0.857,0.313,1.868,0.087,2.778,0.34c1.044,0.29,1.934,1.044,2.917,1.244
		c0.774,0.158,1.972,0.051,2.7,0.16c1.106,0.165,1.712,0.515,2.693,0.581c0.835,0.056,2.259-0.322,2.988-0.325
		c3.524-0.017,6.149-1.447,6.149-1.447s-2.442-0.722-4.872-1.617c-0.72-0.265-1.065-0.774-2.025-1.132
		c-0.512-0.19-1.159-0.174-1.741-0.4c-0.632-0.246-1.204-0.739-1.92-1.036c-0.477-0.198-1.523-0.145-2.038-0.369
		c-0.88-0.382-1.266-1.067-2.259-1.536c-0.814-0.384-1.779-0.477-2.528-0.89c-0.544-0.3-0.886-0.914-1.396-1.226
		c-6.952-4.247-10.825-9.418-12.582-11.34C117.788,91.432,117.093,91.823,115.065,92.566z"/>
	<path fill="#FFE896" stroke="#3E2670" stroke-width="2.5" stroke-miterlimit="10" d="M116.915,89.064
		c-1.686,1.325,1.828,5.534,5.489,8.17c3.191,2.298,7.447,5.532,13.915,7.404c0.83,0.24,1.635,0.454,2.413,0.644
		c1.006,0.245,2.034-0.045,2.949,0.122c0.937,0.172,1.76,0.799,2.599,0.899c1.026,0.122,1.72-0.164,2.593-0.133
		c0.973,0.035,2.106,0.378,2.88,0.322c2.508-0.178,5.205-1.344,5.205-1.344s-1.671-0.726-2.877-1.315
		c-0.732-0.358-1.631-0.757-2.612-1.171c-0.888-0.375-1.556-1.049-2.512-1.429c-1.068-0.425-2.678-0.727-3.66-1.106
		c-1.769-0.683-2.401-1.329-3.064-1.617c-9.021-3.915-13.878-8.074-14.894-8.681C123.571,88.772,120.489,86.255,116.915,89.064z"/>
	<path fill="#FFE896" stroke="#3E2670" stroke-width="2.5" stroke-miterlimit="10" d="M131.851,73.617
		c-1.159,2.318,11.826-2.119,27.702,1.915c2.141,0.544,4.089,1.131,5.86,1.739c0.845,0.29,1.97,0.347,2.736,0.644
		c0.815,0.316,1.266,0.872,1.996,1.189c0.723,0.315,1.617,0.118,2.26,0.428c0.925,0.447,1.558,1.397,2.327,1.819
		c0.774,0.425,3.665,1.981,4.226,2.351c1.585,1.044,2.681,1.66,2.681,1.66s-0.34-2.511-0.851-3.787
		c-0.259-0.647-0.628-1.289-1.064-1.957c-0.369-0.566-1.103-1.101-1.532-1.66c-0.493-0.642-0.727-1.173-1.277-1.745
		c-0.474-0.494-1.16-0.667-1.66-1.064c-0.502-0.399-1.021-0.778-1.554-1.139c-8.683-5.882-21.982-7.097-25.51-6.776
		C140.986,67.889,133.134,71.051,131.851,73.617z"/>
	<path fill="#FFE896" stroke="#3E2670" stroke-width="2.5" stroke-miterlimit="10" d="M133.894,77.872
		c4.979,1.404,12.638,1.021,22.723,4.468c1.39,0.475,1.995,1.013,3.319,1.532c0.715,0.28,2.254,0.145,2.936,0.426
		c0.651,0.267,1.214,0.922,1.827,1.182c0.84,0.356,1.421,0.193,2.173,0.52c0.777,0.338,1.721,1.165,2.381,1.452
		c0.71,0.308,4.087,1.399,4.087,1.399s-0.236-1.51-1.475-3.193c-0.516-0.701-1.16-1.481-1.931-2.305
		c-0.655-0.7-1.033-1.717-1.87-2.46c-0.773-0.686-2.349-1.824-3.277-2.511c-1.781-1.319-3.488-1.881-5.83-3.021
		c-4.979-2.426-14.621-3.128-19.702-2.979C133.468,72.553,131.548,77.211,133.894,77.872z"/>
	<path fill="#FFE896" stroke="#3E2670" stroke-width="2.5" stroke-miterlimit="10" d="M109.848,96.53
		c-2.149,0.41-4.203,2.95-1.981,8.413c0.384,0.945,3.958,10.006,11.973,14.447c2.102,1.165,4.042,2.052,5.821,2.724
		c1.399,0.529,3.032,0.266,4.232,0.561c1.28,0.315,2.115,1.174,3.17,1.296c1.375,0.159,2.221-0.192,3.217-0.211
		c1.299-0.026,2.617,0.247,3.277,0.244c0.681-0.002,3.543-0.987,5.188-1.324c1.506-0.309,5.362-2.723,5.362-2.723
		s-2.459-0.369-4.859-0.816c-0.799-0.149-1.622-0.289-2.404-0.418c-0.966-0.159-2.037,0.209-2.751,0.089
		c-0.867-0.146-1.537-0.825-2.347-1.011c-0.602-0.138-1.425,0.078-1.997-0.081c-0.864-0.24-1.458-0.866-2.254-1.147
		c-14.534-5.122-18.017-16.627-18.404-17.38C113.469,96.035,111.208,96.271,109.848,96.53z"/>
	<path fill="#FFE896" stroke="#3E2670" stroke-width="2.5" stroke-miterlimit="10" d="M100.574,116.809
		c3.581,16.761,15.01,26.189,30.404,27.519c1.026,0.089,2.07,0.141,3.13,0.158c1.306,0.02,1.792-0.097,3.147-0.187
		c0.649-0.043,2.319-0.527,2.979-0.596c1.702-0.177,3.064-0.006,4.423-0.433c1.14-0.358,1.831-1.258,2.726-1.694
		c0.872-0.425,1.953-0.385,2.589-0.801c1.668-1.091,2.517-2.008,2.517-2.008s-6.405,0.064-7.404,0.085
		c-1.372,0.029-3.413-0.749-4.68-0.8c-1.297-0.052-2.384,0.077-3.576-0.051c-1.242-0.134-2.61-0.811-3.745-1.021
		c-1.339-0.248-2.631,0.088-3.83-0.255c-1.192-0.342-2.084-1.618-3.149-2.043c-1.434-0.571-2.939-0.675-4.165-1.371
		c-2.058-1.169-3.841-2.493-5.41-3.905c-10.706-9.635-10.18-23.956-10.275-25.027c-0.238-2.693,1.977-7.228-1.938-7.228
		C100.873,97.149,100.205,115.08,100.574,116.809z"/>
	<path opacity="0.6" fill="#FFFFFF" enable-background="new    " d="M139.889,69.742c-0.027,0.221,13.634,1.223,17.413,2.779
		c1.953,0.804,3.867,1.185,5.742,1.86c2.812,1.012,5.259,1.416,5.921,1.642c0.579,0.198,1.478,1.004,2.003,1.204
		c0.559,0.213,1.462,0.209,1.905,0.414c0.242,0.112,1.542,1.295,2.913,1.858c1.665,0.685,4.198,2.472,4.198,2.472
		s-0.929-1.603-1.487-2.306c-1.076-1.355-2.063-2.378-2.449-2.738c-0.334-0.311-3.314-1.994-3.684-2.226
		c-6.023-3.784-12.956-4.976-16.475-5.661C150.434,67.976,140.027,68.624,139.889,69.742z"/>
	<path opacity="0.6" fill="#FFFFFF" enable-background="new    " d="M132.971,80.611c-1.583,1.673,1.605,2.527,7.688,3.218
		c2.809,0.319,10.85,2.504,11.426,2.681c0.591,0.181,4.248,2.25,4.808,2.446c0.451,0.158,3.299,2.405,3.299,2.405
		s-2.936-3.894-5.872-5.617c-1.097-0.644-3.064-1.596-5.362-2.362C140.281,80.491,133.991,79.534,132.971,80.611z"/>
	<path opacity="0.6" fill="#FFFFFF" enable-background="new    " d="M129.681,87.149c-0.082,1.146,3.145,1.735,7.787,3.255
		c4.809,1.574,4.532,2.809,7.851,3.957c1.99,0.689,8.191,2.872,8.191,2.872s-1.87-1.175-3.177-2.12
		c-0.364-0.263-0.863-0.338-1.267-0.61c-0.421-0.283-0.749-0.763-1.177-1.036c-0.257-0.164-0.874-0.339-1.122-0.494
		c-0.634-0.395-0.847-0.771-1.349-1.022c-1.893-0.945-4.933-2.737-6.61-3.399c-1.521-0.6-2.745-0.638-3.83-0.894
		C130.851,86.688,129.809,85.362,129.681,87.149z"/>
	<path opacity="0.6" fill="#FFFFFF" enable-background="new    " d="M135.17,75.596c3.382,1.003,6.638-0.191,21.168,4.243
		c0.959,0.293,1.371,0.667,2.276,1.019c0.488,0.19,1.513,0.166,1.98,0.355c0.445,0.18,0.846,0.585,1.265,0.76
		c0.575,0.239,0.958,0.165,1.473,0.383c0.532,0.227,1.193,0.746,1.646,0.938c0.486,0.206,5.809,3.217,5.809,3.217
		s-2.366-2.797-3.255-3.83c-0.37-0.43-1.433-1.148-1.979-1.66c-0.463-0.434-1.02-1.155-1.607-1.621
		c-0.542-0.431-1.638-1.155-2.283-1.592c-1.239-0.839-2.545-0.885-4.153-1.639c-3.419-1.603-14.106-2.617-17.426-2.426
		C136.223,73.967,133.577,75.123,135.17,75.596z"/>
	<path opacity="0.6" fill="#FFFFFF" enable-background="new    " d="M155.404,66.277c0,0,9.05,1.224,18.916,4.751
		c0.863,0.309,3.89,2.366,4.701,2.717c1.503,0.65,1.639,0.231,2.92,0.942c0.775,0.431,1.712,0.471,2.799,1.023
		c1.33,0.676,3.071,1.673,3.071,1.673s-0.565-2.479-2.079-3.4c-0.432-0.263-0.901-1.134-1.668-1.64
		c-0.625-0.412-1.413-0.524-2.31-1.016c-0.515-0.283-0.787-0.86-1.392-1.157c-0.711-0.349-2.1-0.729-2.936-1.085
		c-1.814-0.773-3.403-1.467-5.809-2.17c-2.079-0.608-8.476-1.43-11.271-1.408C155.671,65.545,155.404,66.277,155.404,66.277z"/>
	<path opacity="0.6" fill="#FFFFFF" enable-background="new    " d="M175.128,65.191c0,0,3.972,0.99,10.085,3.319
		c1.34,0.511,2.405,1.832,3,2.234c0.481,0.325,1.803,1.038,2.198,1.383c0.37,0.323,1.882,0.865,2.206,1.234
		c0.196,0.222,2.426,2.234,2.426,2.234s-0.064-2.17-0.842-3.299c-0.353-0.512-0.435-2.19-7.201-5.254
		C181.24,64.434,175.128,65.191,175.128,65.191z"/>
	<g>
		<g>
			<path fill="none" stroke="#3E2670" stroke-linecap="round" stroke-linejoin="round" stroke-miterlimit="10" d="M137.681,119.307
				c-1.507,1.582-4.596,0.979-4.596,0.979s2.712,0.377,3.918,1.883"/>
			<path fill="none" stroke="#3E2670" stroke-linecap="round" stroke-linejoin="round" stroke-miterlimit="10" d="M133.979,118.723
				c-1.88-0.18-4.128,0.553-4.128,0.553S131,121,132.66,121.574"/>
			<path fill="none" stroke="#3E2670" stroke-linecap="round" stroke-linejoin="round" stroke-miterlimit="10" d="M130.167,117.227
				c-1.289,0.995-5.41-0.035-5.41-0.035s3.09,2.369,3.379,3.508"/>
			<path fill="none" stroke="#3E2670" stroke-linecap="round" stroke-linejoin="round" stroke-miterlimit="10" d="M126.313,115.312
				c-2.147-0.888-5.187-0.764-5.187-0.764s0.555,3.29,2.301,4.563"/>
			<path fill="none" stroke="#3E2670" stroke-linecap="round" stroke-linejoin="round" stroke-miterlimit="10" d="M121.701,112.563
				c-2.627,0.518-5.291-2.27-5.291-2.27s2.718,3.196,2.463,5.579"/>
			<path fill="none" stroke="#3E2670" stroke-linecap="round" stroke-linejoin="round" stroke-miterlimit="10" d="M118.787,109.234
				c-1.552-1.337-5.021-2.213-5.021-2.213s-0.259,3.218,0.851,4.766"/>
			<path fill="none" stroke="#3E2670" stroke-linecap="round" stroke-linejoin="round" stroke-miterlimit="10" d="M116.182,105.702
				c-2.757-0.554-4.77-3.418-4.77-3.418s0.991,3.886-0.03,5.248"/>
		</g>
		<path fill="none" stroke="#3E2670" stroke-linecap="round" stroke-linejoin="round" stroke-miterlimit="10" d="M142.135,119.879
			c-1.872,0.248-3.897,1.47-3.897,1.47s1.508,1.42,3.254,1.605"/>
	</g>
	<g>
		<path fill="none" stroke="#3E2670" stroke-linecap="round" stroke-linejoin="round" stroke-miterlimit="10" d="M143.262,129.86
			c-1.223,1.811-4.369,1.73-4.369,1.73s2.737-0.08,4.176,1.206"/>
		<path fill="none" stroke="#3E2670" stroke-linecap="round" stroke-linejoin="round" stroke-miterlimit="10" d="M147.286,128.577
			c-1.539,0.804-2.903,2.498-2.903,2.498s1.751,0.751,3.318,0.361"/>
		<path fill="none" stroke="#3E2670" stroke-linecap="round" stroke-linejoin="round" stroke-miterlimit="10" d="M135.276,129.238
			c-1.032,1.26-5.278,1.185-5.278,1.185s3.545,1.611,4.083,2.656"/>
		<path fill="none" stroke="#3E2670" stroke-linecap="round" stroke-linejoin="round" stroke-miterlimit="10" d="M131.089,128.241
			c-2.292-0.381-5.225,0.425-5.225,0.425s1.282,3.08,3.271,3.927"/>
		<path fill="none" stroke="#3E2670" stroke-linecap="round" stroke-linejoin="round" stroke-miterlimit="10" d="M140.743,129.254
			c-2.294,0.367-4.819,2.064-4.819,2.064s2.195,2.513,4.349,2.684"/>
		<path fill="none" stroke="#3E2670" stroke-linecap="round" stroke-linejoin="round" stroke-miterlimit="10" d="M125.976,126.604
			c-2.442,1.096-5.667-1.019-5.667-1.019s3.369,2.501,3.658,4.88"/>
		<path fill="none" stroke="#3E2670" stroke-linecap="round" stroke-linejoin="round" stroke-miterlimit="10" d="M122.387,124.017
			c-1.813-0.952-5.391-1.024-5.391-1.024s0.473,3.194,1.904,4.451"/>
		<path fill="none" stroke="#3E2670" stroke-linecap="round" stroke-linejoin="round" stroke-miterlimit="10" d="M119.053,121.164
			c-2.811,0.082-5.418-2.255-5.418-2.255s1.842,3.562,1.154,5.119"/>
		<path fill="none" stroke="#3E2670" stroke-linecap="round" stroke-linejoin="round" stroke-miterlimit="10" d="M115.227,117.37
			c-1.398-1.497-4.752-2.743-4.752-2.743s-0.606,3.171,0.33,4.83"/>
		<path fill="none" stroke="#3E2670" stroke-linecap="round" stroke-linejoin="round" stroke-miterlimit="10" d="M113.02,113.577
			c-2.681-0.849-4.372-3.914-4.372-3.914s0.565,3.97-0.598,5.213"/>
	</g>
	<g>
		<path fill="none" stroke="#3E2670" stroke-linecap="round" stroke-linejoin="round" stroke-miterlimit="10" d="M141.908,139.13
			c-1.083,1.979-4.326,2.199-4.326,2.199s2.807-0.345,4.41,0.839"/>
		<path fill="none" stroke="#3E2670" stroke-linecap="round" stroke-linejoin="round" stroke-miterlimit="10" d="M138.059,139.531
			c-1.924,0.319-3.972,1.649-3.972,1.649s1.605,1.415,3.413,1.547"/>
		<path fill="none" stroke="#3E2670" stroke-linecap="round" stroke-linejoin="round" stroke-miterlimit="10" d="M147.08,139.446
			c-1.924,0.319-3.972,1.649-3.972,1.649s1.605,1.415,3.413,1.547"/>
		<path fill="none" stroke="#3E2670" stroke-linecap="round" stroke-linejoin="round" stroke-miterlimit="10" d="M133.857,139.051
			c-1.022,1.335-5.408,1.402-5.408,1.402s3.713,1.543,4.304,2.603"/>
		<path fill="none" stroke="#3E2670" stroke-linecap="round" stroke-linejoin="round" stroke-miterlimit="10" d="M129.502,138.164
			c-2.379-0.316-5.379,0.616-5.379,0.616s1.428,3.136,3.509,3.942"/>
		<path fill="none" stroke="#3E2670" stroke-linecap="round" stroke-linejoin="round" stroke-miterlimit="10" d="M124.169,136.647
			c-2.484,1.214-5.884-0.859-5.884-0.859s3.562,2.467,3.941,4.913"/>
		<path fill="none" stroke="#3E2670" stroke-linecap="round" stroke-linejoin="round" stroke-miterlimit="10" d="M120.504,134.588
			c-1.904-0.921-5.599-0.874-5.599-0.874s0.596,3.28,2.116,4.53"/>
		<path fill="none" stroke="#3E2670" stroke-linecap="round" stroke-linejoin="round" stroke-miterlimit="10" d="M116.966,131.756
			c-2.898,0.18-5.668-2.144-5.668-2.144s2.022,3.614,1.365,5.245"/>
		<path fill="none" stroke="#3E2670" stroke-linecap="round" stroke-linejoin="round" stroke-miterlimit="10" d="M113.57,128.88
			c-1.545-1.444-5.088-2.494-5.088-2.494s-0.403,3.31,0.678,4.954"/>
		<path fill="none" stroke="#3E2670" stroke-linecap="round" stroke-linejoin="round" stroke-miterlimit="10" d="M111.03,125.126
			c-2.822-0.687-4.778-3.728-4.778-3.728s0.86,4.051-0.251,5.414"/>
		<path fill="none" stroke="#3E2670" stroke-linecap="round" stroke-linejoin="round" stroke-miterlimit="10" d="M108.813,120.871
			c-1.244-1.711-4.524-3.413-4.524-3.413s-1.023,3.174-0.273,4.992"/>
		<path fill="none" stroke="#3E2670" stroke-linecap="round" stroke-linejoin="round" stroke-miterlimit="10" d="M107.286,116.449
			c-2.64-1.209-3.985-4.565-3.985-4.565s0.077,4.141-1.272,5.268"/>
	</g>
	<g>
		<path fill="none" stroke="#3E2670" stroke-linecap="round" stroke-linejoin="round" stroke-miterlimit="10" d="M145.518,111.461
			c-1.539,1.551-4.615,0.886-4.615,0.886s2.704,0.432,3.879,1.963"/>
		<path fill="none" stroke="#3E2670" stroke-linecap="round" stroke-linejoin="round" stroke-miterlimit="10" d="M141.462,110.455
			c-1.888-0.02-4.066,0.901-4.066,0.901s1.291,1.62,2.993,2.051"/>
		<path fill="none" stroke="#3E2670" stroke-linecap="round" stroke-linejoin="round" stroke-miterlimit="10" d="M137.537,109.031
			c-1.2,1.1-5.393,0.423-5.393,0.423s3.28,2.099,3.664,3.209"/>
		<path fill="none" stroke="#3E2670" stroke-linecap="round" stroke-linejoin="round" stroke-miterlimit="10" d="M134.045,107.705
			c-2.214-0.703-5.233-0.321-5.233-0.321s0.832,3.231,2.68,4.352"/>
		<path fill="none" stroke="#3E2670" stroke-linecap="round" stroke-linejoin="round" stroke-miterlimit="10" d="M128.706,105.23
			c-2.573,0.738-5.465-1.813-5.465-1.813s2.98,2.954,2.927,5.35"/>
		<path fill="none" stroke="#3E2670" stroke-linecap="round" stroke-linejoin="round" stroke-miterlimit="10" d="M125.52,102.415
			c-1.66-1.2-5.191-1.779-5.191-1.779s0.014,3.229,1.252,4.677"/>
		<path fill="none" stroke="#3E2670" stroke-linecap="round" stroke-linejoin="round" stroke-miterlimit="10" d="M122.243,99.117
			c-2.794-0.318-5.042-3.001-5.042-3.001s1.317,3.788,0.415,5.231"/>
	</g>
	<g>
		<path fill="none" stroke="#3E2670" stroke-linecap="round" stroke-linejoin="round" stroke-miterlimit="10" d="M151.197,103.345
			c-1.647,1.435-4.667,0.548-4.667,0.548s2.666,0.627,3.726,2.239"/>
		<path fill="none" stroke="#3E2670" stroke-linecap="round" stroke-linejoin="round" stroke-miterlimit="10" d="M147.283,101.862
			c-1.1,1.201-5.336,0.891-5.336,0.891s3.45,1.805,3.93,2.877"/>
		<path fill="none" stroke="#3E2670" stroke-linecap="round" stroke-linejoin="round" stroke-miterlimit="10" d="M142.532,100.029
			c-2.322-0.084-5.128,1.091-5.128,1.091s1.667,2.891,3.747,3.475"/>
		<path fill="none" stroke="#3E2670" stroke-linecap="round" stroke-linejoin="round" stroke-miterlimit="10" d="M137.251,99.061
			c-2.282,1.4-5.751-0.284-5.751-0.284s3.662,2.049,4.253,4.371"/>
		<path fill="none" stroke="#3E2670" stroke-linecap="round" stroke-linejoin="round" stroke-miterlimit="10" d="M133.36,96.956
			c-1.921-0.712-5.478-0.324-5.478-0.324s0.878,3.107,2.459,4.171"/>
		<path fill="none" stroke="#3E2670" stroke-linecap="round" stroke-linejoin="round" stroke-miterlimit="10" d="M129.687,94.553
			c-2.777,0.442-5.662-1.542-5.662-1.542s2.283,3.297,1.801,4.929"/>
	</g>
	<g>
		<path fill="none" stroke="#3E2670" stroke-linecap="round" stroke-linejoin="round" stroke-miterlimit="10" d="M153.365,95.973
			c-1.708,1.363-4.686,0.347-4.686,0.347s2.636,0.741,3.626,2.398"/>
		<path fill="none" stroke="#3E2670" stroke-linecap="round" stroke-linejoin="round" stroke-miterlimit="10" d="M149.535,94.726
			c-1.814-0.523-4.159-0.216-4.159-0.216s0.812,1.905,2.338,2.775"/>
		<path fill="none" stroke="#3E2670" stroke-linecap="round" stroke-linejoin="round" stroke-miterlimit="10" d="M146.316,92.673
			c-1.289,0.995-5.41-0.035-5.41-0.035s3.09,2.369,3.379,3.508"/>
		<path fill="none" stroke="#3E2670" stroke-linecap="round" stroke-linejoin="round" stroke-miterlimit="10" d="M141.806,90.356
			c-2.241-0.613-5.242-0.11-5.242-0.11s0.961,3.195,2.853,4.24"/>
		<path fill="none" stroke="#3E2670" stroke-linecap="round" stroke-linejoin="round" stroke-miterlimit="10" d="M136.478,88.22
			c-2.477,1.016-5.63-1.204-5.63-1.204s3.285,2.61,3.495,4.998"/>
	</g>
	<g>
		<path fill="none" stroke="#3E2670" stroke-linecap="round" stroke-linejoin="round" stroke-miterlimit="10" d="M135.152,149.412
			c-2.037,1.816-5.821,0.75-5.821,0.75s3.338,0.746,4.684,2.745"/>
		<path fill="none" stroke="#3E2670" stroke-linecap="round" stroke-linejoin="round" stroke-miterlimit="10" d="M129.698,148.434
			c-1.217,1.082-5.399,0.34-5.399,0.34s3.247,2.149,3.614,3.265"/>
		<path fill="none" stroke="#3E2670" stroke-linecap="round" stroke-linejoin="round" stroke-miterlimit="10" d="M125.16,146.124
			c-2.301-0.322-5.213,0.56-5.213,0.56s1.362,3.046,3.371,3.841"/>
		<path fill="none" stroke="#3E2670" stroke-linecap="round" stroke-linejoin="round" stroke-miterlimit="10" d="M120.006,144.619
			c-2.413,1.159-5.691-0.872-5.691-0.872s3.432,2.413,3.782,4.784"/>
		<path fill="none" stroke="#3E2670" stroke-linecap="round" stroke-linejoin="round" stroke-miterlimit="10" d="M116.351,142.126
			c-1.837-0.905-5.416-0.884-5.416-0.884s0.555,3.18,2.018,4.401"/>
		<path fill="none" stroke="#3E2670" stroke-linecap="round" stroke-linejoin="round" stroke-miterlimit="10" d="M112.945,139.36
			c-2.808,0.155-5.474-2.114-5.474-2.114s1.934,3.513,1.286,5.088"/>
	</g>
	<g>
		<path fill="none" stroke="#3E2670" stroke-linecap="round" stroke-linejoin="round" stroke-miterlimit="10" d="M159.767,92.615
			c-0.044-1.594-2.767-3.636-2.767-3.636s2.383,1.277,3.77,0.87"/>
		<path fill="none" stroke="#3E2670" stroke-linecap="round" stroke-linejoin="round" stroke-miterlimit="10" d="M155.783,91.333
			c-0.485-2.95-3.549-4.993-3.549-4.993s3.807,1.22,4.851,0.681"/>
		<path fill="none" stroke="#3E2670" stroke-linecap="round" stroke-linejoin="round" stroke-miterlimit="10" d="M150.926,89.803
			c-1.868-1.382-3.032-5.25-3.032-5.25s2.094-1.096,4.085-0.255"/>
		<path fill="none" stroke="#3E2670" stroke-linecap="round" stroke-linejoin="round" stroke-miterlimit="10" d="M146.193,87.267
			c-0.172-2.714-4.172-4.416-4.172-4.416s3.66,0.511,5.617-0.34"/>
		<path fill="none" stroke="#3E2670" stroke-linecap="round" stroke-linejoin="round" stroke-miterlimit="10" d="M141.838,86.486
			c-1.945-0.641-3.902-4.572-3.902-4.572s2.016-1.005,3.915-0.851"/>
		<path fill="none" stroke="#3E2670" stroke-linecap="round" stroke-linejoin="round" stroke-miterlimit="10" d="M136.149,85.745
			c0.511-3.404-3.66-4.851-3.66-4.851s3.785,0.641,4.426-0.936"/>
	</g>
	<g>
		<path fill="none" stroke="#3E2670" stroke-linecap="round" stroke-linejoin="round" stroke-miterlimit="10" d="M167.912,85.722
			c0.369-1.542-1.976-3.408-1.976-3.408s1.854,1.063,2.984,0.64"/>
		<path fill="none" stroke="#3E2670" stroke-linecap="round" stroke-linejoin="round" stroke-miterlimit="10" d="M161.979,83.648
			c-0.022-3.031-3.596-5.648-3.596-5.648s3.722,0.678,4.723,0.064"/>
		<path fill="none" stroke="#3E2670" stroke-linecap="round" stroke-linejoin="round" stroke-miterlimit="10" d="M158.234,82.17
			c-2.489-1.723-3.511-5.617-3.511-5.617s1.974-1.075,4.021-0.383"/>
		<path fill="none" stroke="#3E2670" stroke-linecap="round" stroke-linejoin="round" stroke-miterlimit="10" d="M152.628,80.509
			c-0.37-2.694-3.309-5.233-3.309-5.233s2.451,0.418,4.34-0.574"/>
		<path fill="none" stroke="#3E2670" stroke-linecap="round" stroke-linejoin="round" stroke-miterlimit="10" d="M148.951,79.922
			c-1.987-0.497-3.632-5.539-3.632-5.539s1.095-0.652,3-0.638"/>
		<path fill="none" stroke="#3E2670" stroke-linecap="round" stroke-linejoin="round" stroke-miterlimit="10" d="M141.154,78.759
			c-2.04-0.178-4.457-4.9-4.457-4.9s0.979-0.816,2.862-1.102"/>
		<path fill="none" stroke="#3E2670" stroke-linecap="round" stroke-linejoin="round" stroke-miterlimit="10" d="M143.691,79.302
			c0.26-3.433-3.414-5.089-3.414-5.089s2.766,0.298,3.754-0.739"/>
		<path fill="none" stroke="#3E2670" stroke-linecap="round" stroke-linejoin="round" stroke-miterlimit="10" d="M167.768,81.645
			c-2.003-1.025-4.815-1.199-4.815-1.199s0.516,2.413,2.103,3.778"/>
	</g>
	<g>
		<path fill="none" stroke="#3E2670" stroke-linecap="round" stroke-linejoin="round" stroke-miterlimit="10" d="M175.768,80.786
			c0.421-1.529-1.858-3.473-1.858-3.473s1.817,1.125,2.961,0.741"/>
		<path fill="none" stroke="#3E2670" stroke-linecap="round" stroke-linejoin="round" stroke-miterlimit="10" d="M169.909,78.511
			c0.081-3.03-3.402-5.768-3.402-5.768s3.697,0.805,4.718,0.225"/>
		<path fill="none" stroke="#3E2670" stroke-linecap="round" stroke-linejoin="round" stroke-miterlimit="10" d="M166.216,76.907
			c-2.429-1.807-3.317-5.733-3.317-5.733s2.01-1.007,4.032-0.246"/>
		<path fill="none" stroke="#3E2670" stroke-linecap="round" stroke-linejoin="round" stroke-miterlimit="10" d="M160.67,75.056
			c-0.278-2.705-2.904-4.821-2.904-4.821s2.21-0.02,4.133-0.947"/>
		<path fill="none" stroke="#3E2670" stroke-linecap="round" stroke-linejoin="round" stroke-miterlimit="10" d="M157.015,74.344
			c-1.969-0.564-3.59-5.131-3.59-5.131s1.926-0.973,3.83-0.894"/>
		<path fill="none" stroke="#3E2670" stroke-linecap="round" stroke-linejoin="round" stroke-miterlimit="10" d="M149.262,72.915
			c-2.475-0.894-4.645-3.575-4.645-3.575s1.682-1.821,3.574-2.043"/>
		<path fill="none" stroke="#3E2670" stroke-linecap="round" stroke-linejoin="round" stroke-miterlimit="10" d="M151.779,73.544
			c0.376-3.422-3.141-4.459-3.141-4.459s2.656-0.351,3.678-1.354"/>
		<path fill="none" stroke="#3E2670" stroke-linecap="round" stroke-linejoin="round" stroke-miterlimit="10" d="M175.762,76.707
			c-1.967-1.092-4.772-1.362-4.772-1.362s0.434,2.429,1.973,3.847"/>
	</g>
	<g>
		<path fill="none" stroke="#3E2670" stroke-linecap="round" stroke-linejoin="round" stroke-miterlimit="10" d="M186.416,78.769
			c0.49-1.508-1.7-3.553-1.7-3.553s1.764,1.206,2.924,0.874"/>
		<path fill="none" stroke="#3E2670" stroke-linecap="round" stroke-linejoin="round" stroke-miterlimit="10" d="M180.666,76.232
			c0.218-3.024-3.138-5.915-3.138-5.915s3.657,0.971,4.704,0.437"/>
		<path fill="none" stroke="#3E2670" stroke-linecap="round" stroke-linejoin="round" stroke-miterlimit="10" d="M177.049,74.463
			c-2.345-1.915-3.055-5.877-3.055-5.877s2.053-0.916,4.039-0.064"/>
		<path fill="none" stroke="#3E2670" stroke-linecap="round" stroke-linejoin="round" stroke-miterlimit="10" d="M171.592,72.363
			c-0.156-2.715-2.884-5.478-2.884-5.478s2.41,0.61,4.372-0.229"/>
		<path fill="none" stroke="#3E2670" stroke-linecap="round" stroke-linejoin="round" stroke-miterlimit="10" d="M167.973,71.487
			c-1.942-0.652-3.182-5.809-3.182-5.809s1.143-0.564,3.041-0.399"/>
		<path fill="none" stroke="#3E2670" stroke-linecap="round" stroke-linejoin="round" stroke-miterlimit="10" d="M160.292,69.711
			c-2.02-0.339-4.056-5.237-4.056-5.237s1.04-0.736,2.941-0.872"/>
		<path fill="none" stroke="#3E2670" stroke-linecap="round" stroke-linejoin="round" stroke-miterlimit="10" d="M162.936,69.915
			c0.53-3.401-3.159-4.806-3.159-4.806s2.734,0.516,3.8-0.439"/>
		<path fill="none" stroke="#3E2670" stroke-linecap="round" stroke-linejoin="round" stroke-miterlimit="10" d="M186.595,74.694
			c-1.916-1.18-4.705-1.576-4.705-1.576s0.324,2.447,1.797,3.932"/>
	</g>
	<g>
		
			<path fill="none" stroke="#3E2670" stroke-width="0.9318" stroke-linecap="round" stroke-linejoin="round" stroke-miterlimit="10" d="
			M194.039,74.255c0.424-1.303-1.469-3.07-1.469-3.07s1.524,1.042,2.527,0.755"/>
		
			<path fill="none" stroke="#3E2670" stroke-width="0.9318" stroke-linecap="round" stroke-linejoin="round" stroke-miterlimit="10" d="
			M189.07,72.063c0.189-2.612-2.711-5.111-2.711-5.111s3.16,0.839,4.064,0.378"/>
		
			<path fill="none" stroke="#3E2670" stroke-width="0.9318" stroke-linecap="round" stroke-linejoin="round" stroke-miterlimit="10" d="
			M185.946,70.534c-2.026-1.655-2.639-5.078-2.639-5.078s1.774-0.791,3.49-0.055"/>
		
			<path fill="none" stroke="#3E2670" stroke-width="0.9318" stroke-linecap="round" stroke-linejoin="round" stroke-miterlimit="10" d="
			M181.23,68.719c-0.134-2.346-2.492-4.733-2.492-4.733s2.082,0.528,3.778-0.198"/>
		
			<path fill="none" stroke="#3E2670" stroke-width="0.9318" stroke-linecap="round" stroke-linejoin="round" stroke-miterlimit="10" d="
			M194.193,70.734c-1.655-1.02-4.065-1.362-4.065-1.362s0.28,2.114,1.553,3.398"/>
	</g>
	<g>
		
			<path fill="none" stroke="#3E2670" stroke-width="0.2655" stroke-linecap="round" stroke-linejoin="round" stroke-miterlimit="10" d="
			M201.973,74.517c0.326-1.092-1.283-2.522-1.283-2.522s1.288,0.835,2.116,0.576"/>
		
			<path fill="none" stroke="#3E2670" stroke-width="0.4347" stroke-linecap="round" stroke-linejoin="round" stroke-miterlimit="10" d="
			M197.323,72.891c0.47-2.127-1.615-4.531-1.615-4.531s2.498,1.071,3.298,0.8"/>
		
			<path fill="none" stroke="#3E2670" stroke-width="0.3592" stroke-linecap="round" stroke-linejoin="round" stroke-miterlimit="10" d="
			M202.03,71.587c-1.396-0.814-3.407-1.049-3.407-1.049s0.275,1.751,1.36,2.793"/>
	</g>
	<g>
		<path fill="none" stroke="#3E2670" stroke-linecap="round" stroke-linejoin="round" stroke-miterlimit="10" d="M127.122,169.873
			c-1.72,1.045-6.638-0.784-6.638-0.784s3.47,3.333,3.669,4.771"/>
		<path fill="none" stroke="#3E2670" stroke-linecap="round" stroke-linejoin="round" stroke-miterlimit="10" d="M122.279,167.629
			c-2.093-0.782-5.01-0.562-5.01-0.562s0.643,3.144,2.363,4.309"/>
		<path fill="none" stroke="#3E2670" stroke-linecap="round" stroke-linejoin="round" stroke-miterlimit="10" d="M117.95,164.915
			c-2.507,0.585-5.161-2.006-5.161-2.006s2.719,2.981,2.553,5.28"/>
	</g>
	<g>
		<path fill="none" stroke="#3E2670" stroke-linecap="round" stroke-linejoin="round" stroke-miterlimit="10" d="M126.309,160.75
			c-2.667-0.66-6.059-0.082-6.059-0.082s1.287,2.725,3.553,3.905"/>
		<path fill="none" stroke="#3E2670" stroke-linecap="round" stroke-linejoin="round" stroke-miterlimit="10" d="M121.368,158.084
			c-1.982,0.862-6.95-1.799-6.95-1.799s3.209,4.05,3.211,5.609"/>
		<path fill="none" stroke="#3E2670" stroke-linecap="round" stroke-linejoin="round" stroke-miterlimit="10" d="M115.594,154.494
			c-2.113-1.136-5.25-1.325-5.25-1.325s0.227,3.438,1.889,4.928"/>
		<path fill="none" stroke="#3E2670" stroke-linecap="round" stroke-linejoin="round" stroke-miterlimit="10" d="M111.482,150.253
			c-2.753,0.258-5.2-2.884-5.2-2.884s2.46,3.567,1.949,5.989"/>
		<path fill="none" stroke="#3E2670" stroke-linecap="round" stroke-linejoin="round" stroke-miterlimit="10" d="M106.129,142.703
			c-2.734-0.412-4.353-4.05-4.353-4.05s1.529,4.054,0.451,6.282"/>
		<path fill="none" stroke="#3E2670" stroke-linecap="round" stroke-linejoin="round" stroke-miterlimit="10" d="M108.781,147.032
			c-1.455-1.535-4.929-2.797-4.929-2.797s-0.602,3.279,0.378,4.986"/>
		<path fill="none" stroke="#3E2670" stroke-linecap="round" stroke-linejoin="round" stroke-miterlimit="10" d="M104.376,139.1
			c-1.016-1.855-4.052-3.961-4.052-3.961s-1.418,3.018-0.906,4.917"/>
		<path fill="none" stroke="#3E2670" stroke-linecap="round" stroke-linejoin="round" stroke-miterlimit="10" d="M103.16,134.478
			c-2.706-1.054-4.244-4.326-4.244-4.326s0.317,4.129-0.965,5.333"/>
		<path fill="none" stroke="#3E2670" stroke-linecap="round" stroke-linejoin="round" stroke-miterlimit="10" d="M101.835,129.58
			c-0.814-1.779-3.475-3.922-3.475-3.922s-1.508,2.689-1.162,4.475"/>
		<path fill="none" stroke="#3E2670" stroke-linecap="round" stroke-linejoin="round" stroke-miterlimit="10" d="M101.741,124.577
			c-2.693-1.086-4.193-4.376-4.193-4.376s0.268,4.133-1.027,5.321"/>
		<path fill="none" stroke="#3E2670" stroke-linecap="round" stroke-linejoin="round" stroke-miterlimit="10" d="M137.934,162.715
			c-2.727,0.334-5.69,2.083-5.69,2.083s2.174,2.087,4.712,2.382"/>
		<path fill="none" stroke="#3E2670" stroke-linecap="round" stroke-linejoin="round" stroke-miterlimit="10" d="M132.367,161.985
			c-1.544,1.512-7.134,0.796-7.134,0.796s4.441,2.641,4.999,4.096"/>
	</g>
	
		<path fill="none" stroke="#3E2670" stroke-width="0.4571" stroke-linecap="round" stroke-linejoin="round" stroke-miterlimit="10" d="
		M141.993,179.045c-1.083,1.979-4.326,2.199-4.326,2.199s2.807-0.345,4.41,0.839"/>
	<g>
		<path fill="none" stroke="#3E2670" stroke-linecap="round" stroke-linejoin="round" stroke-miterlimit="10" d="M141.066,183.705
			c-2.957-0.238-6.279,1.955-6.279,1.955s1.654,1.694,4.276,2.556"/>
		<path fill="none" stroke="#3E2670" stroke-linecap="round" stroke-linejoin="round" stroke-miterlimit="10" d="M134.625,182.107
			c-1.354,0.997-5.37,1.085-5.37,1.085s2.962,2.137,3.234,3.319"/>
		<path fill="none" stroke="#3E2670" stroke-linecap="round" stroke-linejoin="round" stroke-miterlimit="10" d="M129.587,179.483
			c-2.379-0.316-5.379,0.616-5.379,0.616s1.428,3.136,3.509,3.942"/>
		<path fill="none" stroke="#3E2670" stroke-linecap="round" stroke-linejoin="round" stroke-miterlimit="10" d="M124.381,177.327
			c-2.484,1.214-5.594,0.247-5.594,0.247s3.272,1.361,3.651,3.807"/>
		<path fill="none" stroke="#3E2670" stroke-linecap="round" stroke-linejoin="round" stroke-miterlimit="10" d="M163.085,184.26
			c-2.85,0.823-4.978,4.804-4.978,4.804s0.733,0.014,3.489-0.106"/>
		<path fill="none" stroke="#3E2670" stroke-linecap="round" stroke-linejoin="round" stroke-miterlimit="10" d="M156.815,185.649
			c-0.915,1.411-4.666,3.415-4.666,3.415s3.319,0.17,3.88,0.664"/>
		<path fill="none" stroke="#3E2670" stroke-linecap="round" stroke-linejoin="round" stroke-miterlimit="10" d="M151.175,184.976
			c-2.337,0.545-4.643,3.918-4.643,3.918s2.279,1.428,4.511,1.447"/>
		<path fill="none" stroke="#3E2670" stroke-linecap="round" stroke-linejoin="round" stroke-miterlimit="10" d="M145.543,184.8
			c-1.894,2.014-5.309,2.646-5.309,2.646s4.085,0.936,4.925,1.833"/>
		<path fill="none" stroke="#3E2670" stroke-linecap="round" stroke-linejoin="round" stroke-miterlimit="10" d="M116.291,171.475
			c-2.727,0.459-5.418-1.56-5.418-1.56s2.735,2.442,2.403,4.894"/>
		<path fill="none" stroke="#3E2670" stroke-linecap="round" stroke-linejoin="round" stroke-miterlimit="10" d="M120.589,174.503
			c-1.904-0.921-5.802,0.434-5.802,0.434s0.799,1.973,2.319,3.223"/>
		<path fill="none" stroke="#3E2670" stroke-linecap="round" stroke-linejoin="round" stroke-miterlimit="10" d="M113.655,168.795
			c-1.545-1.444-5.088-2.494-5.088-2.494s-0.403,3.31,0.678,4.954"/>
		<path fill="none" stroke="#3E2670" stroke-linecap="round" stroke-linejoin="round" stroke-miterlimit="10" d="M111.115,165.041
			c-2.822-0.687-5.52-3.041-5.52-3.041s1.601,3.365,0.49,4.727"/>
		<path fill="none" stroke="#3E2670" stroke-linecap="round" stroke-linejoin="round" stroke-miterlimit="10" d="M108.898,160.786
			c-1.244-1.711-5.259-2.956-5.259-2.956s-0.287,2.716,0.463,4.535"/>
		<path fill="none" stroke="#3E2670" stroke-linecap="round" stroke-linejoin="round" stroke-miterlimit="10" d="M107.116,156.619
			c-3.562-0.151-5.009-3.044-5.009-3.044s1.1,2.62-0.249,3.747"/>
	</g>
	<path fill="#FFE896" stroke="#3E2670" stroke-width="2.5" stroke-miterlimit="10" d="M102.123,100.766
		c-2.735,6.071-8.149,11.322-12.495,14.835c-0.925,0.748-0.022,2.201,1.055,1.694c4.713-2.221,10.954-5.85,16.66-11.376"/>
	<path fill="#453823" stroke="#3E2670" stroke-width="2.5" stroke-miterlimit="10" d="M106.652,90.328
		c-4.347,6.729-12.295,11.73-17.353,14.418c-0.691,0.367-0.283,1.413,0.476,1.224c5.143-1.28,13.419-4.037,21.334-9.677"/>
	
		<ellipse transform="matrix(0.6043 -0.7968 0.7968 0.6043 -17.8831 120.3061)" fill="#FFE896" stroke="#3E2670" stroke-width="2.5" stroke-miterlimit="10" cx="112.18" cy="78.157" rx="20.659" ry="17.646"/>
	<path fill="#DFC890" stroke="#3E2670" stroke-width="2.5" stroke-miterlimit="10" d="M125.069,83.178
		c-6.443,3.508-29.59,7.735-37.411,7.678c-2.885-0.021-4.481-6.264-1.352-6.455c11.617-0.708,38.621-7.712,42.487-9.239
		C130.95,74.311,126.216,82.553,125.069,83.178z"/>
	<path fill="#DFC890" stroke="#3E2670" stroke-width="2.5" stroke-miterlimit="10" d="M125.677,87.471
		c-14.529,0.664-23.788-1.171-32.299-12.814c-3.922-5.365,2.074-11.383,4.327-8.426c9.115,11.962,12.759,14.546,28.784,15.64
		C130.237,82.126,129.827,87.281,125.677,87.471z"/>
	<path fill="#FFE896" stroke="#3E2670" stroke-width="2.5" stroke-miterlimit="10" d="M106.004,98.728
		c-8.029-12.126-7.646-25.965-1.789-39.144c1.464-3.295,8.045-3.744,6.665-0.293c-5.585,13.963-6.943,22.945,0.346,37.258
		C112.932,99.897,108.298,102.192,106.004,98.728z"/>
	<path fill="#FFE896" stroke="#3E2670" stroke-width="2.5" stroke-miterlimit="10" d="M126.054,81.237
		c-4.596,2.479-13.977,3.46-22.378,3.493c-1.419,0.006-2.893,0.38-4.228,0.334c-1.369-0.047-2.595-0.516-3.817-0.611
		c-1.003-0.078-2.071,0.072-2.937-0.036c-1.058-0.131-1.878-0.527-2.679-0.697c-2.823-0.598-2.22-6.713-0.034-6.595
		c1.027,0.056,2.633,0.958,3.798,1.001c1.438,0.053,2.465-0.755,4.048-0.72c1.294,0.029,2.57,0.699,3.918,0.716
		c1.623,0.02,3.325-0.616,4.962-0.612c1.783,0.004,3.554-0.001,5.27-0.016c7.17-0.061,13.367-0.284,15.369-0.637
		C129.629,76.453,127.204,80.616,126.054,81.237z"/>
	<path fill="#FFE896" stroke="#3E2670" stroke-width="2.5" stroke-miterlimit="10" d="M99.844,92.906
		c13.851-4.435,24.219-19.253,26.219-33.949c0.389-2.859-6.007-4.392-6.925-0.79c-3.713,14.573-7.908,22.631-22.23,29.902
		C93.557,89.77,94.38,94.656,99.844,92.906z"/>
	<path opacity="0.6" fill="#FFFFFF" enable-background="new    " d="M100.447,81.702c-0.802-0.063-5.841,1.242-6.558,1.193
		c-0.589-0.04-1.217,0.045-1.726-0.011c-0.622-0.069-1.102-0.284-1.572-0.374c-1.657-0.32-1.641-4.058-0.356-3.999
		c0.604,0.028,1.972,0.613,2.585,0.918c0.828,0.412,3.73-0.711,4.522-0.705c0.953,0.006,3.591,0.854,4.553,0.851
		c1.048-0.003,3.83-0.809,5.404-0.723C108.659,78.925,103.17,81.915,100.447,81.702z"/>
	<path opacity="0.6" fill="#FFFFFF" enable-background="new    " d="M101.34,76.383c0.085-4.426,1.106-9.021,3.997-16.338
		c1.001-2.534,4.545-2.356,3.417,0.246C104.064,71.106,101.282,79.434,101.34,76.383z"/>
	<path opacity="0.6" fill="#FFFFFF" enable-background="new    " d="M98.66,90.34c11.432-3.811,23.06-19.93,24.638-31.532
		c0.307-2.257-2.715-2.236-3.439,0.607C116.927,70.92,113,82.255,98.191,88.809C95.479,90.009,95.596,91.362,98.66,90.34z"/>
	<path fill="#DFC890" stroke="#3E2670" stroke-width="2.5" stroke-miterlimit="10" d="M102.934,93.614
		c-0.927-1.84,0.116-3.476,2.038-5.301c1.016-0.965,9.15-6.422,12.779-11.281c3.295-4.412,5.563-10.811,6.009-11.742
		c1.211-2.528,1.541-3.448,3.026-3.293c2.763,0.288,3.575,2.527,2.983,5.726c-0.22,1.187-0.633,2.506-1.211,3.907
		c-0.415,1.006-0.916,2.053-1.491,3.125c-0.505,0.941-1.069,1.9-1.683,2.864c-0.702,1.102-1.47,2.212-2.294,3.309
		c-0.838,1.115-1.733,2.219-2.676,3.29c-0.922,1.048-1.889,2.065-2.89,3.033c-1.043,1.008-2.081,1.984-3.097,2.888
		c-1.105,0.984-2.185,1.884-3.218,2.65c-1.302,0.967-2.53,1.721-3.638,2.163C105.532,95.765,103.897,95.525,102.934,93.614z"/>
	<path fill="#FFE896" stroke="#3E2670" stroke-width="2.5" stroke-miterlimit="10" d="M96.285,97.585
		c-2.044-4.784,3.661-4.083,21.145-11.79c11.976-5.279,11.421-12.042,14.208-11.385c3.819,0.9-1.296,12.86-12.959,18.764
		C103.717,100.748,98.245,102.171,96.285,97.585z"/>
	<path fill="#DFC890" stroke="#3E2670" stroke-width="2.5" stroke-miterlimit="10" d="M96.7,103.706
		c-2.045-4.061,9.966-4.315,22.082-15.838c9.484-9.019,9.644-20.758,12.624-20.404c7.016,0.834,1.709,15.561-7.555,24.783
		C111.965,104.077,99.448,109.164,96.7,103.706z"/>
	<g>
		
			<path fill="none" stroke="#3E2670" stroke-width="0.5" stroke-linecap="round" stroke-linejoin="round" stroke-miterlimit="10" d="
			M120.879,87.26c-0.819,1.701-0.909,4.064-0.909,4.064s2.88-0.569,3.993-1.928"/>
		
			<path fill="none" stroke="#3E2670" stroke-width="0.6052" stroke-linecap="round" stroke-linejoin="round" stroke-miterlimit="10" d="
			M118.157,90.318c0.487,1.554-1.904,5.063-1.904,5.063s3.292-2.08,4.46-1.957"/>
		
			<path fill="none" stroke="#3E2670" stroke-width="0.6152" stroke-linecap="round" stroke-linejoin="round" stroke-miterlimit="10" d="
			M115.027,93.272c-1.576,1.707-2.511,4.602-2.511,4.602s3.279,0.617,5.077-0.581"/>
		
			<path fill="none" stroke="#3E2670" stroke-width="0.5" stroke-linecap="round" stroke-linejoin="round" stroke-miterlimit="10" d="
			M129.939,70.269c-0.108,1.885,0.712,4.103,0.712,4.103s2.444-1.626,2.955-3.306"/>
		
			<path fill="none" stroke="#3E2670" stroke-width="0.6052" stroke-linecap="round" stroke-linejoin="round" stroke-miterlimit="10" d="
			M128.517,74.012c1.043,1.25,0.173,5.407,0.173,5.407s2.248-3.179,3.375-3.511"/>
		
			<path fill="none" stroke="#3E2670" stroke-width="0.6052" stroke-linecap="round" stroke-linejoin="round" stroke-miterlimit="10" d="
			M124.462,83.344c0.583,1.52-1.584,5.172-1.584,5.172s3.155-2.282,4.329-2.232"/>
		
			<path fill="none" stroke="#3E2670" stroke-width="0.6152" stroke-linecap="round" stroke-linejoin="round" stroke-miterlimit="10" d="
			M126.792,78.51c-0.805,2.179-0.564,5.212-0.564,5.212s3.266-0.681,4.471-2.475"/>
		
			<path fill="none" stroke="#3E2670" stroke-width="0.5424" stroke-linecap="round" stroke-linejoin="round" stroke-miterlimit="10" d="
			M110.853,96.65c-0.423,2.644-3.96,4.18-3.96,4.18s3.939-1.445,6.087-0.381"/>
		
			<path fill="none" stroke="#3E2670" stroke-width="0.5424" stroke-linecap="round" stroke-linejoin="round" stroke-miterlimit="10" d="
			M106.722,98.232c-1.791,0.994-3.813,3.946-3.813,3.946s2.93,1.356,4.766,0.85"/>
		
			<path fill="none" stroke="#3E2670" stroke-width="0.6564" stroke-linecap="round" stroke-linejoin="round" stroke-miterlimit="10" d="
			M102.507,99.454c-1.473,2.395-4.857,3.293-4.857,3.293s3.989,0.414,4.913,1.843"/>
	</g>
	<g>
		
			<path fill="none" stroke="#3E2670" stroke-width="0.4426" stroke-linecap="round" stroke-linejoin="round" stroke-miterlimit="10" d="
			M125.635,62.836c1.535,1.555,0.837,4.624,0.837,4.624s0.46-2.699,2.004-3.858"/>
		
			<path fill="none" stroke="#3E2670" stroke-width="0.5" stroke-linecap="round" stroke-linejoin="round" stroke-miterlimit="10" d="
			M124.937,66.518c-0.238,1.873,0.426,4.143,0.426,4.143s1.758-1.095,2.383-2.736"/>
		
			<path fill="none" stroke="#3E2670" stroke-width="0.6052" stroke-linecap="round" stroke-linejoin="round" stroke-miterlimit="10" d="
			M123.323,70.281c0.954,1.319-0.202,5.406-0.202,5.406s2.463-3.016,3.61-3.269"/>
		
			<path fill="none" stroke="#3E2670" stroke-width="0.6152" stroke-linecap="round" stroke-linejoin="round" stroke-miterlimit="10" d="
			M121.29,74.074c-0.954,2.118-0.924,5.161-0.924,5.161s3.306-0.453,4.632-2.159"/>
		
			<path fill="none" stroke="#3E2670" stroke-width="0.5424" stroke-linecap="round" stroke-linejoin="round" stroke-miterlimit="10" d="
			M118.401,78.6c0.436,2.641-2.432,5.219-2.432,5.219s3.279-2.618,5.653-2.29"/>
		
			<path fill="none" stroke="#3E2670" stroke-width="0.5424" stroke-linecap="round" stroke-linejoin="round" stroke-miterlimit="10" d="
			M114.983,81.409c-1.384,1.51-2.367,4.951-2.367,4.951s3.209,0.359,4.79-0.704"/>
		
			<path fill="none" stroke="#3E2670" stroke-width="0.6564" stroke-linecap="round" stroke-linejoin="round" stroke-miterlimit="10" d="
			M111.373,83.904c-0.638,2.739-3.564,4.662-3.564,4.662s3.915-0.871,5.244,0.192"/>
	</g>
	<g>
		
			<path fill="none" stroke="#3E2670" stroke-width="0.4426" stroke-linecap="round" stroke-linejoin="round" stroke-miterlimit="10" d="
			M120.92,56.511c1.772,1.279,1.593,4.421,1.593,4.421s0.006-2.738,1.336-4.137"/>
		
			<path fill="none" stroke="#3E2670" stroke-width="0.5542" stroke-linecap="round" stroke-linejoin="round" stroke-miterlimit="10" d="
			M120.366,59.446c-0.311,2.07,0.947,4.692,0.947,4.692s2.512-1.475,3.246-3.278"/>
		
			<path fill="none" stroke="#3E2670" stroke-width="0.6052" stroke-linecap="round" stroke-linejoin="round" stroke-miterlimit="10" d="
			M118.912,63.878c1.16,1.143,0.697,5.365,0.697,5.365s1.929-3.382,3.018-3.823"/>
		
			<path fill="none" stroke="#3E2670" stroke-width="0.6152" stroke-linecap="round" stroke-linejoin="round" stroke-miterlimit="10" d="
			M117.536,67.956c-0.589,2.247-0.055,5.242-0.055,5.242s3.185-0.995,4.21-2.898"/>
		
			<path fill="none" stroke="#3E2670" stroke-width="0.5424" stroke-linecap="round" stroke-linejoin="round" stroke-miterlimit="10" d="
			M115.438,72.898c0.868,2.532-1.533,5.55-1.533,5.55s2.799-3.126,5.194-3.196"/>
		
			<path fill="none" stroke="#3E2670" stroke-width="0.5424" stroke-linecap="round" stroke-linejoin="round" stroke-miterlimit="10" d="
			M112.534,76.235c-1.114,1.719-1.513,5.275-1.513,5.275s3.224-0.179,4.607-1.488"/>
		
			<path fill="none" stroke="#3E2670" stroke-width="0.5424" stroke-linecap="round" stroke-linejoin="round" stroke-miterlimit="10" d="
			M100.943,86.105c0.06,2.676-3.142,4.825-3.142,4.825s3.614-2.131,5.918-1.472"/>
		
			<path fill="none" stroke="#3E2670" stroke-width="0.5424" stroke-linecap="round" stroke-linejoin="round" stroke-miterlimit="10" d="
			M106.064,82.667c-1.583,1.3-3.04,4.568-3.04,4.568s3.126,0.806,4.841-0.023"/>
		
			<path fill="none" stroke="#3E2670" stroke-width="0.6564" stroke-linecap="round" stroke-linejoin="round" stroke-miterlimit="10" d="
			M109.387,79.294c-0.175,2.806-2.741,5.189-2.741,5.189s3.716-1.508,5.203-0.681"/>
	</g>
	<g>
		
			<path fill="none" stroke="#3E2670" stroke-width="0.5" stroke-linecap="round" stroke-linejoin="round" stroke-miterlimit="10" d="
			M114.021,86.99c-1.645,1.64-2.699,4.494-2.699,4.494s3.251,0.753,5.097-0.37"/>
		
			<path fill="none" stroke="#3E2670" stroke-width="0.5" stroke-linecap="round" stroke-linejoin="round" stroke-miterlimit="10" d="
			M109.711,90.191c-0.532,2.624-4.13,4.012-4.13,4.012s3.996-1.281,6.097-0.129"/>
		
			<path fill="none" stroke="#3E2670" stroke-width="0.5" stroke-linecap="round" stroke-linejoin="round" stroke-miterlimit="10" d="
			M105.517,91.601c-1.831,0.919-3.973,3.785-3.973,3.785s2.871,1.477,4.727,1.047"/>
		
			<path fill="none" stroke="#3E2670" stroke-width="0.5" stroke-linecap="round" stroke-linejoin="round" stroke-miterlimit="10" d="
			M101.256,92.648c-1.571,2.332-4.989,3.089-4.989,3.089s3.968,0.579,4.833,2.045"/>
	</g>
	<g>
		
			<path fill="none" stroke="#3E2670" stroke-width="0.4882" stroke-linecap="round" stroke-linejoin="round" stroke-miterlimit="10" d="
			M105.1,79.284c-1.743,0.601-3.485,2.273-3.485,2.273s2.06,1.664,3.767,1.503"/>
		
			<path fill="none" stroke="#3E2670" stroke-width="0.4304" stroke-linecap="round" stroke-linejoin="round" stroke-miterlimit="10" d="
			M100.914,80.075c-1.289,1.689-4.339,1.433-4.339,1.433s3.296,0.471,4.398,2.021"/>
		
			<path fill="none" stroke="#3E2670" stroke-width="0.4304" stroke-linecap="round" stroke-linejoin="round" stroke-miterlimit="10" d="
			M97.431,79.628c-1.625,0.022-4.148,1.325-4.148,1.325s1.538,2.049,3.012,2.386"/>
		
			<path fill="none" stroke="#3E2670" stroke-width="0.5209" stroke-linecap="round" stroke-linejoin="round" stroke-miterlimit="10" d="
			M94.026,78.898c-1.93,1.121-4.632,0.476-4.632,0.476s2.632,1.789,2.741,3.135"/>
	</g>
	<g>
		
			<path fill="none" stroke="#3E2670" stroke-width="0.6152" stroke-linecap="round" stroke-linejoin="round" stroke-miterlimit="10" d="
			M111.992,57.875c0.234,2.312,1.783,4.93,1.783,4.93s2.635-2.046,2.93-4.187"/>
		
			<path fill="none" stroke="#3E2670" stroke-width="0.5424" stroke-linecap="round" stroke-linejoin="round" stroke-miterlimit="10" d="
			M111.899,62.464c1.699,2.069,0.506,5.735,0.506,5.735s1.528-3.908,3.748-4.811"/>
		
			<path fill="none" stroke="#3E2670" stroke-width="0.5424" stroke-linecap="round" stroke-linejoin="round" stroke-miterlimit="10" d="
			M110.396,66.091c-0.442,2,0.428,5.47,0.428,5.47s2.957-1.295,3.795-3.006"/>
		
			<path fill="none" stroke="#3E2670" stroke-width="0.6564" stroke-linecap="round" stroke-linejoin="round" stroke-miterlimit="10" d="
			M108.803,70.464c0.818,2.69-0.753,5.82-0.753,5.82s2.953-2.713,4.636-2.458"/>
	</g>
	<g>
		
			<path fill="none" stroke="#3E2670" stroke-width="0.6152" stroke-linecap="round" stroke-linejoin="round" stroke-miterlimit="10" d="
			M110.675,58.789c-1.505,1.77-4.267,3.047-4.267,3.047s-1.008-3.181-0.035-5.11"/>
		
			<path fill="none" stroke="#3E2670" stroke-width="0.5424" stroke-linecap="round" stroke-linejoin="round" stroke-miterlimit="10" d="
			M107.825,63.34c-2.573,0.738-3.672,4.435-3.672,4.435s0.96-4.084-0.354-6.088"/>
		
			<path fill="none" stroke="#3E2670" stroke-width="0.5424" stroke-linecap="round" stroke-linejoin="round" stroke-miterlimit="10" d="
			M106.752,67.631c-0.771,1.898-3.458,4.26-3.458,4.26s-1.699-2.745-1.418-4.629"/>
		
			<path fill="none" stroke="#3E2670" stroke-width="0.6564" stroke-linecap="round" stroke-linejoin="round" stroke-miterlimit="10" d="
			M106.045,71.963c-2.201,1.751-2.684,5.218-2.684,5.218s-0.891-3.91-2.421-4.656"/>
	</g>
	<g>
		
			<path fill="none" stroke="#3E2670" stroke-width="0.4426" stroke-linecap="round" stroke-linejoin="round" stroke-miterlimit="10" d="
			M96.927,84.723c-0.733,2.058-3.8,2.764-3.8,2.764s2.631-0.759,4.345,0.127"/>
		
			<path fill="none" stroke="#3E2670" stroke-width="0.5" stroke-linecap="round" stroke-linejoin="round" stroke-miterlimit="10" d="
			M93.308,85.696c-1.79,0.6-3.546,2.184-3.546,2.184s1.751,1.107,3.5,0.957"/>
		
			<path fill="none" stroke="#3E2670" stroke-width="0.6052" stroke-linecap="round" stroke-linejoin="round" stroke-miterlimit="10" d="
			M89.217,85.879c-0.773,1.433-4.956,2.168-4.956,2.168s3.787,0.907,4.514,1.83"/>
	</g>
	<g>
		
			<path fill="none" stroke="#3E2670" stroke-width="0.5424" stroke-linecap="round" stroke-linejoin="round" stroke-miterlimit="10" d="
			M97.178,65.65c0.119,2.045-1.292,5.333-1.292,5.333s-2.714-1.749-3.269-3.571"/>
		
			<path fill="none" stroke="#3E2670" stroke-width="0.6564" stroke-linecap="round" stroke-linejoin="round" stroke-miterlimit="10" d="
			M98.402,69.864c-1.235,2.526-0.182,5.865-0.182,5.865s-2.485-3.148-4.187-3.164"/>
	</g>
	
		<path fill="none" stroke="#3E2670" stroke-width="0.7929" stroke-linecap="round" stroke-linejoin="round" stroke-miterlimit="10" d="
		M147.942,162.106c-2.006,0.85-3.883,2.829-3.883,2.829s2.112,1.117,4.111,0.788"/>
	
		<path fill="none" stroke="#3E2670" stroke-width="0.7929" stroke-linecap="round" stroke-linejoin="round" stroke-miterlimit="10" d="
		M143.539,162.764c-0.847,1.489-5.265,2.163-5.265,2.163s3.961,1.044,4.704,2.032"/>
	
		<path fill="none" stroke="#3E2670" stroke-width="0.765" stroke-linecap="round" stroke-linejoin="round" stroke-miterlimit="10" d="
		M144.539,148.809c-1.967,0.74-3.855,2.574-3.855,2.574s1.992,1.16,3.933,0.921"/>
	
		<path fill="none" stroke="#3E2670" stroke-width="0.765" stroke-linecap="round" stroke-linejoin="round" stroke-miterlimit="10" d="
		M140.183,149.126c-0.691,1.502-4.881,2.518-4.881,2.518s3.895,0.674,4.692,1.562"/>
	<g>
		<path fill="none" stroke="#3E2670" stroke-linecap="round" stroke-linejoin="round" stroke-miterlimit="10" d="M141.416,172.918
			c-1.181,1.629-6.424,1.848-6.424,1.848s4.49,1.728,5.231,2.977"/>
		<path fill="none" stroke="#3E2670" stroke-linecap="round" stroke-linejoin="round" stroke-miterlimit="10" d="M136.081,172.724
			c-2.233,0.09-4.837,1.423-4.837,1.423s1.81,2.649,3.848,3.057"/>
		<path fill="none" stroke="#3E2670" stroke-linecap="round" stroke-linejoin="round" stroke-miterlimit="10" d="M131.04,171.899
			c-2.085,1.51-5.535,0.15-5.535,0.15s3.662,1.695,4.399,3.879"/>
	</g>
	<g>
		<path fill="none" stroke="#3E2670" stroke-linecap="round" stroke-linejoin="round" stroke-miterlimit="10" d="M153.362,171.149
			c-0.498,1.95-3.94,3.206-3.94,3.206s3.367-0.392,4.515,0.496"/>
		<path fill="none" stroke="#3E2670" stroke-linecap="round" stroke-linejoin="round" stroke-miterlimit="10" d="M149.683,172.055
			c-2.043,0.905-3.974,3.103-3.974,3.103s2.658,1.797,4.703,1.426"/>
		<path fill="none" stroke="#3E2670" stroke-linecap="round" stroke-linejoin="round" stroke-miterlimit="10" d="M144.691,173.143
			c-1.383,2.172-5.091,2.177-5.091,2.177s4.029,0.229,5.518,1.988"/>
	</g>
</g>
</svg>
