<?xml version="1.0" encoding="utf-8"?>
<!-- Generator: Adobe Illustrator 23.0.1, SVG Export Plug-In . SVG Version: 6.00 Build 0)  -->
<svg version="1.1" id="Lips" xmlns="http://www.w3.org/2000/svg" xmlns:xlink="http://www.w3.org/1999/xlink" x="0px" y="0px"
	 width="450px" height="378px" viewBox="0 0 450 378" enable-background="new 0 0 450 378" xml:space="preserve">
<path fill="#AD7A66" d="M240.672,148.364c-4.122,0.829-6.589,0.139-9.006,0.948c-2.257,0.756-2.672,1.909-4.996,2.823
	c-2.613,1.027-4.268,0.139-7.419,2.565c-3.264,2.512-6.9,5.078-9.017,6.748c0,0,13.842,3.245,20.245,0.795
	c4.316-1.651,6.181-5.027,7.202-6.795C238.733,153.625,240.672,148.364,240.672,148.364z"/>
<path fill="none" stroke="#3E2670" stroke-width="3.6037" stroke-linecap="round" stroke-linejoin="round" stroke-miterlimit="10" d="
	M243.059,147.215c-3.705,2.065-7.718,6.396-14.556,9.078c-10.657,4.179-20.745,4.606-20.745,4.606"/>
<path fill="none" stroke="#3E2670" stroke-width="3.6037" stroke-linecap="round" stroke-linejoin="round" stroke-miterlimit="10" d="
	M216.194,163.956c4.705-1.263,7.882,0.735,14.284-1.714c4.316-1.651,6.114-3.689,7.269-5.372"/>
<path fill="none" stroke="#3E2670" stroke-width="3.6037" stroke-linecap="round" stroke-linejoin="round" stroke-miterlimit="10" d="
	M212.656,159.799c2.117-1.669,3.331-2.588,6.595-5.099c3.152-2.425,4.807-1.538,7.419-2.565c2.324-0.914,2.739-2.067,4.996-2.823
	c2.417-0.809,4.884-0.12,9.006-0.948"/>
</svg>
