<?xml version="1.0" encoding="utf-8"?>
<!-- Generator: Adobe Illustrator 23.0.1, SVG Export Plug-In . SVG Version: 6.00 Build 0)  -->
<svg version="1.1" id="Fakial_hair" xmlns="http://www.w3.org/2000/svg" xmlns:xlink="http://www.w3.org/1999/xlink" x="0px"
	 y="0px" width="450px" height="378px" viewBox="0 0 450 378" enable-background="new 0 0 450 378" xml:space="preserve">
<path fill="#6A604F" d="M229.084,173.986c0,0,3.098-0.042,5.93-1.19c3.035-1.231,4.47-2.872,4.47-2.872s2.982,8.798,4.497,13.123
	c0.615,1.754-0.182,2.988-2.258,3.927c-1.959,0.886-3.396,1.194-4.732-0.398C235.939,185.324,229.084,173.986,229.084,173.986z"/>
<path fill="#3E2670" d="M239.171,189.212c-1.094,0-2.264-0.402-3.33-1.672c-1.07-1.276-6.886-10.868-8.04-12.778l-1.355-2.241
	l2.617-0.036c0.06-0.001,2.881-0.063,5.388-1.08c2.62-1.062,3.897-2.462,3.91-2.477l1.714-1.907l0.83,2.42
	c0.029,0.088,2.996,8.84,4.492,13.108c0.497,1.421,0.762,4.063-3.057,5.79C241.556,188.695,240.412,189.212,239.171,189.212z
	 M231.604,175.247c2.595,4.26,5.927,9.64,6.535,10.364c0.534,0.638,0.912,0.925,2.964-0.004c1.886-0.853,1.65-1.524,1.461-2.064
	c-1.05-2.997-2.82-8.19-3.799-11.068c-0.798,0.554-1.858,1.172-3.188,1.711C234.194,174.747,232.767,175.066,231.604,175.247z"/>
</svg>
