<?xml version="1.0" encoding="utf-8"?>
<!-- Generator: Adobe Illustrator 23.0.1, SVG Export Plug-In . SVG Version: 6.00 Build 0)  -->
<svg version="1.1" id="body" xmlns="http://www.w3.org/2000/svg" xmlns:xlink="http://www.w3.org/1999/xlink" x="0px" y="0px"
	 width="450px" height="378px" viewBox="0 0 450 378" enable-background="new 0 0 450 378" xml:space="preserve">
<path fill="#B19177" d="M239.795,215.669c0,0,24.697-9.081,43.4-9.091c0,0,17.678-13.02,26.314-4.394
	c8.635,8.626,1.617,21.849-1.895,24.766c-3.513,2.917-21.106,2.891-21.106,2.891s-36.561,15.951-51.352,15.959
	c-10.682,0.006-20.474-13.555-20.474-13.555S223.699,210.825,239.795,215.669"/>
<path opacity="0.3" fill="#3E2670" d="M224.039,200.399c0,0-10.775,4.337-10.47,12.504c0.417,11.18,9.23,25.869,21.174,27.138
	c20.749,2.204,47.707-14.585,53.014-14.95c15.384-1.057,21.892-2.333,23.831-12.242c0,0,1.082,10.432-2.026,12.847
	c-3.107,2.415-20.127,3.364-26.727,5.248c-6.6,1.884-34.119,16.5-47.678,14.856c-13.559-1.644-25.577-15.939-28.696-23.345
	c-3.12-7.406-0.911-23.361-0.911-23.361l11.503-1.978L224.039,200.399z"/>
<path opacity="0.4" fill="#FFFFFF" d="M233.662,222.535c0,0,19.558-10.988,51.599-12.081c0,0,9.553-8.939,22.338-8.946
	c0,0,2.528-1.859-9.599-1.853c-12.128,0.007-13.338,7.077-13.338,7.077S248.897,205.727,233.662,222.535"/>
<path fill="#3E2670" d="M311.485,204.673c-0.589-0.091-1.392-0.153-2.116-0.173c-0.746-0.009-1.504-0.004-2.269,0.047
	c-0.761,0.064-1.537,0.127-2.314,0.249c-0.784,0.096-1.562,0.257-2.374,0.387c0.645-0.503,1.339-0.943,2.07-1.325
	c0.729-0.39,1.502-0.693,2.293-0.958c0.795-0.254,1.614-0.459,2.454-0.573c0.859-0.118,1.652-0.194,2.641-0.089
	c0.677,0.072,1.167,0.68,1.095,1.357s-0.68,1.168-1.357,1.096c-0.018-0.002-0.036-0.005-0.053-0.007L311.485,204.673z"/>
<path fill="#3E2670" d="M312.976,210.825c-0.166-0.037-0.544-0.099-0.844-0.117c-0.319-0.036-0.651-0.053-0.985-0.06
	c-0.669-0.013-1.361-0.001-2.054,0.067c-1.4,0.096-2.813,0.361-4.278,0.628c0.294-0.226,0.601-0.436,0.907-0.653
	c0.317-0.191,0.633-0.394,0.96-0.577c0.656-0.361,1.341-0.68,2.053-0.957c0.717-0.252,1.454-0.49,2.226-0.629
	c0.387-0.066,0.778-0.126,1.182-0.154c0.424-0.016,0.771-0.045,1.319,0.035c0.674,0.099,1.14,0.726,1.042,1.4
	c-0.099,0.674-0.726,1.141-1.4,1.042c-0.03-0.004-0.06-0.01-0.089-0.016L312.976,210.825z"/>
<path fill="#3E2670" d="M311.597,218.166c0.144,0.077,0.112,0.053,0.15,0.068c0.033,0.009,0.021,0.004,0.033,0.006
	c0.018,0,0.017-0.005,0.009-0.01c-0.001-0.011-0.042-0.021-0.069-0.034c-0.073-0.022-0.166-0.038-0.272-0.054
	c-0.208-0.034-0.453-0.041-0.703-0.04c-0.507-0.012-1.044,0.056-1.59,0.106c-1.093,0.129-2.209,0.344-3.343,0.555
	c0.913-0.705,1.873-1.345,2.913-1.905c0.524-0.28,1.065-0.527,1.662-0.735c0.303-0.094,0.613-0.182,0.965-0.238
	c0.174-0.031,0.362-0.043,0.569-0.045c0.111,0.004,0.211,0.003,0.347,0.023c0.06,0.007,0.127,0.018,0.213,0.039
	c0.044,0.012,0.067,0.014,0.133,0.038c0.07,0.028,0.071,0.015,0.246,0.109c0.585,0.349,0.776,1.105,0.427,1.69
	C312.938,218.324,312.181,218.515,311.597,218.166"/>
<path fill="#3E2670" d="M214.686,235.881c-0.202,0-0.407-0.028-0.611-0.088c-1.141-0.337-1.795-1.531-1.462-2.673
	c0.069-0.232,7.085-23.225,30.395-20.912c1.185,0.117,2.051,1.174,1.933,2.359c-0.118,1.186-1.167,2.043-2.36,1.933
	c-19.712-1.949-25.587,17.025-25.828,17.834C216.476,235.272,215.616,235.88,214.686,235.881"/>
<path fill="#B19177" d="M160.319,70.681c25.787-5.617,42.997,0.43,57.702,10.723c11.915,8.34,27.62,27.271,36.426,52.936
	c9.301,27.109-7.088,46.792-12.47,51.152c0,0,8.788,11.738,4.938,15.592c-3.85,3.854-16.323,1.808-27.907-4.191
	c0,0-7.302,1.681-18.859,1.958c-9.077,0.218-26.018-5.218-44.255-12.596c-22.066-8.927-44.634-33.51-41.872-64.681
	C116.404,94.681,134.739,76.253,160.319,70.681z"/>
<path opacity="0.4" fill="#FFFFFF" d="M114.362,129.064c0,0-1.532-32.34,45.447-51.745c17.18-7.096,36.255-5.106,36.255-5.106
	s-38.298-14.809-68.596,18.553C112.025,107.771,114.362,129.064,114.362,129.064z"/>
<path opacity="0.3" fill="#FFFFFF" d="M213.241,82.9c0,0,14.738,9.227,28.83,35.311c10.08,18.657,11.413,36.351,10.808,40.778
	c-2.149,15.717-6.965,22.756-6.965,22.756s17.46-14.134,9.888-43.403c-7.573-29.269-36.552-55.445-36.552-55.445L213.241,82.9z"/>
<path fill="#8E6F76" d="M164.021,154.936c7.787,7.915,24.846,47.681,74.801,33.024l3.202-0.002c0,0,8.09,13.037,2.244,16.277
	c-5.846,3.24-27.216-6.608-27.216-6.608s-26.35,6.331-57.754-12.563c-8.572-5.157-28.34-15.574-34.979-25.277
	c-9.865-14.418-9.594-31.401-8.17-28.34C131.468,164.383,158.917,149.748,164.021,154.936z"/>
<path fill="none" stroke="#3E2670" stroke-width="4.5" stroke-linecap="round" stroke-linejoin="round" stroke-miterlimit="10" d="
	M238.957,187.447c0,0,1.447-0.766,3.019-1.955c7.063-5.34,21.771-24.043,12.47-51.152c-8.805-25.665-24.766-44.34-36.681-52.681
	c-14.705-10.293-31.66-16.596-57.447-10.979c-25.58,5.572-43.915,24-46.298,50.894c-1.44,16.253,3.064,30.809,16.851,44.426
	c6.635,6.553,15.767,12.845,23.319,16.766c8.851,4.596,31.66,15.574,43.745,16.255c11.542,0.65,19.234-2.213,19.234-2.213"/>
<path fill="#3E2670" d="M240.06,206.844c-8.435,0.005-20.659-6.164-23.604-7.719c-1.053-0.556-1.457-1.86-0.9-2.914
	c0.555-1.053,1.856-1.457,2.914-0.901c8.131,4.288,21.646,9.304,24.827,6.449c4.775-4.278-3.348-13.657-3.696-14.054
	c-0.785-0.896-0.695-2.259,0.2-3.045c0.896-0.784,2.258-0.695,3.045,0.201c5.23,5.967,9.24,14.815,3.331,20.111
	C244.685,206.309,242.535,206.843,240.06,206.844"/>
<path fill="#3E2670" d="M237.366,247.968c-2.859,0.002-5.459-0.453-7.698-1.509c-19.693-9.292-25.733-22.209-27.332-31.409
	c-1.535-8.828,0.654-16.446,1.689-17.481c0.841-0.842,2.208-0.842,3.05,0.001c0.703,0.703,0.819,1.771,0.348,2.595
	c-0.461,1.264-8.85,26.851,24.086,42.392c8.191,3.867,25.729-3.482,38.533-8.85c6.372-2.669,11.875-4.976,15.96-5.963
	c0.172-0.041,0.341-0.064,0.522-0.06c0.115,0.002,11.503,0.054,19.476-2.416c2.382-0.738,4.074-2.913,4.208-5.41
	c0.052-0.976,0.159-1.954,0.272-2.988c0.311-2.853,0.633-5.803-0.163-9.048c-1.126-4.59-5.622-7.415-10.241-6.43
	c-5.26,1.122-9.38,2.609-14.875,6.888c-0.343,0.268-0.761,0.426-1.197,0.451c-11.177,0.665-41.882,4.353-49.641,13.32
	c-0.779,0.902-2.14,0.999-3.042,0.22c-0.901-0.779-1-2.141-0.22-3.042c9.928-11.474,46.386-14.38,51.981-14.761
	c5.869-4.458,10.536-6.11,16.095-7.295c6.903-1.475,13.643,2.751,15.329,9.621c0.977,3.985,0.598,7.469,0.262,10.543
	c-0.106,0.974-0.206,1.894-0.252,2.752c-0.231,4.292-3.141,8.029-7.24,9.3c-7.995,2.477-18.619,2.607-20.507,2.61
	c-3.746,0.946-9.245,3.251-15.059,5.687C260.051,242.572,247.188,247.963,237.366,247.968 M207.078,200.617
	c-0.001,0.001-0.002,0.002-0.003,0.003C207.076,200.619,207.077,200.618,207.078,200.617 M207.083,200.612
	c-0.001,0.001-0.002,0.002-0.003,0.003C207.081,200.614,207.082,200.613,207.083,200.612"/>
<path fill="#B19177" d="M256.841,179.723c0,0,12.838-14.054,14.036-27.825c0,0-8.025-14.99-5.103-17.916
	c2.922-2.925,7.415,1.897,7.415,1.897s2.888-14.845,13.106-13.7c10.218,1.144,19.831,16.905,8.41,33.371
	c0,0-12.049,37.68-21.152,42.583C273.552,198.133,260.284,192.343,256.841,179.723"/>
<path opacity="0.4" fill="#FFFFFF" d="M278.239,125.35c0,0,11.804-0.387,16.431,9.89c3.15,6.994-2.873,18.972-4.855,20.956
	c-1.982,1.985-9.838,22.603-13.194,31.233c-1.598,4.11-7.926,15.972-7.926,15.972s13.475-12.278,17.78-27.482
	c4.306-15.204,7.64-18.577,7.64-18.577s7.928-15.121,4.65-22.207c-3.277-7.085-5.638-13.903-12.47-12.955
	C279.462,123.128,278.239,125.35,278.239,125.35"/>
<path fill="#3E2670" d="M290.071,125.014c-0.086,1.408-0.312,2.662-0.623,3.95c-0.299,1.276-0.673,2.53-1.125,3.752
	c-0.468,1.218-0.949,2.425-1.566,3.57c-0.594,1.154-1.315,2.245-2.131,3.26c0.287-1.277,0.632-2.5,0.949-3.723
	c0.334-1.215,0.644-2.429,0.914-3.646c0.274-1.217,0.498-2.439,0.697-3.658c0.176-1.208,0.345-2.475,0.422-3.607l0.004-0.057
	c0.046-0.679,0.634-1.192,1.313-1.145C289.601,123.756,290.112,124.339,290.071,125.014"/>
<path fill="#3E2670" d="M295.328,128.864c-0.119,1.258-0.347,2.387-0.661,3.541c-0.297,1.146-0.677,2.268-1.125,3.359
	c-0.454,1.09-0.951,2.161-1.569,3.166c-0.594,1.015-1.338,1.947-2.166,2.783c0.323-1.142,0.691-2.216,1.009-3.304
	c0.332-1.079,0.656-2.15,0.908-3.239c0.269-1.083,0.497-2.173,0.692-3.263c0.178-1.082,0.349-2.213,0.454-3.234l0.005-0.051
	c0.07-0.677,0.675-1.169,1.352-1.099C294.901,127.592,295.391,128.191,295.328,128.864"/>
<path opacity="0.3" fill="#3E2670" d="M274.233,132.298c0,0,7.409,12.101,17.723,9.414c0,0-8.062,9.762-16.901-0.505
	C270.082,135.431,274.233,132.298,274.233,132.298"/>
<path opacity="0.3" fill="#3E2670" d="M272.617,149.633c0,0,5.115,4.515,10.662,3.69c0,0-4.313,2.673-12.226,0.337L272.617,149.633z
	"/>
<path fill="#3E2670" d="M285.802,122.454c-0.36,1.275-0.753,2.53-1.187,3.778c-0.418,1.251-0.866,2.493-1.334,3.728
	c-0.946,2.466-1.92,4.928-3.327,7.23c0.276-2.681,0.899-5.231,1.5-7.792c0.613-2.555,1.255-5.105,1.977-7.618
	c0.187-0.655,0.869-1.033,1.524-0.846C285.609,121.121,285.989,121.799,285.802,122.454"/>
<path fill="#3E2670" d="M265.903,206.87c-0.815,0-1.595-0.463-1.96-1.251c-0.501-1.081-0.03-2.363,1.051-2.864
	c0.069-0.033,7.735-3.744,13.543-14.375c3.523-6.448,11.937-29.998,12.021-30.235c0.063-0.176,0.149-0.344,0.255-0.498
	c9.732-14.137,6.63-23.089,3.915-27.166c-3.068-4.608-8.105-6.801-11.03-6.189c-6.535,1.372-8.363,11.819-8.379,11.925
	c-0.128,0.809-0.703,1.475-1.484,1.72c-0.78,0.247-1.634,0.029-2.202-0.563c-0.86-0.885-2.573-2.139-3.679-2.147
	c-0.255,0.026-0.448,0.074-0.655,0.28c-1.287,1.288,1.425,8.17,5.579,14.161c0.338,0.488,0.46,1.093,0.339,1.673
	c-0.157,0.742-3.917,18.276-12.273,27.008c-4.162,4.349-13.944,7.534-16.842,8.407c-1.143,0.343-2.344-0.304-2.688-1.443
	c-0.343-1.141,0.303-2.344,1.444-2.688c5.198-1.564,12.238-4.404,14.969-7.258c6.513-6.806,10.108-20.448,10.966-24.034
	c-2.774-4.152-8.916-14.5-4.545-18.874c1.008-1.011,2.286-1.545,3.694-1.546c0.019,0,0.038,0,0.057,0
	c1.409,0.014,2.769,0.57,3.895,1.236c1.296-4.129,4.355-10.701,10.919-12.078c5.076-1.071,11.75,2.379,15.505,8.019
	c3.304,4.962,7.183,15.669-3.791,31.769c-0.991,2.767-8.686,24.149-12.204,30.59c-6.533,11.956-15.153,16.052-15.516,16.22
	C266.514,206.805,266.206,206.87,265.903,206.87"/>
<path fill="#3E2670" d="M273.552,200.291c-0.267,0-0.537-0.05-0.8-0.155c-12.347-4.926-18.174-19.503-18.415-20.121
	c-0.435-1.109,0.113-2.361,1.222-2.794c1.109-0.434,2.36,0.112,2.795,1.22c0.07,0.178,5.423,13.469,15.997,17.689
	c1.106,0.441,1.646,1.696,1.204,2.802C275.218,199.776,274.409,200.291,273.552,200.291"/>
<path fill="#3E2670" d="M268.193,209.809c-0.671,0-1.332-0.311-1.754-0.898c-7.576-10.535-22.557-20.951-24.24-22.104
	c-0.983-0.674-1.234-2.016-0.561-2.999c0.674-0.984,2.016-1.235,2.999-0.561c2.85,1.953,17.466,12.245,25.305,23.146
	c0.695,0.967,0.475,2.315-0.492,3.01C269.069,209.677,268.629,209.809,268.193,209.809"/>
<path opacity="0.3" fill="#3E2670" d="M264.938,168.602c0,0-2.381,23.675,2.189,35.431c0,0-12.554-14.117-22.588-18.226
	C244.539,185.807,259.752,180.926,264.938,168.602"/>
</svg>
