<?xml version="1.0" encoding="utf-8"?>
<!-- Generator: Adobe Illustrator 23.0.1, SVG Export Plug-In . SVG Version: 6.00 Build 0)  -->
<svg version="1.1" id="Text_dark" xmlns="http://www.w3.org/2000/svg" xmlns:xlink="http://www.w3.org/1999/xlink" x="0px" y="0px"
	 width="450px" height="378px" viewBox="0 0 450 378" style="enable-background:new 0 0 450 378;" xml:space="preserve">
<style type="text/css">
	.st0{fill:#FFFFFF;}
	.st1{fill:#3D2A70;}
</style>
<path class="st0" d="M402.136,66.931c0,20.376-31.251,36.894-69.8,36.894c-19.313,0-36.795-4.146-49.432-10.846
	c-2.043-1.083-21.248,11.385-19.88,9.727c4.198-5.09,9.927-16.282,8.168-17.965c-5.517-5.28-8.657-11.351-8.657-17.81
	c0-20.376,31.251-36.894,69.801-36.894C370.885,30.037,402.136,46.555,402.136,66.931"/>
<polygon class="st1" points="287.091,46.862 300.732,46.862 301.807,51.951 297.138,51.951 297.138,65.932 290.685,65.932 
	290.685,51.951 286.016,51.951 "/>
<polygon class="st1" points="303.83,46.862 309.969,46.862 309.969,53.997 314.087,53.997 314.087,46.862 320.225,46.862 
	320.225,65.932 314.087,65.932 314.087,58.85 309.969,58.85 309.969,65.932 303.83,65.932 "/>
<path class="st1" d="M322.172,65.933l4.8-19.07h8.578l4.826,19.07h-6.242l-0.394-2.046h-4.905l-0.42,2.046H322.172z M329.674,59.821
	h3.201l-1.601-7.817L329.674,59.821z"/>
<polygon class="st1" points="342.321,46.862 348.171,46.862 352.893,55.414 352.893,46.862 358.873,46.862 358.873,65.932 
	352.997,65.932 348.276,57.591 348.276,65.932 342.321,65.932 "/>
<polygon class="st1" points="372.02,46.862 378.656,46.862 374.748,55.886 378.656,65.932 371.6,65.932 369.266,59.007 
	368.164,59.007 368.164,65.932 361.605,65.932 361.605,46.862 368.164,46.862 368.164,54.39 368.976,54.39 "/>
<polygon class="st1" points="311.295,73.259 313.656,80.289 315.755,73.259 322.942,73.259 316.856,86.191 316.856,92.329 
	310.245,92.329 310.245,86.191 304.081,73.259 "/>
<path class="st1" d="M324.178,89.051V76.565c0-1.915,1.312-3.306,3.28-3.306h9.758c1.993,0,3.305,1.391,3.305,3.306v12.486
	c0,1.941-1.574,3.279-3.541,3.279h-9.522C325.464,92.33,324.178,90.966,324.178,89.051 M333.622,87.241
	c0.708,0,0.892-0.21,0.892-0.918V79.24c0-0.734-0.211-0.918-0.919-0.918h-2.544c-0.734,0-0.892,0.184-0.892,0.892v7.109
	c0,0.734,0.158,0.918,0.892,0.918H333.622z"/>
<path class="st1" d="M347.529,92.329c-3.148,0-4.276-0.577-4.276-3.751V73.259h5.955v13.09c0,0.681,0.236,0.891,0.944,0.891h2.046
	c0.76,0,0.918-0.183,0.918-0.891v-13.09h5.981v15.319c0,3.174-1.154,3.751-4.302,3.751H347.529z"/>
</svg>
