<?xml version="1.0" encoding="utf-8"?>
<!-- Generator: Adobe Illustrator 23.0.1, SVG Export Plug-In . SVG Version: 6.00 Build 0)  -->
<svg version="1.1" id="Text_dark" xmlns="http://www.w3.org/2000/svg" xmlns:xlink="http://www.w3.org/1999/xlink" x="0px" y="0px"
	 width="450px" height="378px" viewBox="0 0 450 378" style="enable-background:new 0 0 450 378;" xml:space="preserve">
<style type="text/css">
	.st0{fill:#F6EB16;}
</style>
<path class="st0" d="M65.432,208.698c-0.728-0.639-1.588-1.014-2.514-1.301c-1.103-0.331-2.272-0.463-3.419-0.573
	c-0.308-0.044-0.595-0.044-0.904-0.132c0.066-0.133,0.155-0.199,0.243-0.287c0.684-0.596,1.389-1.169,2.095-1.743
	c1.081-0.882,2.184-1.786,3.176-2.823c0.441-0.463,0.882-0.948,1.125-1.543c0.132-0.287,0.176-0.552,0.198-0.816
	c0-0.552-0.264-1.037-0.794-1.412c-0.353-0.242-0.728-0.397-1.124-0.485c-0.794-0.198-1.566-0.265-2.382-0.265h-0.42
	c-1.102,0.044-2.183,0.199-3.264,0.419c-1.565,0.353-3.087,0.839-4.521,1.632c-0.617,0.331-1.191,0.728-1.676,1.235
	c-0.198,0.221-0.375,0.442-0.485,0.706c-0.066,0.155-0.11,0.309-0.11,0.463c0,0.331,0.154,0.662,0.441,0.883
	c0.198,0.154,0.441,0.264,0.661,0.352c0.331,0.111,0.64,0.199,0.949,0.287c0.264,0.088,0.507,0.177,0.728,0.309
	c0.264,0.132,0.375,0.287,0.375,0.529c0,0.066-0.023,0.133-0.023,0.199c-0.044,0.154-0.11,0.309-0.198,0.463
	c-1.389,2.646-2.669,5.337-3.86,8.072c-0.088,0.198-0.22,0.331-0.397,0.419c-1.168,0.573-2.249,1.257-3.264,2.051
	c-0.419,0.331-0.816,0.684-1.124,1.147c-0.265,0.375-0.397,0.772-0.397,1.147c0,0.507,0.198,1.014,0.639,1.433
	c0.287,0.287,0.64,0.485,1.015,0.64c1.168,0.485,2.448,0.639,3.705,0.683h0.419c0.308,0,0.639,0,0.97-0.022
	c0.64-0.044,1.279-0.11,1.919-0.22c1.831-0.287,3.595-0.772,5.315-1.434c1.742-0.639,3.419-1.477,4.874-2.624
	c0.97-0.706,1.831-1.522,2.47-2.514c0.419-0.64,0.728-1.324,0.772-2.096l0.022-0.198C66.667,210.22,66.204,209.382,65.432,208.698
	 M65.741,211.345c0,0.309-0.066,0.618-0.176,0.904c-0.287,0.706-0.75,1.301-1.28,1.853c-1.058,1.147-2.337,2.007-3.705,2.713
	c-2.117,1.102-4.367,1.808-6.682,2.271c-1.169,0.243-2.36,0.375-3.573,0.375c-0.287,0-0.596,0-0.904-0.022
	c-0.882-0.044-1.765-0.176-2.603-0.485c-0.397-0.133-0.772-0.309-1.036-0.618c-0.199-0.22-0.309-0.463-0.309-0.705
	c0.022-0.177,0.066-0.331,0.154-0.508c0.066-0.154,0.177-0.308,0.309-0.441c0.904-0.882,1.941-1.544,3.044-2.183
	c0,0.11-0.045,0.176-0.067,0.242c-0.397,0.971-0.816,1.919-1.124,2.934c-0.022,0.132-0.067,0.264-0.089,0.419l-0.022,0.088
	c0,0.22,0.133,0.397,0.309,0.463c0.044,0.022,0.088,0.022,0.132,0.022c0.177,0,0.353-0.132,0.441-0.331
	c0.045-0.11,0.067-0.22,0.089-0.33c0.419-1.39,0.992-2.691,1.566-4.014c0.044-0.133,0.132-0.199,0.264-0.243
	c0.816-0.353,1.632-0.618,2.492-0.728c0.177-0.044,0.353-0.044,0.552-0.088c0.198-0.066,0.353-0.265,0.353-0.463v-0.044
	c-0.022-0.221-0.199-0.353-0.441-0.375c-0.089,0-0.177,0-0.287,0.022c-0.177,0-0.331,0.022-0.507,0.066
	c-0.508,0.088-1.015,0.198-1.5,0.353c-0.044,0.022-0.11,0.044-0.177,0.044H50.92v-0.066c0-0.066,0.022-0.11,0.044-0.155
	c0.927-2.051,1.897-4.102,2.912-6.109c0.066-0.154,0.154-0.286,0.286-0.419c0.022-0.022,0.066-0.066,0.066-0.11
	c0.309-0.904,0.861-1.676,1.28-2.514c0.308-0.618,0.683-1.235,0.948-1.875c0.066-0.154,0.132-0.309,0.154-0.463v-0.066
	c0-0.221-0.132-0.397-0.331-0.441h-0.088c-0.198,0-0.397,0.11-0.441,0.309c-0.309,0.816-0.75,1.521-1.147,2.293
	c-0.022,0.066-0.066,0.132-0.088,0.177c-0.044,0.044-0.066,0.066-0.11,0.066c-0.022,0-0.044,0-0.044-0.022
	c-0.53-0.53-1.235-0.662-1.919-0.86c-0.242-0.089-0.463-0.155-0.662-0.287c-0.132-0.088-0.198-0.155-0.198-0.265
	c0-0.044,0.022-0.11,0.066-0.176c0.154-0.287,0.375-0.485,0.662-0.684c0.661-0.551,1.433-0.948,2.249-1.279
	c1.544-0.64,3.154-1.037,4.83-1.257c0.596-0.066,1.191-0.11,1.787-0.11c0.22,0,0.441,0,0.661,0.022
	c0.618,0.022,1.213,0.11,1.787,0.331c0.265,0.088,0.507,0.242,0.706,0.441c0.132,0.154,0.176,0.308,0.176,0.507
	c0,0.044,0,0.11-0.022,0.176c-0.088,0.287-0.221,0.529-0.397,0.772c-0.243,0.331-0.529,0.64-0.816,0.926
	c-0.971,0.993-2.051,1.853-3.132,2.735c-0.683,0.574-1.389,1.147-2.051,1.742c-0.199,0.177-0.375,0.353-0.485,0.552
	c-0.088,0.154-0.155,0.309-0.155,0.441c0,0.287,0.177,0.529,0.508,0.64c0.419,0.132,0.838,0.154,1.279,0.198
	c0.948,0.11,1.897,0.198,2.845,0.419c0.97,0.243,1.875,0.573,2.668,1.213c0.552,0.463,0.927,1.015,0.971,1.764
	C65.741,211.191,65.741,211.257,65.741,211.345"/>
<path class="st0" d="M166.346,208.246c-0.066-0.154-0.221-0.243-0.375-0.243c-0.045,0-0.111,0-0.155,0.023
	c-0.198,0.044-0.375,0.132-0.551,0.198c-0.529,0.154-1.059,0.198-1.61,0.198c-0.198,0-0.397,0-0.596-0.022
	c-0.11-0.022-0.242-0.044-0.374-0.066c-0.331-0.066-0.486-0.242-0.53-0.573c-0.022-0.154,0-0.287,0-0.419
	c0-0.154-0.022-0.287-0.044-0.441c-0.066-0.397-0.287-0.596-0.618-0.596c-0.088,0-0.176,0-0.242,0.022
	c-0.265,0.066-0.463,0.177-0.662,0.287c-0.793,0.507-1.544,1.081-2.271,1.676c-0.199,0.155-0.397,0.331-0.596,0.485
	c-0.022-0.022-0.044-0.022-0.066-0.044c0.088-0.176,0.155-0.353,0.221-0.529c0.308-0.618,0.595-1.213,0.882-1.831
	c0.11-0.198,0.176-0.419,0.176-0.661c-0.022-0.309-0.176-0.507-0.463-0.618c-0.11-0.022-0.22-0.044-0.331-0.044h-0.132
	c-0.353,0.066-0.684,0.132-1.015,0.243c-0.661,0.176-1.345,0.375-2.006,0.595c-0.265,0.066-0.552,0.132-0.838,0.199
	c-0.221,0.066-0.375,0.242-0.375,0.441v0.044c0.021,0.198,0.176,0.353,0.396,0.397c0.045,0.022,0.089,0.022,0.133,0.022
	c0.242,0.044,0.375,0.154,0.375,0.353c0,0.044-0.022,0.088-0.022,0.154c-0.066,0.265-0.177,0.485-0.331,0.684
	c-0.485,0.684-1.147,1.169-1.897,1.522c-0.11,0.044-0.22,0.088-0.353,0.11c-0.242,0-0.308-0.044-0.308-0.287v-0.088
	c0-0.154,0.066-0.331,0.11-0.507c0.019-0.047,0.042-0.091,0.062-0.137c0.129-0.087,0.202-0.223,0.202-0.371v-0.039
	c0.185-0.333,0.403-0.642,0.662-0.931c0.132-0.154,0.265-0.264,0.485-0.287c0.221-0.022,0.353-0.22,0.353-0.397
	c0.022-0.088,0-0.154-0.044-0.22c-0.066-0.199-0.287-0.353-0.529-0.353c-0.045,0-0.088,0.022-0.133,0.022
	c-0.198,0.066-0.396,0.199-0.551,0.353c-0.436,0.436-0.794,0.918-1.068,1.45c-0.011,0.002-0.024,0.003-0.035,0.006
	c-1.323,0.264-2.602,0.661-3.903,1.036c-1.191,0.375-2.382,0.772-3.573,1.169c-0.088,0.044-0.199,0.088-0.287,0.088
	c-0.044,0-0.066-0.022-0.11-0.022c-0.419-0.11-0.794-0.22-1.169-0.463c-0.22-0.132-0.331-0.265-0.331-0.441
	c0.022-0.088,0.044-0.199,0.088-0.309c0.133-0.309,0.331-0.573,0.552-0.794c1.169-1.235,2.558-2.117,4.102-2.757
	c0.419-0.176,0.882-0.308,1.345-0.308c0.067,0,0.133-0.022,0.199-0.022c0.088,0,0.154,0.022,0.176,0.11
	c0.022,0.022,0.022,0.066,0.022,0.088c0,0.11-0.11,0.198-0.176,0.287c-0.221,0.286-0.508,0.507-0.838,0.683
	c-0.926,0.552-1.897,0.905-2.933,1.081c-0.089,0.022-0.155,0.022-0.243,0.044c-0.221,0.066-0.375,0.243-0.375,0.419v0.044
	c0.022,0.221,0.199,0.397,0.441,0.419c0.154,0,0.287-0.022,0.419-0.044c0.75-0.132,1.456-0.353,2.162-0.661
	c0.639-0.265,1.213-0.596,1.72-1.037c0.352-0.309,0.639-0.662,0.75-1.103c0.022-0.088,0.022-0.176,0.044-0.242
	c0-0.419-0.243-0.772-0.684-0.905c-0.199-0.066-0.419-0.11-0.64-0.11h-0.132c-0.397,0.066-0.772,0.133-1.147,0.265
	c-1.896,0.639-3.484,1.698-4.874,3.11c-0.092,0.091-0.178,0.187-0.259,0.286h-0.027c-0.044,0-0.111,0.022-0.177,0.022
	c-0.242,0-0.463-0.088-0.706-0.132c-0.396-0.11-0.617-0.287-0.683-0.728c-0.066-0.353-0.287-0.551-0.596-0.551
	c-0.11,0-0.242,0.022-0.375,0.088c-0.198,0.088-0.352,0.221-0.507,0.353c-0.441,0.419-0.882,0.904-1.301,1.345
	c-0.044,0.044-0.066,0.111-0.177,0.111c0.133-0.287,0.265-0.552,0.398-0.794c0.066-0.067,0.11-0.133,0.154-0.155
	c0.22-0.11,0.309-0.308,0.309-0.507c0-0.066,0-0.132-0.022-0.199c-0.044-0.198-0.155-0.33-0.353-0.397
	c-0.045-0.022-0.088-0.022-0.111-0.022c-0.132,0-0.242,0.067-0.352,0.177c-0.111,0.11-0.199,0.242-0.265,0.375
	c-0.182,0.342-0.36,0.686-0.533,1.031c-0.006,0.002-0.012,0.003-0.018,0.005c-0.155,0.044-0.287,0.111-0.419,0.199l-2.669,1.522
	c-0.264,0.154-0.529,0.286-0.816,0.352c-0.088,0.023-0.154,0.023-0.198,0.023c-0.177,0-0.243-0.089-0.265-0.309
	c-0.022-0.066-0.022-0.11-0.022-0.155c0.022-0.308,0.11-0.617,0.242-0.904c0.023-0.066,0.066-0.11,0.111-0.11
	c0.022,0,0.066,0.022,0.11,0.044c0.154,0.088,0.309,0.132,0.463,0.132c0.154,0,0.287-0.022,0.441-0.088
	c0.706-0.265,1.235-0.706,1.654-1.345c0.133-0.221,0.221-0.441,0.265-0.706c0.022-0.088,0.044-0.176,0.044-0.265
	c0-0.485-0.397-0.882-0.926-0.882c-0.066,0-0.133,0.022-0.199,0.022c-0.353,0.066-0.684,0.243-0.992,0.463
	c-0.737,0.557-1.291,1.237-1.663,2.037c-0.073,0.007-0.141,0.02-0.205,0.037c-0.75,0.198-1.478,0.419-2.228,0.617
	c-0.132,0.044-0.22,0.066-0.286,0.066c-0.133,0-0.177-0.11-0.287-0.353c-0.132-0.286-0.331-0.419-0.64-0.419h-0.088
	c-0.242,0-0.463,0.111-0.684,0.221c-0.507,0.309-1.014,0.639-1.499,1.014c-0.155,0.111-0.309,0.221-0.507,0.375
	c0.043-0.176,0.066-0.308,0.088-0.419c0.11-0.397,0.22-0.794,0.242-1.213v-0.088c0.022-0.463-0.287-0.75-0.661-0.75
	c-0.111,0-0.221,0.022-0.331,0.066c-0.287,0.111-0.53,0.287-0.772,0.464c-0.772,0.617-1.478,1.279-2.161,1.962
	c-0.067,0.067-0.089,0.133-0.199,0.155c0.243-0.574,0.507-1.125,0.772-1.654c0.066-0.133,0.154-0.265,0.309-0.353
	c0.154-0.089,0.242-0.243,0.242-0.419c0-0.133-0.044-0.265-0.132-0.375c-0.074-0.112-0.181-0.173-0.304-0.191
	c-0.041-0.017-0.081-0.019-0.122-0.019c-0.11,0-0.198,0.044-0.264,0.066c-2.294,0.706-4.477,1.654-6.661,2.625
	c-1.875,0.86-3.639,1.919-5.381,3.021c-1.037,0.684-2.096,1.39-3.176,2.007c-0.772,0.419-1.522,0.816-2.338,1.081
	c-0.221,0.066-0.419,0.11-0.639,0.132h-0.111c-0.22,0-0.331-0.088-0.331-0.264c0-0.067,0.022-0.133,0.045-0.221
	c0.043-0.198,0.154-0.375,0.264-0.551c0.221-0.353,0.463-0.684,0.75-0.993c1.014-1.08,2.161-2.029,3.396-2.845
	c0.728-0.485,1.478-0.926,2.25-1.389c0.132-0.088,0.287-0.177,0.419-0.309c0.11-0.132,0.177-0.265,0.177-0.419
	c0-0.221-0.155-0.419-0.42-0.507c-0.154-0.044-0.309-0.066-0.463-0.066c-0.088,0-0.176,0.022-0.264,0.022
	c-1.015,0.11-2.051,0.22-3.066,0.352c-0.992,0.133-1.963,0.221-2.933,0.265c-0.441,0.022-0.905,0.044-1.346,0.044
	c-0.529,0-1.058-0.022-1.587-0.088c-0.13-0.019-0.258-0.04-0.385-0.064c-0.076-0.04-0.163-0.068-0.257-0.068
	c-0.014,0-0.028,0.004-0.043,0.006c-0.371-0.09-0.727-0.219-1.058-0.425c-0.485-0.309-0.75-0.75-0.728-1.324
	c0-0.308,0.045-0.595,0.155-0.86c0.22-0.683,0.595-1.279,1.014-1.83c1.059-1.412,2.338-2.581,3.705-3.683
	c1.434-1.147,3-2.162,4.61-3.044c2.36-1.279,4.83-2.271,7.454-2.779c0.949-0.176,1.897-0.309,2.845-0.309
	c0.441,0,0.882,0.022,1.324,0.089c0.595,0.088,1.168,0.264,1.676,0.595c0.441,0.309,0.661,0.684,0.661,1.081
	c0,0.242-0.088,0.507-0.242,0.772c-0.265,0.397-0.573,0.75-0.927,1.058c-1.19,0.993-2.536,1.699-4.013,2.184
	c-0.53,0.176-1.059,0.286-1.61,0.286c-0.287,0-0.574-0.022-0.883-0.11c-0.044,0-0.066-0.022-0.11-0.022
	c-0.176,0-0.353,0.155-0.419,0.331c-0.022,0.044-0.022,0.088-0.022,0.132c0,0.155,0.088,0.309,0.243,0.397
	c0.176,0.089,0.353,0.133,0.529,0.177c0.176,0.044,0.375,0.044,0.551,0.044c0.397,0,0.772-0.066,1.147-0.155
	c1.346-0.286,2.559-0.838,3.727-1.543c0.662-0.397,1.302-0.838,1.853-1.412c0.441-0.463,0.794-0.948,0.992-1.566
	c0.067-0.198,0.089-0.397,0.089-0.595c0.022-0.441-0.133-0.838-0.397-1.213c-0.243-0.353-0.574-0.596-0.948-0.794
	c-0.861-0.463-1.809-0.596-2.757-0.64c-0.199-0.022-0.397-0.022-0.596-0.022c-0.838,0-1.698,0.11-2.514,0.265
	c-2.272,0.397-4.455,1.169-6.529,2.161c-1.676,0.794-3.286,1.72-4.807,2.801c-1.39,0.993-2.713,2.073-3.904,3.286
	c-0.794,0.794-1.522,1.632-2.051,2.603c-0.353,0.551-0.596,1.147-0.728,1.786c-0.022,0.177-0.044,0.331-0.044,0.507
	c0,0.749,0.252,1.398,0.841,1.902c-1.452,0.035-3.317,0.041-3.743,0.083c-0.154,0-0.243-0.044-0.309-0.176
	c-0.044-0.176-0.176-0.331-0.331-0.441c-0.286-0.221-0.595-0.309-0.926-0.309c-0.198,0-0.397,0.022-0.595,0.088
	c-0.089,0.022-0.199,0.066-0.287,0.066c-0.353,0-0.618,0.177-0.86,0.42c-0.055,0.044-0.106,0.091-0.155,0.138
	c-0.051,0.007-0.103,0.021-0.154,0.038c-0.662,0.132-1.324,0.11-1.985,0.176c-0.154,0-0.243-0.044-0.309-0.176
	c-0.044-0.176-0.176-0.331-0.331-0.441c-0.286-0.221-0.595-0.309-0.926-0.309c-0.198,0-0.397,0.022-0.595,0.088
	c-0.089,0.022-0.199,0.066-0.287,0.066c-0.353,0-0.618,0.177-0.86,0.42c-0.175,0.143-0.315,0.298-0.446,0.464
	c-0.013,0-0.028-0.001-0.04-0.001c-0.132,0-0.242,0.022-0.352,0.044c-0.728,0.22-1.39,0.507-2.007,0.97
	c-0.816,0.64-1.61,1.323-2.382,2.007c-0.596,0.507-1.213,0.971-1.875,1.367c-0.309,0.177-0.64,0.331-0.992,0.42
	c-0.177,0.044-0.331,0.066-0.464,0.066c-0.418,0-0.661-0.221-0.815-0.838c-0.067-0.331-0.067-0.662-0.089-0.993v-0.22
	c0-0.64,0.089-1.258,0.199-1.875c0.154-0.838,0.375-1.654,0.617-2.47c0.066-0.155,0.155-0.243,0.331-0.243
	c0.419,0,0.816-0.11,1.213-0.242c0.684-0.243,1.279-0.64,1.853-1.059c1.036-0.772,1.963-1.676,2.801-2.669
	c0.97-1.169,1.808-2.426,2.47-3.793c0.33-0.728,0.573-1.478,0.639-2.272v-0.176c0-0.331-0.044-0.662-0.242-0.97
	c-0.221-0.419-0.64-0.684-1.125-0.684c-0.066,0-0.155,0-0.221,0.022c-0.617,0.066-1.124,0.375-1.632,0.728
	c-0.904,0.661-1.654,1.5-2.315,2.382c-2.184,2.801-3.794,5.91-4.808,9.285c-0.123,0.408-0.228,0.816-0.32,1.225
	c-0.026,0.016-0.052,0.033-0.077,0.054l-0.132,0.132c-0.706,0.816-1.522,1.456-2.338,2.162c-0.067,0.044-0.133,0.088-0.221,0.132
	c-0.022,0.022-0.044,0.022-0.066,0.022c-0.044,0-0.088-0.022-0.11-0.088c-0.022-0.066-0.022-0.155-0.045-0.221
	c0.023-0.309,0.067-0.595,0.133-0.904c0.22-0.816,0.551-1.588,0.926-2.36c0.111-0.243,0.221-0.485,0.331-0.75
	c0.022-0.088,0.044-0.154,0.044-0.242c0-0.133-0.044-0.265-0.154-0.375c-0.088-0.067-0.199-0.111-0.331-0.111
	c-0.088,0-0.221,0.044-0.331,0.111c-0.132,0.088-0.265,0.198-0.375,0.33c-0.044,0.045-0.088,0.089-0.154,0.089
	c-0.022,0-0.066-0.022-0.111-0.066c-0.22-0.133-0.419-0.199-0.639-0.199c-0.154,0-0.331,0.044-0.507,0.11
	c-0.463,0.177-0.86,0.485-1.235,0.838c-0.684,0.728-1.169,1.588-1.522,2.537c-0.088,0.242-0.133,0.485-0.133,0.749
	c0,0.442,0.265,0.728,0.618,0.728c0.132,0,0.287-0.044,0.441-0.132c0.154-0.088,0.309-0.221,0.441-0.353
	c0.618-0.551,1.125-1.191,1.698-1.808c0.111-0.133,0.243-0.265,0.375-0.375c0.022,0.022,0.022,0.044,0.022,0.088
	c0,0.044-0.022,0.088-0.044,0.132c-0.176,0.552-0.331,1.103-0.397,1.676l-0.022,0.177c0,0.309,0.044,0.595,0.199,0.86
	c0.176,0.331,0.485,0.507,0.816,0.507c0.154,0,0.286-0.022,0.441-0.088c0.154-0.066,0.287-0.154,0.419-0.265
	c0.198-0.154,0.397-0.308,0.573-0.485c0.409-0.352,0.815-0.698,1.2-1.067c-0.049,0.412-0.084,0.825-0.097,1.244v0.639
	c0.022,0.529,0.11,1.059,0.375,1.522c0.331,0.595,0.86,0.838,1.411,0.838c0.089,0,0.177,0,0.265-0.022
	c0.309-0.022,0.596-0.11,0.882-0.243c0.927-0.375,1.743-0.948,2.514-1.588c0.817-0.683,1.589-1.367,2.404-2.029
	c0.443-0.362,0.925-0.629,1.441-0.824c-0.178,0.423-0.3,0.87-0.338,1.354v0.11c0,0.154,0.022,0.309,0.067,0.463
	c0.11,0.507,0.485,0.794,0.992,0.794h0.11c0.243,0,0.485-0.066,0.706-0.154c1.169-0.574,2.007-1.434,2.514-2.625
	c0.132-0.242,0.132-0.242,0.375-0.242c0.441,0,0.86-0.045,1.279-0.067c0.025-0.002,0.047-0.005,0.071-0.008
	c-0.276,0.533-0.462,1.1-0.512,1.729v0.11c0,0.154,0.022,0.309,0.067,0.463c0.11,0.507,0.485,0.794,0.992,0.794h0.11
	c0.243,0,0.485-0.066,0.706-0.154c1.169-0.574,2.007-1.434,2.514-2.625c0.132-0.242,0.132-0.242,0.375-0.242
	c0.441,0,4.334-0.045,4.753-0.067c0.287-0.022,0.552-0.066,0.816-0.11c0.006-0.001,0.01-0.003,0.016-0.005
	c0.717,0.155,1.443,0.204,2.169,0.204c0.287,0,0.574-0.023,0.86-0.023c0.706-0.022,1.434-0.066,2.14-0.154
	c0.661-0.066,1.323-0.132,2.007-0.198c0.507-0.067,1.036-0.133,1.588-0.199c-0.089,0.11-0.177,0.155-0.243,0.199
	c-1.654,0.992-3.198,2.117-4.521,3.528c-0.464,0.485-0.905,1.015-1.213,1.61c-0.155,0.287-0.243,0.618-0.243,0.927v0.11
	c0.022,0.485,0.287,0.86,0.75,0.992c0.154,0.044,0.309,0.067,0.485,0.067c0.507,0,0.993-0.155,1.456-0.331
	c0.992-0.375,1.896-0.882,2.801-1.412c1.279-0.794,2.514-1.654,3.793-2.426c1.478-0.904,3-1.742,4.587-2.426
	c1.643-0.709,3.285-1.416,4.967-1.992c-0.174,0.351-0.337,0.706-0.505,1.055c-0.22,0.551-0.441,1.081-0.595,1.654
	c-0.022,0.088-0.022,0.154-0.022,0.221c0,0.264,0.088,0.463,0.264,0.573c0.111,0.044,0.199,0.088,0.287,0.088
	c0.176,0,0.353-0.11,0.53-0.242c0.264-0.221,0.507-0.486,0.727-0.75c0.706-0.728,1.434-1.39,2.206-2.029
	c0.11-0.111,0.22-0.243,0.419-0.309c0.022,0.044,0.022,0.066,0.022,0.088c0,0.066-0.022,0.133-0.044,0.199
	c-0.044,0.264-0.133,0.551-0.199,0.816c-0.044,0.176-0.066,0.353-0.088,0.529l0.022,0.132c0.022,0.442,0.287,0.706,0.617,0.706
	c0.111,0,0.243-0.022,0.375-0.088c0.155-0.066,0.265-0.155,0.397-0.243c0.309-0.22,0.618-0.463,0.927-0.683
	c0.331-0.243,0.661-0.464,0.992-0.662c0.111-0.044,0.155-0.088,0.221-0.088c0.044,0,0.088,0.044,0.154,0.176
	c0.177,0.353,0.485,0.53,0.838,0.53c0.088,0,0.177,0,0.265-0.023l0.264-0.066c0.652-0.181,1.318-0.348,1.975-0.536
	c-0.073,0.243-0.107,0.496-0.107,0.735c0.045,0.772,0.486,1.235,1.169,1.235c0.353,0,0.64-0.088,0.927-0.221
	c0.375-0.176,0.727-0.375,1.102-0.573c0.503-0.278,0.991-0.577,1.485-0.865c-0.268,0.591-0.524,1.187-0.757,1.791
	c-0.044,0.155-0.11,0.309-0.132,0.485c0,0.243,0.088,0.397,0.287,0.485c0.066,0.023,0.132,0.045,0.198,0.045
	c0.132,0,0.243-0.067,0.353-0.177c0.088-0.088,0.154-0.198,0.242-0.309c0.883-1.345,1.919-2.558,3.044-3.705
	c0.088-0.088,0.154-0.198,0.287-0.242c0.088,0.066,0.11,0.154,0.132,0.22c0.11,0.199,0.243,0.353,0.419,0.463
	c0.429,0.243,0.906,0.401,1.39,0.472c-0.026,0.076-0.048,0.154-0.067,0.234c-0.022,0.11-0.044,0.221-0.044,0.331
	c0,0.397,0.154,0.728,0.463,1.015c0.155,0.132,0.309,0.22,0.463,0.308c0.066,0.022,0.133,0.044,0.155,0.133l-0.133,0.066
	c-0.573,0.242-1.169,0.507-1.72,0.772c-1.632,0.75-3.22,1.654-4.675,2.756c-0.75,0.574-1.478,1.191-2.052,1.941
	c-0.264,0.309-0.463,0.618-0.595,0.971c-0.11,0.264-0.176,0.551-0.176,0.794c-0.022,0.661,0.353,1.235,1.058,1.565
	c0.044,0.022,0.088,0.022,0.133,0.045c0.617,0.264,1.279,0.352,1.94,0.396h0.397c1.081,0,2.139-0.132,3.198-0.374
	c2.25-0.508,4.411-1.324,6.418-2.47c0.882-0.486,1.72-1.037,2.448-1.743c0.375-0.353,0.728-0.728,0.949-1.213
	c0.11-0.264,0.176-0.529,0.176-0.772c0-0.397-0.132-0.794-0.441-1.146c-0.221-0.265-0.485-0.464-0.794-0.64
	c-0.529-0.287-1.081-0.507-1.676-0.684c-0.419-0.132-0.838-0.242-1.28-0.375v-0.044c0.089-0.022,0.177-0.066,0.265-0.088
	c0.927-0.331,1.875-0.618,2.801-0.882c0.858-0.261,1.717-0.504,2.589-0.707c-0.035,0.158-0.053,0.318-0.053,0.486v0.221
	c0,0.507,0.331,0.86,0.816,0.97c0.089,0.022,0.177,0.022,0.287,0.022c0.265,0,0.529-0.088,0.772-0.176
	c0.397-0.155,0.772-0.397,1.147-0.662c0.507-0.375,0.948-0.816,1.301-1.345c0.22-0.375,0.397-0.75,0.397-1.169
	c0-0.177-0.022-0.331-0.066-0.507c0-0.044-0.022-0.066-0.022-0.089c0-0.066,0.066-0.132,0.154-0.154
	c0.265-0.088,0.552-0.176,0.816-0.265c0.441-0.11,0.838-0.242,1.257-0.33h0.089c0.044,0,0.066,0,0.066,0.044
	c0,0.022,0,0.066-0.022,0.11c-0.133,0.243-0.243,0.463-0.353,0.684c-0.287,0.617-0.618,1.257-0.816,1.896
	c-0.088,0.221-0.155,0.419-0.177,0.64v0.066c0,0.419,0.265,0.684,0.618,0.684c0.11,0,0.22-0.044,0.353-0.088
	c0.11-0.067,0.22-0.155,0.331-0.221c0.396-0.309,0.771-0.617,1.168-0.926c0.64-0.53,1.301-1.015,1.985-1.478
	c0.066-0.044,0.133-0.066,0.155-0.066c0.066,0,0.066,0.044,0.11,0.176c-0.022,0.089,0,0.177,0,0.265
	c0.11,0.816,0.529,1.301,1.345,1.434c0.353,0.044,0.684,0.066,1.015,0.066c0.463,0,0.904-0.044,1.345-0.111
	c0.353-0.044,0.706-0.132,1.015-0.286c0.088-0.044,0.176-0.066,0.242-0.111c0.132-0.11,0.199-0.22,0.199-0.374
	C166.39,208.378,166.368,208.312,166.346,208.246 M132.713,207.651c0-0.044,0.044-0.089,0.088-0.133
	c0.309-0.397,0.662-0.772,1.125-0.992c0.066-0.044,0.154-0.088,0.22-0.088c0.022,0,0.067,0,0.089,0.044
	c0.044,0.022,0.044,0.044,0.044,0.088c0,0.066-0.066,0.132-0.111,0.198c-0.242,0.464-0.617,0.772-1.08,0.993
	c-0.044,0.022-0.111,0.022-0.133,0.044c-0.11,0-0.198-0.022-0.242-0.11V207.651z M76.968,206.074c0-0.044,0-0.111,0.044-0.177
	c0.198-0.551,0.419-1.08,0.683-1.61c0.883-1.941,1.985-3.771,3.331-5.469c0.573-0.706,1.168-1.39,1.918-1.963
	c0.309-0.265,0.64-0.485,1.037-0.618c0.132-0.044,0.243-0.066,0.353-0.066c0.331,0,0.485,0.221,0.507,0.662v0.198
	c-0.022,0.618-0.221,1.191-0.463,1.743c-0.529,1.169-1.235,2.249-2.007,3.264c-0.838,1.08-1.787,2.073-2.889,2.911
	c-0.485,0.397-1.015,0.75-1.588,0.992c-0.243,0.089-0.463,0.155-0.706,0.199c-0.044,0-0.088,0.022-0.132,0.022
	C76.99,206.162,76.946,206.14,76.968,206.074 M71.432,207.728c-0.485,0.573-1.015,1.125-1.522,1.698
	c-0.22,0.243-0.463,0.507-0.728,0.75l-0.022-0.044c0.375-0.905,0.86-1.72,1.654-2.316c0.155-0.11,0.309-0.199,0.508-0.265
	c0.044-0.022,0.066-0.022,0.11-0.022c0.022,0,0.044,0,0.066,0.044c0.022,0.022,0.022,0.022,0.022,0.044
	C71.52,207.662,71.476,207.706,71.432,207.728 M86.98,210.132c-0.397,0.617-0.926,1.103-1.566,1.455
	c-0.176,0.111-0.352,0.199-0.507,0.199c-0.154,0-0.22-0.044-0.242-0.155c-0.044-0.088-0.066-0.198-0.066-0.286v-0.066
	c0.11-0.706,0.374-1.346,0.838-1.919c0.066-0.066,0.11-0.133,0.176-0.133c0.044,0,0.088,0,0.132,0.045
	c0.287,0.22,0.662,0.286,1.015,0.33c0.264,0.044,0.419,0.044,0.419,0.133C87.179,209.801,87.113,209.933,86.98,210.132
	 M92.582,210.132c-0.397,0.617-0.926,1.103-1.566,1.455c-0.176,0.111-0.352,0.199-0.507,0.199c-0.154,0-0.22-0.044-0.242-0.155
	c-0.044-0.088-0.066-0.198-0.066-0.286v-0.066c0.11-0.706,0.374-1.346,0.838-1.919c0.066-0.066,0.11-0.133,0.176-0.133
	c0.044,0,0.088,0,0.132,0.045c0.287,0.22,0.662,0.286,1.015,0.33c0.264,0.044,0.419,0.044,0.419,0.133
	C92.781,209.801,92.715,209.933,92.582,210.132 M147.026,212.282c0.397,0.154,0.794,0.331,1.103,0.618
	c0.286,0.242,0.419,0.463,0.419,0.727c0,0.177-0.089,0.375-0.221,0.574c-0.22,0.375-0.529,0.683-0.86,0.97
	c-0.728,0.596-1.478,1.103-2.316,1.522c-2.051,1.125-4.19,1.897-6.484,2.338c-0.794,0.132-1.588,0.198-2.426,0.242
	c-0.551-0.044-1.125-0.044-1.698-0.22c-0.176-0.088-0.375-0.155-0.551-0.287c-0.243-0.154-0.353-0.353-0.353-0.573
	c0.022-0.111,0.044-0.221,0.066-0.331c0.132-0.397,0.375-0.728,0.618-1.059c0.485-0.551,1.014-1.014,1.565-1.455
	c1.544-1.191,3.243-2.14,5.029-2.956c0.772-0.353,1.544-0.705,2.36-0.992c0.088-0.044,0.198-0.066,0.286-0.066
	c0.067,0,0.111,0,0.177,0.022C144.82,211.62,145.945,211.863,147.026,212.282"/>
<path class="st0" d="M162.265,210.656l-0.034,0.597h0.093c0.064-0.331,0.186-0.496,0.367-0.496c0.032,0,0.056,0.007,0.072,0.02
	c0.015,0.014,0.022,0.034,0.022,0.063v1.208c0,0.024-0.007,0.043-0.022,0.058c-0.015,0.014-0.035,0.022-0.061,0.022h-0.169v0.098
	h0.839v-0.098h-0.178c-0.02,0-0.038-0.008-0.053-0.023c-0.014-0.015-0.021-0.034-0.021-0.057v-1.215
	c0-0.024,0.007-0.043,0.022-0.056s0.038-0.02,0.07-0.02c0.055,0,0.106,0.015,0.153,0.045c0.046,0.03,0.087,0.081,0.123,0.152
	c0.036,0.072,0.066,0.171,0.088,0.299h0.097l-0.035-0.597H162.265z"/>
<path class="st0" d="M164.785,211.721l-0.357-1.064h-0.632v0.099h0.124c0.043,0,0.071,0.007,0.086,0.021
	c0.015,0.014,0.022,0.043,0.022,0.086v1.015c0,0.07-0.02,0.128-0.061,0.173c-0.04,0.045-0.097,0.071-0.171,0.078v0.098h0.583v-0.098
	c-0.08-0.009-0.14-0.034-0.182-0.076c-0.041-0.042-0.062-0.096-0.062-0.162v-1.148l0.497,1.484h0.094l0.499-1.471v1.284
	c0,0.028-0.007,0.05-0.022,0.065c-0.014,0.016-0.035,0.024-0.063,0.024h-0.151v0.098h0.8v-0.098h-0.125
	c-0.036,0-0.065-0.009-0.086-0.026c-0.015-0.011-0.022-0.032-0.022-0.063v-1.199c0-0.031,0.007-0.053,0.02-0.066
	c0.013-0.013,0.037-0.019,0.072-0.019h0.141v-0.099h-0.649L164.785,211.721z"/>
</svg>
