<?xml version="1.0" encoding="utf-8"?>
<!-- Generator: Adobe Illustrator 23.0.1, SVG Export Plug-In . SVG Version: 6.00 Build 0)  -->
<svg version="1.1" id="Hair" xmlns="http://www.w3.org/2000/svg" xmlns:xlink="http://www.w3.org/1999/xlink" x="0px" y="0px"
	 width="450px" height="378px" viewBox="0 0 450 378" enable-background="new 0 0 450 378" xml:space="preserve">
<path fill="#6A604F" stroke="#3E2670" stroke-width="4" stroke-linecap="round" stroke-linejoin="round" stroke-miterlimit="10" d="
	M178.532,193.745c0,0-24.206,1.131-40.596-5.872c-28.681-12.255-36.555-49.83-28.426-69.702c2.298-5.617,3.901-6.979,4.468-6.128
	c0.128,0.191,0.67,2.135,0.553,4.596c-0.17,3.574,2.057,15.523,12.085,17.532c10.019,2.007,16.435,1.297,24.766,3.404
	c11.397,2.882,13.447,4.681,13.447,4.681s4.936,5.702,7.489,10.638l-2.979,7.149c-8.34-13.106-19.745-6.809-19.745,2.213
	C149.596,179.28,178.532,193.745,178.532,193.745z"/>
<path opacity="0.6" fill="#BAAA9B" d="M143.809,183.702c-21.848-5.383-39.82-37.024-33.015-57.388
	c1.923-5.756,2.393,17.957,12.531,19.303c5.262,0.698,2.934,13.408,9.08,23.277C138.088,178.021,152.123,185.751,143.809,183.702z"
	/>
</svg>
