<?xml version="1.0" encoding="utf-8"?>
<!-- Generator: Adobe Illustrator 23.0.1, SVG Export Plug-In . SVG Version: 6.00 Build 0)  -->
<svg version="1.1" id="Fakial_hair" xmlns="http://www.w3.org/2000/svg" xmlns:xlink="http://www.w3.org/1999/xlink" x="0px"
	 y="0px" width="450px" height="378px" viewBox="0 0 450 378" enable-background="new 0 0 450 378" xml:space="preserve">
<path fill="#2F2B2C" stroke="#3E2670" stroke-width="3" stroke-linecap="round" stroke-miterlimit="10" d="M240.71,139.623
	c-0.771-0.875-1.961-1.244-3.09-0.954c-2.715,0.698-8.231,2.213-15.258,4.65c-9.534,3.305-15.651,6.302-18.136,7.607
	c-0.8,0.42-1.378,1.163-1.583,2.043l-0.834,3.584c0,0,9.021-1.362,23.489-6.638c10.52-3.837,16.468-8.638,16.468-8.638
	L240.71,139.623z"/>
<line opacity="0.3" fill="none" stroke="#747476" stroke-width="2" stroke-linecap="round" stroke-miterlimit="10" x1="211.255" y1="150.468" x2="211.17" y2="151.745"/>
<line opacity="0.3" fill="none" stroke="#747476" stroke-width="2" stroke-linecap="round" stroke-miterlimit="10" x1="215.894" y1="148.723" x2="215.936" y2="150.043"/>
<line opacity="0.3" fill="none" stroke="#747476" stroke-width="2" stroke-linecap="round" stroke-miterlimit="10" x1="220.702" y1="146.894" x2="220.915" y2="148.298"/>
<line opacity="0.3" fill="none" stroke="#747476" stroke-width="2" stroke-linecap="round" stroke-miterlimit="10" x1="225.596" y1="145.234" x2="225.979" y2="146.681"/>
<line opacity="0.3" fill="none" stroke="#747476" stroke-width="2" stroke-linecap="round" stroke-miterlimit="10" x1="230.277" y1="143.617" x2="230.617" y2="144.723"/>
<line opacity="0.3" fill="none" stroke="#747476" stroke-width="2" stroke-linecap="round" stroke-miterlimit="10" x1="230.277" y1="143.617" x2="230.617" y2="144.723"/>
<line opacity="0.3" fill="none" stroke="#747476" stroke-width="2" stroke-linecap="round" stroke-miterlimit="10" x1="234.191" y1="142.298" x2="234.362" y2="142.809"/>
</svg>
