<svg width="450" height="378" viewBox="0 0 450 378" fill="none" xmlns="http://www.w3.org/2000/svg">
<path d="M240.71 139.623C239.939 138.748 238.749 138.379 237.62 138.669C234.905 139.367 229.389 140.882 222.362 143.319C212.828 146.624 206.711 149.621 204.226 150.926C203.426 151.346 202.848 152.089 202.643 152.969L201.809 156.553C201.809 156.553 210.83 155.191 225.298 149.915C235.818 146.078 241.766 141.277 241.766 141.277L240.71 139.623Z" fill="#FFE896" stroke="#3E2670" stroke-width="3" stroke-miterlimit="10" stroke-linecap="round"/>
<path opacity="0.3" d="M211.255 150.468L211.17 151.745" stroke="white" stroke-width="2" stroke-miterlimit="10" stroke-linecap="round"/>
<path opacity="0.3" d="M215.894 148.723L215.936 150.043" stroke="white" stroke-width="2" stroke-miterlimit="10" stroke-linecap="round"/>
<path opacity="0.3" d="M220.702 146.894L220.915 148.298" stroke="white" stroke-width="2" stroke-miterlimit="10" stroke-linecap="round"/>
<path opacity="0.3" d="M225.596 145.234L225.979 146.681" stroke="white" stroke-width="2" stroke-miterlimit="10" stroke-linecap="round"/>
<path opacity="0.3" d="M230.277 143.617L230.617 144.723" stroke="white" stroke-width="2" stroke-miterlimit="10" stroke-linecap="round"/>
<path opacity="0.3" d="M230.277 143.617L230.617 144.723" stroke="white" stroke-width="2" stroke-miterlimit="10" stroke-linecap="round"/>
<path opacity="0.3" d="M234.191 142.298L234.362 142.809" stroke="white" stroke-width="2" stroke-miterlimit="10" stroke-linecap="round"/>
</svg>
