<?xml version="1.0" encoding="utf-8"?>
<!-- Generator: Adobe Illustrator 23.0.1, SVG Export Plug-In . SVG Version: 6.00 Build 0)  -->
<svg version="1.1" id="Lips" xmlns="http://www.w3.org/2000/svg" xmlns:xlink="http://www.w3.org/1999/xlink" x="0px" y="0px"
	 width="450px" height="378px" viewBox="0 0 450 378" enable-background="new 0 0 450 378" xml:space="preserve">
<path fill="#D23A34" d="M241.766,149.957c-7.445,3.336-8.105-2.231-12.016,0.44c-0.881,0.601-1.261,3.773-1.261,3.773
	s-2.624-2.111-3.898-1.864c-3.801,0.735-3.889,6.205-9.251,8.758l9.283,1.398c0,0,6.937,2.029,11.439-4.637L241.766,149.957z"/>
<path fill="none" stroke="#3E2670" stroke-width="3.0961" stroke-linecap="round" stroke-linejoin="round" stroke-miterlimit="10" d="
	M242.181,149.776c-7.445,3.336-8.52-2.049-12.431,0.622c-0.881,0.601-1.261,3.773-1.261,3.773s-2.624-2.111-3.898-1.864
	c-3.801,0.735-3.002,5.612-11.617,10.004"/>
<path fill="none" stroke="#3E2670" stroke-width="3.0961" stroke-linecap="round" stroke-linejoin="round" stroke-miterlimit="10" d="
	M224.624,162.462c0,0,6.937,2.029,11.439-4.637"/>
</svg>
