<?xml version="1.0" encoding="utf-8"?>
<!-- Generator: Adobe Illustrator 23.0.1, SVG Export Plug-In . SVG Version: 6.00 Build 0)  -->
<svg version="1.1" id="ear" xmlns="http://www.w3.org/2000/svg" xmlns:xlink="http://www.w3.org/1999/xlink" x="0px" y="0px"
	 width="450px" height="378px" viewBox="0 0 450 378" enable-background="new 0 0 450 378" xml:space="preserve">
<path fill="#8E6F76" d="M164.021,155.957c6.087,6.187,8.809,16.085,35.787,35.915c8.161,5.999,17.191,3.404,17.191,3.404
	s-29.113,12.431-57.167-12.923c0,0-21.635,8.669-30.493-6.389c-8.859-15.057,6.954-25.337,6.954-25.337
	S158.917,150.77,164.021,155.957z"/>
<path fill="#3E2670" stroke="#3E2670" stroke-width="0.25" stroke-miterlimit="10" d="M202.898,201.278
	c4.783-0.003,9.839-0.59,15.112-1.973c1.152-0.302,1.842-1.482,1.539-2.634c-0.302-1.152-1.481-1.845-2.633-1.539
	c-31.349,8.223-55.34-14.603-55.579-14.834c-0.585-0.57-1.441-0.759-2.212-0.492c-12.602,4.379-23.058,2.324-27.964-5.5
	c-3.627-5.782-3.104-13.405,1.217-17.731c9.555-9.564,25.794,0.778,25.955,0.884c0.788,0.513,1.818,0.457,2.545-0.141
	c0.728-0.596,1.039-2.012,0.398-2.701c-0.81-0.87-1.56-1.454-5.486-3.367c-6.45-3.143-18.065-6.133-26.463,2.277
	c-5.8,5.805-6.565,15.508-1.82,23.072c5.878,9.374,17.709,12.208,31.802,7.693C163.469,187.98,180.066,201.29,202.898,201.278"/>
</svg>
