<?xml version="1.0" encoding="utf-8"?>
<!-- Generator: Adobe Illustrator 23.0.1, SVG Export Plug-In . SVG Version: 6.00 Build 0)  -->
<svg version="1.1" id="eyes" xmlns="http://www.w3.org/2000/svg" xmlns:xlink="http://www.w3.org/1999/xlink" x="0px" y="0px"
	 width="450px" height="378px" viewBox="0 0 450 378" enable-background="new 0 0 450 378" xml:space="preserve">
<path fill="#FFFFFF" d="M200.04,128.515c0,0-3.114-9.53-10.16-7.749c-6.082,1.537-10.269,5.667-10.733,10.725
	c-0.305,3.328,0.273,6.669,0.273,6.669s6.476-0.075,12.388-2.628C197.336,133.145,200.04,128.515,200.04,128.515z"/>
<ellipse transform="matrix(0.9639 -0.2663 0.2663 0.9639 -27.6263 54.3101)" fill="#5A3B00" cx="186.484" cy="129.042" rx="5.232" ry="5.379"/>
<ellipse transform="matrix(0.9639 -0.2663 0.2663 0.9639 -27.6365 54.3563)" fill="#453823" cx="186.649" cy="129.102" rx="3.699" ry="3.803"/>
<ellipse transform="matrix(0.9194 -0.3934 0.3934 0.9194 -35.8273 83.0672)" fill="#FFFFFF" cx="184.712" cy="128.927" rx="1.474" ry="1.695"/>
<path fill="#3E2670" d="M179.527,139.727c-0.069,0-0.113,0-0.131-0.001l-1.297-0.02l-0.221-1.278
	c-0.025-0.145-0.609-3.585-0.29-7.079c0.526-5.74,5.089-10.377,11.908-12.101c8.303-2.099,12.362,8.293,12.531,8.737l0.306,0.805
	l-0.516,0.69c-0.156,0.208-3.885,5.136-9.729,7.66C186.347,139.619,180.495,139.727,179.527,139.727z M191.56,122.119
	c-0.417,0-0.849,0.052-1.296,0.165c-5.494,1.389-9.156,4.971-9.558,9.35c-0.168,1.843-0.046,3.706,0.081,4.914
	c2.05-0.126,6.136-0.589,10.061-2.284c3.871-1.671,6.733-4.632,7.894-5.97C197.855,126.457,195.361,122.119,191.56,122.119z"/>
<path fill="#C2A87C" d="M175.292,133.611c-0.051-0.264-1.183-6.506,4.684-11.31l0.634,0.773c-5.41,4.429-4.348,10.287-4.336,10.346
	L175.292,133.611z"/>
<path fill="#FFFFFF" d="M215.701,121.596c0,0-5.971-8.374,0.538-13.326c2.458-1.87,8.998-2.431,11.746-1.226
	c2.992,1.312,4.917,4.877,4.917,4.877s-0.281,1.861-6.919,6.091C221.268,121.017,215.701,121.596,215.701,121.596z"/>
<ellipse transform="matrix(0.8032 -0.5956 0.5956 0.8032 -23.7856 153.465)" fill="#5A3B00" cx="220.405" cy="112.736" rx="5.012" ry="5.154"/>
<ellipse transform="matrix(0.8032 -0.5956 0.5956 0.8032 -23.8915 153.4659)" fill="#453823" cx="220.353" cy="112.897" rx="3.544" ry="3.643"/>
<path fill="#3E2670" d="M214.968,123.152l-0.488-0.685c-2.357-3.306-5.213-10.777,0.851-15.391
	c3.043-2.316,10.164-2.764,13.257-1.406c3.424,1.502,5.546,5.374,5.634,5.538l0.168,0.311l0.012,0.354
	c0.035,1.073-0.862,3.482-7.266,7.562c-4.979,3.172-11.071,3.639-11.328,3.657L214.968,123.152z M223.995,107.9
	c-2.576,0-5.573,0.594-6.848,1.564c-4.333,3.296-1.824,8.601-0.686,10.536c1.738-0.239,5.758-0.991,9.063-3.096
	c4-2.549,5.31-4.161,5.72-4.825c-0.618-0.949-2.033-2.86-3.861-3.662C226.572,108.062,225.341,107.9,223.995,107.9z"/>
<path fill="#C2A87C" d="M230.945,106.282c-0.122-0.143-3.057-3.482-8.561-2.335l-0.204-0.979c6.101-1.279,9.39,2.505,9.527,2.667
	L230.945,106.282z"/>
<ellipse transform="matrix(0.9049 -0.4256 0.4256 0.9049 -27.0552 103.7271)" fill="#FFFFFF" cx="218.598" cy="112.409" rx="1.412" ry="1.624"/>
</svg>
