<?xml version="1.0" encoding="utf-8"?>
<!-- Generator: Adobe Illustrator 23.0.1, SVG Export Plug-In . SVG Version: 6.00 Build 0)  -->
<svg version="1.1" id="eyes" xmlns="http://www.w3.org/2000/svg" xmlns:xlink="http://www.w3.org/1999/xlink" x="0px" y="0px"
	 width="450px" height="378px" viewBox="0 0 450 378" enable-background="new 0 0 450 378" xml:space="preserve">
<path fill="#FFFFFF" d="M200.04,128.515c0,0-3.114-9.53-10.16-7.749c-6.082,1.537-10.269,5.667-10.733,10.725
	c-0.305,3.328,0.273,6.669,0.273,6.669s6.476-0.075,12.388-2.628C197.336,133.145,200.04,128.515,200.04,128.515z"/>
<ellipse transform="matrix(0.9639 -0.2663 0.2663 0.9639 -27.6263 54.3101)" fill="#5CBB8D" cx="186.484" cy="129.042" rx="5.232" ry="5.379"/>
<ellipse transform="matrix(0.9639 -0.2663 0.2663 0.9639 -27.621 54.235)" fill="#00954C" cx="186.21" cy="128.984" rx="4.091" ry="4.034"/>
<ellipse transform="matrix(0.9194 -0.3934 0.3934 0.9194 -35.8273 83.0672)" fill="#FFFFFF" cx="184.712" cy="128.927" rx="1.474" ry="1.695"/>
<path fill="none" stroke="#3E2670" stroke-width="3.1315" stroke-miterlimit="10" d="M200.564,128.543c0,0-3.638-9.557-10.684-7.776
	c-6.082,1.537-10.269,5.667-10.733,10.725c-0.305,3.328,0.273,6.669,0.273,6.669s6.135,0.095,12.048-2.458
	C196.996,133.315,200.564,128.543,200.564,128.543z"/>
<path fill="none" stroke="#C2A87C" stroke-miterlimit="10" d="M180.293,122.688c-5.704,4.67-4.51,10.828-4.51,10.828"/>
<path fill="#FFFFFF" d="M215.701,121.596c0,0-5.971-8.374,0.538-13.326c2.458-1.87,8.998-2.431,11.746-1.226
	c2.992,1.312,4.917,4.877,4.917,4.877s-0.281,1.861-6.919,6.091C221.268,121.017,215.701,121.596,215.701,121.596z"/>
<ellipse transform="matrix(0.8032 -0.5956 0.5956 0.8032 -23.7856 153.465)" fill="#5CBB8D" cx="220.405" cy="112.736" rx="5.012" ry="5.154"/>
<ellipse transform="matrix(0.8032 -0.5956 0.5956 0.8032 -23.7256 153.2981)" fill="#00954C" cx="220.182" cy="112.562" rx="3.796" ry="3.903"/>
<path fill="none" stroke="#3E2670" stroke-width="3" stroke-miterlimit="10" d="M215.701,121.596c0,0-5.971-8.374,0.538-13.326
	c2.458-1.87,8.998-2.431,11.746-1.226c2.992,1.312,4.917,4.877,4.917,4.877s0.066,2.019-6.572,6.249
	C221.614,121.175,215.701,121.596,215.701,121.596z"/>
<path fill="none" stroke="#C2A87C" stroke-miterlimit="10" d="M222.283,103.457c5.883-1.228,9.043,2.501,9.043,2.501"/>
<ellipse transform="matrix(0.9049 -0.4256 0.4256 0.9049 -27.0552 103.7271)" fill="#FFFFFF" cx="218.598" cy="112.409" rx="1.412" ry="1.624"/>
</svg>
