<?xml version="1.0" encoding="utf-8"?>
<!-- Generator: Adobe Illustrator 23.0.1, SVG Export Plug-In . SVG Version: 6.00 Build 0)  -->
<svg version="1.1" id="eyebrows" xmlns="http://www.w3.org/2000/svg" xmlns:xlink="http://www.w3.org/1999/xlink" x="0px" y="0px"
	 width="450px" height="378px" viewBox="0 0 450 378" enable-background="new 0 0 450 378" xml:space="preserve">
<path fill="#3E2670" d="M195.32,111.588c-0.48-0.576-1.177-1.06-1.81-1.491c-0.66-0.421-5.14-2.345-9.929-0.632
	c-1.32,0.472-2.728,0.922-3.999,1.731c-2.522,1.643-4.704,3.994-6.576,6.591c-1.884,2.602-3.453,5.504-4.554,8.601l-0.002,0.005
	c-0.042,0.117-0.17,0.178-0.287,0.137c-0.1-0.036-0.159-0.135-0.148-0.236c0.184-1.68,0.595-3.327,1.11-4.941
	c0.524-1.611,1.136-3.208,1.899-4.747c1.517-3.077,3.562-5.985,6.318-8.366c1.374-1.18,2.891-2.324,4.653-3.078
	c1.763-0.738,3.733-1.011,5.619-0.845c0.437,0.029,1.042,0.099,1.547,0.214c0.522,0.127,1.022,0.285,1.492,0.502
	c0.943,0.418,1.751,1.011,2.458,1.649c0.695,0.657,1.286,1.383,1.746,2.182c0.227,0.402,0.443,0.802,0.597,1.242
	c0.166,0.428,0.294,0.876,0.302,1.386c0.002,0.124-0.097,0.226-0.221,0.228c-0.07,0.001-0.133-0.03-0.175-0.08L195.32,111.588z"/>
<path fill="#3E2670" d="M210.62,105.374c-0.828-1.056-1.277-2.532-1.192-4.056c0.094-1.53,0.751-3.026,1.663-4.223
	c0.839-1.158,1.801-2.198,3.061-2.938c1.235-0.755,2.679-1.165,4.085-1.434c2.826-0.599,5.705-0.233,8.169,0.758
	c2.469,1.006,4.635,2.46,6.466,4.209c0.087,0.083,0.09,0.222,0.007,0.309c-0.068,0.072-0.176,0.085-0.259,0.043
	c-2.211-1.132-4.506-2.033-6.827-2.38c-2.302-0.366-5.055-0.129-6.542,0.567c-5.824,2.727-7.982,6.366-8.209,9.041
	c-0.011,0.125-0.121,0.218-0.246,0.207c-0.065-0.006-0.122-0.038-0.159-0.086L210.62,105.374z"/>
</svg>
