<?xml version="1.0" encoding="utf-8"?>
<!-- Generator: Adobe Illustrator 23.0.1, SVG Export Plug-In . SVG Version: 6.00 Build 0)  -->
<svg version="1.1" id="eyebrows" xmlns="http://www.w3.org/2000/svg" xmlns:xlink="http://www.w3.org/1999/xlink" x="0px" y="0px"
	 width="450px" height="378px" viewBox="0 0 450 378" enable-background="new 0 0 450 378" xml:space="preserve">
<path fill="#3E2670" d="M167.468,123.021c-1.103-2.87-0.442-6.243,1.043-9.009c1.568-2.776,3.885-5.009,6.704-6.538
	c2.816-1.525,6.083-2.153,9.158-1.878c1.54,0.133,3.04,0.467,4.453,0.995c1.407,0.527,2.761,1.194,3.919,2.131
	c-2.905-0.429-5.693-0.503-8.335-0.179c-2.637,0.342-5.09,1.12-7.269,2.393c-2.157,1.282-4.159,3.02-5.823,4.955
	C169.662,117.867,168.301,120.153,167.468,123.021z"/>
<path fill="#3E2670" d="M212,105.999c-0.384-2.118,0.221-4.351,1.525-6.211c1.287-1.874,3.485-3.268,5.708-3.715
	c2.082-0.479,4.307-0.545,6.416-0.056c2.081,0.516,4.127,1.527,5.393,3.259c-2.058-0.333-3.894-0.332-5.678-0.206
	c-1.779,0.135-3.489,0.447-5.197,0.876c-1.593,0.379-2.93,1.026-4.282,2.026C214.552,102.987,213.293,104.328,212,105.999z"/>
</svg>
