<?xml version="1.0" encoding="utf-8"?>
<!-- Generator: Adobe Illustrator 23.0.1, SVG Export Plug-In . SVG Version: 6.00 Build 0)  -->
<svg version="1.1" id="eyebrows" xmlns="http://www.w3.org/2000/svg" xmlns:xlink="http://www.w3.org/1999/xlink" x="0px" y="0px"
	 width="450px" height="378px" viewBox="0 0 450 378" enable-background="new 0 0 450 378" xml:space="preserve">
<path fill="#3E2670" d="M197.186,108.674l1.016,1.438c0,0-11.654,0.891-18.441,4.984c-7.379,4.45-11.915,10.86-11.915,10.86
	s2.489-7.946,8.958-13.236c4.092-3.345,10.918-4.904,15.522-5.645C194.235,106.767,196.17,107.236,197.186,108.674z"/>
<path fill="#3E2670" d="M213.005,101.672c-0.894,2.072-0.605,4.172-0.605,4.172s8.288-6.621,14.364-7.132
	c5.409-0.455,8.524,1.772,8.524,1.772s-2.766-4.632-8.291-4.751C222.386,95.634,213.877,99.651,213.005,101.672z"/>
</svg>
