<?xml version="1.0" encoding="utf-8"?>
<!-- Generator: Adobe Illustrator 23.0.1, SVG Export Plug-In . SVG Version: 6.00 Build 0)  -->
<svg version="1.1" id="eyebrows" xmlns="http://www.w3.org/2000/svg" xmlns:xlink="http://www.w3.org/1999/xlink" x="0px" y="0px"
	 width="450px" height="378px" viewBox="0 0 450 378" enable-background="new 0 0 450 378" xml:space="preserve">
<path fill="#3E2670" d="M213.785,99.241c-0.116-0.772-0.04-1.442,0.111-2.139c0.153-0.688,0.425-1.353,0.791-1.983
	c0.729-1.252,1.932-2.367,3.424-2.968c1.472-0.597,3.17-0.74,4.57-0.29c0.179,0.046,0.359,0.087,0.532,0.139l0.49,0.22
	c0.322,0.152,0.64,0.302,0.941,0.477c0.576,0.383,1.101,0.825,1.567,1.313c0.291,0.304,0.28,0.787-0.024,1.078
	c-0.132,0.125-0.296,0.195-0.465,0.209l-0.131,0.01c-0.647,0.053-1.219,0.005-1.77-0.004c-0.279,0.029-0.542,0.035-0.801,0.042
	l-0.381,0.002l-0.362,0.054c-0.237,0.044-0.468,0.051-0.691,0.082c-0.213,0.061-0.421,0.119-0.626,0.16
	c-0.215,0.012-0.388,0.146-0.58,0.196l-0.283,0.091c-0.088,0.053-0.173,0.103-0.264,0.144c-0.707,0.347-1.391,0.819-2.147,1.436
	c-0.759,0.603-1.558,1.375-2.527,2.146l-0.104,0.083c-0.341,0.271-0.837,0.215-1.108-0.126
	C213.859,99.505,213.805,99.373,213.785,99.241"/>
<path fill="#3E2670" d="M169.101,119.741c-0.047-2.208,0.583-4.253,1.593-6.182c1.031-1.905,2.533-3.657,4.463-4.901
	c0.958-0.625,2.006-1.124,3.096-1.478c1.098-0.337,2.23-0.511,3.347-0.55c2.238-0.025,4.383,0.513,6.216,1.523
	c0.36,0.198,0.491,0.65,0.293,1.01c-0.132,0.238-0.373,0.375-0.626,0.384l-0.017,0.001c-1.965,0.064-3.78,0.219-5.441,0.622
	c-0.824,0.226-1.611,0.484-2.356,0.821c-0.741,0.345-1.442,0.75-2.11,1.219c-1.335,0.937-2.523,2.14-3.672,3.481
	c-1.154,1.334-2.24,2.862-3.395,4.413l-0.049,0.066c-0.245,0.33-0.712,0.399-1.042,0.153
	C169.21,120.181,169.107,119.961,169.101,119.741"/>
</svg>
