<?xml version="1.0" encoding="utf-8"?>
<!-- Generator: Adobe Illustrator 23.0.1, SVG Export Plug-In . SVG Version: 6.00 Build 0)  -->
<svg version="1.1" id="eyebrows" xmlns="http://www.w3.org/2000/svg" xmlns:xlink="http://www.w3.org/1999/xlink" x="0px" y="0px"
	 width="450px" height="378px" viewBox="0 0 450 378" enable-background="new 0 0 450 378" xml:space="preserve">
<path fill="#3E2670" d="M191.252,101.259c-2.122-1.274-9.17,1.865-14.232,5.244c-4.64,3.098-7.701,5.925-8.743,8.994
	c-1.31,3.861-3.992,12.759-1.296,12.578c1.635-0.11,4.721-8.631,15.696-14.601c5.077-2.762,11.388-2.766,12.153-5.843
	C195.366,105.474,193.221,102.441,191.252,101.259z"/>
<path fill="#3E2670" d="M207.044,95.042c1.293-1.866,8.118-4.654,14.152-5.458c5.53-0.737,7.045,1.33,9.99,2.684
	c0.991,0.456,4.826,4.061,4.361,5.179c-0.629,1.513-2.233-1.628-14.417,1.133c-5.637,1.278-9.959,5.416-12.565,3.61
	C206.737,100.924,205.736,96.93,207.044,95.042z"/>
</svg>
