<svg width="450" height="378" viewBox="0 0 450 378" fill="none" xmlns="http://www.w3.org/2000/svg">
<path d="M210.978 74.398C188.62 59.188 149.632 60.423 149.479 70.917L187.006 84.324C187.006 84.324 204.113 81.297 212.109 82.166C223.854 83.443 226.172 89.558 229.471 91.357C232.279 92.89 225.557 84.316 210.978 74.398Z" fill="#F4EDC9" stroke="#3E2670" stroke-width="5" stroke-miterlimit="10"/>
<path d="M196.886 81.9782C196.886 81.9782 181.572 83.6812 170.237 92.8902C157.982 102.847 151.343 114.081 151.343 114.081C151.343 114.081 156.946 127.216 156.194 134.762C155.223 144.499 158.747 154.166 158.747 154.166C158.747 154.166 171.513 179.443 165.641 198.592C156.194 195 156.194 194.241 138.5 186.5C114.5 176 114 175.5 114 175.5C114 175.5 99.1321 171.806 96.0001 154.166C92.2551 133.075 90.652 125.829 97.939 104.386C110.887 66.2892 141.991 67.5392 151.266 68.7022C162.512 70.1122 196.886 81.9782 196.886 81.9782Z" fill="#F4EDC9"/>
<path d="M124.634 84.1563C114.391 92.6833 102.156 109.426 100.951 123.819C98.5447 152.56 103 163 103 163C103 163 91.9697 139.348 98.7577 109.625C100.693 101.151 106.541 86.6653 111.822 82.2633C134.258 63.5603 158.323 72.7243 158.323 72.7243C158.323 72.7243 138.589 72.5393 124.634 84.1563Z" fill="#FBF8E9"/>
<path d="M141.778 112.174C144.243 106.23 148.205 101.016 151.218 96.66L145.891 98.752C145.891 98.752 147.623 94.5877 150.492 91.2065C155.67 85.1047 162 79 162 79C162 79 155.398 80.8037 148.037 86.0762C142.316 90.1746 138.972 93.7876 138.972 93.7876C138.972 93.7876 139.841 90.4168 140.978 88.6857C142.058 87.0412 145.124 82.4707 145.124 82.4707C145.124 82.4707 126.791 86.9828 120.122 110.014C115.244 126.863 120.303 149 120.303 149C120.303 149 121.632 141.322 122.472 132.591C123.317 123.811 125.598 118.609 125.598 118.609C125.598 118.609 125.478 121.83 125.874 127.99C126.213 133.279 127.887 138.865 127.887 138.865C127.887 138.865 129.943 125.923 131.978 119.919C135.445 109.692 138.063 107.352 138.063 107.352C138.063 107.352 136.751 111.896 135.956 117.371C135.111 123.195 135.781 128.47 135.781 128.47C135.781 128.47 138.64 119.742 141.778 112.174Z" fill="#FBF8E9"/>
<path fill="none" d="M196.947 81.9782C196.947 81.9782 181.633 83.6812 170.298 92.8902C158.043 102.847 151.404 114.081 151.404 114.081C151.404 114.081 157.007 127.216 156.255 134.762C155.284 144.499 160.983 160.533 163.659 168.719C167.999 181.996 168 186 166.5 197C166.227 199 166.5 198.75 154.5 193.5C130.5 183 122 179 122 179C122 179 101.132 174.64 97.9996 157C94.8677 139.36 90.7127 125.829 97.9997 104.386C110.948 66.2892 142.052 67.5392 151.327 68.7022C162.573 70.1122 196.947 81.9782 196.947 81.9782Z" stroke="#3E2670" stroke-width="5" stroke-miterlimit="10"/>
</svg>
