<?xml version="1.0" encoding="utf-8"?>
<!-- Generator: Adobe Illustrator 23.0.1, SVG Export Plug-In . SVG Version: 6.00 Build 0)  -->
<svg version="1.1" id="shirt" xmlns="http://www.w3.org/2000/svg" xmlns:xlink="http://www.w3.org/1999/xlink" x="0px" y="0px"
	 width="450px" height="378px" viewBox="0 0 450 378" enable-background="new 0 0 450 378" xml:space="preserve">
<path fill="#B96DAD" d="M214.683,232.245c0,0-15.899-9.4-9.133-33.151c0,0,6.717,1.249,11.503-1.978c0,0,21.137,13.439,29.011,4.649
	c3.241-3.619-4.04-14.318-4.04-14.318s7.367-5.164,14.817-7.724c0,0,7.267,15.971,16.711,18.41c0,0-4.505,3.429-7.652,6.579
	l2.798,3.262c0,0-16.716,0.957-28.903,6.227C239.795,214.201,223.841,214.21,214.683,232.245"/>
</svg>
