<svg width="450" height="378" viewBox="0 0 450 378" fill="none" xmlns="http://www.w3.org/2000/svg">
<path opacity="0.4" d="M205 121L199.963 115.836L178.722 140.984L183.037 147.845L205 121Z" fill="white"/>
<path opacity="0.4" d="M206.365 126.297L204.807 124.964L183.354 150.043H186.5L206.365 126.297Z" fill="white"/>
<path opacity="0.2" d="M222.5 128.5C229 125.573 246.499 116 245.499 116.5C242.999 111 240.499 100.5 232.999 97.5C226.293 102.994 212 107.5 212 110.5C215 117 216.5 126 222.5 128.5Z" fill="white"/>
<path opacity="0.2" d="M184 149.5C190.5 146.573 210.5 135 209.5 135.5C207 130 204.275 120.247 198.275 115.247C191.568 120.741 172.275 126.248 172.275 129.248C175.275 135.748 179.5 146 184 149.5Z" fill="white"/>
<path opacity="0.4" d="M241.527 104.897L235.3 99L215.316 120.103L219.816 127L241.527 104.897Z" fill="white"/>
<path opacity="0.4" d="M242.206 108.372L240.825 107.064L221 128L222.381 129.307L242.206 108.372Z" fill="white"/>
<path d="M159 150.5L177 140.5M177 140.5L171.528 130.82C170.968 129.828 171.348 128.569 172.363 128.053L198.239 114.896C199.215 114.399 200.409 114.78 200.917 115.75L205.5 124.5M177 140.5L181.999 148.831C182.556 149.76 183.752 150.076 184.696 149.544L208.874 135.917C209.789 135.401 210.149 134.264 209.697 133.314L205.5 124.5M205.5 124.5C211.585 118.333 212.769 120.667 216 119M216 119L211.502 110.823C210.955 109.828 211.345 108.578 212.36 108.07L233.793 97.3536C234.748 96.8759 235.911 97.2333 236.432 98.1652L242.5 109L245.468 114.193C246.031 115.179 245.661 116.436 244.654 116.96L223.226 128.102C222.265 128.602 221.081 128.246 220.555 127.299L216.5 120L216 119Z" stroke="black" stroke-width="3"/>
</svg>
