<?xml version="1.0" encoding="utf-8"?>
<!-- Generator: Adobe Illustrator 23.0.1, SVG Export Plug-In . SVG Version: 6.00 Build 0)  -->
<svg version="1.1" id="Hair" xmlns="http://www.w3.org/2000/svg" xmlns:xlink="http://www.w3.org/1999/xlink" x="0px" y="0px"
	 width="450px" height="378px" viewBox="0 0 450 378" enable-background="new 0 0 450 378" xml:space="preserve">
<path fill="#2F2B2C" d="M223.383,85.745c0,0,7.149-7.404,2.553-16.085c-3.852-7.277-12-7.149-12-7.149s5.787-13.872-2.383-20.34
	c-7.182-5.686-17.702-1.702-17.702-1.702s3.064-12.936-7.83-17.362c-11.372-4.62-21.106,3.745-21.106,3.745
	s-5.787-11.574-18.383-9.532c-13.508,2.191-16,15.66-16,15.66s-13.277-10.213-25.872-2.043c-12.686,8.229-8.17,23.489-8.17,23.489
	s-15.938-6.828-27.234,5.106c-10.553,11.149-3.745,26.213-3.745,26.213S51.11,86.85,49,101.319
	c-2.383,16.34,11.234,22.213,11.234,22.213s-10.383,6.128-6.638,18.128c3.614,11.582,14.298,11.489,14.298,11.489
	s-9.612,9.256-3.83,18.894C68.66,179.702,79.468,178,79.468,178s-3.431,12.584,9.191,18.383c12.596,5.787,20.085-4.766,20.085-4.766
	s2.553,11.574,11.745,11.574c9.872,0,13.787-7.489,13.787-7.489s3.064,7.489,11.915,5.447c8.782-2.027,8.851-11.234,8.851-11.234
	s9.677,0.546,11.915-1.617c5.106-4.936,3.527-15.262,1.872-19.234c-1.967-4.723-10.553-14.894-10.553-14.894
	s-2.285-5.627-2.553-12.426c-0.25-6.359,1.532-10.043,0.511-15.319c-0.779-4.025-5.617-13.447-5.617-13.447
	s15.489-23.489,39.83-29.957c14.905-3.961,28.426-1.362,28.426-1.362L223.383,85.745z"/>
<path opacity="0.2" fill="#231F20" d="M58.83,122.851c0,0-10.383,6.128-6.638,18.128c3.614,11.582,14.298,11.489,14.298,11.489
	s-9.612,9.256-3.83,18.894c4.596,7.66,15.404,5.957,15.404,5.957s-3.431,12.584,9.191,18.383
	c12.596,5.787,20.085-4.766,20.085-4.766s2.553,11.574,11.745,11.574c9.872,0,13.787-7.489,13.787-7.489s3.064,7.489,11.915,5.447
	c8.782-2.027,8.851-11.234,8.851-11.234s6,5.191,12.468-0.766c3.005-2.768,6.468-6.809,4.426-16.681
	c-1.354-6.543-13.66-18.298-13.66-18.298l-3.043-6.383l-16.936-4.17c0,0-2.096,9.497-12.766,10.979
	c-9.191,1.277-13.277-6.638-13.277-6.638s-14.553,11.234-29.362,1.787c-14.928-9.523-7.149-29.106-7.149-29.106
	s-11.745,1.277-18.383-9.447c-5.325-8.602-0.426-18.553-0.426-18.553s-5.447,2.383-7.149,13.277
	C46.382,118.042,58.83,122.851,58.83,122.851z"/>
<path fill="#515153" d="M212.404,64.383c0,0,6.114-15.188-1.362-21.106c-6.571-5.202-17.702-0.34-17.702-0.34
	s4.008-14.432-7.149-18.723c-13.277-5.106-20.426,4.085-20.426,4.085s-6.177-12.082-17.702-10.213
	c-12.36,2.004-15.66,17.872-15.66,17.872s-10.141-10.252-22.979-5.362c-12.511,4.766-10.383,14.298-10.383,14.298
	s1.702-8.936,15.319-8.766c13.789,0.172,20.766,11.745,20.766,11.745s3.629-15.559,14.638-16.17
	c12.255-0.681,14.894,8.851,14.894,8.851s8.34-12.681,19.83-6.809c6.236,3.187,4.255,13.617,4.255,13.617s13.277-6.298,21.362,0.34
	C217.698,53.935,212.404,64.383,212.404,64.383z"/>
<path fill="#515153" d="M177.461,52.519c-0.629-0.934-1.509-1.731-2.521-2.339c-1.015-0.644-2.202-0.89-3.371-1.071
	c-1.196-0.079-2.466,0.005-3.65,0.463c-1.174,0.449-2.236,1.155-3.118,1.999c-0.874,0.849-1.589,1.808-2.196,2.813
	c-0.034,0.056-0.063,0.115-0.096,0.172c-0.44-0.435-0.896-0.856-1.374-1.258c-1.282-1.057-2.729-1.988-4.357-2.65
	c-1.618-0.656-3.423-1.103-5.267-1.056c-1.834,0.034-3.663,0.395-5.311,1.149c-1.695,0.641-3.246,1.81-4.544,3.151
	c-1.295,1.378-2.201,3.021-2.865,4.684c-0.586,1.489-0.882,3.009-1.062,4.516c-0.194-0.091-0.384-0.188-0.581-0.275
	c-1.917-0.839-4.02-1.418-6.245-1.588c-2.211-0.152-4.583,0.081-6.716,1c-0.547,0.186-1.027,0.505-1.539,0.76l-0.752,0.411
	c-0.237,0.152-0.454,0.328-0.68,0.492l-1.334,1.016c-0.39,0.369-0.785,0.727-1.163,1.112c-1.49,1.562-2.791,3.48-3.523,5.671
	c-0.08,0.232-0.149,0.468-0.215,0.704c-1.698-1.058-3.595-1.853-5.643-2.329c-1.599-0.347-3.317-0.437-5.039-0.147
	c-1.717,0.286-3.419,0.982-4.876,1.996c-1.456,0.994-2.776,2.327-3.71,3.924c-0.46,0.798-0.838,1.642-1.127,2.509
	c-0.27,0.871-0.451,1.756-0.562,2.639c-0.225,1.769-0.099,3.51,0.181,5.181c0.123,0.669,0.282,1.326,0.461,1.977
	c-0.067,0.017-0.136,0.027-0.203,0.045c-1.099,0.291-2.185,0.697-3.225,1.257c-1.041,0.557-2.041,1.273-2.886,2.184
	c-0.858,0.881-1.522,2.029-1.925,3.129c-0.406,1.133-0.632,2.385-0.495,3.604c0.107,1.219,0.546,2.357,1.149,3.303
	c0.592,0.959,1.337,1.756,2.163,2.409c0.815,0.661,1.706,1.202,2.651,1.583c-1.362-1.485-2.445-3.168-2.942-4.859
	c-0.47-1.716-0.218-3.272,0.622-4.599c0.809-1.364,2.03-2.199,3.537-2.806c0.755-0.285,1.563-0.503,2.397-0.657
	c0.417-0.075,0.842-0.129,1.264-0.169c0.4-0.045,0.895-0.073,1.179-0.069l3.572,0.056l-1.382-3.499
	c-0.189-0.479-0.41-1.194-0.587-1.81c-0.178-0.642-0.324-1.293-0.431-1.943c-0.232-1.296-0.317-2.594-0.227-3.826
	c0.178-2.473,1.111-4.662,2.993-6.357c1.836-1.668,4.358-2.53,7.16-2.516c1.86-0.016,3.773,0.311,5.683,0.844
	c-0.316,1.661-0.313,3.367-0.036,4.955c0.353,2.175,1.144,4.156,2.136,5.946c0.295,0.533,0.615,1.046,0.946,1.549
	c-1.396,0.294-2.791,0.764-4.095,1.502c-1.341,0.746-2.587,1.832-3.414,3.183c-0.842,1.319-1.347,2.844-1.456,4.269l-0.115,1.069
	l0.032,1.093c-0.02,0.722,0.184,1.447,0.309,2.155c0.397,1.406,1.077,2.71,2,3.775c1.881,2.1,4.373,3.353,6.918,3.901
	c-2.347-1.107-4.416-2.77-5.687-4.808c-0.607-1.039-0.947-2.162-1.113-3.284c-0.003-0.58-0.097-1.135,0.014-1.712l0.095-0.85
	l0.226-0.845c0.563-2.251,1.909-3.862,3.875-4.653c0.965-0.414,2.047-0.657,3.165-0.762c0.558-0.056,1.127-0.083,1.695-0.07
	c0.544,0.004,1.187,0.052,1.608,0.122l5.608,0.926l-3.719-4.67c-0.427-0.536-0.947-1.283-1.368-1.963
	c-0.434-0.701-0.826-1.425-1.163-2.16c-0.666-1.471-1.151-2.983-1.294-4.446c-0.16-1.466,0.026-2.852,0.512-4.122
	c0.484-1.276,1.341-2.43,2.402-3.484l0.843-0.767l0.877-0.618c0.146-0.101,0.284-0.219,0.434-0.31l0.466-0.226
	c0.315-0.136,0.601-0.35,0.93-0.437c1.264-0.501,2.64-0.638,4.065-0.531c1.429,0.112,2.904,0.535,4.35,1.141
	c0.72,0.313,1.437,0.66,2.125,1.065c0.349,0.195,0.684,0.409,1.016,0.625c0.312,0.206,0.681,0.471,0.882,0.627l6.115,4.742
	l-1.3-7.545c-0.031-0.178-0.07-0.546-0.1-0.838c-0.02-0.316-0.059-0.63-0.061-0.95c-0.025-0.637-0.025-1.28,0.025-1.909
	c0.092-1.256,0.287-2.498,0.687-3.6c0.394-1.099,0.897-2.125,1.611-2.948c0.741-0.789,1.55-1.541,2.622-2.009
	c1.017-0.561,2.156-0.834,3.274-0.936c1.129-0.133,2.293,0.065,3.448,0.426c1.152,0.374,2.304,0.943,3.385,1.681
	c0.537,0.374,1.067,0.772,1.564,1.211c0.493,0.415,1.016,0.93,1.381,1.325l2.729,2.952l0.72-3.651
	c0.15-0.761,0.483-1.729,0.85-2.537c0.373-0.835,0.824-1.625,1.368-2.308c0.556-0.669,1.19-1.229,1.911-1.652
	c0.725-0.42,1.564-0.599,2.448-0.687c1.805-0.064,3.622,0.535,5.004,1.929c1.36,1.388,2.351,3.27,2.909,5.284
	C179.301,56.524,178.738,54.375,177.461,52.519z"/>
<path fill="none" stroke="#3E2670" stroke-width="5" stroke-linecap="round" stroke-linejoin="round" stroke-miterlimit="10" d="
	M223.383,85.745c0,0,7.66-7.149,3.064-15.83c-3.852-7.277-13.702-6.128-13.702-6.128s6.979-15.149-1.191-21.617
	c-7.182-5.686-17.702-1.702-17.702-1.702s3.064-12.936-7.83-17.362c-11.372-4.62-21.106,3.745-21.106,3.745
	s-5.787-11.574-18.383-9.532c-13.508,2.191-16,15.66-16,15.66s-13.277-10.213-25.872-2.043c-12.686,8.229-8.17,23.489-8.17,23.489
	s-15.938-6.828-27.234,5.106c-10.553,11.149-3.745,26.213-3.745,26.213S51.11,86.85,49,101.319
	c-2.383,16.34,11.234,22.213,11.234,22.213s-10.383,6.128-6.638,18.128c3.614,11.582,14.298,11.489,14.298,11.489
	s-9.612,9.256-3.83,18.894C68.66,179.702,79.468,178,79.468,178s-3.431,12.584,9.191,18.383c12.596,5.787,20.085-4.766,20.085-4.766
	s2.553,11.574,11.745,11.574c9.872,0,13.787-7.489,13.787-7.489s3.064,7.489,11.915,5.447c8.782-2.027,8.851-11.234,8.851-11.234
	s7.419,1.522,10.383-0.596c4.766-3.404,6.519-7.847,4.255-14.638c-2.553-7.66-12.17-18.979-12.17-18.979s-1.52-7.159-1.787-13.957
	c-0.25-6.359,1.532-10.043,0.511-15.319c-0.779-4.025-5.617-13.447-5.617-13.447s15.489-23.489,39.83-29.957
	c14.905-3.961,28.426-1.362,28.426-1.362L223.383,85.745z"/>
</svg>
