<?xml version="1.0" encoding="utf-8"?>
<!-- Generator: Adobe Illustrator 23.0.1, SVG Export Plug-In . SVG Version: 6.00 Build 0)  -->
<svg version="1.1" id="eyes" xmlns="http://www.w3.org/2000/svg" xmlns:xlink="http://www.w3.org/1999/xlink" x="0px" y="0px"
	 width="450px" height="378px" viewBox="0 0 450 378" enable-background="new 0 0 450 378" xml:space="preserve">
<path fill="#F3F3F3" d="M204.071,136.082c1.138-2.021,1.711-4.312,1.535-6.7c-0.529-7.214-7.642-12.572-15.886-11.967
	c-8.244,0.605-14.498,6.943-13.969,14.157c0.175,2.389,1.076,4.572,2.497,6.405c3.748-0.987,8.125-1.718,12.83-2.063
	C195.782,135.569,200.219,135.653,204.071,136.082"/>
<linearGradient id="SVGID_1_" gradientUnits="userSpaceOnUse" x1="179.2796" y1="127.9696" x2="193.6934" y2="127.9696">
	<stop  offset="5.860568e-08" style="stop-color:#8CCFAF"/>
	<stop  offset="0.5371" style="stop-color:#199F5E"/>
	<stop  offset="1" style="stop-color:#00954C"/>
</linearGradient>
<path fill="url(#SVGID_1_)" d="M186.964,134.475c4.106-0.301,7.221-3.458,6.957-7.051c-0.25-3.407-3.448-5.983-7.28-5.983
	c-0.209,0-0.42,0.007-0.632,0.023c-4.105,0.302-7.22,3.458-6.957,7.051C179.316,132.107,182.858,134.776,186.964,134.475z"/>
<path fill="#FFFFFF" d="M187.818,126.208c0.123,1.675-1.282,3.143-3.139,3.279c-1.856,0.136-3.46-1.111-3.583-2.786
	c-0.123-1.674,1.282-3.142,3.138-3.278C186.091,123.286,187.695,124.533,187.818,126.208"/>
<path fill="#F3F3F3" d="M242.21,106.765c2.386,4.963-1.288,11.683-8.207,15.008c-6.918,3.326-14.46,1.998-16.846-2.965
	c-2.386-4.963,1.288-11.682,8.206-15.008C232.282,100.474,239.824,101.802,242.21,106.765"/>
<linearGradient id="SVGID_2_" gradientUnits="userSpaceOnUse" x1="219.5263" y1="113.9321" x2="232.6569" y2="113.9321">
	<stop  offset="5.860568e-08" style="stop-color:#8CCFAF"/>
	<stop  offset="0.5371" style="stop-color:#199F5E"/>
	<stop  offset="1" style="stop-color:#00954C"/>
</linearGradient>
<path fill="url(#SVGID_2_)" d="M226.905,119.969c3.811-0.514,6.534-3.633,6.085-6.968c-0.407-3.018-3.277-5.178-6.644-5.178
	c-0.351,0-0.709,0.024-1.069,0.073c-3.81,0.514-6.535,3.633-6.085,6.967C219.642,118.196,223.096,120.483,226.905,119.969z"/>
<path fill="#FFFFFF" d="M226.865,111.418c0.174,1.293-0.846,2.499-2.28,2.692c-1.434,0.193-2.738-0.698-2.912-1.992
	c-0.174-1.293,0.846-2.498,2.28-2.692C225.387,109.233,226.691,110.125,226.865,111.418"/>
</svg>
