<?xml version="1.0" encoding="utf-8"?>
<!-- Generator: Adobe Illustrator 23.0.1, SVG Export Plug-In . SVG Version: 6.00 Build 0)  -->
<svg version="1.1" id="Hair" xmlns="http://www.w3.org/2000/svg" xmlns:xlink="http://www.w3.org/1999/xlink" x="0px" y="0px"
	 width="450px" height="378px" viewBox="0 0 450 378" enable-background="new 0 0 450 378" xml:space="preserve">
<path fill="#DDC190" d="M150.106,110.255l-39.064,6.383c0,0-0.886,22.22,13.532,43.66c13.962,20.763,46.723,29.617,46.723,29.617
	L159.553,182l-0.766-26.809c0,0-3.728-11.621-2.553-22.979C157,124.809,150.106,110.255,150.106,110.255z"/>
<path opacity="0.6" fill="#747678" d="M150.106,110.255l-39.064,6.383c0,0-0.661,18.318,11.234,40.34
	c12.894,23.872,49.021,32.936,49.021,32.936L159.553,182l-0.766-26.809c0,0-3.728-11.621-2.553-22.979
	C157,124.809,150.106,110.255,150.106,110.255z"/>
<path opacity="0.3" fill="#3E2670" d="M129.426,166.17c13.847,15.476,42.809,22.936,42.809,22.936s-10.801-3.735-12.766-6.766
	c-4.153-6.406-2.043-30.468-2.043-30.468s-9.316-10.223-23.149-5.106c-12.426,4.596-17.532-2.723-17.532-2.723
	S118.574,154.043,129.426,166.17z"/>
<path fill="none" stroke="#3E2670" stroke-width="4" stroke-miterlimit="10" d="M159.553,182c1.725,3.092,11.745,7.915,11.745,7.915
	s-23.489-3.191-44.17-26.553c-16.906-19.097-16.17-48.596-16.17-48.596l39.149-4.511c0,0,6.894,14.553,6.128,21.957
	c-0.946,9.145,1.287,18.461,2.193,21.744C158.427,153.957,156.134,175.873,159.553,182z"/>
<path fill="#747678" d="M221.682,73.721c0.16-6.896-14.895-21.679-36.597-20.913c-27.7,0.978-40.596,20.681-40.596,20.681
	s-12.906,3.181-23.745,13.787c-11.243,11.002-14.425,21.969-11.234,28.085c3.064,5.872,25.831,4.73,39.044-1.374
	c8.161-3.77,10.354-7.815,20.394-14.941c6.649-4.719,17.57-5.707,32.731-9.728C216.818,85.304,221.504,81.396,221.682,73.721z"/>
<path opacity="0.4" fill="#FFFFFF" d="M158.24,73.835c2.742-1.334,5.772-2.012,8.844-2.225c3.075-0.224,6.253,0.127,9.262,1.178
	c2.995,1.051,5.802,2.915,7.765,5.43c2.014,2.471,3.162,5.495,3.495,8.5c-1.526-2.626-3.152-5.03-5.215-6.912
	c-2.047-1.889-4.442-3.269-7.048-4.192c-2.609-0.922-5.403-1.419-8.272-1.672C164.197,73.717,161.266,73.71,158.24,73.835z"/>
<path opacity="0.4" fill="#FFFFFF" d="M177.958,60.644c3.127,0.109,6.254,0.743,9.204,1.991c2.949,1.222,5.762,3.082,7.887,5.673
	c2.122,2.576,3.433,5.86,3.613,9.139c0.216,3.267-0.49,6.535-2.096,9.241c0.415-3.091,0.369-6.106-0.224-8.927
	c-0.612-2.818-1.837-5.38-3.614-7.554c-1.777-2.183-4.09-3.944-6.611-5.487C183.58,63.185,180.8,61.961,177.958,60.644z"/>
<path opacity="0.4" fill="#FFFFFF" d="M200.082,61.095c1.044,0.21,2.077,0.527,3.1,0.904c0.483,0.241,0.966,0.496,1.447,0.764
	c0.488,0.259,0.967,0.538,1.383,0.916c0.431,0.356,0.864,0.719,1.286,1.097c0.392,0.411,0.73,0.879,1.092,1.327
	c0.387,0.433,0.638,0.961,0.909,1.479c0.268,0.52,0.536,1.04,0.678,1.612c0.749,2.228,0.702,4.654,0.076,6.791
	c-0.643,2.135-1.746,4.093-3.36,5.543c0.532-2.078,0.903-4.051,1.039-5.968c0.131-1.915-0.045-3.751-0.609-5.443
	c-0.086-0.444-0.3-0.84-0.488-1.247c-0.174-0.414-0.343-0.834-0.616-1.205l-0.728-1.177c-0.305-0.355-0.6-0.724-0.896-1.102
	c-0.157-0.18-0.279-0.396-0.454-0.564l-0.523-0.514c-0.348-0.348-0.693-0.709-1.039-1.084
	C201.637,62.54,200.836,61.9,200.082,61.095z"/>
<path opacity="0.4" fill="#FFFFFF" d="M133.404,85.644c2.883-1.524,6.008-2.507,9.197-3.173c3.191-0.68,6.489-0.965,9.803-0.777
	c1.656,0.091,3.315,0.337,4.946,0.725c1.629,0.39,3.241,0.936,4.737,1.735c1.504,0.768,2.918,1.732,4.111,2.917
	c1.173,1.203,2.161,2.56,2.815,4.053c-1.201-1.109-2.409-2.102-3.729-2.897c-1.296-0.824-2.708-1.411-4.123-1.922
	c-2.854-0.987-5.882-1.417-8.939-1.616c-3.065-0.185-6.173-0.097-9.307,0.094C139.783,84.996,136.633,85.313,133.404,85.644z"/>
<path opacity="0.4" fill="#FFFFFF" d="M121.697,100.011c2.507-1.962,5.407-3.371,8.404-4.439c3.001-1.085,6.161-1.745,9.355-2.036
	c1.596-0.179,3.208-0.152,4.811-0.139c0.802,0.052,1.603,0.126,2.401,0.208c0.399,0.045,0.798,0.071,1.195,0.131l1.183,0.237
	c3.164,0.51,6.196,1.707,8.951,3.239c-3.17-0.352-6.169-0.856-9.222-0.913c-1.511-0.114-3.031-0.024-4.534-0.056
	c-1.509,0.093-3.014,0.102-4.516,0.28c-3.005,0.264-6.001,0.709-8.999,1.296C127.73,98.431,124.749,99.166,121.697,100.011z"/>
<path opacity="0.4" fill="#FFFFFF" d="M126.674,110.686c2.277-0.444,4.413-0.831,6.55-1.285l6.363-1.462
	c2.118-0.516,4.244-1.026,6.399-1.514c2.161-0.477,4.332-0.949,6.622-1.268c-1.794,1.474-3.807,2.559-5.873,3.505
	c-2.076,0.925-4.235,1.66-6.452,2.194c-2.222,0.516-4.503,0.832-6.802,0.881C131.181,111.732,128.847,111.491,126.674,110.686z"/>
<path fill="none" stroke="#3E2670" stroke-width="5" stroke-linecap="round" stroke-miterlimit="10" d="M151.298,113.404
	c6.24-3.439,8.717-8.016,17.652-14.357c6.649-4.719,17.57-5.707,32.731-9.728c15.138-4.015,19.823-7.923,20.001-15.598
	c0.16-6.896-14.895-21.679-36.597-20.913c-27.7,0.978-40.596,20.681-40.596,20.681s-12.906,3.181-23.745,13.787
	c-11.243,11.002-14.425,21.969-11.234,28.085c0.382,0.731,1.532,1.787,1.532,1.787"/>
</svg>
