<?xml version="1.0" encoding="utf-8"?>
<!-- Generator: Adobe Illustrator 23.0.1, SVG Export Plug-In . SVG Version: 6.00 Build 0)  -->
<svg version="1.1" id="Fakial_hair" xmlns="http://www.w3.org/2000/svg" xmlns:xlink="http://www.w3.org/1999/xlink" x="0px"
	 y="0px" width="450px" height="378px" viewBox="0 0 450 378" enable-background="new 0 0 450 378" xml:space="preserve">
<path fill="#2F2B2C" d="M254.083,132.791c0,0-5.299-5.255-13.711-0.317c-4.505,2.644-8.051,5.952-17.672,10.063
	c-11.348,4.849-16.729,2.091-23.343,7.454c-6.783,5.501-7.257,11.489-17.908,15.175c-17.244,5.968-24.674-16.183-24.674-16.183
	s6.137,33.925,12.377,39.416c5.179,4.557,15.57,12.197,41.321,10.142c5.876-0.469,14.592,1.747,25.485-2.56
	c9.665-3.821,11.718-14.028,15.448-18.956C264.197,160.128,254.083,132.791,254.083,132.791z M237.033,169.315l-6.929,2.524
	c0,0-1.392,6.923-6.43,10.345c-4.265,2.897-10.45,0.978-18.035-7.806c-5.811-6.731-7.654-15.705-4.152-20.005
	c3.788-4.65,12.469-3.784,22.478-8.118c11.138-4.823,15.212-9.798,18.022-9.559c4.86,0.412,7.539,10.743,7.684,17.89
	c0.104,5.131-0.721,14.78-4.508,16.946C239.612,174.711,237.033,169.315,237.033,169.315z"/>
<path opacity="0.2" fill="#231F20" d="M175.039,184.875c-5.211-6.991-6.434-20.232-9.489-22.961
	c-6.77-6.046-9.147-13.434-9.147-13.434s5.828,34.297,12.377,39.416c5.793,4.528,19.994,12.187,41.946,10.555
	c6.798-0.505,21.588-1.63,21.588-1.63s-16.566-2.558-29.156-2.132C191.035,195.099,179.414,190.744,175.039,184.875z"/>
<path fill="#515153" d="M237.565,187.159c-0.456,0.009-0.873-0.296-0.989-0.757l-2.038-8.13c-0.134-0.535,0.191-1.079,0.727-1.213
	c0.534-0.137,1.078,0.191,1.213,0.727l2.038,8.13c0.134,0.535-0.191,1.079-0.727,1.213
	C237.714,187.148,237.639,187.157,237.565,187.159z"/>
<path fill="#515153" d="M232.204,191.353c-0.386,0.008-0.757-0.208-0.929-0.581c-1.311-2.838-1.589-7.456-1.6-7.651
	c-0.032-0.551,0.389-1.024,0.941-1.055c0.559-0.026,1.024,0.389,1.055,0.941c0.003,0.044,0.269,4.436,1.419,6.928
	c0.232,0.501,0.013,1.095-0.489,1.327C232.473,191.322,232.338,191.351,232.204,191.353z"/>
<path fill="#515153" d="M242.973,185.176c-0.553,0.011-1.009-0.427-1.02-0.979c-0.034-1.663-1.158-4.834-1.588-5.916
	c-0.204-0.514,0.046-1.095,0.56-1.299c0.514-0.203,1.095,0.047,1.299,0.559c0.069,0.172,1.681,4.248,1.729,6.615
	C243.964,184.708,243.526,185.165,242.973,185.176z"/>
<path fill="none" stroke="#3E2670" stroke-width="3" stroke-linecap="round" stroke-miterlimit="10" d="M254.083,132.791
	c0,0-5.299-5.255-13.711-0.317c-4.505,2.644-8.051,5.952-17.672,10.063c-11.348,4.849-16.729,2.091-23.343,7.454
	c-6.783,5.501-7.257,11.489-17.908,15.175c-17.244,5.968-24.674-16.183-24.674-16.183s6.137,33.925,12.377,39.416
	c5.179,4.557,15.57,12.197,41.321,10.142c5.876-0.469,14.592,1.747,25.485-2.56c9.665-3.821,11.718-14.028,15.448-18.956
	C264.197,160.128,254.083,132.791,254.083,132.791z M237.033,169.315l-6.929,2.524c0,0-1.392,6.923-6.43,10.345
	c-4.265,2.897-10.45,0.978-18.035-7.806c-5.811-6.731-7.654-15.705-4.152-20.005c3.788-4.65,12.469-3.784,22.478-8.118
	c11.138-4.823,15.212-9.798,18.022-9.559c4.86,0.412,7.539,10.743,7.684,17.89c0.104,5.131-0.721,14.78-4.508,16.946
	C239.612,174.711,237.033,169.315,237.033,169.315z"/>
</svg>
