<?xml version="1.0" encoding="utf-8"?>
<!-- Generator: Adobe Illustrator 23.0.1, SVG Export Plug-In . SVG Version: 6.00 Build 0)  -->
<svg version="1.1" id="Fakial_hair" xmlns="http://www.w3.org/2000/svg" xmlns:xlink="http://www.w3.org/1999/xlink" x="0px"
	 y="0px" width="450px" height="378px" viewBox="0 0 450 378" enable-background="new 0 0 450 378" xml:space="preserve">
<path fill="#453823" d="M254.083,132.791c0,0-5.299-5.255-13.711-0.317c-4.505,2.644-8.051,5.952-17.672,10.063
	c-11.348,4.849-16.729,2.091-23.343,7.454c-6.783,5.501-7.257,11.489-17.908,15.175c-17.244,5.968-24.674-16.183-24.674-16.183
	s6.137,33.925,12.377,39.416c5.179,4.557,15.57,12.197,41.321,10.142c5.876-0.469,14.592,1.747,25.485-2.56
	c9.665-3.821,11.718-14.028,15.448-18.956C264.197,160.128,254.083,132.791,254.083,132.791z M237.033,169.315l-6.929,2.524
	c0,0-1.392,6.923-6.43,10.345c-4.265,2.897-10.45,0.978-18.035-7.806c-5.811-6.731-7.654-15.705-4.152-20.005
	c3.788-4.65,12.469-3.784,22.478-8.118c11.138-4.823,15.212-9.798,18.022-9.559c4.86,0.412,7.539,10.743,7.684,17.89
	c0.104,5.131-0.721,14.78-4.508,16.946C239.612,174.711,237.033,169.315,237.033,169.315z"/>
<path opacity="0.45" fill="#1B1439" d="M175.039,184.875c-5.211-6.991-6.434-20.232-9.489-22.961
	c-6.77-6.046-9.147-13.434-9.147-13.434s5.828,34.297,12.377,39.416c5.793,4.528,19.994,12.187,41.946,10.555
	c6.798-0.505,21.588-1.63,21.588-1.63s-16.566-2.558-29.156-2.132C191.035,195.099,179.414,190.744,175.039,184.875z"/>
<path fill="#6A604F" d="M237.545,187.159c-0.447,0-0.855-0.303-0.969-0.757l-2.038-8.13c-0.135-0.536,0.19-1.079,0.727-1.213
	c0.535-0.129,1.079,0.191,1.213,0.727l2.038,8.13c0.135,0.536-0.19,1.079-0.727,1.213
	C237.707,187.149,237.626,187.159,237.545,187.159z"/>
<path fill="#6A604F" d="M232.184,191.354c-0.378,0-0.74-0.215-0.909-0.581c-1.311-2.838-1.589-7.456-1.6-7.651
	c-0.032-0.551,0.39-1.023,0.94-1.055c0.543-0.035,1.024,0.389,1.056,0.94c0.003,0.044,0.269,4.437,1.42,6.928
	c0.231,0.501,0.013,1.096-0.489,1.328C232.466,191.324,232.323,191.354,232.184,191.354z"/>
<path fill="#6A604F" d="M242.953,185.177c-0.543,0-0.988-0.435-1-0.979c-0.033-1.667-1.158-4.835-1.588-5.916
	c-0.205-0.513,0.046-1.095,0.559-1.299c0.512-0.205,1.096,0.046,1.299,0.559c0.069,0.172,1.683,4.249,1.73,6.615
	c0.011,0.552-0.428,1.009-0.979,1.021C242.967,185.177,242.96,185.177,242.953,185.177z"/>
<path fill="#3E2670" d="M202.231,200.384c-19.278,0-28.593-6.039-34.07-10.859c-6.446-5.672-12.225-36.75-12.862-40.275l2.898-0.745
	c0.037,0.109,3.763,10.932,11.666,14.809c3.391,1.665,7.124,1.81,11.096,0.435c6.427-2.225,8.83-5.237,11.61-8.726
	c1.617-2.028,3.289-4.125,5.844-6.197c3.907-3.168,7.452-3.734,11.557-4.389c3.343-0.534,7.132-1.139,12.142-3.279
	c6.744-2.882,10.406-5.334,13.638-7.499c1.306-0.875,2.539-1.701,3.863-2.479c7.44-4.368,13.412-1.554,15.527,0.546l0.236,0.233
	l0.115,0.311c0.424,1.147,10.248,28.307-2.889,45.66c-0.985,1.302-1.898,3.11-2.865,5.023c-2.583,5.117-5.798,11.484-13.228,14.421
	c-8.146,3.221-15.01,2.933-20.524,2.699c-2.062-0.087-3.843-0.162-5.393-0.038C207.614,200.273,204.831,200.384,202.231,200.384z
	 M160.297,158.761c2.466,11.076,6.322,25.412,9.845,28.512c3.7,3.254,13.523,11.901,40.211,9.773
	c1.733-0.14,3.687-0.057,5.758,0.031c5.231,0.22,11.741,0.495,19.294-2.491c6.369-2.519,9.177-8.079,11.653-12.984
	c1.029-2.039,2.002-3.964,3.15-5.482c11.382-15.035,3.675-39.277,2.588-42.462c-1.026-0.831-5.26-3.651-11.666,0.109
	c-1.249,0.733-2.446,1.535-3.714,2.384c-3.34,2.237-7.126,4.772-14.128,7.765c-5.35,2.286-9.507,2.95-12.847,3.483
	c-3.981,0.635-6.857,1.095-10.14,3.757c-2.302,1.867-3.871,3.834-5.388,5.737c-2.815,3.531-5.726,7.182-12.975,9.69
	c-4.761,1.647-9.273,1.452-13.412-0.583C165.064,164.298,162.344,161.541,160.297,158.761z M219.615,184.922
	c-3.615,0-8.655-2.086-15.11-9.563c-6.36-7.367-8.196-17.001-4.179-21.933c2.503-3.074,6.686-4.013,11.529-5.1
	c3.462-0.777,7.386-1.658,11.516-3.447c5.708-2.471,9.508-4.974,12.283-6.802c2.773-1.827,4.604-3.029,6.463-2.875
	c5.987,0.508,8.9,11.624,9.057,19.355c0.031,1.544,0.15,15.181-5.263,18.278c-2.08,1.189-4.074,1.499-5.932,0.919
	c-1.704-0.532-2.874-1.715-3.559-2.62l-5.05,1.84c-0.565,2.07-2.4,7.426-6.853,10.451
	C223.379,184.199,221.744,184.922,219.615,184.922z M241.785,138.188c-0.845,0-2.457,1.062-4.481,2.395
	c-2.867,1.889-6.794,4.475-12.741,7.05c-4.39,1.901-8.46,2.815-12.051,3.621c-4.477,1.005-8.012,1.799-9.86,4.067
	c-3.022,3.709-1.133,11.988,4.124,18.077c6.475,7.5,12.176,10.179,16.057,7.545c4.479-3.043,5.789-9.337,5.802-9.4l0.166-0.826
	l9-3.278l0.584,1.222c0.034,0.068,0.898,1.744,2.509,2.235c1.024,0.311,2.209,0.087,3.527-0.666
	c2.614-1.496,3.885-9.161,3.753-15.613c-0.148-7.362-2.938-16.141-6.311-16.427C241.838,138.189,241.812,138.188,241.785,138.188z"
	/>
</svg>
