<svg width="450" height="378" viewBox="0 0 450 378" fill="none" xmlns="http://www.w3.org/2000/svg">
<path d="M243.426 142.83C243.426 142.83 239.96 137.862 235.662 137.446C232.963 137.185 229.362 140.056 223.575 142.234C218.149 144.277 214.493 143.844 210.705 146.874C206.892 149.924 204.42 158.151 204.42 158.151C204.42 158.151 206.327 158.649 208.81 158.243C211.075 157.873 212.507 155.586 212.507 155.586C212.507 155.586 215.566 156.867 217.776 156.025C219.717 155.286 221.034 153.021 221.034 153.021C221.034 153.021 222.95 154.153 226.141 153.298C228.729 152.605 230.254 149.347 230.254 149.347C230.254 149.347 232.77 149.907 234.829 149.093C236.816 148.307 237.671 146.089 237.671 146.089C237.671 146.089 240.18 145.664 241.414 144.841C242.663 144.008 243.426 142.83 243.426 142.83Z" fill="#86328C"/>
<path opacity="0.6" d="M243.171 142.113C243.171 142.113 242.814 142.811 240.361 143.319C237.893 143.83 235.957 143.447 235.957 143.447C235.957 143.447 235.721 146.016 233.595 146.894C231.095 147.927 228.489 145.83 228.489 145.83C228.489 145.83 227.82 149.485 225.425 150.341C222.837 151.265 220.021 149.362 220.021 149.362C220.021 149.362 219.17 152.639 217.085 153.575C214.794 154.604 211.638 152.639 211.638 152.639C211.638 152.639 211.232 154.389 208.766 155.958C206.66 157.298 204.165 157.435 204.165 157.435C205.063 157.427 206.072 157.933 208.555 157.527C210.82 157.157 212.252 154.87 212.252 154.87C212.252 154.87 215.311 156.151 217.521 155.309C219.462 154.57 220.779 152.305 220.779 152.305C220.779 152.305 222.695 153.437 225.886 152.582C228.474 151.889 229.999 148.631 229.999 148.631C229.999 148.631 232.515 149.191 234.574 148.377C236.561 147.591 237.416 145.373 237.416 145.373C237.416 145.373 239.925 144.948 241.159 144.125C242.409 143.292 243.171 142.113 243.171 142.113Z" fill="#AD69AB"/>
<path d="M243.426 142.83C243.426 142.83 239.96 137.862 235.662 137.446C232.963 137.185 229.362 140.056 223.575 142.234C218.149 144.277 214.493 143.844 210.705 146.874C206.892 149.924 204.42 158.151 204.42 158.151C204.42 158.151 206.341 158.958 208.81 158.243C211.014 157.605 212.507 155.586 212.507 155.586C212.507 155.586 215.566 156.867 217.776 156.025C219.717 155.286 221.034 153.021 221.034 153.021C221.034 153.021 222.95 154.153 226.141 153.298C228.729 152.605 230.254 149.347 230.254 149.347C230.254 149.347 232.77 149.907 234.829 149.093C236.816 148.307 237.671 146.089 237.671 146.089C237.671 146.089 240.18 145.664 241.414 144.841C242.663 144.008 243.426 142.83 243.426 142.83Z" stroke="#3E2670" stroke-width="3" stroke-miterlimit="10"/>
</svg>
