<?xml version="1.0" encoding="utf-8"?>
<!-- Generator: Adobe Illustrator 23.0.1, SVG Export Plug-In . SVG Version: 6.00 Build 0)  -->
<svg version="1.1" id="lashes" xmlns="http://www.w3.org/2000/svg" xmlns:xlink="http://www.w3.org/1999/xlink" x="0px" y="0px"
	 width="450px" height="378px" viewBox="0 0 450 378" enable-background="new 0 0 450 378" xml:space="preserve">
<path fill="#3E2670" d="M180.311,124.638c-3.55,4.42-2.515,8.252-4.064,9.418c-1.536,1.156-2.91,1.076-2.91,1.076
	s0.871,0.704,1.941,1.048c1.354,0.435,1.889,0.422,1.889,0.422s-0.888,0.727-2.222,1.094c-1.34,0.369-2.843,0.301-2.843,0.301
	s1.801,1.172,3.472,1.493c2.332,0.447,3.202,0.031,3.202,0.031L180.311,124.638z"/>
<path fill="#3E2670" d="M228.142,105.952c1.886,0.237,1.774,0.772,3.521,0.466c1.731-0.303,2.313-1.238,2.313-1.238
	s0.199,0.981-0.01,1.876c-0.263,1.132-0.528,1.469-0.528,1.469s1.052-0.14,2.002-0.783c0.955-0.645,1.608-1.655,1.608-1.655
	s0.165,1.859-0.348,3.129c-0.716,1.771-2.678,3.901-2.678,3.901L228.142,105.952z"/>
</svg>
