<?xml version="1.0" encoding="utf-8"?>
<!-- Generator: Adobe Illustrator 23.0.1, SVG Export Plug-In . SVG Version: 6.00 Build 0)  -->
<svg version="1.1" id="lashes" xmlns="http://www.w3.org/2000/svg" xmlns:xlink="http://www.w3.org/1999/xlink" x="0px" y="0px"
	 width="450px" height="378px" viewBox="0 0 450 378" enable-background="new 0 0 450 378" xml:space="preserve">
<path fill="#3E2670" d="M204.346,122.273c-2.396-4.615-10.501-9.335-20.673-5.931c-5.917,1.98-8.868,5.441-10.369,8.584
	c-0.153,0.04-0.346,0.135-0.589,0.303c-1.414,0.983-3.52,0.943-4.945,0.763c-0.383-0.048-0.568,0.464-0.24,0.666
	c1.22,0.754,2.491,1.205,3.497,1.473c-1.872,0.638-4.132,0.44-5.518,0.212c-0.324-0.053-0.489,0.373-0.219,0.559
	c1.535,1.059,3.186,1.705,4.535,2.097c-0.791,0.287-1.631,0.44-2.361,0.516c-0.488,0.051-0.567,0.735-0.101,0.886
	c2.098,0.683,4.101,0.664,4.895,0.62c0.063-0.003,0.121-0.022,0.175-0.049c0.442,0.17,1.043,0.15,1.691,0.36
	c1.471,0.477,2.362,1.241,2.362,1.241c0.431-20.993,25.376-8.764,25.376-8.764C204.04,127.45,206.296,126.029,204.346,122.273"/>
<path fill="#3E2670" d="M214.967,117.07c-1.259-4.593,1.214-12.732,10.083-16.607c5.16-2.255,9.261-1.698,12.202-0.475
	c0.127-0.067,0.314-0.12,0.579-0.153c1.548-0.193,2.924-1.501,3.761-2.49c0.225-0.266,0.664-0.031,0.571,0.306
	c-0.346,1.255-0.912,2.334-1.415,3.128c1.64-0.705,3.02-2.214,3.801-3.212c0.182-0.234,0.555-0.045,0.491,0.246
	c-0.367,1.653-1.065,3.097-1.72,4.184c0.703-0.287,1.357-0.693,1.889-1.086c0.356-0.262,0.831,0.155,0.615,0.541
	c-0.973,1.74-2.317,2.945-2.872,3.399c-0.045,0.036-0.095,0.059-0.147,0.073c-0.189,0.384-0.601,0.736-0.902,1.273
	c-0.684,1.22-0.804,2.281-0.804,2.281c-13.262-14.002-22.294,9.484-22.294,9.484C218.37,120.402,215.991,120.81,214.967,117.07"/>
</svg>
