<svg xmlns="http://www.w3.org/2000/svg" fill="none" viewBox="0 0 48 48"><path fill="#7C7A7A" d="M20 41h8v1a2 2 0 0 1-2 2h-4a2 2 0 0 1-2-2v-1Z"/><path fill="#5F5C5C" fill-rule="evenodd" d="M22 44a2 2 0 0 1-2-2v-1h8v1h-7a2 2 0 0 0 2 2h-1Z" clip-rule="evenodd"/><path fill="#CEDBED" fill-rule="evenodd" d="M24 2a16.947 16.947 0 0 1 5 12v26a1 1 0 0 1-1 1h-8a1 1 0 0 1-1-1V14a16.946 16.946 0 0 1 5-12Z" clip-rule="evenodd"/><path fill="#4F56EE" fill-rule="evenodd" d="M28.973 40.23 32.4 42.8A1 1 0 0 0 34 42V31.303a1 1 0 0 0-.168-.555l-4-6a.971.971 0 0 0-.832-.447V40c0 .08-.01.156-.027.23Z" clip-rule="evenodd"/><path fill="#3E44CF" fill-rule="evenodd" d="M28.973 40.23 30 41V25l-.168-.252a.971.971 0 0 0-.832-.447V40c0 .08-.01.156-.027.23Z" clip-rule="evenodd"/><path fill="#4F56EE" fill-rule="evenodd" d="M19 24.301a.972.972 0 0 0-.832.447l-4 6a1 1 0 0 0-.168.555V42a1 1 0 0 0 1.6.8l3.427-2.57A1.002 1.002 0 0 1 19 40V24.301Z" clip-rule="evenodd"/><path fill="#3E44CF" fill-rule="evenodd" d="M19 24.301a.972.972 0 0 0-.832.447L18 25v16l1.027-.77A1.001 1.001 0 0 1 19 40V24.301Z" clip-rule="evenodd"/><path fill="#BCC9DB" fill-rule="evenodd" d="m24 2 .109.11C21.539 5.418 20.01 9.535 20 14v26a1 1 0 0 0 1 1h-1a1 1 0 0 1-1-1V14c.004-1.609.231-3.165.653-4.64.284.086.572.164.864.233a19.507 19.507 0 0 1 3.592-7.484 18.102 18.102 0 0 0-.11-.109H24Z" clip-rule="evenodd"/><path fill="#4F56EE" fill-rule="evenodd" d="M19.653 9.36A16.988 16.988 0 0 1 24 2a16.988 16.988 0 0 1 4.347 7.36A15 15 0 0 1 24 10a15 15 0 0 1-4.347-.64Z" clip-rule="evenodd"/><path fill="#3E44CF" fill-rule="evenodd" d="m24 2 .109.11a19.507 19.507 0 0 0-3.592 7.483c-.292-.069-.58-.147-.864-.233A16.988 16.988 0 0 1 24 2Z" clip-rule="evenodd"/><circle cx="24" cy="16" r="3.5" fill="#BCC9DB"/><circle cx="24" cy="16" r="3" fill="#F1EEAD"/><path fill="#FCFBE9" fill-rule="evenodd" d="m21.06 16.597 3.537-3.538c.365.074.705.214 1.009.406l-4.14 4.14a2.983 2.983 0 0 1-.407-1.008ZM26.205 13.966A2.99 2.99 0 0 1 27 16l-3 3a2.99 2.99 0 0 1-2.034-.795l4.24-4.239Z" clip-rule="evenodd"/><circle cx="24" cy="24.5" r="3.5" fill="#BCC9DB"/><circle cx="24" cy="24.5" r="3" fill="#F1EEAD"/><path fill="#FCFBE9" fill-rule="evenodd" d="m21.06 25.097 3.537-3.538c.365.074.705.214 1.009.406l-4.14 4.14a2.983 2.983 0 0 1-.407-1.008ZM26.205 22.466A2.99 2.99 0 0 1 27 24.5l-3 3a2.99 2.99 0 0 1-2.034-.795l4.24-4.239Z" clip-rule="evenodd"/><path stroke="#7C7A7A" d="M19 36.5h10"/><path stroke="#5F5C5C" d="M19 37.5h10"/></svg>