<svg xmlns="http://www.w3.org/2000/svg" fill="none" viewBox="0 0 48 48"><path fill="#7C7A7A" d="M18.646 40.042h10.72V42a2 2 0 0 1-2 2h-6.72a2 2 0 0 1-2-2v-1.958Z"/><path fill="#5F5C5C" fill-rule="evenodd" d="M19.316 40.042h-.67V42a2 2 0 0 0 2 2h.67a2 2 0 0 1-2-2v-1.958Z" clip-rule="evenodd"/><path stroke="#5F5C5C" stroke-width="3" d="M18.646 39.861h10.72"/><path fill="#E9EDF3" fill-rule="evenodd" d="M30.604 40.042a35.697 35.697 0 0 0 2.781-13.855c0-9.292-3.546-17.768-9.38-24.187-5.833 6.42-9.38 14.895-9.38 24.187 0 4.907.99 9.586 2.782 13.855h13.197Z" clip-rule="evenodd"/><path fill="#FF5959" fill-rule="evenodd" d="M17.97 11.063A36.283 36.283 0 0 1 24.005 2a36.285 36.285 0 0 1 6.036 9.063 14.88 14.88 0 0 1-6.037 1.27 14.88 14.88 0 0 1-6.036-1.27ZM31.215 38.485a35.62 35.62 0 0 0 2.019-8.986l3.868 3.047a1 1 0 0 1 .367.619l1.527 9.018c.15.892-.865 1.51-1.588.966l-6.193-4.664Z" clip-rule="evenodd"/><path fill="#EB5555" fill-rule="evenodd" d="M31.215 38.485a35.615 35.615 0 0 0 2.019-8.987l1.288 1.015a33.914 33.914 0 0 1-2.197 8.807l-1.11-.835Z" clip-rule="evenodd"/><path fill="#FF5959" fill-rule="evenodd" d="m16.796 38.485-6.193 4.664c-.723.544-1.739-.075-1.588-.966l1.526-9.019a1 1 0 0 1 .368-.618l3.868-3.048c.287 3.127.978 6.14 2.019 8.987Z" clip-rule="evenodd"/><path fill="#EB5555" fill-rule="evenodd" d="M14.777 29.498c.287 3.127.977 6.14 2.019 8.987l-1.11.835a33.916 33.916 0 0 1-2.197-8.808l1.288-1.014Z" clip-rule="evenodd"/><path fill="#D6DBE2" fill-rule="evenodd" d="M24.006 2Zm-5.334 9.353a36.4 36.4 0 0 0-2.706 13.792 36.43 36.43 0 0 0 3.178 14.897h-1.737a35.7 35.7 0 0 1-2.781-13.855c0-5.398 1.197-10.52 3.343-15.124.231.103.466.2.703.29Z" clip-rule="evenodd"/><path fill="#ED4A4A" fill-rule="evenodd" d="M18.672 11.353a38.113 38.113 0 0 1 5.334-9.142V2a36.283 36.283 0 0 0-6.037 9.063c.231.103.466.2.703.29Z" clip-rule="evenodd"/><ellipse cx="24.006" cy="20.249" fill="#D6DBE2" rx="4.69" ry="4.618"/><path fill="#DEE4EC" fill-rule="evenodd" d="M24.005 24.868c2.59 0 4.69-2.068 4.69-4.619 0-2.55-2.1-4.618-4.69-4.618v9.237Z" clip-rule="evenodd"/><ellipse cx="24.006" cy="20.249" fill="#669EF2" rx="4.02" ry="3.958"/><path fill="#84B1F4" fill-rule="evenodd" d="m20.435 22.07 5.419-5.337c.305.157.588.35.841.575l-5.677 5.59a3.97 3.97 0 0 1-.583-.828ZM27.898 21.241a3.909 3.909 0 0 0-.215-2.594l-5.304 5.223a4.088 4.088 0 0 0 2.635.212l2.884-2.84Z" clip-rule="evenodd"/><path fill="#7C7A7A" fill-rule="evenodd" d="M16.884 38.722h14.243c.124-.331.243-.665.357-1H16.527c.114.335.233.669.357 1Z" clip-rule="evenodd"/><path fill="#5F5C5C" fill-rule="evenodd" d="M18.202 37.722c.123.335.251.669.384 1h-1.702a35.61 35.61 0 0 1-.357-1h1.675Z" clip-rule="evenodd"/><path fill="#5F5C5C" fill-rule="evenodd" d="M16.884 38.722h14.243c.063-.166.123-.333.183-.5H16.701c.06.167.12.334.183.5Z" clip-rule="evenodd"/></svg>