<?xml version="1.0" encoding="utf-8"?>
<!-- Generator: Adobe Illustrator 23.0.1, SVG Export Plug-In . SVG Version: 6.00 Build 0)  -->
<svg version="1.1" id="watch" xmlns="http://www.w3.org/2000/svg" xmlns:xlink="http://www.w3.org/1999/xlink" x="0px" y="0px"
	 width="450px" height="378px" viewBox="0 0 450 378" enable-background="new 0 0 450 378" xml:space="preserve">
<path fill="#FAAE1C" d="M271.379,227.126l3.08,7.645l9.462-3.828l-3.916-7.009C280.005,223.935,278.441,228.404,271.379,227.126"/>
<polygon fill="#FAAE1C" points="268.698,207.974 270.089,214.185 278.388,214.18 278.79,206.735 "/>
<path fill="#3E2670" d="M284.964,229.58c-5.825-8.144-3.585-21.04-3.557-21.224c0.508-3.314-1.023-3.441-1.023-3.441l-9.357,1.046
	c-0.151-0.057-0.309-0.103-0.476-0.125c-1.182-0.156-2.266,0.669-2.425,1.85c-0.095,0.706-2.248,17.4,4.63,27.016
	c0.419,0.586,1.943,1.322,1.943,1.322s9.264-3.327,9.643-3.598C285.309,231.732,285.656,230.549,284.964,229.58z M272.27,209.544
	l4.681-0.512c-0.445,3.629-1.09,13.289,3.227,21.032l-4.298,1.551C271.408,224.705,271.941,213.34,272.27,209.544z"/>
<path fill="#EFEBCE" d="M281.715,219.638c0.474,4.012-2.395,7.648-6.407,8.122c-4.011,0.474-7.648-2.395-8.121-6.407
	c-0.474-4.012,2.394-7.648,6.406-8.122C277.605,212.758,281.241,215.626,281.715,219.638"/>
<path opacity="0.3" fill="#3E2670" d="M274.498,213.18c0,0-9.566,10.762,3.796,12.862c0,0-8.119,4.423-10.742-1.852
	C264.929,217.914,271.447,214.535,274.498,213.18"/>
<path fill="#3E2670" d="M274.437,229.969c-2.12,0.001-4.163-0.704-5.853-2.036c-1.986-1.567-3.243-3.814-3.54-6.327
	c-0.296-2.512,0.403-4.989,1.97-6.976c1.567-1.987,3.814-3.244,6.326-3.54c2.517-0.293,4.991,0.403,6.977,1.969
	c1.986,1.567,3.243,3.813,3.54,6.326c0.296,2.513-0.403,4.99-1.97,6.977s-3.814,3.244-6.326,3.54
	C275.185,229.946,274.809,229.969,274.437,229.969 M274.458,215.338c-0.203,0-0.407,0.012-0.612,0.036
	c-1.369,0.162-2.592,0.846-3.445,1.927c-0.853,1.082-1.234,2.432-1.072,3.8c0.161,1.369,0.846,2.591,1.927,3.445
	c1.081,0.853,2.426,1.236,3.799,1.072c1.369-0.162,2.592-0.846,3.445-1.927c0.853-1.082,1.234-2.432,1.072-3.8
	c-0.161-1.368-0.846-2.591-1.927-3.445C276.725,215.721,275.612,215.337,274.458,215.338"/>
<path opacity="0.3" fill="#3E2670" d="M268.22,209.311l-1.65,3.874c0,0-4.855,6.298-1.601,12.048
	c3.254,5.751,7.643,5.608,7.643,5.608l-1.233-4.276c0,0-4.24-0.731-4.243-6.065s2.954-6.315,2.954-6.315l-0.853-6.533
	L268.22,209.311z"/>
</svg>
