<?xml version="1.0" encoding="utf-8"?>
<!-- Generator: Adobe Illustrator 23.0.1, SVG Export Plug-In . SVG Version: 6.00 Build 0)  -->
<svg version="1.1" id="Hair" xmlns="http://www.w3.org/2000/svg" xmlns:xlink="http://www.w3.org/1999/xlink" x="0px" y="0px"
	 width="450px" height="378px" viewBox="0 0 450 378" enable-background="new 0 0 450 378" xml:space="preserve">
<path fill="#6B4099" stroke="#3E2670" stroke-width="5" stroke-miterlimit="10" d="M211.273,74.912
	c-22.358-15.21-61.346-13.975-61.499-3.481l37.527,13.407c0,0,17.107-3.027,25.103-2.158c11.745,1.277,14.063,7.392,17.362,9.191
	C232.574,93.404,225.852,84.83,211.273,74.912z"/>
<path fill="#6B4099" d="M197.181,82.492c0,0-15.314,1.703-26.649,10.912c-12.255,9.957-18.894,21.191-18.894,21.191
	s5.603,13.135,4.851,20.681c-0.971,9.737,2.553,19.404,2.553,19.404s12.766,25.277,6.894,44.426
	c-3.031,9.885-13.556,24.352-34.25,23.02c-37.481-2.412-42.391-25.143-42.391-25.143s17.892-1.126,14.76-18.766
	c-3.745-21.091-13.108-51.874-5.821-73.317c12.948-38.097,44.052-36.847,53.327-35.684
	C162.807,70.626,197.181,82.492,197.181,82.492z"/>
<path opacity="0.3" fill="#FFFFFF" d="M124.929,84.67c-10.243,8.527-22.478,25.27-23.683,39.663
	c-2.406,28.741,4.777,58.374,4.777,58.374s-13.758-42.845-6.97-72.568c1.935-8.474,7.783-22.96,13.064-27.362
	c22.436-18.703,46.501-9.539,46.501-9.539S138.884,73.053,124.929,84.67z"/>
<path opacity="0.3" fill="#1B1439" d="M159.043,154.681c0,0,11.875,32.109,9.461,45.728c-2.1,11.845-15.927,22.399-36.62,21.067
	c-37.481-2.412-41.078-24.922-41.078-24.922s15.388,14.321,35.131,9.105C162.021,196.128,159.043,154.681,159.043,154.681z"/>
<path opacity="0.3" fill="#FFFFFF" d="M140.936,114.936c2.913-6.308,7.596-11.841,11.156-16.463l-6.295,2.22
	c0,0,2.047-4.419,5.437-8.007c6.12-6.475,13.601-12.953,13.601-12.953s-7.802,1.914-16.502,7.509
	c-6.761,4.349-10.714,8.183-10.714,8.183s1.027-3.577,2.371-5.414c1.276-1.745,4.9-6.595,4.9-6.595s-21.667,4.788-29.548,29.228
	c-5.766,17.879,0.214,41.37,0.214,41.37s1.57-8.148,2.563-17.413c0.998-9.317,3.694-14.837,3.694-14.837s-0.141,3.418,0.326,9.955
	c0.401,5.613,2.38,11.54,2.38,11.54s2.43-13.733,4.835-20.104c4.097-10.853,7.191-13.336,7.191-13.336s-1.551,4.822-2.49,10.632
	c-0.999,6.18-0.207,11.777-0.207,11.777S137.227,122.967,140.936,114.936z"/>
<path fill="none" stroke="#3E2670" stroke-width="5" stroke-miterlimit="10" d="M197.181,82.492c0,0-15.314,1.703-26.649,10.912
	c-12.255,9.957-18.894,21.191-18.894,21.191s5.603,13.135,4.851,20.681c-0.971,9.737,4.728,25.771,7.404,33.957
	c4.34,13.277,4.851,26.553,0.511,35.234c-6.133,12.266-18.383,19.404-32.718,17.659c-37.283-4.54-42.391-25.143-42.391-25.143
	s17.892-1.126,14.76-18.766c-3.745-21.091-13.108-51.874-5.821-73.317c12.948-38.097,44.052-36.847,53.327-35.684
	C162.807,70.626,197.181,82.492,197.181,82.492z"/>
</svg>
