<svg width="450" height="378" viewBox="0 0 450 378" fill="none" xmlns="http://www.w3.org/2000/svg">
<path d="M211.273 74.9116C188.915 59.7016 149.927 60.9366 149.774 71.4306L187.301 84.8376C187.301 84.8376 204.408 81.8106 212.404 82.6796C224.149 83.9566 226.467 90.0716 229.766 91.8706C232.574 93.4036 225.852 84.8296 211.273 74.9116Z" fill="#453823" stroke="#3E2670" stroke-width="5" stroke-miterlimit="10"/>
<path d="M197.181 82.4918C197.181 82.4918 181.867 84.1948 170.532 93.4038C158.277 103.361 151.638 114.595 151.638 114.595C151.638 114.595 157.241 127.73 156.489 135.276C155.518 145.013 159.042 154.68 159.042 154.68C159.042 154.68 171.808 179.957 165.936 199.106C162.905 208.991 152.38 223.458 131.686 222.126C94.2049 219.714 89.2949 196.983 89.2949 196.983C89.2949 196.983 107.187 195.857 104.055 178.217C100.31 157.126 90.9469 126.343 98.2339 104.9C111.182 66.8028 142.286 68.0528 151.561 69.2158C162.807 70.6258 197.181 82.4918 197.181 82.4918Z" fill="#453823"/>
<path opacity="0.6" d="M124.929 84.67C114.686 93.197 102.451 109.94 101.246 124.333C98.84 153.074 106.023 182.707 106.023 182.707C106.023 182.707 92.265 139.862 99.053 110.139C100.988 101.665 106.836 87.179 112.117 82.777C134.553 64.074 158.618 73.238 158.618 73.238C158.618 73.238 138.884 73.053 124.929 84.67Z" fill="#837968"/>
<path opacity="0.4" d="M159.043 154.681C159.043 154.681 170.918 186.79 168.504 200.409C166.404 212.254 152.577 222.808 131.884 221.476C94.4029 219.064 90.8059 196.554 90.8059 196.554C90.8059 196.554 106.194 210.875 125.937 205.659C162.021 196.128 159.043 154.681 159.043 154.681Z" fill="#3E2670" fill-opacity="0.92"/>
<path opacity="0.6" d="M140.936 114.936C143.849 108.628 148.532 103.095 152.092 98.4734L145.797 100.693C145.797 100.693 147.844 96.2744 151.234 92.6864C157.354 86.2114 164.835 79.7334 164.835 79.7334C164.835 79.7334 157.033 81.6474 148.333 87.2424C141.572 91.5914 137.619 95.4254 137.619 95.4254C137.619 95.4254 138.646 91.8484 139.99 90.0114C141.266 88.2664 144.89 83.4164 144.89 83.4164C144.89 83.4164 123.223 88.2044 115.342 112.644C109.576 130.523 115.556 154.014 115.556 154.014C115.556 154.014 117.126 145.866 118.119 136.601C119.117 127.284 121.813 121.764 121.813 121.764C121.813 121.764 121.672 125.182 122.139 131.719C122.54 137.332 124.519 143.259 124.519 143.259C124.519 143.259 126.949 129.526 129.354 123.155C133.451 112.302 136.545 109.819 136.545 109.819C136.545 109.819 134.994 114.641 134.055 120.451C133.056 126.631 133.848 132.228 133.848 132.228C133.848 132.228 137.227 122.967 140.936 114.936Z" fill="#837968"/>
<path fill="none" d="M197.181 82.4918C197.181 82.4918 181.867 84.1948 170.532 93.4038C158.277 103.361 151.638 114.595 151.638 114.595C151.638 114.595 157.241 127.73 156.489 135.276C155.518 145.013 161.217 161.047 163.893 169.233C168.233 182.51 168.744 195.786 164.404 204.467C158.271 216.733 146.021 223.871 131.686 222.126C94.4029 217.586 89.2949 196.983 89.2949 196.983C89.2949 196.983 107.187 195.857 104.055 178.217C100.31 157.126 90.9469 126.343 98.2339 104.9C111.182 66.8028 142.286 68.0528 151.561 69.2158C162.807 70.6258 197.181 82.4918 197.181 82.4918Z" stroke="#3E2670" stroke-width="5" stroke-miterlimit="10"/>
</svg>
