<?xml version="1.0" encoding="utf-8"?>
<!-- Generator: Adobe Illustrator 23.0.1, SVG Export Plug-In . SVG Version: 6.00 Build 0)  -->
<svg version="1.1" id="Text" xmlns="http://www.w3.org/2000/svg" xmlns:xlink="http://www.w3.org/1999/xlink" x="0px" y="0px"
	 width="450px" height="378px" viewBox="0 0 450 378" enable-background="new 0 0 450 378" xml:space="preserve">
<path fill="#3E2670" d="M388.966,225.639h-40.78l-15.931,63.291v-63.291h-36.827l-10.324,23.148l-9.92-23.148h-36.977v6.791
	c-3.544-4.512-9.374-6.791-17.418-6.791h-50.86v58.711l-14.859-58.711h-40.779l-13.91,55.257c0,0-28.052,0-28.099,0v-26.314h30.784
	l-6.117-28.943H60.713c-7.665,0-12.397,1.286-15.823,4.301c-3.675,3.233-5.387,8.244-5.387,15.769v44.267
	c0,13.923,6.157,19.863,20.588,19.863h66.944l1.659-8.086h12.138l1.555,8.086h60.943v-20.21l6.947,20.21h60.708V287.25
	l13.994,27.517l14.498-27.878v22.95h61.454l1.659-8.086h12.138l1.555,8.086h33.993L388.966,225.639z"/>
<linearGradient id="SVGID_1_" gradientUnits="userSpaceOnUse" x1="-6.366463e-12" y1="378" x2="1" y2="378" gradientTransform="matrix(0 74.2371 74.2371 0 -27989.6465 244.5986)">
	<stop  offset="0" style="stop-color:#F68E56"/>
	<stop  offset="0.4035" style="stop-color:#F26522"/>
	<stop  offset="1" style="stop-color:#DA6B2F"/>
</linearGradient>
<path fill="url(#SVGID_1_)" d="M68.495,281.155v-27.369c0-2.696,0.829-3.629,3.628-3.629h26.126l-4.251-20.112H61.341
	c-12.025,0-16.795,3.317-16.795,15.654v44.267c0,11.509,4.355,15.448,16.173,15.448h33.59l5.08-20.112H73.057
	C69.013,285.302,68.495,284.68,68.495,281.155z"/>
<linearGradient id="SVGID_2_" gradientUnits="userSpaceOnUse" x1="-6.366463e-12" y1="378" x2="1" y2="378" gradientTransform="matrix(0 74.2371 74.2371 0 -27926.252 244.5986)">
	<stop  offset="0" style="stop-color:#F68E56"/>
	<stop  offset="0.4035" style="stop-color:#F26522"/>
	<stop  offset="1" style="stop-color:#DA6B2F"/>
</linearGradient>
<path fill="url(#SVGID_2_)" d="M118.361,230.045l-18.972,75.369h24.673l1.659-8.086h19.387l1.555,8.086h24.674l-19.076-75.369
	H118.361z M129.038,281.259l6.325-30.894l6.324,30.894H129.038z"/>
<linearGradient id="SVGID_3_" gradientUnits="userSpaceOnUse" x1="-6.366463e-12" y1="378" x2="1" y2="378" gradientTransform="matrix(0 74.2371 74.2371 0 -27853.8828 244.5986)">
	<stop  offset="0" style="stop-color:#F68E56"/>
	<stop  offset="0.4035" style="stop-color:#F26522"/>
	<stop  offset="1" style="stop-color:#DA6B2F"/>
</linearGradient>
<path fill="url(#SVGID_3_)" d="M227.326,278.667c7.257,0,11.196-5.599,11.196-12.027v-19.801c0-11.818-5.286-16.794-17.105-16.794
	h-46.444v75.369h24.57v-23.326h3.11c2.384,0,3.732,1.244,4.561,3.421l6.843,19.905h26.436l-7.257-20.631
	C232.096,281.363,230.437,279.289,227.326,278.667z M215.093,259.591c0,4.043-1.348,5.391-6.739,5.391h-9.226V249.12h11.715
	c2.902,0,4.25,1.556,4.25,4.458V259.591z"/>
<linearGradient id="SVGID_4_" gradientUnits="userSpaceOnUse" x1="2.728484e-12" y1="378" x2="1" y2="378" gradientTransform="matrix(0 -97.0556 -97.0556 0 36972.8945 314.3712)">
	<stop  offset="0" style="stop-color:#8CD7F8"/>
	<stop  offset="0.5371" style="stop-color:#00AEEF"/>
	<stop  offset="1" style="stop-color:#0096C1"/>
</linearGradient>
<polygon fill="url(#SVGID_4_)" points="298.921,230.045 285.652,259.798 272.901,230.045 243.25,230.045 243.25,305.414 
	267.198,305.414 267.198,268.818 285.652,305.103 304.52,268.818 304.52,305.414 328.468,305.414 328.468,230.045 "/>
<linearGradient id="SVGID_5_" gradientUnits="userSpaceOnUse" x1="2.728484e-12" y1="378" x2="1" y2="378" gradientTransform="matrix(0 -97.0556 -97.0556 0 37056.293 314.3712)">
	<stop  offset="0" style="stop-color:#8CD7F8"/>
	<stop  offset="0.5371" style="stop-color:#00AEEF"/>
	<stop  offset="1" style="stop-color:#0096C1"/>
</linearGradient>
<path fill="url(#SVGID_5_)" d="M352.256,230.045l-18.972,75.369h24.674l1.659-8.086h19.386l1.556,8.086h24.673l-19.074-75.369
	H352.256z M362.935,281.259l6.323-30.894l6.325,30.894H362.935z"/>
</svg>
