<svg width="450" height="378" viewBox="0 0 450 378" fill="none" xmlns="http://www.w3.org/2000/svg">
<path d="M254.083 132.791C254.083 132.791 248.784 127.536 240.372 132.474C235.867 135.118 232.321 138.426 222.7 142.537C211.352 147.386 205.971 144.628 199.357 149.991C192.574 155.492 192.1 161.48 181.449 165.166C164.205 171.134 156.775 148.983 156.775 148.983C156.775 148.983 162.912 182.908 169.152 188.399C174.331 192.956 184.722 200.596 210.473 198.541C216.349 198.072 225.065 200.288 235.958 195.981C245.623 192.16 247.676 181.953 251.406 177.025C264.197 160.128 254.083 132.791 254.083 132.791ZM237.033 169.315L230.104 171.839C230.104 171.839 228.712 178.762 223.674 182.184C219.409 185.081 213.224 183.162 205.639 174.378C199.828 167.647 197.985 158.673 201.487 154.373C205.275 149.723 213.956 150.589 223.965 146.255C235.103 141.432 239.177 136.457 241.987 136.696C246.847 137.108 249.526 147.439 249.671 154.586C249.775 159.717 248.95 169.366 245.163 171.532C239.612 174.711 237.033 169.315 237.033 169.315Z" fill="#9C1F00"/>
<path opacity="0.2" d="M175.039 184.875C169.828 177.884 168.605 164.643 165.55 161.914C158.78 155.868 156.403 148.48 156.403 148.48C156.403 148.48 162.231 182.777 168.78 187.896C174.573 192.424 188.774 200.083 210.726 198.451C217.524 197.946 232.314 196.821 232.314 196.821C232.314 196.821 215.748 194.263 203.158 194.689C191.035 195.099 179.414 190.744 175.039 184.875Z" fill="#231F20"/>
<path d="M237.565 187.159C237.109 187.168 236.692 186.863 236.576 186.402L234.538 178.272C234.404 177.737 234.729 177.193 235.265 177.059C235.799 176.922 236.343 177.25 236.478 177.786L238.516 185.916C238.65 186.451 238.325 186.995 237.789 187.129C237.714 187.148 237.639 187.157 237.565 187.159Z" fill="#BC5C44"/>
<path d="M232.204 191.353C231.818 191.361 231.447 191.145 231.275 190.772C229.964 187.934 229.686 183.316 229.675 183.121C229.643 182.57 230.064 182.097 230.616 182.066C231.175 182.04 231.64 182.455 231.671 183.007C231.674 183.051 231.94 187.443 233.09 189.935C233.322 190.436 233.103 191.03 232.601 191.262C232.473 191.322 232.338 191.351 232.204 191.353Z" fill="#BC5C44"/>
<path d="M242.973 185.176C242.42 185.187 241.964 184.749 241.953 184.197C241.919 182.534 240.795 179.363 240.365 178.281C240.161 177.767 240.411 177.186 240.925 176.982C241.439 176.779 242.02 177.029 242.224 177.541C242.293 177.713 243.905 181.789 243.953 184.156C243.964 184.708 243.526 185.165 242.973 185.176Z" fill="#BC5C44"/>
<path d="M254.083 132.791C254.083 132.791 248.784 127.536 240.372 132.474C235.867 135.118 232.321 138.426 222.7 142.537C211.352 147.386 205.971 144.628 199.357 149.991C192.574 155.492 192.1 161.48 181.449 165.166C164.205 171.134 156.775 148.983 156.775 148.983C156.775 148.983 162.912 182.908 169.152 188.399C174.331 192.956 184.722 200.596 210.473 198.541C216.349 198.072 225.065 200.288 235.958 195.981C245.623 192.16 247.676 181.953 251.406 177.025C264.197 160.128 254.083 132.791 254.083 132.791ZM237.033 169.315L230.104 171.839C230.104 171.839 228.712 178.762 223.674 182.184C219.409 185.081 213.224 183.162 205.639 174.378C199.828 167.647 197.985 158.673 201.487 154.373C205.275 149.723 213.956 150.589 223.965 146.255C235.103 141.432 239.177 136.457 241.987 136.696C246.847 137.108 249.526 147.439 249.671 154.586C249.775 159.717 248.95 169.366 245.163 171.532C239.612 174.711 237.033 169.315 237.033 169.315Z" stroke="#3E2670" stroke-width="3" stroke-miterlimit="10" stroke-linecap="round"/>
</svg>
