<?xml version="1.0" encoding="utf-8"?>
<!-- Generator: Adobe Illustrator 23.0.1, SVG Export Plug-In . SVG Version: 6.00 Build 0)  -->
<svg version="1.1" id="ear" xmlns="http://www.w3.org/2000/svg" xmlns:xlink="http://www.w3.org/1999/xlink" x="0px" y="0px"
	 width="450px" height="378px" viewBox="0 0 450 378" enable-background="new 0 0 450 378" xml:space="preserve">
<path fill="#A28788" d="M160.83,154.255c8.766,6.383,12,17.787,38.979,37.617c8.161,5.999,17.191,3.404,17.191,3.404
	s-29.113,12.431-57.167-12.923c0,0-21.635,8.669-30.493-6.389c-8.859-15.057,6.954-25.337,6.954-25.337
	S154.947,149.971,160.83,154.255z"/>
<path fill="#3E2670" d="M219.67,196.64c-0.156-0.593-0.532-1.089-1.061-1.396c-0.525-0.306-1.138-0.389-1.725-0.232
	c-31.227,8.197-55.222-14.571-55.459-14.802c-0.622-0.605-1.519-0.805-2.341-0.521c-12.544,4.361-22.945,2.323-27.817-5.448
	c-3.597-5.735-3.082-13.291,1.2-17.576c9.44-9.451,25.636,0.793,25.798,0.9c0.838,0.544,1.92,0.486,2.693-0.149
	c0.435-0.355,0.743-1,0.786-1.641c0.034-0.504-0.1-0.945-0.376-1.241c-0.833-0.896-1.607-1.487-5.523-3.395
	c-3.835-1.869-17.09-7.229-26.606,2.301c-5.84,5.846-6.613,15.614-1.837,23.227c5.869,9.36,17.782,12.261,31.878,7.767
	c4.581,4.048,20.993,16.972,43.586,16.97c0.01,0,0.023,0,0.033,0c5.059-0.003,10.154-0.668,15.144-1.977
	c0.589-0.154,1.083-0.529,1.391-1.057C219.741,197.843,219.825,197.229,219.67,196.64z"/>
</svg>
