<?xml version="1.0" encoding="utf-8"?>
<!-- Generator: Adobe Illustrator 23.0.1, SVG Export Plug-In . SVG Version: 6.00 Build 0)  -->
<svg version="1.1" id="eyes" xmlns="http://www.w3.org/2000/svg" xmlns:xlink="http://www.w3.org/1999/xlink" x="0px" y="0px"
	 width="450px" height="378px" viewBox="0 0 450 378" enable-background="new 0 0 450 378" xml:space="preserve">
<path fill="#FFFFFF" d="M178.126,125.527c0,0,3.9-3.881,8.588-6.592c6.154-3.559,11.598-4.798,11.598-4.798
	s14.107,17.63,1.372,24.819C186.856,146.199,178.126,125.527,178.126,125.527z"/>
<ellipse transform="matrix(0.0305 -0.9995 0.9995 0.0305 60.151 311.5343)" fill="#453823" cx="190.666" cy="124.76" rx="7.277" ry="7.705"/>
<circle fill="#5A3B00" cx="190.714" cy="124.592" r="5.064"/>
<ellipse transform="matrix(0.9547 -0.2975 0.2975 0.9547 -28.5258 61.6292)" fill="#FFFFFF" cx="188.231" cy="124.541" rx="2.126" ry="2.484"/>
<path fill="#3E2670" d="M175.31,130.007c-0.354,0-0.708-0.124-0.994-0.377c-0.62-0.549-0.678-1.497-0.129-2.117
	c10.275-11.609,25.005-14.507,25.627-14.624c0.814-0.156,1.597,0.381,1.752,1.194c0.154,0.813-0.38,1.598-1.193,1.753
	c-0.143,0.027-14.363,2.845-23.94,13.665C176.137,129.836,175.725,130.007,175.31,130.007z"/>
<path fill="#FFFFFF" d="M235.289,102.65c0,0-2.875-0.917-7.248,0.591c-6.252,2.157-10.809,4.631-10.809,4.631
	s6.604,20.147,19.553,15.106C249.29,118.109,235.289,102.65,235.289,102.65z"/>
<ellipse transform="matrix(0.9623 -0.272 0.272 0.9623 -21.2406 66.202)" fill="#453823" cx="228.18" cy="109.719" rx="6.77" ry="6.881"/>
<circle fill="#5A3B00" cx="228.077" cy="109.49" r="4.711"/>
<ellipse transform="matrix(0.9912 -0.132 0.132 0.9912 -12.4414 30.7621)" fill="#FFFFFF" cx="225.807" cy="109.222" rx="1.978" ry="2.311"/>
<path fill="#3E2670" d="M216.755,110.388c-0.395,0-0.788-0.167-1.064-0.492c-0.499-0.587-0.427-1.468,0.16-1.967
	c0.357-0.304,8.949-7.429,23.379-7.206c0.771,0.012,1.386,0.646,1.374,1.417c-0.012,0.763-0.634,1.374-1.396,1.374
	c-0.007,0-0.014,0-0.021,0c-13.414-0.235-21.449,6.474-21.529,6.542C217.396,110.279,217.075,110.388,216.755,110.388z"/>
</svg>
