<svg width="451" height="378" viewBox="0 0 451 378" fill="none" xmlns="http://www.w3.org/2000/svg">
<path d="M1 0H451V378H1V0Z" fill="url(#paint0_linear_365_706)"/>
<path fill-rule="evenodd" clip-rule="evenodd" d="M440.348 35.9564C453.138 39.9044 447.217 58.5334 434.894 54.9974C422.25 51.3684 427.879 32.1094 440.348 35.9564ZM431.877 12.3954C444.84 16.6374 438.272 34.9874 426.188 31.3444C421.807 30.0244 417.708 25.0554 419.531 18.9504C420.834 14.5844 425.782 10.4004 431.877 12.3954ZM406.559 22.8314C416.79 24.5254 414.132 39.6944 403.998 37.9174C400.216 37.2544 397.105 33.5244 397.913 28.9364C398.54 25.3804 402.155 22.1034 406.559 22.8314ZM416.246 46.9354C426.011 50.3604 420.786 64.1464 411.63 61.1344C402.166 58.0204 407.1 43.7294 416.246 46.9354ZM424.339 70.4974C434.217 73.2284 429.804 87.4104 420.441 84.7134C411.175 82.0444 415.271 67.9914 424.339 70.4974ZM399.1 0.473419C408.414 4.04043 403.012 16.7194 394.361 13.7054C391.37 12.6624 388.846 8.87944 390.145 4.83743C391.136 1.75443 394.811 -1.17058 399.1 0.473419ZM432.375 94.8344C441.276 96.7994 437.973 109.599 429.53 107.597C421.54 105.703 423.992 92.9854 432.375 94.8344ZM441.218 118.767C448.314 120.6 446.109 132.481 438.023 130.336C430.838 128.431 433.264 116.713 441.218 118.767ZM392.123 57.3214C398.834 59.0994 396.465 69.7554 389.102 67.7684C382.603 66.0144 384.866 55.3994 392.123 57.3214ZM374.348 10.6044C381.424 12.3654 378.596 22.4984 371.776 20.6494C365.528 18.9544 367.777 8.96943 374.348 10.6044ZM383.718 34.1124C390.063 36.4684 386.479 46.2794 379.878 43.8144C374.133 41.6694 376.84 31.5584 383.718 34.1124ZM400.62 81.4644C407.234 83.5825 403.887 92.9624 397.541 90.9074C391.946 89.0954 394.219 79.4134 400.62 81.4644ZM409.641 105.553C415.665 108.457 411.448 116.491 405.877 114.171C400.344 111.866 403.814 102.745 409.641 105.553ZM417.484 129.367C422.687 131.1 419.977 138.406 415.138 136.872C410.844 135.51 412.216 127.612 417.484 129.367ZM368.023 67.5594C372.893 68.9764 370.769 75.9814 366.052 74.7374C361.641 73.5724 363.109 66.1294 368.023 67.5594ZM360.22 44.4834C361.935 45.4514 362.753 47.0274 361.739 49.1364C361.039 50.5934 358.817 51.8374 356.667 50.6854C352.858 48.6434 355.585 41.8684 360.22 44.4834ZM377.093 91.6075C381.362 93.7645 378.336 99.7375 374.116 97.9355C369.945 96.1545 372.849 89.4614 377.093 91.6075ZM351.516 21.1714C355.756 23.2864 352.415 29.2294 348.365 27.3504C344.589 25.5994 346.834 18.8364 351.516 21.1714ZM385.241 115.386C389.563 117.235 387.054 122.754 383.015 121.453C379.193 120.223 381.064 113.6 385.241 115.386ZM428.143 157.527C427.472 161.099 420.917 160.706 421.716 156.109C422.412 152.102 429.001 152.954 428.143 157.527ZM395.47 142.257C394.952 145.39 389.477 145.041 390.027 141.192C390.528 137.68 396.085 138.543 395.47 142.257ZM435.848 181.158C435.145 183.79 430.025 183.056 431.187 179.41C431.992 176.883 436.753 177.765 435.848 181.158ZM344.682 77.8644C345.272 78.2484 345.394 77.8494 345.699 79.1154C345.862 79.7864 345.743 80.3404 345.475 80.8434C344.985 81.7624 343.489 82.4544 342.118 81.5964C339.807 80.1484 341.778 75.9694 344.682 77.8644ZM403.621 165.525C403.44 168.188 398.873 168.537 399.001 165.189C399.114 162.223 403.834 162.381 403.621 165.525ZM327.277 30.9094C329.879 32.2744 327.885 35.7884 325.386 34.6994C322.949 33.6374 324.479 29.4414 327.277 30.9094ZM352.948 101.536C353.042 101.59 355.129 102.313 353.814 104.462C353.352 105.219 352.116 105.827 350.932 105.122C348.846 103.88 350.345 100.046 352.948 101.536ZM336.829 56.8554C335.692 58.7294 334.068 58.7364 332.925 56.8644C331.836 52.9594 337.929 53.0024 336.829 56.8554ZM361.759 125.558C363.904 127.43 361.137 129.956 359.243 128.441C357.564 127.098 359.484 123.572 361.759 125.558ZM319.487 10.1894L318.749 10.8464C317.348 11.1694 316.795 10.8474 316.028 10.2984L316.075 7.59143C318.513 6.79043 320.097 7.32742 319.487 10.1894ZM443.798 204.657C441.316 206.838 438.834 204.942 440.937 201.885C443.209 201.611 444.25 202.331 443.798 204.657ZM367.885 148.766C371.158 148.002 371.625 150.689 370.116 151.687C368.237 152.931 366.88 151.097 367.885 148.766ZM410.783 190.473C407.338 191.107 407.792 188.169 408.902 187.502C410.77 186.379 412.593 188.23 410.783 190.473ZM338.434 134.912L338.094 136.668C333.485 138.262 335.786 131.394 338.434 134.912ZM318.465 87.2574C319.097 86.9504 319.646 86.5565 320.428 86.9265C320.885 87.1425 321.501 87.8005 321.278 88.6855C320.97 89.9055 318.105 91.0005 318.465 87.2574ZM376.461 174.856C375.733 172.14 378.181 171.666 378.987 173.061C379.835 174.53 378.496 175.97 376.461 174.856ZM419.103 211.138C419.967 212.07 420.331 212.215 419.434 213.722C416.282 214.737 415.715 210.809 419.103 211.138ZM303.671 42.6554L301.727 42.7304C299.692 38.8634 305.705 38.8614 303.671 42.6554ZM329.749 110.976C329.954 112.904 329.326 113.629 327.351 113.069C325.983 110.324 328.673 109.791 329.749 110.976ZM312.676 65.1834C311.449 66.6814 309.809 66.5364 309.844 64.0924C311.075 62.6114 312.809 62.7434 312.676 65.1834ZM426.147 234.961C428.109 233.999 428.653 235.872 427.868 236.678C427.076 237.49 424.99 237.23 426.147 234.961ZM355.077 183.193C352.126 184.814 352.103 180.238 354.879 181.508C355.482 182.631 355.338 181.918 355.077 183.193ZM344.496 158.033C347.448 156.431 347.459 160.983 344.698 159.729C344.093 158.61 344.233 159.318 344.496 158.033ZM387.012 198.376C384.498 199.424 383.933 195.684 387.127 196.547C387.415 197.34 387.345 196.753 387.337 197.525C387.319 199.29 387.423 197.638 387.012 198.376ZM295.111 18.5234C294.358 18.8864 293.946 18.8924 293.173 18.5504L293 16.8524C294.566 16.2454 295.614 16.4634 295.111 18.5234Z" fill="#FDB813"/>
<path fill-rule="evenodd" clip-rule="evenodd" d="M434.991 0.0276939C434.986 5.00337 430.956 9.03283 425.991 9.02774C421.025 9.02266 417.004 4.98495 417.009 0.00927734L426 0.0184905C427.963 0.0205008 429.077 0.018035 429.984 0.0160272C431.372 0.0129559 432.275 0.0109568 434.991 0.0276939ZM451 96.001V100.501V102.574C448.087 101.545 446 98.7665 446 95.501C446 92.2354 448.087 89.4573 451 88.4277V88.5011V96.001ZM451 178.829V176V173.171C450.687 173.06 450.351 173 450 173C448.343 173 447 174.343 447 176C447 177.657 448.343 179 450 179C450.351 179 450.687 178.94 451 178.829ZM450 152.5C450 154.985 447.985 157 445.5 157C443.015 157 441 154.985 441 152.5C441 150.015 443.015 148 445.5 148C447.985 148 450 150.015 450 152.5ZM451 79.446V70.5V61.554C449.4 60.5685 447.517 60 445.5 60C439.701 60 435 64.701 435 70.5C435 76.299 439.701 81 445.5 81C447.517 81 449.4 80.4315 451 79.446Z" fill="#FDB813"/>
<path fill-rule="evenodd" clip-rule="evenodd" d="M72.0433 156.505C90.5258 160.426 84.2426 187.807 66.3641 183.756C48.8696 179.793 54.4737 152.776 72.0433 156.505ZM120.642 203.899C138.751 207.037 133.455 233.887 116.016 230.588C109.493 229.356 103.829 222.958 105.344 214.664C106.523 208.211 112.719 202.526 120.642 203.899ZM142.664 261.449C159.926 266.305 152.643 292.127 135.574 287.465C129.552 285.821 124.031 279.079 126.264 270.875C127.956 264.657 134.397 259.123 142.664 261.449ZM134.009 329.132C151.825 332.464 146.415 359.123 129.025 355.629C112.34 352.278 116.606 325.878 134.009 329.132ZM111.254 175.876C128.059 180.332 121.37 205.444 104.958 201.072C98.9931 199.482 93.6759 193.091 95.765 185.172C97.333 179.225 103.46 173.809 111.254 175.876ZM152.111 290.53C168.917 294.325 163.294 319.669 146.584 315.825C140.501 314.427 135.318 308.062 137.003 300.288C138.306 294.281 144.603 288.837 152.111 290.53ZM23.0998 110.79C40.3463 114.568 34.0181 139.846 17.6786 135.909C11.7265 134.474 6.52828 128.492 8.21833 120.621C9.50837 114.614 15.4526 109.116 23.0998 110.79ZM61.9459 129.495C78.4134 133.604 72.1243 158.025 55.9388 153.969C50.1936 152.53 45.0794 146.464 46.9915 138.522C48.3935 132.698 54.3287 127.595 61.9459 129.495ZM99.7401 148.051C115.658 151.26 110.7 174.133 95.7379 171.357C90.0468 170.301 85.1036 164.576 86.3877 157.471C87.3687 152.045 93.0689 146.707 99.7401 148.051ZM162.479 320.735C177.149 324.3 172.137 346.723 157.065 343.231C151.747 341.999 146.952 336.106 148.728 329.009C150.06 323.684 155.747 319.1 162.479 320.735ZM159.702 224.333C175.07 228.53 168.241 249.726 154.558 246.107C149.515 244.773 144.91 239.427 146.543 232.467C147.749 227.326 153.43 222.621 159.702 224.333ZM170.288 253.482C184.714 257.378 178.238 278.58 164.617 274.498C151.16 270.464 156.759 249.83 170.288 253.482ZM149.633 196.373C163.851 200.265 157.812 221.067 144.081 217.273C130.749 213.59 135.955 192.628 149.633 196.373ZM50.6596 102.402C64.756 105.242 60.5629 126.281 46.6295 123.504C41.5813 122.499 37.0662 117.297 38.3492 110.752C39.3453 105.673 44.5324 101.167 50.6596 102.402ZM180.027 282.641C193.751 285.894 188.846 305.601 175.927 302.947C170.961 301.926 166.545 296.854 167.971 290.417C169.006 285.751 174.048 281.225 180.027 282.641ZM138.116 167.821C151.573 169.873 148.584 190.271 135.095 188.245C130.044 187.486 125.767 182.641 126.587 176.492C127.258 171.453 132.276 166.93 138.116 167.821ZM90.4508 121.138C104.139 125.903 96.867 144.772 84.3756 140.758C79.8185 139.294 75.8614 133.865 77.8724 127.655C79.2855 123.291 84.3896 119.028 90.4508 121.138ZM172.303 350.757C184.901 353.874 180.638 372.73 167.902 369.99C163.434 369.029 159.386 364.163 160.602 358.284C161.605 353.434 166.517 349.327 172.303 350.757ZM128.449 140.401C132.889 141.478 136.502 145.918 135.178 151.462C134.161 155.721 129.587 159.473 124.172 158.154C112.873 155.404 116.794 137.576 128.449 140.401ZM190.218 312.703C201.945 315.361 197.816 333.277 186.077 330.342C174.993 327.57 178.676 310.086 190.218 312.703ZM40.2783 75.3343C51.9797 77.8928 48.1805 95.5638 36.4802 93.0225C25.1488 90.562 28.727 72.8081 40.2783 75.3343ZM79.2875 93.9248C90.9908 97.0431 86.1387 114.207 74.8123 111.064C63.951 108.051 68.3002 90.9965 79.2875 93.9248ZM177.612 188.19C188.128 190.944 184.366 207.377 173.301 204.579C163.102 201.999 166.523 185.286 177.612 188.19ZM198.428 245.487C208.962 248.703 204.732 264.519 193.885 261.745C183.484 259.083 187.529 242.159 198.428 245.487ZM187.571 216.613C198.68 219.189 194.462 235.573 183.814 232.97C173.332 230.408 176.959 214.151 187.571 216.613ZM117.698 112.63C128.602 115.37 124.338 130.822 114.119 128.394C103.938 125.973 107.701 110.117 117.698 112.63ZM201.097 342.452C211.252 345.947 205.822 361.126 195.683 357.386C186.542 354.015 191.177 339.037 201.097 342.452ZM208.722 275.029C218.249 277.885 213.939 292.827 204.009 289.609C195.145 286.737 198.689 272.019 208.722 275.029ZM166.982 160.357C176.824 163.147 172.645 177.335 163.248 174.897C153.894 172.471 157.54 157.681 166.982 160.357ZM218.987 304.435C228.199 307.919 223.081 320.632 214.569 317.878C205.912 315.077 210.123 301.082 218.987 304.435ZM157.327 132.495C165.575 135.862 160.993 148.506 152.278 145.262C144.653 142.423 148.409 128.856 157.327 132.495ZM29.588 48.8439C38.5343 51.0012 35.2271 64.0888 26.4439 61.9981C18.1516 60.0237 20.8997 46.7482 29.588 48.8439ZM69.0542 67.5001C77.7424 70.7548 72.7413 82.8683 64.6571 80.0804C56.7098 77.34 60.6869 64.3656 69.0542 67.5001ZM108.05 86.1341C116.358 89.6364 111.164 101.175 103.305 98.1556C95.618 95.203 99.9711 82.7278 108.05 86.1341ZM215.205 208.17C223.805 210.255 220.361 222.575 212.355 220.525C204.392 218.484 207.443 206.288 215.205 208.17ZM226.331 237.652C229.074 238.66 231.492 240.988 230.104 245.177C229.241 247.782 226.319 249.96 222.592 248.674C215.673 246.285 219.048 234.979 226.331 237.652ZM205.349 180.46C212.965 183.309 209.064 193.813 201.689 191.507C194.969 189.407 197.829 177.647 205.349 180.46ZM237.199 266.631C243.458 269.307 240.198 280.287 232.554 277.175C226.322 274.637 229.592 263.378 237.199 266.631ZM195.421 152.021C202.545 155.136 197.826 165.314 190.968 162.417C184.782 159.804 188.199 148.863 195.421 152.021ZM228.518 334.129C236.394 336.68 232.13 347.301 225.194 344.883C218.985 342.718 221.386 331.819 228.518 334.129ZM146.589 104.898C153.308 107.567 149.372 117.964 142.496 115.291C136.145 112.822 139.396 102.042 146.589 104.898ZM57.7858 39.9043C64.604 41.7019 62.045 51.6651 55.3548 50.0878C48.7066 48.5195 51.2756 38.1875 57.7858 39.9043ZM97.356 58.4767C103.492 60.8816 100.232 70.673 93.5219 68.2236C87.8187 66.1431 90.4048 55.7514 97.356 58.4767ZM19.5757 22.2727C26.3429 25.0019 21.8928 34.4963 15.6746 31.6932C10.3544 29.2944 13.2095 19.7051 19.5757 22.2727ZM246.494 295.788C252.427 297.282 250.632 307.239 243.94 305.536C237.891 303.998 239.878 294.122 246.494 295.788ZM183.951 123.662C190.531 125.211 188.12 134.733 181.748 133.182C175.777 131.73 177.664 122.182 183.951 123.662ZM238.734 363.767C245.24 365.924 241.633 374.929 235.696 372.755C230.741 370.94 232.636 361.743 238.734 363.767ZM135.548 77.3441C142.025 79.8915 138.063 88.0035 132.5 86.0017C127.06 84.0434 129.963 75.1473 135.548 77.3441ZM257.177 325.219C262.564 327.88 258.976 334.899 253.969 333.071C249.146 331.31 251.755 322.543 257.177 325.219ZM174.156 95.9831C175.802 96.7662 177.728 97.9434 176.401 101.397C175.766 103.05 173.527 104.528 170.882 103.411C166.322 101.486 169.011 93.5348 174.156 95.9831ZM233.622 171.903C238.371 174.01 235.55 180.856 230.775 179.336C226.004 177.818 228.489 169.626 233.622 171.903ZM254.193 229.061C259.076 231.182 256.171 238.074 251.352 236.501C246.653 234.968 249.185 226.887 254.193 229.061ZM87.0257 31.2456C92.0309 34.3932 87.1097 40.747 82.8156 37.8359C79.0704 35.2966 82.4506 28.3688 87.0257 31.2456ZM243.504 200.347C248.745 202.384 245.737 208.855 241.318 207.654C236.562 206.359 238.673 198.469 243.504 200.347ZM47.6655 13.416C52.1607 15.7441 49.0156 21.4259 44.9565 19.8748C40.7683 18.2743 43.3374 11.1747 47.6655 13.416ZM264.549 258.44C269.053 260.842 265.328 266.757 261.268 264.556C257.414 262.467 260.482 256.272 264.549 258.44ZM267.644 354.991C268.415 355.482 268.899 355.278 269.305 356.966C270.04 360.024 266.985 362.331 264.387 361.064C260.389 359.114 263.345 352.251 267.644 354.991ZM163.85 68.3459C167.773 70.2445 164.975 76.2275 160.745 74.2733C157.29 72.6757 159.368 66.1764 163.85 68.3459ZM222.898 143.709C227.164 145.596 224.801 151.244 220.556 149.907C216.666 148.68 218.514 141.77 222.898 143.709ZM125.057 49.9231C126.487 50.6071 128.097 51.656 126.88 54.4378C126.258 55.8606 124.068 56.872 122.086 55.7767C118.676 53.8912 121.332 48.1416 125.057 49.9231ZM274.578 287.277C276.025 287.959 277.583 289.066 276.341 291.804C275.716 293.181 273.588 294.242 271.59 293.137C268.324 291.332 270.633 285.419 274.578 287.277ZM212.52 115.261C216.57 117.152 213.692 122.114 210.292 120.753C206.817 119.361 208.945 113.59 212.52 115.261ZM282.27 219.742C285.473 221.278 283.492 226.385 279.967 224.863C276.904 223.54 278.771 218.065 282.27 219.742ZM76.2324 4.13079C79.1944 6.25277 75.8653 10.2744 73.1283 8.21812C70.7292 6.41444 73.1733 1.9401 76.2324 4.13079ZM262.074 163.152C264.884 165.325 261.696 169.133 258.976 167.228C256.494 165.49 258.962 160.743 262.074 163.152ZM272.278 191.105C274.649 194.27 272.779 197.137 269.708 195.854C267.925 195.11 266.853 190.382 272.278 191.105ZM150.6 40.0599C156.091 39.3677 154.944 44.0634 153.179 44.8091C150.12 46.1005 148.279 43.253 150.6 40.0599ZM284.74 316.44C285.793 316.985 286.871 317.648 286.049 319.78C285.62 320.894 284.109 321.723 282.567 321.006C279.713 319.679 281.503 314.767 284.74 316.44ZM114.642 21.9291C115.647 22.4748 116.735 23.1568 115.917 25.2253C115.494 26.2943 114.038 27.1997 112.474 26.4934C109.584 25.1899 111.368 20.1537 114.642 21.9291ZM199.287 87.3517C203.282 85.933 204.569 89.1625 202.832 90.9288C201.111 92.6789 197.842 91.436 199.287 87.3517ZM292.631 249.145C293.594 249.776 294.592 250.524 293.446 252.405C292.85 253.383 291.255 253.75 290.184 253.071C287.887 251.614 289.755 247.263 292.631 249.145ZM302.894 277.754C305.873 279.358 303.373 283.411 300.686 281.875C298.224 280.467 300.071 276.232 302.894 277.754ZM252.415 137.61C250.583 139.011 249.917 138.997 248.069 137.628C247.44 132.55 253.01 132.511 252.415 137.61ZM295.495 349.232C291.602 350.133 290.989 346.91 292.8 345.679C295.05 344.148 296.768 346.345 295.495 349.232ZM241.528 109.204C240.403 109.622 239.452 109.634 238.316 109.238C237.815 107.912 237.798 107.25 238.234 105.881C241.318 104.807 242.704 106.092 241.528 109.204ZM192.797 61.886C190.47 63.7048 188.132 62.6246 188.845 60.0934C189.356 58.2806 193.024 57.4571 192.797 61.886ZM320.849 335.877C321.435 335.526 322.077 334.862 323.173 335.327C323.8 335.594 324.555 336.442 324.237 337.569C323.827 339.028 320.402 340.161 320.849 335.877ZM313.798 307.082L313.87 309.372C312.278 310.231 311.84 310.311 310.38 308.996L310.366 307.46C311.47 306.457 312.719 305.995 313.798 307.082ZM289.803 156.475L288.271 156.489C286.963 155 287.055 154.534 287.906 153.022L290.167 152.945C291.021 154.552 291.101 154.996 289.803 156.475ZM143.328 12.5005C143.566 15.0034 143.045 16.0836 140.414 15.0701C138.867 12.2468 141.769 11.0393 143.328 12.5005ZM318.575 242.073L318.324 239.187C322.901 237.758 323.278 243.49 318.575 242.073ZM300.84 181.431L300.956 184.573L297.916 184.713L297.705 181.619L300.84 181.431ZM230.843 80.2552C228.468 80.909 227.703 80.0592 227.951 77.7088C230.111 76.3397 232.285 77.336 230.843 80.2552ZM308.231 213.111C307.56 210.695 308.422 209.933 310.759 210.185C312.099 212.383 311.101 214.527 308.231 213.111ZM318.53 145.034C317.188 146.012 315.268 145.819 315.737 143.831C316.084 142.357 318.616 141.818 318.53 145.034ZM220.389 51.5307C217.066 52.2977 217.404 49.8321 218.505 49.1561C220.576 47.885 220.874 50.1211 220.389 51.5307ZM333.972 366.911C332.269 367.461 330.635 367.068 331.784 364.694C333.991 363.526 334.517 365.076 333.972 366.911ZM329.294 267.864C332.352 267.08 332.223 269.562 331.142 270.235C329.246 271.417 328.621 269.384 329.294 267.864ZM338.668 200.52C340.371 202.227 337.982 203.648 336.783 202.429C335.587 201.213 337.011 198.858 338.668 200.52ZM179.558 33.0897C179.057 32.2359 179.205 34.1517 179.159 32.0964C179.137 31.1284 179.121 31.8357 179.395 30.9354C183.321 29.7168 182.559 34.5407 179.558 33.0897ZM279.769 124.943C281.14 128.061 276.494 128.688 277.598 124.83C278.37 124.569 277.771 124.462 278.75 124.563C280.44 124.74 279.193 124.628 279.769 124.943ZM341.582 298.864C338.516 300.248 337.873 295.557 341.7 296.671C341.953 297.445 342.065 296.85 341.961 297.837C341.78 299.57 341.933 298.251 341.582 298.864ZM269.295 98.2789C267.062 99.0509 266.64 97.7777 267.326 95.8588L269.467 95.8275C269.787 96.8006 270.023 97.2897 269.295 98.2789ZM130.998 232.653C124.138 232.653 118.578 238.271 118.578 245.203C118.578 252.133 124.138 257.752 130.998 257.752C137.856 257.752 143.416 252.133 143.416 245.203C143.416 238.271 137.856 232.653 130.998 232.653Z" fill="#FFCD05"/>
<path fill-rule="evenodd" clip-rule="evenodd" d="M16 63.5C16 67.6421 12.6421 71 8.5 71C4.35786 71 1 67.6421 1 63.5C1 59.3579 4.35786 56 8.5 56C12.6421 56 16 59.3579 16 63.5ZM12.5 104C18.8513 104 24 98.8513 24 92.5C24 86.1487 18.8513 81 12.5 81C6.14873 81 1 86.1487 1 92.5C1 98.8513 6.14873 104 12.5 104ZM26.5 165C33.4036 165 39 159.404 39 152.5C39 145.596 33.4036 140 26.5 140C19.5964 140 14 145.596 14 152.5C14 159.404 19.5964 165 26.5 165ZM43.2525 199.061C46.7445 196.414 49 192.22 49 187.5C49 179.492 42.5081 173 34.5 173C26.4919 173 20 179.492 20 187.5C20 195.508 26.4919 202 34.5 202C36.8946 202 39.1537 201.42 41.1442 200.392C36.8117 203.577 34 208.71 34 214.5C34 215.615 34.1043 216.706 34.3036 217.763C30.4532 213.026 24.58 210 18 210C11.0097 210 4.81714 213.415 1.00003 218.669L1 231L1.00003 243.331C2.31185 245.137 3.90423 246.725 5.71313 248.032C5.31097 248.011 4.90602 248 4.49854 248C3.30801 248 2.13908 248.092 0.998535 248.271L0.998636 259.382L0.998736 270.5C0.998736 274.64 0.998881 276.612 0.999 278.238C0.999204 281.025 0.999333 282.796 0.998535 292.729L0.999962 292.73L0.999976 304.5L0.999988 321.937L1.00017 321.937L1.00008 327.704L1 335L1.00008 342.046L1.00018 352.324L1.0001 356.586L1 363.437L1.0001 370.346L1.00022 378H8.5H17.9985H18.5H33.5H50.0015C51.6292 375.833 52.827 373.324 53.4682 370.601C57.1352 375.115 62.7307 378 69 378C80.0457 378 89 369.046 89 358C89 354.961 88.322 352.08 87.1091 349.5C87.8883 347.843 88.4468 346.061 88.7465 344.193C91.0834 345.35 93.7158 346 96.5 346C106.165 346 114 338.165 114 328.5C114 327.717 113.949 326.945 113.849 326.189C115.974 327.344 118.411 328 121 328C129.284 328 136 321.284 136 313C136 304.781 129.39 298.107 121.197 298.001C124.151 295.262 126 291.347 126 287C126 278.716 119.284 272 111 272C110.434 272 109.876 272.031 109.326 272.092C113.905 269.524 117 264.624 117 259C117 250.716 110.284 244 102 244C100.939 244 99.9038 244.11 98.9051 244.32C103.715 241.821 107 236.794 107 231C107 222.716 100.284 216 92 216C91.2458 216 90.5045 216.056 89.7802 216.163C93.5483 213.438 96 209.005 96 204C96 195.716 89.2843 189 81 189C72.7157 189 66 195.716 66 204C66 204.243 66.0058 204.484 66.0172 204.724C62.8731 200.064 57.5444 197 51.5 197C48.5178 197 45.7098 197.746 43.2525 199.061ZM17.5813 252.192C17.4852 252.124 17.3886 252.056 17.2914 251.988C17.4158 251.992 17.5404 251.995 17.6653 251.997C17.637 252.062 17.609 252.127 17.5813 252.192ZM23.7677 282.123C24.6761 280.62 25.4137 279.003 25.9535 277.297C27.5167 278.207 29.2145 278.911 31.0097 279.372C31.0032 279.581 31 279.79 31 280C31 280.908 31.0605 281.801 31.1776 282.677C29.5262 282.235 27.7906 282 26 282C25.2454 282 24.5006 282.042 23.7677 282.123ZM49.5318 353.399C48.1476 351.695 46.4887 350.223 44.6225 349.051C46.4348 348.184 48.0962 347.052 49.5565 345.705C49.875 347.026 50.3246 348.296 50.8909 349.5C50.3099 350.736 49.8516 352.041 49.5318 353.399ZM79.5779 324.023C78.8142 323.546 78.0161 323.12 77.188 322.747C79.0893 320.132 80.3721 317.038 80.8219 313.681C82.2918 314.288 83.8624 314.701 85.5018 314.887C82.652 317.193 80.5406 320.375 79.5779 324.023ZM70.4858 293.388C71.0914 290.873 72.2404 288.569 73.8015 286.608C72.5651 286.342 71.3772 285.946 70.2531 285.434C69.5842 287.808 68.4878 290.004 67.0523 291.932C68.2495 292.312 69.3979 292.801 70.4858 293.388ZM61.3053 262.856C59.6713 261.872 57.8851 261.114 55.9903 260.628C55.9968 260.419 56 260.21 56 260C56 258.71 55.8779 257.449 55.6447 256.227C57.7634 257.905 60.2797 259.103 63.0293 259.656C62.3493 260.653 61.7698 261.725 61.3053 262.856ZM106.022 313.815C106.007 313.545 106 313.273 106 313C106 308.653 107.849 304.738 110.803 301.999C108.634 301.971 106.576 301.482 104.721 300.627C103.962 304.839 101.694 308.527 98.4982 311.113C101.25 311.426 103.809 312.377 106.022 313.815ZM96.66 282.586C95.0023 281.566 93.1616 280.814 91.1985 280.392C93.0551 278.06 94.3287 275.243 94.7989 272.162C96.9363 273.334 99.3903 274 102 274C102.566 274 103.124 273.969 103.674 273.908C100.346 275.774 97.8016 278.873 96.66 282.586ZM87.5019 255.138C88.5951 251.023 91.3937 247.603 95.0949 245.68C94.0962 245.89 93.061 246 92 246C89.0426 246 86.2851 245.144 83.9617 243.667C83.7508 246.871 82.6771 249.841 80.9707 252.344C83.3598 252.825 85.5728 253.792 87.5019 255.138ZM49.1698 244.948C49.0579 244.148 49 243.331 49 242.5C49 238.547 50.3105 234.901 52.5208 231.971C52.183 231.99 51.8426 232 51.5 232C46.3061 232 41.6407 229.737 38.4358 226.144C38.8047 227.703 39 229.329 39 231C39 234.23 38.2709 237.289 36.9682 240.023C41.6324 240.245 45.878 242.065 49.1698 244.948ZM66.5 225C66.1574 225 65.817 225.01 65.4792 225.029C67.6895 222.099 69 218.453 69 214.5C69 213.962 68.9758 213.43 68.9283 212.905C71.6603 216.602 76.0501 219 81 219C81.7542 219 82.4955 218.944 83.2198 218.837C80.0564 221.124 77.8207 224.616 77.1847 228.639C74.2289 226.357 70.523 225 66.5 225ZM123 362C123 370.837 115.837 378 107 378C98.1634 378 91 370.837 91 362C91 353.163 98.1634 346 107 346C115.837 346 123 353.163 123 362ZM155.503 378C155.827 376.889 156 375.715 156 374.5C156 367.596 150.404 362 143.5 362C136.596 362 131 367.596 131 374.5C131 375.715 131.173 376.889 131.497 378H143.5H155.503ZM16.0003 196.5C16.0003 205.316 9.4811 212.61 1.00036 213.823L0.999942 208.652C0.99968 205.87 0.999512 204.077 0.999512 197.5C0.999512 192.503 0.999707 190 0.999895 187.598C1.00007 185.353 1.00024 183.197 1.00023 179.177C9.48097 180.39 16.0003 187.684 16.0003 196.5ZM1.00049 172.146C6.82645 170.087 11.0012 164.531 11.0012 158C11.0012 151.469 6.82713 145.912 1.00117 143.853C1.00117 149.511 1.00103 150.952 1.00091 152.304C1.0008 153.496 1.00069 154.618 1.00069 158.5L1.00059 168.431L1.00049 172.146ZM206.5 378C210.642 378 214 374.642 214 370.5C214 366.358 210.642 363 206.5 363C202.358 363 199 366.358 199 370.5C199 374.642 202.358 378 206.5 378Z" fill="#FFCD05"/>
<path fill-rule="evenodd" clip-rule="evenodd" d="M291.393 134.52L450.999 137.499V136.494L291.395 134.52L450.999 132.995V131.994L291.393 134.52H291.395L450.999 128.494V127.494L291.395 134.52L450.999 122.993V121.993L291.395 134.52L450.999 118.492V117.492L291.395 134.52L450.999 113.991V112.991L291.395 134.52L450.999 108.991V107.991L291.395 134.52L450.999 104.49V103.49L291.395 134.52L450.999 99.4895V98.4893L291.395 134.52H291.393L450.999 94.4961V93.496L291.393 134.52L450.999 89.9955V88.9954L291.393 134.52L450.999 84.9948V83.9947L291.393 134.52H291.395L450.999 80.4942V79.4941L291.395 134.52L450.999 75.9936V74.9934L291.395 134.52H291.393L450.999 70.4928V69.4927L291.393 134.52L450.999 64.492V63.4918L291.393 134.52L450.999 57.9911V56.9909L291.394 134.519L450.999 52.4981V51.7401L291.394 134.519L450.999 45.2392V44.239L291.394 134.519L450.999 37.2381V36.238L291.394 134.519L450.999 29.237V28.2369L291.394 134.519L450.999 21.2359V20.2357L291.394 134.519L450.999 12.2346V11.2345L291.394 134.519L450.999 2.73328V1.73314L291.394 134.519L291.393 134.52L443.455 0.000799104H442.195L291.393 134.52L291.394 134.519L434.875 0.000799104H433.899L291.394 134.519L426.34 0.000799104H425.364L291.394 134.519L418.769 0.000799104H417.793L291.394 134.519L291.393 134.52L411.449 0.000799104H410.473L291.393 134.52L291.394 134.519L403.64 0.000789568H402.664L291.394 134.518L394.368 0.000911632H393.392L291.394 134.518L386.071 0.000768588H385.095L291.394 134.518L291.394 134.519L291.393 134.52L378.75 0.000911632H377.858L291.393 134.52L291.394 134.518L371.918 0.000911632H370.942L291.394 134.518L365.042 0.000911632H364.066L291.394 134.518L357.277 0.00071137H356.301L291.394 134.518L291.394 134.519L350.444 0.000936426L349.468 0.00071137L291.394 134.519L291.393 134.52L291.394 134.518L344.1 0.000936426L343.124 0.00071137L291.394 134.518L338.732 0.00071137H337.755L291.394 134.519L332.387 0.00071137H331.411L291.394 134.519L326.043 0.000936426H325.067L291.394 134.519L320.674 0.000936426L319.698 0.00071137L291.393 134.518L315.306 0.000936426H314.33L291.394 134.519L291.393 134.517L309.45 0.00071137H308.473L291.393 134.517L303.593 0.000936426L302.617 0.00071137L291.393 134.517L291.393 134.52L291.393 134.518L297.737 0.000888745L296.761 0.000644616L291.393 134.518L291.75 0.000821991L290.904 0.000911632L291.393 134.518L285.758 0.000524459L284.777 0.0006141L291.393 134.518L291.393 134.52L291.394 134.519L280.364 0.000976479L279.383 0.000655106L291.394 134.519L274.48 0.000995551L273.499 0.000673225L291.394 134.519L268.596 0.000995551L267.615 0.00114432L291.394 134.519L291.392 134.519L262.712 0.000524459H261.731L291.392 134.519L256.828 0.00114432H255.847L291.392 134.519L249.963 0.000524459H248.983L291.392 134.519L243.099 0.000524459H242.118L291.392 134.519L291.391 134.517L237 -3.59287e-08L235.744 0.000524459L291.391 134.517L229.5 0.00131597H227.801L291.391 134.517L291.392 134.519L220 -3.59287e-08L218.582 0.00071137L291.392 134.518L291.391 134.517L212.208 0.00071137H210.737L291.391 134.517L203.872 0.00131597H202.401L291.391 134.517L291.392 134.518L195.046 0.00071137H193.575L291.392 134.518L291.392 134.519L187.691 0.00131597L186.22 0.00071137L291.392 134.519L291.391 134.518L173.962 0.00071137H172.491L291.391 134.518L180.827 0.00071137H179.356L291.391 134.518L291.392 134.518L167.097 0.00071137H165.626L291.392 134.518L158.762 0.00071137H157.291L291.392 134.518L151.407 0.00071137H149.936L291.392 134.518L141.6 0.00131597L140.129 0.00071137L291.392 134.518L291.392 134.519L291.391 134.518L131.793 0.00071137H130.322L291.39 134.518L118.064 0.00071137H116.103L291.391 134.518L291.392 134.518L103.844 0.00131597L101.883 0.00071137L291.392 134.518L91.0956 0.000650338L89.1342 0.00131597L291.392 134.518L291.392 134.519L77.3663 -8.20479e-05L75.4049 0.00131597L291.392 134.519L65.1079 -8.20479e-05L62.6563 0.00131597L291.392 134.519L291.39 134.518L13.6148 -0.00058133H9.70041L291.39 134.518L49.9989 -0.000680926L47.0569 -0.000732422L291.39 134.518L291.392 134.519L291.391 134.52L31.941 -0.000680926L28.9989 -7.44189e-05L291.391 134.52L0.99892 3.49975V5.49965L291.391 134.52L0.998768 14.4993V16.4992L291.391 134.52L0.998768 23.4988V25.4987L291.391 134.52L0.998617 32.9984V34.9983L291.391 134.52L291.39 134.519L0.998768 42.9979V44.9978L291.39 134.519L0.998617 52.9974L0.998768 54.9973L291.39 134.519L291.391 134.52L0.998768 62.9969L0.998535 64.9968L291.391 134.52L0.999023 71.9965V73.9964L291.391 134.52L0.99917 81.996L0.999023 83.9959L291.391 134.52L1.00008 90.9955V92.9954L291.391 134.52L0.999817 99.4951V101.495L291.391 134.52H291.388L0.999817 107.495V109.495L291.388 134.52L0.999676 115.994V117.994L291.388 134.52H291.391L291.39 134.519L1.00026 126.493L0.999676 128.494L291.388 134.52L1.00008 136.993L0.999676 138.993L291.389 134.52L1.00026 146.993L0.99987 148.993L291.39 134.519L291.391 134.52L291.389 134.52L0.999676 157.992V159.992L291.389 134.52L0.99987 169.492V170.992L291.389 134.52L0.99987 179.991L0.999817 181.991L291.389 134.52L291.391 134.52L1.00026 188.991L0.999817 190.991L291.391 134.52L0.999817 197.99V199.99L291.391 134.52L0.999817 208.49V210.49L291.391 134.52L0.999817 218.989V220.989L291.391 134.52L0.999817 229.489V231.489L291.391 134.52L291.391 134.521L0.999817 237.988V239.988L291.391 134.521L0.999817 246.488V248.488L291.391 134.521L291.388 134.522L0.999817 255.487V257.487L291.388 134.522L0.999817 263.487V265.487L291.388 134.522L291.391 134.52L1.00026 273.987L0.999817 275.986L291.391 134.52L291.392 134.519L1.00023 283.986L1.00026 285.986L291.392 134.519L1.00041 294.486L0.999939 296.485L291.392 134.519L291.391 134.52L291.391 134.521L1 305.363V307.985L291.391 134.521L1 317.484V319.984L291.391 134.521L291.391 134.52L1 331.484V333.984L291.391 134.52L291.391 134.521L1 347.052V349.483L291.391 134.521L1.00041 360.482L0.999743 362.982L291.39 134.522L0.999743 371.982L0.999071 374.482L291.39 134.522L291.391 134.52L9.5 377.981H12.5L291.391 134.52L29.5 377.981H32L291.391 134.52L48 377.981H50L291.391 134.52L291.39 134.522L66 377.981H68L291.39 134.522L80 377.981H81.5L291.39 134.522L93.5 377.981H95L291.39 134.522L107 377.981H108.5L291.39 134.522L291.392 134.521L291.391 134.52L291.391 134.521L119.5 377.981H121L291.391 134.522L132 377.981H133L291.391 134.521L291.392 134.519L145.5 377.981H146.5L291.392 134.521L158 377.981H159L291.392 134.521L170 377.981H171L291.392 134.521L182 377.981H183L291.392 134.521L193.5 377.981H194.5L291.392 134.521L204 377.981H205L291.392 134.521V134.522L214.5 377.981L215.5 377.981L291.392 134.522L291.392 134.524L224 377.981H225L291.392 134.524L235 377.981L235.945 377.999L291.392 134.524L291.392 134.521L245.055 377.992L246 377.981L291.392 134.521L256.5 377.999L257.5 377.999L291.392 134.521L267.5 377.981H268.5L291.392 134.521V134.522L279.5 377.981L280.5 377.981L291.392 134.522V377.981L292.5 377.981L291.392 134.522L303.409 377.981H304.39L291.393 134.522L314.687 377.981L316 377.981L291.393 134.522L325 377.981H326.455L291.393 134.522L337.5 377.981L338.713 377.981L291.392 134.522V134.521L351.5 377.981L352.932 377.981L291.392 134.521L366.662 377.981L368 377.981L291.392 134.521L291.394 134.524L380.881 377.981L382.5 377.981L291.394 134.524L394.12 377.981L395.5 377.981L291.394 134.524L291.392 134.521L409 377.981L410.792 377.981L291.393 134.521L422.56 377.981L424 377.981L291.393 134.521L434.818 377.981L436 377.981L291.393 134.521L443.644 377.981L445 377.981L291.393 134.521L450.999 373.982V372.482L291.393 134.521L450.999 361.482V359.982L291.393 134.521L450.999 348.483L451 346.983L291.393 134.521L450.999 334.984V333.484L291.393 134.521L291.392 134.521L450.999 320.484L451 318.984L291.392 134.521L291.393 134.521L450.999 308.985L451 307.485L291.393 134.521L450.999 296.985V295.486L291.394 134.522L450.999 288.486V286.986L291.393 134.521L450.999 279.486L451 277.986L291.393 134.521L291.394 134.522L450.999 270.987L451 269.487L291.395 134.522L450.999 261.987L451 260.487L291.394 134.522L291.393 134.521L450.999 254.988L451 253.488L291.393 134.52L450.999 247.989L451 246.488L291.393 134.52L450.999 240.489V238.988L291.393 134.52L450.999 234.489V232.99L291.393 134.521L450.999 227.882V226.49L291.393 134.52L450.999 221.99V220.953L291.393 134.521L291.393 134.52L450.999 215.914V214.99L291.393 134.52H291.395L450.999 208.996V207.991L291.395 134.521L291.397 134.522L450.999 201.991V201.022L291.397 134.522L450.999 196.911V195.991L291.397 134.522L291.393 134.52L291.395 134.521L450.999 191.992V190.992L291.395 134.521L450.999 186.992V185.992L291.397 134.522L450.999 181.492V180.492L291.395 134.521L291.395 134.52L450.999 175.492V174.492L291.395 134.52H291.393L450.999 168.993V167.993L291.393 134.52H291.395L450.999 163.993V162.993L291.396 134.521L450.999 157.993V156.993L291.395 134.52L291.395 134.521L450.999 152.994V151.994L291.395 134.521L291.393 134.52L291.396 134.521L450.999 147.494V146.494L291.396 134.521L450.999 142.494V141.494L291.396 134.521L291.393 134.52ZM291.392 134.519L291.394 134.519L291.393 134.52L291.392 134.519ZM291.395 134.52H291.393L291.394 134.519L291.395 134.52ZM291.394 134.519L291.393 134.52L291.392 134.519L291.394 134.519ZM291.393 134.518L291.394 134.519L291.393 134.52L291.393 134.518ZM291.391 134.517L291.392 134.519L291.392 134.518L291.391 134.517ZM291.391 134.518L291.392 134.519L291.392 134.518L291.391 134.518ZM291.391 134.52L291.392 134.521L291.389 134.52L291.391 134.52ZM291.39 134.519L291.392 134.519L291.392 134.521L291.391 134.52L291.39 134.519ZM291.389 134.521L291.391 134.521L291.391 134.52L291.389 134.521ZM291.391 134.52L291.392 134.521L291.391 134.521L291.391 134.52ZM291.39 134.522L291.391 134.52L291.392 134.521L291.39 134.522ZM291.391 134.522L291.391 134.52L291.392 134.519L291.391 134.522ZM291.392 134.524L291.392 134.522V134.521L291.392 134.524ZM291.392 134.522V134.521L291.393 134.521L291.392 134.522ZM291.394 134.524L291.392 134.521L291.393 134.521L291.394 134.524ZM291.392 134.521L291.393 134.52L291.393 134.521L291.392 134.521ZM291.397 134.522L291.395 134.52H291.393L291.397 134.522ZM291.393 134.52H291.395L291.395 134.521L291.393 134.52Z" fill="#F6EB16"/>
<defs>
<linearGradient id="paint0_linear_365_706" x1="86" y1="365.5" x2="226" y2="21.5" gradientUnits="userSpaceOnUse">
<stop offset="0.46875" stop-color="#F6EA17"/>
<stop offset="1" stop-color="#FECF07"/>
</linearGradient>
</defs>
</svg>
