<?xml version="1.0" encoding="utf-8"?>
<!-- Generator: Adobe Illustrator 23.0.1, SVG Export Plug-In . SVG Version: 6.00 Build 0)  -->
<svg version="1.1" id="glasses" xmlns="http://www.w3.org/2000/svg" xmlns:xlink="http://www.w3.org/1999/xlink" x="0px" y="0px"
	 width="450px" height="378px" viewBox="0 0 450 378" enable-background="new 0 0 450 378" xml:space="preserve">
<ellipse opacity="0.2" fill="#FFFFFF" cx="189.511" cy="131.319" rx="16.511" ry="16.34"/>
<rect x="184.054" y="114.939" transform="matrix(0.7599 0.65 -0.65 0.7599 129.6978 -90.7491)" opacity="0.4" fill="#FFFFFF" width="7.298" height="30.536"/>
<rect x="191.518" y="118.33" transform="matrix(0.7599 0.65 -0.65 0.7599 133.058 -93.0635)" opacity="0.4" fill="#FFFFFF" width="1.996" height="30.536"/>
<ellipse transform="matrix(0.9998 -0.0204 0.0204 0.9998 -2.2404 4.6457)" opacity="0.2" fill="#FFFFFF" cx="227.106" cy="112.384" rx="14.553" ry="14.403"/>
<rect x="223.083" y="97.452" transform="matrix(0.7261 0.6876 -0.6876 0.7261 138.5015 -125.4757)" opacity="0.4" fill="#FFFFFF" width="7.298" height="27.279"/>
<rect x="230.329" y="101.125" transform="matrix(0.7261 0.6876 -0.6876 0.7261 142.2864 -127.629)" opacity="0.4" fill="#FFFFFF" width="1.996" height="27.279"/>
<path fill="#2F2B2C" d="M238.565,100.542c-3.188-3.029-7.342-4.651-11.793-4.558c-9.125,0.186-16.4,7.694-16.216,16.736
	c0.025,1.232,0.2,2.426,0.485,3.576c-1.088-0.06-2.174,0.078-3.204,0.445c-1.568,0.559-2.918,1.596-3.98,3.008
	c-3.397-4.128-8.564-6.771-14.346-6.771c-10.207,0-18.511,8.228-18.511,18.341c0,1.926,0.305,3.781,0.863,5.527l-19.701,11.431
	c-0.716,0.416-0.96,1.333-0.544,2.05c0.278,0.479,0.781,0.748,1.299,0.748c0.255,0,0.515-0.065,0.751-0.203l19.365-11.237
	c3.067,5.94,9.293,10.024,16.477,10.024c10.207,0,18.511-8.228,18.511-18.34c0-2.787-0.649-5.42-1.776-7.788
	c0.681-1.536,1.685-2.576,2.936-3.022c1.2-0.428,2.58-0.264,3.826,0.434c2.919,4.706,8.149,7.845,14.088,7.844
	c0.114,0,0.229-0.001,0.345-0.003c4.417-0.09,8.535-1.877,11.598-5.034c3.067-3.162,4.707-7.318,4.618-11.702
	S241.759,103.577,238.565,100.542z M189.511,145.66c-8.001,0-14.511-6.433-14.511-14.34c0-7.908,6.509-14.341,14.511-14.341
	s14.511,6.433,14.511,14.341C204.021,139.227,197.512,145.66,189.511,145.66z M236.167,120.964c-2.324,2.395-5.452,3.752-8.809,3.82
	c-0.088,0.002-0.175,0.002-0.262,0.002c-6.802,0-12.403-5.397-12.541-12.147c-0.139-6.838,5.378-12.515,12.299-12.656
	c0.089-0.002,0.177-0.002,0.266-0.002c3.258,0,6.335,1.223,8.689,3.461c2.414,2.293,3.78,5.378,3.847,8.687
	C239.724,115.437,238.484,118.575,236.167,120.964z"/>
</svg>
