<?xml version="1.0" encoding="utf-8"?>
<!-- Generator: Adobe Illustrator 23.0.1, SVG Export Plug-In . SVG Version: 6.00 Build 0)  -->
<svg version="1.1" id="glasses" xmlns="http://www.w3.org/2000/svg" xmlns:xlink="http://www.w3.org/1999/xlink" x="0px" y="0px"
	 width="450px" height="378px" viewBox="0 0 450 378" enable-background="new 0 0 450 378" xml:space="preserve">
<path fill="#2F2B2C" d="M182.728,124.659l-1.134-1.647c9.55-6.575,33.262-16.935,49.753-22.763l0.666,1.886
	C215.574,107.944,191.847,118.381,182.728,124.659z"/>
<path fill="#2F2B2C" d="M206.243,121.992c-0.064-2.173,2.624-3.913,3.783-4.561c1.654-0.924,4.88-2.208,6.478-1.159l-1.098,1.672
	c-0.362-0.227-2.274,0.019-4.498,1.285c-1.855,1.058-2.683,2.143-2.666,2.704L206.243,121.992z"/>
<path fill="#2F2B2C" d="M153.172,151.83c-0.638,0-1.266-0.305-1.653-0.871c-0.624-0.912-0.39-2.156,0.522-2.78l23.149-15.83
	c0.913-0.625,2.156-0.389,2.78,0.522c0.624,0.912,0.39,2.156-0.522,2.78l-23.149,15.83
	C153.954,151.717,153.561,151.83,153.172,151.83z"/>
<path fill="#231F20" d="M196.31,117.541l-12.185,5.849c-6.756,3.243-9.413,11.487-5.821,18.064l2.002,3.666
	c2.551,4.672,7.511,7.704,12.824,7.382c3.17-0.192,6.295-1.471,8.716-3.887l0,0c7.053-7.038,9.425-17.288,6.148-26.556l0,0
	C206.11,116.735,202.336,115.029,196.31,117.541z"/>
<path fill="#2F2B2C" d="M192.368,153.087c-5.102,0-9.965-2.956-12.555-7.698l-2.002-3.666c-1.812-3.318-2.171-7.126-1.011-10.725
	c1.159-3.598,3.674-6.48,7.083-8.116l12.212-5.86c3.204-1.337,5.906-1.537,8.029-0.594c1.948,0.865,3.428,2.696,4.399,5.443
	c3.365,9.517,0.958,19.917-6.281,27.142c-2.408,2.403-5.632,3.841-9.078,4.05C192.898,153.079,192.632,153.087,192.368,153.087z
	 M196.541,118.055l-12.172,5.842c-3.127,1.501-5.435,4.146-6.499,7.447c-1.063,3.302-0.734,6.796,0.929,9.841l2.002,3.666
	c2.516,4.607,7.341,7.396,12.296,7.09c3.173-0.192,6.139-1.515,8.353-3.724c6.929-6.916,9.234-16.867,6.015-25.971
	c-0.864-2.444-2.141-4.056-3.795-4.791C201.841,116.646,199.443,116.846,196.541,118.055z"/>
<rect x="197.777" y="118.8" transform="matrix(0.8929 0.4502 -0.4502 0.8929 83.0503 -74.8934)" opacity="0.2" fill="#FFFFFF" width="2.378" height="36.683"/>
<path opacity="0.2" fill="#FFFFFF" d="M187.468,151.956l-4.667-2.353c-2.081-1.049-2.918-3.587-1.868-5.669l12.073-23.944
	c1.404-2.785,5.547-4.399,8.331-2.995l3.386,1.087L187.468,151.956z"/>
<path opacity="0.5" fill="#FFFFFF" d="M200.516,117.403c2.751,0,4.666,1.632,5.853,4.99c3.162,8.943,0.897,18.72-5.911,25.515
	c-2.138,2.134-5.004,3.411-8.07,3.597c-0.238,0.014-0.475,0.021-0.711,0.021c-4.574,0-8.856-2.638-11.175-6.885l-2.002-3.666
	c-1.604-2.938-1.923-6.31-0.896-9.497c1.027-3.186,3.254-5.738,6.272-7.187l12.161-5.837
	C197.718,117.757,199.225,117.403,200.516,117.403 M200.516,116.403c-1.427,0-3.052,0.374-4.887,1.139l-12.185,5.849
	c-6.756,3.243-9.413,11.487-5.821,18.064l2.002,3.666c2.427,4.445,7.035,7.405,12.052,7.405c0.256,0,0.513-0.008,0.771-0.023
	c3.17-0.192,6.295-1.471,8.716-3.887l0,0c7.053-7.038,9.425-17.288,6.148-26.556h0C206.003,118.356,203.777,116.403,200.516,116.403
	L200.516,116.403z"/>
<path fill="#2B2728" d="M192.368,154.025c-5.442,0-10.625-3.143-13.378-8.186l-2.002-3.666c-1.937-3.545-2.32-7.616-1.081-11.461
	c1.239-3.845,3.927-6.926,7.569-8.674l12.257-5.88c3.453-1.441,6.404-1.638,8.771-0.586c2.192,0.974,3.842,2.988,4.903,5.988
	c3.487,9.861,0.995,20.635-6.502,28.118c-2.57,2.565-6.009,4.1-9.684,4.322C192.936,154.017,192.652,154.025,192.368,154.025z
	 M196.923,118.911l-12.149,5.831c-2.893,1.388-5.028,3.835-6.012,6.889c-0.984,3.055-0.679,6.288,0.859,9.104l2.002,3.666
	c2.343,4.29,6.831,6.878,11.417,6.604c2.944-0.178,5.695-1.404,7.747-3.451c6.671-6.658,8.891-16.235,5.793-24.995
	c-0.775-2.192-1.883-3.62-3.292-4.246C201.71,117.612,199.568,117.814,196.923,118.911z"/>
<path fill="#231F20" d="M218.991,106.835l10.883-5.072c6.034-2.812,13.212,0.013,15.729,6.191l1.403,3.443
	c1.787,4.388,1.09,9.506-2.118,12.974c-1.914,2.069-4.553,3.495-7.58,3.795h0c-8.818,0.875-17.22-3.276-21.769-10.756v0
	C212.926,113.112,213.872,109.557,218.991,106.835z"/>
<path fill="#2F2B2C" d="M234.951,128.783c-8.135,0-15.585-4.119-19.839-11.114c-1.35-2.22-1.78-4.272-1.278-6.1
	c0.545-1.987,2.201-3.729,4.922-5.176l0.023-0.012l10.883-5.072c3.04-1.417,6.438-1.521,9.566-0.292
	c3.138,1.231,5.565,3.628,6.836,6.748l1.403,3.443c1.908,4.685,1.039,9.985-2.214,13.502c-2.082,2.25-4.887,3.654-7.897,3.953
	C236.551,128.743,235.747,128.783,234.951,128.783z M219.214,107.282c-2.461,1.311-3.947,2.842-4.417,4.551
	c-0.426,1.552-0.033,3.34,1.169,5.316c4.469,7.348,12.637,11.38,21.291,10.519c2.769-0.274,5.348-1.566,7.263-3.637
	c2.991-3.234,3.784-8.12,2.022-12.447l-1.403-3.443c-1.166-2.864-3.395-5.064-6.275-6.194c-2.87-1.126-5.989-1.032-8.779,0.268
	L219.214,107.282z"/>
<polygon opacity="0.2" fill="#FFFFFF" points="230.092,126.715 228.103,126.812 239.922,103.194 241.607,104.051 "/>
<polygon opacity="0.2" fill="#FFFFFF" points="226.159,126.524 219.748,122.405 229.947,101.942 238.817,101.312 "/>
<path opacity="0.5" fill="#FFFFFF" d="M233.743,101.453L233.743,101.453c4.75,0,9.22,2.829,10.87,6.879l1.403,3.443
	c1.69,4.148,0.934,8.826-1.926,11.918c-1.832,1.981-4.299,3.217-6.944,3.479c-0.739,0.073-1.488,0.11-2.226,0.11
	c-7.683,0-14.632-3.885-18.589-10.391c-1.137-1.869-1.489-3.632-1.049-5.238c0.485-1.768,1.91-3.292,4.199-4.51l9.817-4.737
	C230.655,101.774,232.15,101.453,233.743,101.453 M233.742,100.453c-1.672,0-3.337,0.334-4.866,1.047l-9.83,4.743
	c-5.119,2.722-6.183,6.872-3.57,11.168c4.147,6.819,11.496,10.872,19.443,10.872c0.77,0,1.546-0.038,2.325-0.115h0
	c3.027-0.3,5.665-1.726,7.58-3.795c3.208-3.469,3.905-8.586,2.118-12.974l-1.403-3.443
	C243.661,103.343,238.665,100.452,233.742,100.453L233.742,100.453z"/>
<path fill="#2B2728" d="M234.95,129.283c-8.309,0-15.919-4.208-20.265-11.354c-1.424-2.342-1.873-4.526-1.333-6.492
	c0.583-2.125,2.323-3.971,5.17-5.485l0.047-0.023l10.882-5.072c3.165-1.477,6.704-1.583,9.961-0.305
	c3.267,1.282,5.794,3.777,7.116,7.025l1.403,3.442c1.981,4.864,1.074,10.372-2.31,14.031c-2.165,2.34-5.083,3.8-8.216,4.111
	C236.583,129.242,235.763,129.283,234.95,129.283z M219.438,107.729c-2.329,1.243-3.728,2.668-4.158,4.236
	c-0.388,1.415-0.013,3.071,1.114,4.924c4.367,7.181,12.334,11.122,20.815,10.281c2.646-0.263,5.112-1.498,6.944-3.479
	c2.859-3.092,3.616-7.77,1.927-11.918l-1.403-3.442c-1.114-2.736-3.243-4.838-5.995-5.918c-2.746-1.077-5.722-0.984-8.385,0.256
	L219.438,107.729z"/>
</svg>
