<?xml version="1.0" encoding="utf-8"?>
<!-- Generator: Adobe Illustrator 23.0.1, SVG Export Plug-In . SVG Version: 6.00 Build 0)  -->
<svg version="1.1" id="Hair" xmlns="http://www.w3.org/2000/svg" xmlns:xlink="http://www.w3.org/1999/xlink" x="0px" y="0px"
	 width="450px" height="378px" viewBox="0 0 450 378" enable-background="new 0 0 450 378" xml:space="preserve">
<path fill="#DC4A26" d="M226.078,89.395c0,0-6.548-30.516-29.652-34.374c-23.105-3.858-66.247-5.355-77.495-7.968
	c0,0,2.837,15.393,10.11,16.209c0,0-30.113,4.073-57.25,1.028c0,0,19.899,37.473,30.84,41.627c0,0-7.045,4.46-42.535,3.12
	c0,0,9.447,24.388,47.06,40.816l-46.761,2.861c0,0,75.469,47.286,105.924,35.031c0,0-7.191-4.128-9.064-12.128
	c-2.239-9.567,1.843-20.377,1.843-20.377s-3.912-17.151-2.991-23.314c0.921-6.163-4.94-17.8-4.94-17.8s26.784-44.148,68.082-31.229
	L226.078,89.395z"/>
<path opacity="0.3" fill="#3E2670" d="M71.792,65.14c0,0,30.519,42.295,53.767,45.98c0,0-13.727,9.079-22.972,7.835
	c0,0,24.893,19.978,53.432,14.684c0,0-0.62,16.496,3.081,22.452c0,0-3.676,13.153-2.866,18.249
	c1.191,7.489,9.191,13.915,9.191,13.915s-17.367,5.32-37.724-2.315c-20.358-7.635-67.306-32.375-67.306-32.375l46.761-2.862
	c0,0-34.506-15.223-47.06-40.816c0,0,38.275,1.146,42.535-3.119C102.632,106.768,82.908,90.741,71.792,65.14"/>
<path opacity="0.4" fill="#FFFFFF" d="M222.947,85.052c0,0-10.106-20.486-31.715-25.558c-21.609-5.073-51.034-0.281-60.28-3.819
	c0,0,7.9,7.5,15.913,8.574c0,0-44.722,9.931-73.639,3.1l-1.435-3.059c0,0,50.036,2.08,56.083-2.143c0,0-8.938-4.617-8.944-15.094
	c0,0,17.413,5.229,30.508,3.527s53.943-1.27,70.895,23.838l6.675,13.118L222.947,85.052z"/>
<path fill="#3E2670" stroke="#3E2670" stroke-width="0.25" stroke-miterlimit="10" d="M151.095,191.624
	c-16.96,0.01-31.644-6.167-42.076-10.434c-19.408-7.94-50.695-26.894-50.973-27.348c-0.352-0.573-0.416-1.276-0.175-1.902
	c0.241-0.627,0.76-1.105,1.404-1.295c2.412-0.711,36.653-0.678,39.033-1.955c-28.579-11.621-39.842-35.779-40.794-39.052
	c-0.216-0.745-0.015-1.55,0.527-2.106c0.541-0.557,1.338-0.782,2.093-0.581c2.838,0.745,32.953,2.706,38.138-0.895
	c-7.639-6.865-28.281-36.805-29.113-41.38c-0.126-0.692,0.093-1.403,0.588-1.903c0.496-0.501,1.206-0.727,1.897-0.61
	c6.971,1.192,40.904,4.407,51.28,0.396c-5.664-4.491-6.607-14.771-6.653-15.325c-0.063-0.738,0.259-1.458,0.851-1.903
	c0.591-0.447,1.372-0.557,2.064-0.294c9.745,3.702,19.956,3.656,32.886,3.596c9.257-0.043,19.746-0.09,31.926,1.326
	c19.182,2.232,30.678,13.394,36.944,22.364c6.746,9.659,8.969,18.704,9.061,19.084c0.278,1.158-0.436,2.323-1.594,2.601
	c-1.162,0.276-2.324-0.436-2.602-1.594c-0.044-0.179-2.201-8.794-8.489-17.744c-8.37-11.916-19.749-18.789-33.819-20.426
	c-11.922-1.387-22.277-1.341-31.407-1.297c-11.431,0.051-21.477,0.099-30.946-2.701c0.892,3.96,3.019,9.999,7.691,10.07
	c0.879,0.013,1.725,0.494,2.068,1.304c0.48,1.134-0.064,2.387-1.144,2.842c-1.163,0.49-17.663,5.745-55.826,2.153
	c2.422,11.592,23.919,35.722,28.824,37.241c0.769,0.239,1.341,0.886,1.485,1.679c0.142,0.792-0.169,1.598-0.807,2.09
	c-2.001,1.543-7.777,5.627-40.928,3.576c2.927,13.715,35.84,36.327,44.035,36.493c0.76,0.015,1.506,0.339,1.912,0.982
	c0.67,1.06,0.323,2.386-0.668,3.006c-0.26,0.163-39.65,0.133-44.549,2.125c2.581,3.584,38.602,19.665,48.493,24.026
	c20.794,9.167,35.055,12.519,53.438,7.869c1.215-0.311,2.868,3.635,1.761,3.913C161.363,191.013,156.074,191.621,151.095,191.624"/>
<path fill="none" stroke="#3E2670" stroke-width="5" stroke-miterlimit="10" d="M226.702,90.936l-6.809-7.66
	c0,0-18.397-4.518-36.766,3.574c-24.34,10.723-31.83,27.404-31.83,27.404s5.106,8.851,5.277,15.66
	c0.145,5.808-2.213,13.106,2.043,24.511c2.223,5.958-11.149,20.213,7.064,33.574"/>
<path opacity="0.4" fill="#FFFFFF" d="M220.337,81.807c0,0-33.351-20.051-71.555-9.553c0,0,16.575-1.037,24.107,1.116
	c0,0-20.817,4.223-35.604,11.626c0,0,20.904-5.921,33.641-5.928c12.736-0.007,24.081,0.35,24.081,0.35s-6.036-2.975-16.86-4.086
	C178.147,75.332,184.346,71.207,220.337,81.807"/>
</svg>
