<?xml version="1.0" encoding="utf-8"?>
<!-- Generator: Adobe Illustrator 23.0.1, SVG Export Plug-In . SVG Version: 6.00 Build 0)  -->
<svg version="1.1" id="Hair" xmlns="http://www.w3.org/2000/svg" xmlns:xlink="http://www.w3.org/1999/xlink" x="0px" y="0px"
	 width="450px" height="378px" viewBox="0 0 450 378" enable-background="new 0 0 450 378" xml:space="preserve">
<path fill="#6B4099" d="M138.532,57.489c21.94-10.759,39.064-11.745,39.064-11.745s2.043-10.979,11.745-11.489
	c6.395-0.337,9.447,6.383,9.447,6.383s7.269-19.66,22.723-19.66c24,0,30.383,52.085,1.787,60.766
	c-10.14,3.078-13.879-5.447-43.66,6.638c-17.617,7.149-27.83,26.553-27.83,26.553s4.355,8.734,4.851,11.489
	c1.247,6.928-2.298,13.787,1.787,26.809c3.006,9.581,16.085,39.149,16.085,39.149s-7.607-3.784-21.191-2.128
	c-20.936,2.553-34.298-7.915-43.149-23.234c-4.722-8.173-6.383-19.404-6.383-19.404s-9.702-2.298-11.489-11.489
	c-1.868-9.606,5.106-14.553,5.106-14.553s-7.915-3.574-6.979-10.894c1.057-8.262,9.787-9.277,9.787-9.277s-5.039-5.47-1.277-11.489
	c3.83-6.128,10.979-4.851,10.979-4.851S111.979,70.511,138.532,57.489z"/>
<path opacity="0.4" fill="#3E2670" d="M158.532,155.191c3.006,9.581,15.447,35.957,15.447,35.957s-7.607-3.784-21.191-2.128
	c-20.936,2.553-34.298-7.915-43.149-23.234c-4.722-8.173-6.383-19.404-6.383-19.404s-9.702-2.298-11.489-11.489
	c-1.868-9.606,8.638-14.426,8.638-14.426s-4.732,7.773-0.34,14.298c5.957,8.851,19.878,8.85,28.596,7.149
	C142.617,139.191,154.447,142.17,158.532,155.191z"/>
<path opacity="0.4" fill="#FFFFFF" d="M137.298,57.915c21.94-10.759,39.064-11.745,39.064-11.745s2.043-10.979,11.745-11.489
	c6.395-0.337,11.106,6.809,11.106,6.809s8.105-19.149,22.298-19.149c6.468,0,10.213,5.021,10.213,5.021s-14.638-11.745-26.468,11.66
	c-2.611,5.165-4.851,12-4.851,12s-1.021-9.702-8.085-9.106c-8.403,0.709-8.426,11.149-8.426,11.149s-20.781,1.825-39.915,9.447
	c-31.404,12.511-32.426,24.255-32.426,24.255S110.745,70.936,137.298,57.915z"/>
<path opacity="0.4" fill="#FFFFFF" d="M228.83,35.362c4.222,3.212,6.868,8.447,7.8,13.831c0.944,5.421,0.33,11.109-1.676,16.282
	c-1.994,5.16-5.495,9.89-10.218,12.933c-2.35,1.513-4.975,2.582-7.666,3.073c-2.694,0.469-5.422,0.457-7.984-0.161
	c5.184-0.896,9.751-2.921,13.304-6.067c3.571-3.113,6.179-7.175,7.906-11.592c1.717-4.426,2.577-9.226,2.438-14.051
	C232.594,44.781,231.434,39.927,228.83,35.362z"/>
<path opacity="0.4" fill="#FFFFFF" d="M217.766,43.532c2.893,3.641,4.673,8.338,4.838,13.266c0.182,4.923-1.322,9.964-4.115,14.086
	c-2.774,4.144-6.767,7.388-11.23,9.324c-4.461,1.93-9.429,2.587-14.004,1.622c4.515-1.131,8.59-2.784,12.17-5.1
	c3.572-2.303,6.621-5.231,8.917-8.637c2.295-3.405,3.809-7.296,4.347-11.461C219.258,52.457,218.789,48.075,217.766,43.532z"/>
<path opacity="0.4" fill="#FFFFFF" d="M206.94,52.689c1.019,3.233,1.614,6.66,1.298,10.246l-0.056,0.673l-0.144,0.667l-0.299,1.343
	c-0.112,0.447-0.307,0.875-0.462,1.317c-0.171,0.436-0.31,0.891-0.561,1.295c-0.229,0.414-0.455,0.836-0.698,1.248
	c-0.254,0.403-0.57,0.76-0.858,1.143c-0.288,0.386-0.595,0.754-0.945,1.071c-0.337,0.333-0.679,0.667-1.029,0.989
	c-2.918,2.409-6.289,3.834-9.524,4.98c-3.256,1.139-6.481,2.034-9.61,3.038c-6.263,1.955-12.194,4.357-17.37,8.126
	c-2.563,1.898-4.955,4.076-7.122,6.527l-1.619,1.863c-0.506,0.65-0.978,1.327-1.5,1.98l-0.765,0.995l-0.694,1.044
	c-0.483,0.689-0.95,1.391-1.455,2.082c0.526-1.6,0.976-3.27,1.712-4.811c0.338-0.787,0.7-1.566,1.075-2.342l1.265-2.26
	c1.822-2.936,4-5.727,6.607-8.115c2.611-2.377,5.582-4.361,8.701-5.974c3.124-1.616,6.397-2.843,9.658-3.879
	c3.266-1.025,6.527-1.862,9.659-2.773c3.128-0.913,6.102-1.968,8.587-3.58c2.39-1.657,4.254-4.032,5.05-7.111
	C206.757,59.441,206.877,56.079,206.94,52.689z"/>
<path fill="none" stroke="#3E2670" stroke-width="4" stroke-miterlimit="10" d="M138.532,57.489
	c21.94-10.759,39.064-11.745,39.064-11.745s2.043-10.979,11.745-11.489c6.395-0.337,9.447,6.383,9.447,6.383
	s7.269-19.66,22.723-19.66c24,0,30.383,52.085,1.787,60.766c-10.14,3.078-13.879-5.447-43.66,6.638
	c-17.617,7.149-27.83,26.553-27.83,26.553s4.355,8.734,4.851,11.489c1.247,6.928-2.298,13.787,1.787,26.809
	c3.006,9.581,16.085,39.149,16.085,39.149s-7.607-3.784-21.191-2.128c-20.936,2.553-34.298-7.915-43.149-23.234
	c-4.722-8.173-6.383-19.404-6.383-19.404s-9.702-2.298-11.489-11.489c-1.868-9.606,5.106-14.553,5.106-14.553
	s-7.915-3.574-6.979-10.894c1.057-8.262,9.787-9.277,9.787-9.277s-5.039-5.47-1.277-11.489c3.83-6.128,10.979-4.851,10.979-4.851
	S111.979,70.511,138.532,57.489z"/>
</svg>
