<?xml version="1.0" encoding="utf-8"?>
<!-- Generator: Adobe Illustrator 23.0.1, SVG Export Plug-In . SVG Version: 6.00 Build 0)  -->
<svg version="1.1" id="Hair" xmlns="http://www.w3.org/2000/svg" xmlns:xlink="http://www.w3.org/1999/xlink" x="0px" y="0px"
	 width="450px" height="378px" viewBox="0 0 450 378" enable-background="new 0 0 450 378" xml:space="preserve">
<path fill="#2F2B2C" d="M226.021,84.128c0,0-10.553-4.426-23.149-2.723c-19.89,2.688-42.213,16.681-50.383,32.17
	c0,0,5.277,8.851,5.617,14.979c0.34,6.124-1.557,12.406-0.851,15.66c3.064,14.128,10.383,43.574,10.383,43.574
	s-8.851,6.979-15.319,5.277c-7.243-1.906-7.149-6.468-7.149-6.468s-5.787,6.809-12.596,2.383
	c-4.993-3.245-3.745-10.894-3.745-10.894s-7.83,4.766-11.574,0.681c-5.169-5.639-1.702-11.234-1.702-11.234
	s-6.809,2.723-11.234-3.404c-4.09-5.663,1.702-12.255,1.702-12.255s-7.396-0.741-8.511-7.149c-1.362-7.83,4.085-10.553,4.085-10.553
	s-6.809-1.515-6.809-9.191c0-7.149,8.17-8.851,8.17-8.851s-6.809-5.787-4.34-12.511c2.865-7.803,10.128-7.234,10.128-7.234
	s-5.058-6.545-1.021-12.936c4.085-6.468,12.596-4.426,12.596-4.426s-3.745-6.809,2.723-12.596c6.017-5.384,13.957,0,13.957,0
	s-1.702-7.489,7.149-10.894c7.085-2.725,12.17,3.149,12.17,3.149s2.553-6.638,8.936-7.149c6.637-0.531,10.553,5.66,10.553,5.66
	s3.999-7.809,12.255-5.745c8.17,2.043,7.83,9.702,7.83,9.702s6.035-4.002,11.234-1.191C213.426,63.362,213.766,70,213.766,70
	s5.836-1.994,10.723,2.894C229.255,77.66,226.021,84.128,226.021,84.128z"/>
<path opacity="0.2" fill="#231F20" d="M156.404,144.213c3.064,14.128,10.383,43.574,10.383,43.574s-8.851,6.979-15.319,5.277
	c-7.243-1.906-7.149-6.468-7.149-6.468s-5.787,6.809-12.596,2.383c-4.993-3.245-3.745-10.894-3.745-10.894s-7.83,4.766-11.574,0.681
	c-5.169-5.639-1.702-11.234-1.702-11.234s-6.809,2.723-11.234-3.404c-4.09-5.663,1.702-12.255,1.702-12.255
	s-7.396-0.741-8.511-7.149c-1.362-7.83,4.085-10.553,4.085-10.553s-6.809-1.515-6.809-9.191c0-7.149,8.17-8.851,8.17-8.851
	s1.088,10.22,13.957,18.723c19.064,12.596,21.801,7.666,27.234,7.149C150.447,141.319,156.167,143.12,156.404,144.213z"/>
<path fill="#515153" d="M194.398,69.986c-1.234-0.447-2.711-0.411-3.983,0.118c-1.27,0.53-2.335,1.392-3.244,2.342
	c-0.392,0.413-0.744,0.84-1.076,1.285c-0.262-0.38-0.54-0.749-0.853-1.115c-0.787-0.898-1.745-1.694-2.857-2.294
	c-2.228-1.24-5.028-1.402-7.375-0.774c-1.264,0.277-2.613,0.984-3.595,1.907c-1.014,0.921-1.761,2.015-2.312,3.131
	c-0.547,1.121-0.922,2.267-1.194,3.413c-0.042,0.175-0.061,0.352-0.097,0.527c-0.18-0.049-0.354-0.113-0.536-0.157
	c-1.147-0.271-2.331-0.455-3.563-0.477c-1.227-0.019-2.502,0.127-3.75,0.508c-1.246,0.374-2.457,1.018-3.459,1.875
	c-2.058,1.668-3.236,4.299-3.415,6.707c-0.124,1.215-0.041,2.399,0.15,3.537c0.103,0.618,0.243,1.203,0.42,1.786
	c-0.218,0.043-0.436,0.074-0.657,0.13c-0.822,0.22-1.633,0.518-2.388,0.948c-0.758,0.415-1.431,1.032-1.909,1.747
	c-0.474,0.728-0.671,1.575-0.641,2.36c0.289-0.74,0.737-1.356,1.285-1.796c0.553-0.442,1.205-0.696,1.874-0.871
	c0.67-0.175,1.377-0.24,2.084-0.239c0.69,0,1.454,0.032,2.059,0.15l1.78,0.344l-0.422-2.121c-0.35-1.76-0.414-3.778-0.044-5.445
	c0.374-1.703,1.208-3.052,2.456-3.954c1.219-0.897,2.752-1.283,4.463-1.2c0.849,0.023,1.73,0.168,2.603,0.385
	c0.437,0.11,0.871,0.244,1.301,0.386c0.41,0.136,0.894,0.325,1.188,0.461l3.17,1.465l0.067-3.456
	c0.015-0.773,0.149-1.781,0.319-2.644c0.179-0.887,0.435-1.743,0.778-2.508c0.345-0.761,0.758-1.443,1.266-1.954
	c0.249-0.263,0.523-0.479,0.818-0.658c0.304-0.195,0.573-0.327,0.984-0.457c1.638-0.545,3.285-0.61,4.823,0.012
	c0.775,0.293,1.505,0.774,2.189,1.349c0.67,0.559,1.334,1.322,1.771,1.995l1.445,2.223l0.867-2.261
	c0.373-0.973,0.949-2.028,1.569-2.943c0.639-0.92,1.401-1.752,2.318-2.317c0.908-0.567,1.995-0.84,3.125-0.665
	c1.126,0.172,2.239,0.705,3.258,1.383C196.634,71.248,195.633,70.443,194.398,69.986z"/>
<path fill="#515153" d="M147.91,83.56c-0.089-0.342-0.198-0.935-0.254-1.422c-0.059-0.513-0.097-1.029-0.111-1.54
	c-0.021-1.021,0.07-2.025,0.308-2.945c0.451-1.874,1.474-3.305,3.092-4.384c1.593-1.145,3.404-1.712,5.497-1.44
	c2.089,0.266,4.271,1.309,6.319,2.718c-1.079-2.273-2.946-4.25-5.503-5.43c-1.284-0.564-2.763-0.864-4.257-0.783
	c-1.488,0.088-2.966,0.506-4.245,1.181c-1.289,0.642-2.525,1.646-3.471,2.847c-0.957,1.202-1.644,2.593-2.057,4.007
	c-0.415,1.417-0.582,2.848-0.599,4.249c-0.001,0.041,0.003,0.081,0.002,0.122c-0.174-0.033-0.347-0.071-0.523-0.1
	c-1.516-0.24-3.108-0.304-4.729-0.047c-1.613,0.253-3.243,0.869-4.649,1.821c-1.401,0.957-2.539,2.243-3.35,3.591
	c-0.812,1.324-1.464,2.833-1.723,4.468c-0.286,1.622-0.159,3.332,0.318,4.861c0.459,1.542,1.245,2.904,2.163,4.084
	c0.339,0.432,0.693,0.827,1.06,1.207c-0.149,0.058-0.297,0.111-0.447,0.175c-1.082,0.474-2.115,1.1-3,1.908
	c-0.888,0.803-1.565,1.847-1.928,2.948c-0.377,1.102-0.393,2.258-0.228,3.324c0.187-1.071,0.531-2.084,1.086-2.921
	c0.535-0.851,1.299-1.482,2.117-1.973c0.83-0.484,1.752-0.807,2.706-1.003c0.93-0.194,1.983-0.311,2.832-0.272l3.825,0.174
	l-2.983-2.852c-0.772-0.738-1.564-1.757-2.142-2.727c-0.596-0.991-1.009-2.04-1.209-3.067c-0.404-2.066,0.162-4.028,1.429-5.824
	c1.219-1.765,2.839-2.784,4.862-3.036c1.001-0.146,2.09-0.106,3.186,0.082c0.548,0.091,1.097,0.227,1.642,0.377
	c0.518,0.146,1.137,0.364,1.504,0.525l4.756,2.088L147.91,83.56z"/>
<path fill="none" stroke="#3E2670" stroke-width="5" stroke-miterlimit="10" d="M225.17,84.128c0,0-10.553-4.426-23.149-2.723
	c-19.89,2.688-42.213,16.681-50.383,32.17c0,0,5.277,8.851,5.617,14.979c0.34,6.124-1.557,12.406-0.851,15.66
	c3.064,14.128,10.383,43.574,10.383,43.574s-8.851,6.979-15.319,5.277c-7.243-1.906-7.149-6.468-7.149-6.468
	s-5.787,6.809-12.596,2.383c-4.993-3.245-3.745-10.894-3.745-10.894s-7.83,4.766-11.574,0.681
	c-5.169-5.639-1.702-11.234-1.702-11.234s-6.809,2.723-11.234-3.404c-4.09-5.663,1.702-12.255,1.702-12.255
	s-7.396-0.741-8.511-7.149c-1.362-7.83,4.085-10.553,4.085-10.553s-6.809-1.515-6.809-9.191c0-7.149,8.17-8.851,8.17-8.851
	s-6.809-5.787-4.34-12.511c2.865-7.803,10.128-7.234,10.128-7.234s-5.058-6.545-1.021-12.936c4.085-6.468,12.596-4.426,12.596-4.426
	s-3.745-6.809,2.723-12.596c6.017-5.384,13.957,0,13.957,0s-1.702-7.489,7.149-10.894c7.085-2.725,12.17,3.149,12.17,3.149
	s2.553-6.638,8.936-7.149c6.637-0.531,10.553,5.66,10.553,5.66s3.999-7.809,12.255-5.745c8.17,2.043,7.83,9.702,7.83,9.702
	s6.035-4.002,11.234-1.191C212.574,63.362,212.915,70,212.915,70s5.836-1.994,10.723,2.894
	C228.404,77.66,225.17,84.128,225.17,84.128z"/>
</svg>
