<svg width="450" height="378" viewBox="0 0 450 378" fill="none" xmlns="http://www.w3.org/2000/svg">
<path d="M226 89.6449C226 89.6449 218.031 60.352 189.913 56.6486C161.795 52.9453 109.291 51.5083 95.602 49C95.602 49 99.0546 63.776 107.906 64.5593C107.906 64.5593 71.2586 68.4691 38.2328 65.5461C38.2328 65.5461 62.4499 101.517 75.7649 105.505C75.7649 105.505 67.1914 109.786 24 108.5C24 108.5 35.497 131.91 81.2718 147.68L24.3639 150.426C24.3639 150.426 124.5 200.5 161 184C161 184 157.279 178.679 155 171C152.275 161.816 159 155.5 159 155.5C159 155.5 153.879 138.916 155 133C152.727 120 153.273 113 153.273 113C153.273 113 168.5 77 217.689 83.4073L226 89.6449Z" fill="#747678"/>
<path opacity="0.3" d="M38.2135 67C38.2135 67 75.3012 107.291 103.553 110.802C103.553 110.802 86.8715 119.451 75.6366 118.266C75.6366 118.266 121.818 132.543 156.5 127.5C156.5 127.5 155.002 148.826 159.5 154.5C159.5 154.5 151.516 166.645 152.5 171.5C153.947 178.634 159.5 184 159.5 184C159.5 184 130.895 189.35 106.156 182.077C81.4163 174.804 24.3634 151.236 24.3634 151.236L81.1891 148.509C81.1891 148.509 39.2562 134.008 24 109.627C24 109.627 70.5134 110.719 75.6901 106.656C75.6901 106.656 51.7221 91.388 38.2135 67Z" fill="#3E2670"/>
<path opacity="0.4" d="M222.081 85.607C222.081 85.607 209.841 65.8715 183.668 60.9853C157.495 56.0981 121.855 60.7145 110.656 57.3062C110.656 57.3062 116.795 65.9653 126.5 67C126.5 67 76 77.5 41 69.5L39 65.6056C39 65.6056 99.604 67.6094 106.928 63.5411C106.928 63.5411 96.1024 59.0932 96.0951 49C96.0951 49 117.186 54.0374 133.047 52.3978C148.907 50.7581 198.383 51.1743 218.915 75.3626L227 88L222.081 85.607Z" fill="white"/>
<path d="M134.94 188C114.309 188.01 96.4466 182.074 83.7567 177.973C60.1479 170.343 22.0891 152.129 21.7509 151.693C21.3227 151.142 21.2448 150.467 21.538 149.865C21.8312 149.263 22.4625 148.803 23.2459 148.621C26.18 147.937 67.8322 147.969 70.7274 146.742C35.9626 135.575 22.2618 112.36 21.1037 109.214C20.841 108.498 21.0855 107.725 21.7448 107.191C22.4029 106.655 23.3724 106.439 24.2908 106.632C27.7431 107.348 64.3763 109.233 70.6836 105.772C61.3912 99.1753 36.2813 70.404 35.2692 66.0076C35.116 65.3426 35.3824 64.6594 35.9845 64.1789C36.5879 63.6974 37.4515 63.4803 38.2921 63.5927C46.7719 64.7382 88.0495 67.8277 100.671 63.9732C93.7814 59.6575 92.6343 49.7788 92.5783 49.2464C92.5017 48.5373 92.8934 47.8454 93.6135 47.4177C94.3325 46.9882 95.2825 46.8825 96.1243 47.1352C107.979 50.6927 120.4 50.6485 136.128 50.5908C147.389 50.5495 160.148 50.5044 174.964 51.8651C198.298 54.01 212.283 64.7362 219.905 73.3561C228.111 82.6381 230.815 91.33 230.927 91.6952C231.265 92.8079 230.397 93.9275 228.988 94.1946C227.574 94.4598 226.161 93.7756 225.823 92.6628C225.769 92.4908 223.145 84.2121 215.496 75.6115C205.315 64.1606 191.473 57.5559 174.357 55.9828C159.855 54.65 147.259 54.6942 136.153 54.7364C122.247 54.7854 110.027 54.8316 98.5085 52.1409C99.5936 55.9463 102.181 61.7496 107.864 61.8178C108.933 61.8303 109.963 62.2925 110.38 63.0709C110.964 64.1606 110.302 65.3647 108.988 65.8019C107.573 66.2728 87.5021 71.3227 41.079 67.8709C44.0252 79.0104 70.1751 102.198 76.1418 103.658C77.0772 103.888 77.773 104.509 77.9482 105.271C78.1209 106.033 77.7426 106.807 76.9665 107.28C74.5324 108.763 67.5062 112.687 27.1799 110.716C30.7404 123.896 70.7772 145.625 80.746 145.785C81.6705 145.799 82.578 146.111 83.0718 146.728C83.8869 147.747 83.4647 149.021 82.2593 149.617C81.943 149.774 34.0272 149.745 28.0679 151.659C31.2075 155.103 75.0251 170.557 87.0569 174.747C112.352 183.556 136.638 186.468 159 182C160.478 181.701 162.489 185.493 161.142 185.76C154.369 187.104 140.996 187.997 134.94 188Z" fill="#3E2670" stroke="#3E2670" stroke-width="0.25" stroke-miterlimit="10"/>
<path fill="none" d="M226.702 90.936L219.893 83.276C219.893 83.276 201.496 78.758 183.127 86.85C158.787 97.573 151.297 114.254 151.297 114.254C151.297 114.254 156.403 123.105 156.574 129.914C156.719 135.722 154.361 143.02 158.617 154.425C160.84 160.383 143.287 170.139 161.5 183.5" stroke="#3E2670" stroke-width="5" stroke-miterlimit="10"/>
<path opacity="0.4" d="M220.337 81.807C220.337 81.807 186.986 61.756 148.782 72.254C148.782 72.254 165.357 71.217 172.889 73.37C172.889 73.37 152.072 77.593 137.285 84.996C137.285 84.996 158.189 79.075 170.926 79.068C183.662 79.061 195.007 79.418 195.007 79.418C195.007 79.418 188.971 76.443 178.147 75.332C178.147 75.332 184.346 71.207 220.337 81.807Z" fill="white"/>
</svg>
