<?xml version="1.0" encoding="utf-8"?>
<!-- Generator: Adobe Illustrator 23.0.1, SVG Export Plug-In . SVG Version: 6.00 Build 0)  -->
<svg version="1.1" id="Hair" xmlns="http://www.w3.org/2000/svg" xmlns:xlink="http://www.w3.org/1999/xlink" x="0px" y="0px"
	 width="450px" height="378px" viewBox="0 0 450 378" enable-background="new 0 0 450 378" xml:space="preserve">
<g>
	<path fill="#AC3F3C" stroke="#3E2670" stroke-width="2.4" stroke-miterlimit="10" d="M150.606,152.762
		c0.748-0.354,1.547-1.04,2.403-1.776c1.659-1.429,0.153-4.134-1.922-3.456c-1.902,0.621-10.445,1.691-19.635,1.935
		c-8.365,0.222-15.941-3.848-15.941-3.848s-0.501,10.903,9.152,11.992C135.452,158.827,140.839,157.391,150.606,152.762z"/>
	<path fill="#AC3F3C" stroke="#3E2670" stroke-width="2.4" stroke-miterlimit="10" d="M118.574,95.447c0,0-5.064,5.532-3.957,13.149
		c0.612,4.217,4.596,9.83,13.277,13.66c9.241,4.077,13.07,2.946,13.277-0.766c0.255-4.596-4.914-2.767-11.745-6.894
		C117.17,107.191,118.574,95.447,118.574,95.447z"/>
	<path fill="#AC3F3C" stroke="#3E2670" stroke-width="2.4" stroke-miterlimit="10" d="M156.864,157.41
		c0.812-0.911-0.084-2.318-1.253-1.967c-3.512,1.054-9.266,2.548-15.54,3.226c-11.174,1.208-17.838-1.007-17.82-0.838
		c0.617,5.757,4.498,11.773,12.095,10.671c7.434-1.077,12.606-4.083,18.846-7.949C154.678,159.634,155.912,158.478,156.864,157.41z"
		/>
	<path fill="#AC3F3C" stroke="#3E2670" stroke-width="2.4" stroke-miterlimit="10" d="M158.823,163.205
		c0.694-0.982-0.416-2.224-1.465-1.637c-2.62,1.468-6.54,3.484-10.913,5.126c-8.595,3.228-14.229,3.115-14.185,3.229
		c1.483,3.866,5.583,7.213,11.378,4.824c5.67-2.338,9.225-5.531,13.472-9.55C157.784,164.559,158.352,163.872,158.823,163.205z"/>
	<path fill="#AC3F3C" stroke="#3E2670" stroke-width="2.4" stroke-miterlimit="10" d="M162.691,167.639
		c0.607-1.07-0.715-2.188-1.684-1.431c-2.002,1.567-4.808,3.602-7.974,5.427c-6.849,3.947-11.652,4.641-11.599,4.731
		c1.802,3.076,5.754,5.346,10.342,2.504c4.489-2.781,7.062-5.992,10.107-10.001C162.191,168.465,162.458,168.05,162.691,167.639z"/>
	<path fill="#DC4A26" stroke="#3E2670" stroke-width="2.4" stroke-miterlimit="10" d="M133.892,109.727
		c2.789,1.586,8.302,3.149,8.81,0.784c0.484-2.25-5.05-6.85-5.872-8.426c-2.451-4.692-4.812-8.227-3.83-16.085
		c1.021-8.17,5.617-11.489,5.617-11.489s-11.489,3.83-13.021,14.809C124.184,99.44,128.294,106.543,133.892,109.727z"/>
	<path fill="#DC4A26" stroke="#3E2670" stroke-width="2.4" stroke-miterlimit="10" d="M113.985,133.166
		c4.449,3.685,12.852,5.933,18.439,6.544c4.786,0.523,8.988,0.129,13.667-1.303c3.215-0.984,2.493-6.447-0.836-5.976
		c-4.704,0.666-11.406-0.127-15.323-1.155c-16.149-4.236-18.998-13.168-18.998-13.168S106.362,126.851,113.985,133.166z"/>
	<path fill="#DC4A26" stroke="#3E2670" stroke-width="2.4" stroke-miterlimit="10" d="M124.83,84.894c0,0-8,3.489-6.894,15.574
		c0.722,7.886,6.144,14.772,14.809,18.638c8.298,3.702,12.17,3.234,12.766-1.106c0.665-4.842-4.766-3.404-10.468-7.319
		C121.498,101.381,124.83,84.894,124.83,84.894z"/>
	<path fill="#DC4A26" stroke="#3E2670" stroke-width="2.4" stroke-miterlimit="10" d="M113.596,104.213
		c0,0-7.915,9.191,3.447,19.277c9.071,8.052,21.163,7.193,23.617,7.021c2.732-0.191,6.383-0.085,6.255-4.085
		c-0.077-2.428-1.787-2.681-6.128-2.809c-3.455-0.102-6.858-0.74-12.128-2.936C113.34,114.298,113.596,104.213,113.596,104.213z"/>
	<path fill="#DC4A26" stroke="#3E2670" stroke-width="2.4" stroke-miterlimit="10" d="M149.349,145.524
		c2.533-1.155,1.513-6.584-2.785-5.246c-4.18,1.301-10.102,1.615-16.247,0.925c-12.927-1.452-17.997-8.224-17.997-8.224
		s-1.532,10.723,6.979,13.957C124.662,148.974,137.218,151.054,149.349,145.524z"/>
	<g>
		
			<path fill="none" stroke="#3E2670" stroke-width="0.9897" stroke-linecap="round" stroke-linejoin="round" stroke-miterlimit="10" d="
			M119.072,89.99c0.583,2.2,2.509,4.486,2.509,4.486s2.289-2.405,2.254-4.524"/>
		
			<path fill="none" stroke="#3E2670" stroke-width="0.9897" stroke-linecap="round" stroke-linejoin="round" stroke-miterlimit="10" d="
			M119.399,94.955c2.509,0.812,3.404,4.497,3.404,4.497s-0.736-4.064,0.671-6.001"/>
		
			<path fill="none" stroke="#3E2670" stroke-width="0.9897" stroke-linecap="round" stroke-linejoin="round" stroke-miterlimit="10" d="
			M120.237,99.227c0.664,1.899,3.201,4.318,3.201,4.318s1.827-2.656,1.647-4.526"/>
		
			<path fill="none" stroke="#3E2670" stroke-width="0.9897" stroke-linecap="round" stroke-linejoin="round" stroke-miterlimit="10" d="
			M124.281,109.101c1.505,1.328,4.922,2.211,4.922,2.211s0.338-3.178-0.724-4.713"/>
		
			<path fill="none" stroke="#3E2670" stroke-width="0.9897" stroke-linecap="round" stroke-linejoin="round" stroke-miterlimit="10" d="
			M131.55,116.288c1.922,0.616,5.438,0.072,5.438,0.072s-0.949-3.027-2.542-4.005"/>
		
			<path fill="none" stroke="#3E2670" stroke-width="0.9897" stroke-linecap="round" stroke-linejoin="round" stroke-miterlimit="10" d="
			M121.789,104.987c2.707,0.611,4.576,3.487,4.576,3.487s-0.813-3.861,0.258-5.183"/>
		
			<path fill="none" stroke="#3E2670" stroke-width="0.9897" stroke-linecap="round" stroke-linejoin="round" stroke-miterlimit="10" d="
			M127.954,113.062c2.781-0.254,5.461,1.89,5.461,1.89s-1.973-3.399-1.356-4.977"/>
		
			<path fill="none" stroke="#3E2670" stroke-width="0.9897" stroke-linecap="round" stroke-linejoin="round" stroke-miterlimit="10" d="
			M136.62,119.317c2.456-1.365,5.805-0.521,5.805-0.521s-3.214-2.268-3.295-3.945"/>
	</g>
	<g>
		
			<path fill="none" stroke="#3E2670" stroke-width="0.9897" stroke-linecap="round" stroke-linejoin="round" stroke-miterlimit="10" d="
			M110.048,111.364c1.581,1.637,4.379,2.697,4.379,2.697s0.832-3.21-0.231-5.043"/>
		
			<path fill="none" stroke="#3E2670" stroke-width="0.9897" stroke-linecap="round" stroke-linejoin="round" stroke-miterlimit="10" d="
			M113.835,116.803c2.585-0.537,5.185,2.219,5.185,2.219s-2.649-3.163-2.382-5.54"/>
		
			<path fill="none" stroke="#3E2670" stroke-width="0.9897" stroke-linecap="round" stroke-linejoin="round" stroke-miterlimit="10" d="
			M115.995,120.097c1.516,1.319,4.92,2.164,4.92,2.164s0.277-3.209-0.803-4.743"/>
		
			<path fill="none" stroke="#3E2670" stroke-width="0.9897" stroke-linecap="round" stroke-linejoin="round" stroke-miterlimit="10" d="
			M124.394,126.666c1.966,0.408,5.376-0.517,5.376-0.517s-1.277-2.926-2.959-3.732"/>
		
			<path fill="none" stroke="#3E2670" stroke-width="0.9897" stroke-linecap="round" stroke-linejoin="round" stroke-miterlimit="10" d="
			M134.273,129.306c1.977-0.416,4.769-2.628,4.769-2.628s-2.322-2.157-4.192-2.218"/>
		
			<path fill="none" stroke="#3E2670" stroke-width="0.9897" stroke-linecap="round" stroke-linejoin="round" stroke-miterlimit="10" d="
			M120.192,124.327c2.658-0.809,5.706,0.762,5.706,0.762s-2.616-2.949-2.337-4.626"/>
		
			<path fill="none" stroke="#3E2670" stroke-width="0.9897" stroke-linecap="round" stroke-linejoin="round" stroke-miterlimit="10" d="
			M129.548,128.285c2.295-1.597,5.687-1.062,5.687-1.062s-3.397-1.974-3.64-3.649"/>
		
			<path fill="none" stroke="#3E2670" stroke-width="0.9897" stroke-linecap="round" stroke-linejoin="round" stroke-miterlimit="10" d="
			M140.183,129.426c1.463-2.4,4.795-3.324,4.795-3.324s-3.918-0.377-4.817-1.794"/>
	</g>
	<g>
		
			<path fill="none" stroke="#3E2670" stroke-width="0.9897" stroke-linecap="round" stroke-linejoin="round" stroke-miterlimit="10" d="
			M109.701,127.409c2.209,0.551,5.149-0.031,5.149-0.031s-0.985-3.16-2.856-4.15"/>
		
			<path fill="none" stroke="#3E2670" stroke-width="0.9897" stroke-linecap="round" stroke-linejoin="round" stroke-miterlimit="10" d="
			M113.922,130.442c2.485-0.907,5.455,1.438,5.455,1.438s-3.077-2.74-3.151-5.127"/>
		
			<path fill="none" stroke="#3E2670" stroke-width="0.9897" stroke-linecap="round" stroke-linejoin="round" stroke-miterlimit="10" d="
			M117.794,133.301c1.91,0.619,5.376,0.061,5.376,0.061s-0.992-3.06-2.584-4.047"/>
		
			<path fill="none" stroke="#3E2670" stroke-width="0.9897" stroke-linecap="round" stroke-linejoin="round" stroke-miterlimit="10" d="
			M127.106,137.529c2.007,0.117,5.254-1.294,5.254-1.294s-1.683-2.705-3.465-3.257"/>
		
			<path fill="none" stroke="#3E2670" stroke-width="0.9897" stroke-linecap="round" stroke-linejoin="round" stroke-miterlimit="10" d="
			M137.273,138.699c1.9-0.699,4.351-3.292,4.351-3.292s-2.609-1.794-4.471-1.581"/>
		
			<path fill="none" stroke="#3E2670" stroke-width="0.9897" stroke-linecap="round" stroke-linejoin="round" stroke-miterlimit="10" d="
			M122.609,135.83c2.519-1.187,5.764-0.078,5.764-0.078s-3.013-2.533-2.976-4.231"/>
		
			<path fill="none" stroke="#3E2670" stroke-width="0.9897" stroke-linecap="round" stroke-linejoin="round" stroke-miterlimit="10" d="
			M132.446,138.378c2.047-1.912,5.484-1.878,5.484-1.878s-3.649-1.456-4.128-3.075"/>
		
			<path fill="none" stroke="#3E2670" stroke-width="0.9897" stroke-linecap="round" stroke-linejoin="round" stroke-miterlimit="10" d="
			M142.892,138.722c1.107-2.585,4.277-3.983,4.277-3.983s-3.937,0.198-5.03-1.071"/>
	</g>
	<g>
		
			<path fill="none" stroke="#3E2670" stroke-width="0.8423" stroke-linecap="round" stroke-linejoin="round" stroke-miterlimit="10" d="
			M115.788,138.525c0.017,1.357,2.262,3.128,2.262,3.128s-1.971-1.115-3.132-0.786"/>
		
			<path fill="none" stroke="#3E2670" stroke-width="0.8423" stroke-linecap="round" stroke-linejoin="round" stroke-miterlimit="10" d="
			M118.696,139.945c0.937,2.364,3.806,3.509,3.806,3.509s-3.323-0.328-4.074,0.308"/>
		
			<path fill="none" stroke="#3E2670" stroke-width="0.8423" stroke-linecap="round" stroke-linejoin="round" stroke-miterlimit="10" d="
			M122.42,140.788c1.774,0.812,3.433,3.816,3.433,3.816s-1.503,1.288-3.278,0.948"/>
		
			<path fill="none" stroke="#3E2670" stroke-width="0.8423" stroke-linecap="round" stroke-linejoin="round" stroke-miterlimit="10" d="
			M127.249,142.618c0.639,2.224,4.207,2.918,4.207,2.918s-3.072,0.235-4.509,1.295"/>
		
			<path fill="none" stroke="#3E2670" stroke-width="0.8423" stroke-linecap="round" stroke-linejoin="round" stroke-miterlimit="10" d="
			M130.879,142.647c1.701,0.182,4.017,3.096,4.017,3.096s-1.456,1.198-3.03,1.412"/>
		
			<path fill="none" stroke="#3E2670" stroke-width="0.8423" stroke-linecap="round" stroke-linejoin="round" stroke-miterlimit="10" d="
			M139.803,142.403c1.701,0.182,3.729,2.384,3.729,2.384s-1.169,1.91-2.742,2.124"/>
		
			<path fill="none" stroke="#3E2670" stroke-width="0.8423" stroke-linecap="round" stroke-linejoin="round" stroke-miterlimit="10" d="
			M135.794,142.369c0.21,2.921,3.78,2.801,3.78,2.801s-3.108,0.72-3.339,2.146"/>
		
			<path fill="none" stroke="#3E2670" stroke-width="0.8423" stroke-linecap="round" stroke-linejoin="round" stroke-miterlimit="10" d="
			M143.823,141.314c0.728,2.838,4.401,2.604,4.401,2.604s-3.114,0.739-3.086,2.186"/>
	</g>
	<path fill="#AC3F3C" stroke="#3E2670" stroke-width="2.4" stroke-miterlimit="10" d="M205.894,74.766
		c0.128,3.064,2.837,5.499,5.358,4.375c0.144-0.064,0.286-0.138,0.427-0.221c2.24-1.327,5.447-3.292,10.598,1.463
		c8.851,8.17,11.574,14.638,11.574,14.638s-5.872-25.106-20.809-26.638C208.979,67.966,205.666,69.303,205.894,74.766z"/>
	<path fill="#AC3F3C" stroke="#3E2670" stroke-width="2.4" stroke-miterlimit="10" d="M196.191,75.787
		c0.082,2.717,3.578,3.812,6.074,2.737c0.161-0.069,0.32-0.15,0.477-0.243c0.767-0.454,1.216-1.063,1.476-1.666
		c1.152-2.675,4.153-4.084,6.908-3.14c0.706,0.242,1.472,0.579,2.298,1.036c9.702,5.362,21.957,21.702,21.957,21.702
		S223,63.532,206.021,65.702C199.606,66.522,196.038,70.716,196.191,75.787z"/>
	<path fill="#DC4A26" stroke="#3E2670" stroke-width="2.4" stroke-miterlimit="10" d="M174.957,80.553
		c0.383,3.447,3.785,3.593,5.404,3.021c2.17-0.766,2.9-2.237,3.064-3.064c0.315-1.591-0.128-9.83,8.809-15.191
		c8.232-4.939,14.605-3.029,19.83-1.106c5.157,1.897,9.702,4.766,9.702,4.766s-7.106-17.404-29.787-11.319
		C180.937,60.622,174.246,74.152,174.957,80.553z"/>
	<path fill="#DC4A26" stroke="#3E2670" stroke-width="2.4" stroke-miterlimit="10" d="M164.234,85.489
		c0.383,3.447,3.912,3.891,5.532,3.319c2.17-0.766,2.645-3.174,2.809-4c0.315-1.591-0.116-3.318,0-4.936
		c0.383-5.362,2.126-11.4,7.277-15.447c5.362-4.213,17.234-8.298,17.234-8.298s-13.532-4.085-25.277,5.617
		C164.192,68.037,163.523,79.089,164.234,85.489z"/>
	<path fill="#AC3F3C" stroke="#3E2670" stroke-width="2.4" stroke-miterlimit="10" d="M186.106,77.574
		c-0.481,2.718,2.515,3.765,4.851,3.064c3.83-1.149,3.915-3.66,3.915-3.66s-0.034-6.362,7.83-8.085
		c18.638-4.085,24.501,17.434,26.043,19.489c0.511,0.681,4.316,4.039,3.915,3.404c0,0,0.727-7.259-5.106-17.191
		c-6.298-10.723-14.809-13.617-24.851-12.936C190.705,62.473,186.9,73.085,186.106,77.574z"/>
	<path fill="#DC4A26" stroke="#3E2670" stroke-width="2.4" stroke-miterlimit="10" d="M154.191,90.426
		c1.123,4.866,3.997,5.359,5.617,4.787c2.17-0.766,2.9-2.769,3.064-3.596c0.315-1.591-0.221-3.718-0.255-5.34
		c-0.128-6.021-0.088-11.8,3.064-17.383c4.468-7.915,8.936-9.702,8.936-9.702s-8.426-1.277-15.319,6.383
		C152.689,72.918,152.404,82.681,154.191,90.426z"/>
	<path fill="#DC4A26" stroke="#3E2670" stroke-width="2.4" stroke-miterlimit="10" d="M147.338,100.97
		c1.711,2.714,4.982,2.902,6.684,0.689c1.403-1.824,1.361-3.996,0.679-5.637c-0.622-1.498-4.482-8.216-1.531-19.469
		c2.306-8.792,7.915-13.277,7.915-13.277s-7.581-0.161-13.532,9.191C142.191,80.894,143.213,94.426,147.338,100.97z"/>
	<path fill="#DC4A26" stroke="#3E2670" stroke-width="2.4" stroke-miterlimit="10" d="M143.468,111.021
		c3.153,1.133,4.979-1.404,5.234-3.191c0.258-1.809-1.827-4.214-3.064-5.489c-1.129-1.165-5.31-9.496-3.191-20.936
		c1.277-6.894,5.872-11.234,5.872-11.234s-10.979,1.787-13.787,12.511C131.892,92.759,135.298,108.085,143.468,111.021z"/>
	<path fill="#AC3F3C" stroke="#3E2670" stroke-width="2.4" stroke-linejoin="bevel" stroke-miterlimit="10" d="M158.284,185.899
		c-13.459,17.84-56.042,35.177-56.042,35.177s44.238-9.569,61.388-32.508"/>
	<path fill="#AC3F3C" stroke="#3E2670" stroke-width="2.4" stroke-linejoin="bevel" stroke-miterlimit="10" d="M165.516,188.45
		c-7.93,16.743-49.339,34.955-49.339,34.955s36.828-7.872,53.981-31.215"/>
	<path fill="#AC3F3C" stroke="#3E2670" stroke-width="2.4" stroke-linejoin="bevel" stroke-miterlimit="10" d="M172.333,191.725
		c-6.901,14.421-40.562,32.221-40.562,32.221s33.529-12.499,45.188-30.287"/>
	<path fill="#AC3F3C" stroke="#3E2670" stroke-width="2.4" stroke-linejoin="bevel" stroke-miterlimit="10" d="M178.663,194.49
		c-7.607,14.03-34.95,29.285-34.95,29.285s28.83-13.708,39.115-27.595"/>
	<path fill="#AC3F3C" stroke="#3E2670" stroke-width="2.4" stroke-linejoin="bevel" stroke-miterlimit="10" d="M183.762,196.194
		c-5.089,12.93-27.611,27.306-27.611,27.306s23.47-12.151,31.767-26.352"/>
	<path fill="#AC3F3C" stroke="#3E2670" stroke-width="2.4" stroke-linejoin="bevel" stroke-miterlimit="10" d="M149.726,182.139
		c-15.302,19.482-59.981,35.049-59.981,35.049s41.717-5.268,66.249-31.769"/>
	<path opacity="0.4" fill="#FFFFFF" enable-background="new    " d="M140.149,106.17c2.809-1.787-4.34-8.298-0.511-22.213
		c1.462-5.311,5.15-10.959,5.15-10.959s-6.913,2.02-9.108,10.448C132.489,95.702,138.834,107.007,140.149,106.17z"/>
	<path opacity="0.4" fill="#FFFFFF" enable-background="new    " d="M128.915,100.723c1.549,1.107,2.027-2.963,1.447-4.936
		c-0.851-2.894-1.362-7.404-0.34-9.787c2.062-4.812,3.489-7.149,3.489-7.149s-4.638,2.573-6.213,9.447
		C125.846,94.635,127.128,99.447,128.915,100.723z"/>
	<path opacity="0.4" fill="#FFFFFF" enable-background="new    " d="M149.723,98.894c4.433-1.108-2.17-10.468-0.511-18
		c1.929-8.754,6.638-14.681,6.638-14.681s-4.775,2.338-7.915,8.17C141.681,86,146.66,99.66,149.723,98.894z"/>
	<path opacity="0.4" fill="#FFFFFF" enable-background="new    " d="M155.13,89.31c0.871,3.582,1.804,2.913,2.976,2.647
		c2.809-0.638,1.242-5.96,1.191-7.149c-0.186-4.412-0.128-5.319,1.915-12.979c1.478-5.541,7.915-11.489,7.915-11.489
		s-6.511,2.298-10.596,8.426C154.667,74.564,153.743,83.609,155.13,89.31z"/>
	
		<path fill="none" stroke="#3E2670" stroke-width="0.9897" stroke-linecap="round" stroke-linejoin="round" stroke-miterlimit="10" d="
		M140.774,72.972c-0.653,1.734-0.516,4.047-0.516,4.047s1.959-0.652,2.937-2.078"/>
	
		<path fill="none" stroke="#3E2670" stroke-width="0.9897" stroke-linecap="round" stroke-linejoin="round" stroke-miterlimit="10" d="
		M137.515,77.177c1.142,1.131,0.615,5.263,0.615,5.263s1.98-3.295,3.075-3.715"/>
	
		<path fill="none" stroke="#3E2670" stroke-width="0.9897" stroke-linecap="round" stroke-linejoin="round" stroke-miterlimit="10" d="
		M135.453,82.121c0.484,2.227,2.302,4.591,2.302,4.591s2.385-2.326,2.443-4.452"/>
	
		<path fill="none" stroke="#3E2670" stroke-width="0.9897" stroke-linecap="round" stroke-linejoin="round" stroke-miterlimit="10" d="
		M135.741,88.206c2.182,1.475,2.017,5.269,2.017,5.269s0.422-4.114,2.31-5.588"/>
	
		<path fill="none" stroke="#3E2670" stroke-width="0.9897" stroke-linecap="round" stroke-linejoin="round" stroke-miterlimit="10" d="
		M135.486,95.403c1.213,1.926,3.736,3.539,3.736,3.539s1.474-2.967,0.809-4.978"/>
	
		<path fill="none" stroke="#3E2670" stroke-width="0.9897" stroke-linecap="round" stroke-linejoin="round" stroke-miterlimit="10" d="
		M141.072,106.728c1.719,1.501,4.612,2.337,4.612,2.337s0.575-3.243-0.64-4.977"/>
	
		<path fill="none" stroke="#3E2670" stroke-width="0.9897" stroke-linecap="round" stroke-linejoin="round" stroke-miterlimit="10" d="
		M138.033,100.843c2.568,0.66,3.696,4.268,3.696,4.268s-0.993-3.993,0.298-5.998"/>
	<g>
		
			<path fill="none" stroke="#3E2670" stroke-width="0.9897" stroke-linecap="round" stroke-linejoin="round" stroke-miterlimit="10" d="
			M168.326,61.029c-1.53-0.407-3.47,1.833-3.47,1.833s1.122-1.784,0.736-2.903"/>
		
			<path fill="none" stroke="#3E2670" stroke-width="0.9897" stroke-linecap="round" stroke-linejoin="round" stroke-miterlimit="10" d="
			M166.062,66.776c-3.03-0.069-5.762,3.353-5.762,3.353s0.798-3.624,0.217-4.623"/>
		
			<path fill="none" stroke="#3E2670" stroke-width="0.9897" stroke-linecap="round" stroke-linejoin="round" stroke-miterlimit="10" d="
			M164.463,70.399c-1.803,2.386-5.727,3.27-5.727,3.27s-1.011-1.965-0.253-3.949"/>
		
			<path fill="none" stroke="#3E2670" stroke-width="0.9897" stroke-linecap="round" stroke-linejoin="round" stroke-miterlimit="10" d="
			M162.622,75.839c-2.704,0.282-4.473,2.948-4.473,2.948s-0.367-2.251-1.298-4.131"/>
		
			<path fill="none" stroke="#3E2670" stroke-width="0.9897" stroke-linecap="round" stroke-linejoin="round" stroke-miterlimit="10" d="
			M161.916,79.422c-0.561,1.931-4.533,3.195-4.533,3.195s-1.927-1.901-1.851-3.766"/>
		
			<path fill="none" stroke="#3E2670" stroke-width="0.9897" stroke-linecap="round" stroke-linejoin="round" stroke-miterlimit="10" d="
			M160.501,87.022c-0.244,1.993-2.863,4.532-2.863,4.532s-2.52-1.594-2.745-3.447"/>
		
			<path fill="none" stroke="#3E2670" stroke-width="0.9897" stroke-linecap="round" stroke-linejoin="round" stroke-miterlimit="10" d="
			M160.581,84.425c-1.858-0.212-3.454,2.979-3.454,2.979s-0.811-2.358-1.815-3.356"/>
		
			<path fill="none" stroke="#3E2670" stroke-width="0.9897" stroke-linecap="round" stroke-linejoin="round" stroke-miterlimit="10" d="
			M164.247,61.049c-1.089,1.931-1.354,4.679-1.354,4.679s2.429-0.434,3.844-1.946"/>
	</g>
	<g>
		
			<path fill="none" stroke="#3E2670" stroke-width="0.9897" stroke-linecap="round" stroke-linejoin="round" stroke-miterlimit="10" d="
			M154.007,68.99c-1.581-0.067-2.992,2.539-2.992,2.539s0.71-1.984,0.091-2.993"/>
		
			<path fill="none" stroke="#3E2670" stroke-width="0.9897" stroke-linecap="round" stroke-linejoin="round" stroke-miterlimit="10" d="
			M153.038,75.091c-2.974,0.587-4.901,4.519-4.901,4.519s-0.004-3.711-0.787-4.561"/>
		
			<path fill="none" stroke="#3E2670" stroke-width="0.9897" stroke-linecap="round" stroke-linejoin="round" stroke-miterlimit="10" d="
			M152.26,78.973c-1.245,2.719-4.886,4.43-4.886,4.43s-1.411-1.7-1.1-3.801"/>
		
			<path fill="none" stroke="#3E2670" stroke-width="0.9897" stroke-linecap="round" stroke-linejoin="round" stroke-miterlimit="10" d="
			M151.637,84.683c-2.58,0.86-3.73,3.845-3.73,3.845s-0.845-2.119-2.16-3.753"/>
		
			<path fill="none" stroke="#3E2670" stroke-width="0.9897" stroke-linecap="round" stroke-linejoin="round" stroke-miterlimit="10" d="
			M151.722,88.333c-0.13,2.006-3.736,4.099-3.736,4.099s-2.292-1.44-2.621-3.277"/>
		
			<path fill="none" stroke="#3E2670" stroke-width="0.9897" stroke-linecap="round" stroke-linejoin="round" stroke-miterlimit="10" d="
			M151.983,96.059c0.192,1.998-1.816,5.043-1.816,5.043s-2.805-1.012-3.425-2.772"/>
		
			<path fill="none" stroke="#3E2670" stroke-width="0.9897" stroke-linecap="round" stroke-linejoin="round" stroke-miterlimit="10" d="
			M151.5,93.506c-1.86,0.194-2.728,3.655-2.728,3.655s-1.302-2.127-2.498-2.885"/>
		
			<path fill="none" stroke="#3E2670" stroke-width="0.9897" stroke-linecap="round" stroke-linejoin="round" stroke-miterlimit="10" d="
			M150.028,69.89c-0.646,2.12-0.311,4.861-0.311,4.861s2.278-0.948,3.332-2.731"/>
	</g>
	<path opacity="0.4" fill="#FFFFFF" enable-background="new    " d="M176.404,77.064c-0.766,5.617,2.128,3.66,2.979,1.787
		c1.087-2.392-0.851-7.574,9.021-14.979c3.935-2.952,9.907-4.551,13.191-4.766c5.191-0.34,11.404,1.702,11.404,1.702
		s-9.664-5.95-22.723-0.681C180.574,64.043,176.767,74.404,176.404,77.064z"/>
	<path opacity="0.4" fill="#FFFFFF" enable-background="new    " d="M165.596,82.596c0.171,2.464,0.762,3.705,2.043,3.234
		c1.716-0.631,2.931-2.038,2.043-5.787c-1.532-6.468,1.809-13.612,5.787-16.936c6.723-5.617,15.489-6.383,15.489-6.383
		s-12.161-0.587-19.915,7.745C165.34,70.596,165.278,78.02,165.596,82.596z"/>
	<g>
		
			<path fill="none" stroke="#3E2670" stroke-width="0.9897" stroke-linecap="round" stroke-linejoin="round" stroke-miterlimit="10" d="
			M189.607,57.663c-1.289-0.919-3.892,0.498-3.892,0.498s1.677-1.276,1.708-2.46"/>
		
			<path fill="none" stroke="#3E2670" stroke-width="0.9897" stroke-linecap="round" stroke-linejoin="round" stroke-miterlimit="10" d="
			M178.984,63.867c-2.898-0.888-6.455,1.664-6.455,1.664s1.752-3.272,1.463-4.391"/>
		
			<path fill="none" stroke="#3E2670" stroke-width="0.9897" stroke-linecap="round" stroke-linejoin="round" stroke-miterlimit="10" d="
			M186.888,59.996c-2.589-1.576-6.666,0.019-6.666,0.019s2.505-2.738,2.501-3.894"/>
		
			<path fill="none" stroke="#3E2670" stroke-width="0.9897" stroke-linecap="round" stroke-linejoin="round" stroke-miterlimit="10" d="
			M176.238,66.7c-2.204,2.021-6.224,2.182-6.224,2.182s-0.639-2.115,0.464-3.929"/>
		
			<path fill="none" stroke="#3E2670" stroke-width="0.9897" stroke-linecap="round" stroke-linejoin="round" stroke-miterlimit="10" d="
			M173.239,71.265c-2.704,0.282-4.473,2.948-4.473,2.948s-0.367-2.251-1.298-4.131"/>
		
			<path fill="none" stroke="#3E2670" stroke-width="0.9897" stroke-linecap="round" stroke-linejoin="round" stroke-miterlimit="10" d="
			M172.533,74.847c-0.561,1.931-4.533,3.195-4.533,3.195s-1.927-1.901-1.851-3.766"/>
		
			<path fill="none" stroke="#3E2670" stroke-width="0.9897" stroke-linecap="round" stroke-linejoin="round" stroke-miterlimit="10" d="
			M171.118,82.447c-0.244,1.993-2.863,4.532-2.863,4.532s-2.52-1.594-2.745-3.447"/>
		
			<path fill="none" stroke="#3E2670" stroke-width="0.9897" stroke-linecap="round" stroke-linejoin="round" stroke-miterlimit="10" d="
			M171.198,79.851c-1.858-0.212-3.454,2.979-3.454,2.979s-0.811-2.358-1.815-3.356"/>
		
			<path fill="none" stroke="#3E2670" stroke-width="0.9897" stroke-linecap="round" stroke-linejoin="round" stroke-miterlimit="10" d="
			M179.697,58.108c-1.678,1.449-2.857,3.945-2.857,3.945s2.432,0.413,4.276-0.531"/>
	</g>
	<g>
		
			<path fill="none" stroke="#3E2670" stroke-width="0.9897" stroke-linecap="round" stroke-linejoin="round" stroke-miterlimit="10" d="
			M206.726,59.945c-0.963-1.256-3.867-0.665-3.867-0.665s1.978-0.729,2.354-1.851"/>
		
			<path fill="none" stroke="#3E2670" stroke-width="0.9897" stroke-linecap="round" stroke-linejoin="round" stroke-miterlimit="10" d="
			M194.751,62.762c-2.51-1.699-6.659-0.302-6.659-0.302s2.634-2.614,2.686-3.769"/>
		
			<path fill="none" stroke="#3E2670" stroke-width="0.9897" stroke-linecap="round" stroke-linejoin="round" stroke-miterlimit="10" d="
			M203.443,61.379c-2.013-2.266-6.379-1.936-6.379-1.936s3.198-1.883,3.533-2.989"/>
		
			<path fill="none" stroke="#3E2670" stroke-width="0.9897" stroke-linecap="round" stroke-linejoin="round" stroke-miterlimit="10" d="
			M191.295,64.666c-2.7,1.286-6.59,0.262-6.59,0.262s0.009-2.21,1.596-3.621"/>
		
			<path fill="none" stroke="#3E2670" stroke-width="0.9897" stroke-linecap="round" stroke-linejoin="round" stroke-miterlimit="10" d="
			M187.089,68.151c-2.668-0.523-5.14,1.507-5.14,1.507s0.309-2.26-0.03-4.33"/>
		
			<path fill="none" stroke="#3E2670" stroke-width="0.9897" stroke-linecap="round" stroke-linejoin="round" stroke-miterlimit="10" d="
			M185.364,71.369c-1.102,1.682-5.271,1.726-5.271,1.726s-1.285-2.383-0.666-4.143"/>
		
			<path fill="none" stroke="#3E2670" stroke-width="0.9897" stroke-linecap="round" stroke-linejoin="round" stroke-miterlimit="10" d="
			M181.783,78.22c-0.818,1.833-4.066,3.493-4.066,3.493s-1.942-2.263-1.614-4.1"/>
		
			<path fill="none" stroke="#3E2670" stroke-width="0.9897" stroke-linecap="round" stroke-linejoin="round" stroke-miterlimit="10" d="
			M182.621,75.761c-1.714-0.748-4.175,1.836-4.175,1.836s-0.084-2.493-0.752-3.741"/>
		
			<path fill="none" stroke="#3E2670" stroke-width="0.9897" stroke-linecap="round" stroke-linejoin="round" stroke-miterlimit="10" d="
			M197.12,57.465c-2.029,0.893-3.888,2.934-3.888,2.934s2.204,1.108,4.244,0.745"/>
	</g>
	
		<path fill="none" stroke="#3E2670" stroke-width="0.9897" stroke-linecap="round" stroke-linejoin="round" stroke-miterlimit="10" d="
		M210.334,68.227c-1.025-2.853-5.2-4.172-5.2-4.172s3.669-0.557,4.392-1.459"/>
	
		<path fill="none" stroke="#3E2670" stroke-width="0.9897" stroke-linecap="round" stroke-linejoin="round" stroke-miterlimit="10" d="
		M218.575,72.282c0.073-3.03-3.344-5.767-3.344-5.767s3.623,0.804,4.623,0.224"/>
	
		<path fill="none" stroke="#3E2670" stroke-width="0.9897" stroke-linecap="round" stroke-linejoin="round" stroke-miterlimit="10" d="
		M223.76,78.843c0.986-2.866-1.444-6.508-1.444-6.508s3.21,1.862,4.339,1.611"/>
	
		<path fill="none" stroke="#3E2670" stroke-width="0.9897" stroke-linecap="round" stroke-linejoin="round" stroke-miterlimit="10" d="
		M205.949,66.717c-2.936,0.567-6.445-1.401-6.445-1.401s0.564-2.137,2.454-3.104"/>
	
		<path fill="none" stroke="#3E2670" stroke-width="0.9897" stroke-linecap="round" stroke-linejoin="round" stroke-miterlimit="10" d="
		M200.663,68.013c-2.452-1.176-5.354,0.168-5.354,0.168s0.867-2.11,1.059-4.199"/>
	
		<path fill="none" stroke="#3E2670" stroke-width="0.9897" stroke-linecap="round" stroke-linejoin="round" stroke-miterlimit="10" d="
		M198.185,70.695c-1.489,1.351-5.535,0.347-5.535,0.347s-0.645-2.629,0.396-4.178"/>
	
		<path fill="none" stroke="#3E2670" stroke-width="0.9897" stroke-linecap="round" stroke-linejoin="round" stroke-miterlimit="10" d="
		M192.999,76.427c-1.252,1.569-4.812,2.361-4.812,2.361s-1.312-2.678-0.532-4.374"/>
	
		<path fill="none" stroke="#3E2670" stroke-width="0.9897" stroke-linecap="round" stroke-linejoin="round" stroke-miterlimit="10" d="
		M194.427,74.257c-1.471-1.154-4.502,0.729-4.502,0.729s0.544-2.434,0.212-3.81"/>
	
		<path fill="none" stroke="#3E2670" stroke-width="0.7696" stroke-linecap="round" stroke-linejoin="round" stroke-miterlimit="10" d="
		M211.794,73.188c-1.005-1.86-3.445-2.341-3.445-2.341s1.509-0.932,2.584-2.158"/>
	
		<path fill="none" stroke="#3E2670" stroke-width="0.7696" stroke-linecap="round" stroke-linejoin="round" stroke-miterlimit="10" d="
		M209.01,73.743c-1.554,0.17-3.641-2.311-3.641-2.311s0.795-1.949,2.158-2.447"/>
	
		<path fill="none" stroke="#3E2670" stroke-width="0.9897" stroke-linecap="round" stroke-linejoin="round" stroke-miterlimit="10" d="
		M203.85,75.023c-1.252,1.569-4.812,2.361-4.812,2.361s-1.312-2.678-0.532-4.374"/>
	
		<path fill="none" stroke="#3E2670" stroke-width="0.9897" stroke-linecap="round" stroke-linejoin="round" stroke-miterlimit="10" d="
		M205.178,73.941c-1.228-1.411-4.559-0.133-4.559-0.133s0.993-2.288,0.926-3.702"/>
	
		<path fill="none" stroke="#3E2670" stroke-width="0.9897" stroke-linecap="round" stroke-linejoin="round" stroke-miterlimit="10" d="
		M215.841,64.915c-2.121-0.645-4.861-0.308-4.861-0.308s0.95,2.277,2.733,3.331"/>
	
		<path fill="none" stroke="#3E2670" stroke-width="0.9897" stroke-linecap="round" stroke-linejoin="round" stroke-miterlimit="10" d="
		M224.187,71.637c-1.646-1.485-4.27-2.344-4.27-2.344s-0.108,2.465,1.058,4.176"/>
	
		<path fill="none" stroke="#3E2670" stroke-width="0.9897" stroke-linecap="round" stroke-linejoin="round" stroke-miterlimit="10" d="
		M229.556,79.488c-1.286-1.805-3.662-3.212-3.662-3.212s-0.638,2.383,0.131,4.307"/>
	<g>
		
			<path fill="none" stroke="#3E2670" stroke-width="0.9897" stroke-linecap="round" stroke-linejoin="round" stroke-miterlimit="10" d="
			M130.319,79.362c0.511,2.426,0.049,4.038,0.049,4.038s1.421-3.878,3.615-4.837"/>
		
			<path fill="none" stroke="#3E2670" stroke-width="0.9897" stroke-linecap="round" stroke-linejoin="round" stroke-miterlimit="10" d="
			M128.268,81.907c-0.388,1.974,0.576,5.344,0.576,5.344s2.92-1.367,3.71-3.07"/>
		
			<path fill="none" stroke="#3E2670" stroke-width="0.9897" stroke-linecap="round" stroke-linejoin="round" stroke-miterlimit="10" d="
			M126.761,92.47c0.626,1.907,3.127,4.397,3.127,4.397s1.9-2.571,1.76-4.432"/>
		
			<path fill="none" stroke="#3E2670" stroke-width="0.9897" stroke-linecap="round" stroke-linejoin="round" stroke-miterlimit="10" d="
			M129.395,102.347c1.346,1.504,4.654,2.814,4.654,2.814s0.713-3.091-0.166-4.741"/>
		
			<path fill="none" stroke="#3E2670" stroke-width="0.9897" stroke-linecap="round" stroke-linejoin="round" stroke-miterlimit="10" d="
			M126.694,87.66c2.026,1.897,2.183,5.323,2.183,5.323s1.253-3.742,2.845-4.34"/>
		
			<path fill="none" stroke="#3E2670" stroke-width="0.9897" stroke-linecap="round" stroke-linejoin="round" stroke-miterlimit="10" d="
			M127.925,97.745c2.528,1.188,3.754,4.393,3.754,4.393s0.018-3.931,1.348-4.979"/>
		
			<path fill="none" stroke="#3E2670" stroke-width="0.9897" stroke-linecap="round" stroke-linejoin="round" stroke-miterlimit="10" d="
			M132.235,107.525c2.809,0.065,5.27,2.488,5.27,2.488s-1.625-3.582-0.846-5.07"/>
	</g>
	<g>
		
			<path fill="none" stroke="#3E2670" stroke-width="0.8423" stroke-linecap="round" stroke-linejoin="round" stroke-miterlimit="10" d="
			M118.219,148.841c0.078,1.355,2.401,3.022,2.401,3.022s-2.019-1.025-3.164-0.644"/>
		
			<path fill="none" stroke="#3E2670" stroke-width="0.8423" stroke-linecap="round" stroke-linejoin="round" stroke-miterlimit="10" d="
			M121.188,150.129c1.043,2.319,3.961,3.334,3.961,3.334s-3.335-0.178-4.055,0.491"/>
		
			<path fill="none" stroke="#3E2670" stroke-width="0.8423" stroke-linecap="round" stroke-linejoin="round" stroke-miterlimit="10" d="
			M124.947,150.803c1.809,0.731,3.602,3.658,3.602,3.658s-1.444,1.354-3.232,1.095"/>
		
			<path fill="none" stroke="#3E2670" stroke-width="0.8423" stroke-linecap="round" stroke-linejoin="round" stroke-miterlimit="10" d="
			M129.853,152.413c0.738,2.193,4.335,2.725,4.335,2.725s-3.059,0.373-4.446,1.496"/>
		
			<path fill="none" stroke="#3E2670" stroke-width="0.8423" stroke-linecap="round" stroke-linejoin="round" stroke-miterlimit="10" d="
			M133.481,152.279c1.708,0.105,4.152,2.912,4.152,2.912s-1.401,1.262-2.963,1.547"/>
		
			<path fill="none" stroke="#3E2670" stroke-width="0.8423" stroke-linecap="round" stroke-linejoin="round" stroke-miterlimit="10" d="
			M142.384,151.634c1.708,0.105,3.833,2.214,3.833,2.214s-1.081,1.96-2.644,2.245"/>
		
			<path fill="none" stroke="#3E2670" stroke-width="0.8423" stroke-linecap="round" stroke-linejoin="round" stroke-miterlimit="10" d="
			M138.378,151.781c0.342,2.908,3.902,2.628,3.902,2.628s-3.072,0.859-3.239,2.294"/>
		
			<path fill="none" stroke="#3E2670" stroke-width="0.8423" stroke-linecap="round" stroke-linejoin="round" stroke-miterlimit="10" d="
			M146.351,150.364c0.855,2.802,4.514,2.403,4.514,2.403s-3.077,0.879-2.985,2.323"/>
	</g>
	
		<path fill="none" stroke="#3E2670" stroke-width="0.9897" stroke-linecap="round" stroke-linejoin="round" stroke-miterlimit="10" d="
		M227.827,86.466c1.405-0.729,1.329-3.692,1.329-3.692s0.373,2.074,1.412,2.641"/>
	
		<path fill="none" stroke="#3E2670" stroke-width="0.9897" stroke-linecap="round" stroke-linejoin="round" stroke-miterlimit="10" d="
		M153.271,186.897c-1.977,1.128-4.966,1.364-4.966,1.364s0.093-3.308,1.626-4.769"/>
	
		<path fill="none" stroke="#3E2670" stroke-width="0.9897" stroke-linecap="round" stroke-linejoin="round" stroke-miterlimit="10" d="
		M149.016,190.445c-2.551-0.701-5.319,1.879-5.319,1.879s2.843-2.982,2.721-5.368"/>
	
		<path fill="none" stroke="#3E2670" stroke-width="0.9897" stroke-linecap="round" stroke-linejoin="round" stroke-miterlimit="10" d="
		M145.71,194.123c-1.853,0.773-5.353,0.5-5.353,0.5s0.738-3.131,2.244-4.244"/>
	
		<path fill="none" stroke="#3E2670" stroke-width="0.9897" stroke-linecap="round" stroke-linejoin="round" stroke-miterlimit="10" d="
		M137.26,199.801c-1.893,0.677-5.406,0.239-5.406,0.239s0.853-3.069,2.408-4.101"/>
	
		<path fill="none" stroke="#3E2670" stroke-width="0.9897" stroke-linecap="round" stroke-linejoin="round" stroke-miterlimit="10" d="
		M128.236,205.527c-2,0.314-5.403-0.758-5.403-0.758s1.406-2.836,3.136-3.557"/>
	
		<path fill="none" stroke="#3E2670" stroke-width="0.9897" stroke-linecap="round" stroke-linejoin="round" stroke-miterlimit="10" d="
		M141.055,197.293c-2.607-0.977-5.751,0.394-5.751,0.394s2.796-2.771,2.62-4.46"/>
	
		<path fill="none" stroke="#3E2670" stroke-width="0.9897" stroke-linecap="round" stroke-linejoin="round" stroke-miterlimit="10" d="
		M132.902,202.912c-2.513-1.236-5.793-0.206-5.793-0.206s3.069-2.452,3.059-4.14"/>
	
		<path fill="none" stroke="#3E2670" stroke-width="0.9897" stroke-linecap="round" stroke-linejoin="round" stroke-miterlimit="10" d="
		M123.399,207.175c-2.604-1.06-5.842,0.173-5.842,0.173s2.939-2.626,2.826-4.297"/>
	
		<path fill="none" stroke="#3E2670" stroke-width="0.9897" stroke-linecap="round" stroke-linejoin="round" stroke-miterlimit="10" d="
		M160.164,191.854c-1.977,1.128-4.966,1.364-4.966,1.364s0.093-3.308,1.626-4.769"/>
	
		<path fill="none" stroke="#3E2670" stroke-width="0.9897" stroke-linecap="round" stroke-linejoin="round" stroke-miterlimit="10" d="
		M155.91,195.403c-2.551-0.701-5.319,1.879-5.319,1.879s2.843-2.982,2.721-5.368"/>
	
		<path fill="none" stroke="#3E2670" stroke-width="0.9897" stroke-linecap="round" stroke-linejoin="round" stroke-miterlimit="10" d="
		M152.603,199.08c-1.853,0.773-5.353,0.5-5.353,0.5s0.738-3.131,2.244-4.244"/>
	
		<path fill="none" stroke="#3E2670" stroke-width="0.9897" stroke-linecap="round" stroke-linejoin="round" stroke-miterlimit="10" d="
		M144.154,204.758c-1.893,0.677-5.406,0.239-5.406,0.239s0.853-3.069,2.408-4.101"/>
	
		<path fill="none" stroke="#3E2670" stroke-width="0.9897" stroke-linecap="round" stroke-linejoin="round" stroke-miterlimit="10" d="
		M135.13,210.484c-2,0.314-5.403-0.758-5.403-0.758s1.406-2.836,3.136-3.557"/>
	
		<path fill="none" stroke="#3E2670" stroke-width="0.9897" stroke-linecap="round" stroke-linejoin="round" stroke-miterlimit="10" d="
		M147.948,202.25c-2.607-0.977-5.751,0.394-5.751,0.394s2.796-2.771,2.62-4.46"/>
	
		<path fill="none" stroke="#3E2670" stroke-width="0.9897" stroke-linecap="round" stroke-linejoin="round" stroke-miterlimit="10" d="
		M139.796,207.87c-2.513-1.236-5.793-0.206-5.793-0.206s3.069-2.452,3.059-4.14"/>
	
		<path fill="none" stroke="#3E2670" stroke-width="0.9897" stroke-linecap="round" stroke-linejoin="round" stroke-miterlimit="10" d="
		M130.293,212.133c-2.604-1.06-5.842,0.173-5.842,0.173s2.663-1.826,2.55-3.497"/>
	
		<path fill="none" stroke="#3E2670" stroke-width="0.8412" stroke-linecap="round" stroke-linejoin="round" stroke-miterlimit="10" d="
		M167.277,194.864c-1.637,1.031-4.166,1.342-4.166,1.342s-0.044-2.813,1.204-4.109"/>
	
		<path fill="none" stroke="#3E2670" stroke-width="0.8412" stroke-linecap="round" stroke-linejoin="round" stroke-miterlimit="10" d="
		M164.121,198.089c-2.192-0.501-4.447,1.793-4.447,1.793s2.303-2.638,2.112-4.659"/>
	
		<path fill="none" stroke="#3E2670" stroke-width="0.8412" stroke-linecap="round" stroke-linejoin="round" stroke-miterlimit="10" d="
		M169.26,191.977c-2.241-0.188-4.152,2.399-4.152,2.399s1.91-2.935,1.437-4.909"/>
	
		<path fill="none" stroke="#3E2670" stroke-width="0.5906" stroke-linecap="round" stroke-linejoin="round" stroke-miterlimit="10" d="
		M177.996,201.123c-1.144,0.637-2.754,0.629-2.754,0.629s0.316-2.18,1.25-3.061"/>
	
		<path fill="none" stroke="#3E2670" stroke-width="0.5906" stroke-linecap="round" stroke-linejoin="round" stroke-miterlimit="10" d="
		M181.687,196.535c-1.071,0.823-2.681,1.094-2.681,1.094s0.067-2.192,0.9-3.218"/>
	
		<path fill="none" stroke="#3E2670" stroke-width="0.5906" stroke-linecap="round" stroke-linejoin="round" stroke-miterlimit="10" d="
		M179.582,199.085c-1.37-0.365-2.874,1.448-2.874,1.448s1.546-2.083,1.493-3.656"/>
	
		<path fill="none" stroke="#3E2670" stroke-width="0.4575" stroke-linecap="round" stroke-linejoin="round" stroke-miterlimit="10" d="
		M183.977,201.863c-0.852,0.55-2.097,0.626-2.097,0.626s0.134-1.701,0.811-2.429"/>
	
		<path fill="none" stroke="#3E2670" stroke-width="0.4575" stroke-linecap="round" stroke-linejoin="round" stroke-miterlimit="10" d="
		M186.597,198.129c-0.786,0.69-2.017,0.981-2.017,0.981s-0.059-1.698,0.532-2.532"/>
	
		<path fill="none" stroke="#3E2670" stroke-width="0.4575" stroke-linecap="round" stroke-linejoin="round" stroke-miterlimit="10" d="
		M185.099,200.207c-1.078-0.213-2.148,1.265-2.148,1.265s1.089-1.688,0.968-2.902"/>
	
		<path fill="none" stroke="#3E2670" stroke-width="0.8412" stroke-linecap="round" stroke-linejoin="round" stroke-miterlimit="10" d="
		M161.792,188.658c-2.241-0.188-4.152,2.399-4.152,2.399s1.91-2.935,1.437-4.909"/>
	
		<path fill="none" stroke="#3E2670" stroke-width="0.8412" stroke-linecap="round" stroke-linejoin="round" stroke-miterlimit="10" d="
		M161.449,201.334c-1.545,0.725-4.527,0.623-4.527,0.623s0.511-2.686,1.748-3.687"/>
	
		<path fill="none" stroke="#3E2670" stroke-width="0.8543" stroke-linecap="round" stroke-linejoin="round" stroke-miterlimit="10" d="
		M155.004,206.843c-1.607,0.655-4.653,0.409-4.653,0.409s0.62-2.679,1.922-3.627"/>
	
		<path fill="none" stroke="#3E2670" stroke-width="0.8311" stroke-linecap="round" stroke-linejoin="round" stroke-miterlimit="10" d="
		M146.4,212.549c-1.666,0.336-4.56-0.438-4.56-0.438s1.076-2.431,2.501-3.099"/>
	
		<path fill="none" stroke="#3E2670" stroke-width="0.8543" stroke-linecap="round" stroke-linejoin="round" stroke-miterlimit="10" d="
		M158.183,204.538c-2.285-0.744-4.945,0.556-4.945,0.556s2.307-2.495,2.091-3.945"/>
	
		<path fill="none" stroke="#3E2670" stroke-width="0.8311" stroke-linecap="round" stroke-linejoin="round" stroke-miterlimit="10" d="
		M150.218,210.185c-2.154-0.945-4.868,0.039-4.868,0.039s2.485-2.169,2.415-3.585"/>
	
		<path fill="none" stroke="#3E2670" stroke-width="0.8311" stroke-linecap="round" stroke-linejoin="round" stroke-miterlimit="10" d="
		M142.402,214.108c-2.224-0.794-4.895,0.359-4.895,0.359s2.37-2.311,2.213-3.708"/>
	
		<path fill="none" stroke="#3E2670" stroke-width="0.6733" stroke-linecap="round" stroke-linejoin="round" stroke-miterlimit="10" d="
		M176.286,193.717c-1.239,0.929-3.236,1.341-3.236,1.341s-0.218-2.241,0.694-3.356"/>
	
		<path fill="none" stroke="#3E2670" stroke-width="0.6733" stroke-linecap="round" stroke-linejoin="round" stroke-miterlimit="10" d="
		M173.715,196.472c-1.781-0.257-3.431,1.719-3.431,1.719s1.666-2.254,1.382-3.854"/>
	
		<path fill="none" stroke="#3E2670" stroke-width="0.6733" stroke-linecap="round" stroke-linejoin="round" stroke-miterlimit="10" d="
		M171.795,199.235c-1.185,0.679-3.57,0.791-3.57,0.791s0.233-2.176,1.155-3.055"/>
	
		<path fill="none" stroke="#3E2670" stroke-width="0.6733" stroke-linecap="round" stroke-linejoin="round" stroke-miterlimit="10" d="
		M166.573,203.783c-1.22,0.617-3.629,0.619-3.629,0.619s0.316-2.144,1.278-2.972"/>
	
		<path fill="none" stroke="#3E2670" stroke-width="0.6733" stroke-linecap="round" stroke-linejoin="round" stroke-miterlimit="10" d="
		M160.967,208.412c-1.323,0.381-3.711-0.054-3.711-0.054s0.709-2.034,1.815-2.667"/>
	
		<path fill="none" stroke="#3E2670" stroke-width="0.6733" stroke-linecap="round" stroke-linejoin="round" stroke-miterlimit="10" d="
		M168.921,201.769c-1.843-0.438-3.848,0.753-3.848,0.753s1.652-2.107,1.39-3.232"/>
	
		<path fill="none" stroke="#3E2670" stroke-width="0.6733" stroke-linecap="round" stroke-linejoin="round" stroke-miterlimit="10" d="
		M163.895,206.252c-1.801-0.622-3.928,0.352-3.928,0.352s1.864-1.915,1.714-3.054"/>
	
		<path fill="none" stroke="#3E2670" stroke-width="0.6733" stroke-linecap="round" stroke-linejoin="round" stroke-miterlimit="10" d="
		M157.841,209.934c-1.848-0.495-3.929,0.611-3.929,0.611s1.761-2.022,1.543-3.14"/>
</g>
</svg>
