<svg width="450" height="378" viewBox="0 0 450 378" fill="none" xmlns="http://www.w3.org/2000/svg">
<path d="M150.106 110.255L111.042 116.638C111.042 116.638 110.156 138.858 124.574 160.298C138.536 181.061 171.297 189.915 171.297 189.915L159.553 182L158.787 155.191C158.787 155.191 155.059 143.57 156.234 132.212C157 124.809 150.106 110.255 150.106 110.255Z" fill="#DDC190"/>
<path opacity="0.4" d="M150.106 110.255L111.042 116.638C111.042 116.638 110.381 134.956 122.276 156.978C135.17 180.85 171.297 189.914 171.297 189.914L159.553 182L158.787 155.191C158.787 155.191 155.059 143.57 156.234 132.212C157 124.809 150.106 110.255 150.106 110.255Z" fill="#FFE896"/>
<path opacity="0.2" d="M129.426 166.17C143.273 181.646 172.235 189.106 172.235 189.106C172.235 189.106 161.434 185.371 159.469 182.34C155.316 175.934 157.426 151.872 157.426 151.872C157.426 151.872 148.11 141.649 134.277 146.766C121.851 151.362 116.745 144.043 116.745 144.043C116.745 144.043 118.574 154.043 129.426 166.17Z" fill="#3E2670" fill-opacity="0.56"/>
<path d="M159.553 182C161.278 185.092 171.298 189.915 171.298 189.915C171.298 189.915 147.809 186.724 127.128 163.362C110.222 144.265 110.958 114.766 110.958 114.766L150.107 110.255C150.107 110.255 157.001 124.808 156.235 132.212C155.289 141.357 157.522 150.673 158.428 153.956C158.428 153.956 156.134 175.873 159.553 182Z" stroke="#3E2670" stroke-width="4" stroke-miterlimit="10"/>
<path d="M221.682 73.721C221.842 66.825 206.787 52.042 185.085 52.808C157.385 53.786 144.489 73.489 144.489 73.489C144.489 73.489 131.583 76.67 120.744 87.276C109.501 98.278 106.319 109.245 109.51 115.361C112.574 121.233 135.341 120.091 148.554 113.987C156.715 110.217 158.908 106.172 168.948 99.046C175.597 94.327 186.518 93.339 201.679 89.318C216.818 85.304 221.504 81.396 221.682 73.721Z" fill="#FFE896"/>
<path opacity="0.6" d="M158.24 73.8354C160.982 72.5014 164.012 71.8234 167.084 71.6104C170.159 71.3864 173.337 71.7375 176.346 72.7885C179.341 73.8395 182.148 75.7035 184.111 78.2185C186.125 80.6895 187.273 83.7135 187.606 86.7185C186.08 84.0925 184.454 81.6884 182.391 79.8064C180.344 77.9174 177.949 76.5374 175.343 75.6144C172.734 74.6924 169.94 74.1955 167.071 73.9425C164.197 73.7175 161.266 73.7104 158.24 73.8354Z" fill="white"/>
<path opacity="0.6" d="M177.958 60.6436C181.085 60.7526 184.212 61.3866 187.162 62.6346C190.111 63.8566 192.924 65.7166 195.049 68.3076C197.171 70.8836 198.482 74.1676 198.662 77.4466C198.878 80.7136 198.172 83.9816 196.566 86.6876C196.981 83.5966 196.935 80.5816 196.342 77.7606C195.73 74.9426 194.505 72.3806 192.728 70.2066C190.951 68.0236 188.638 66.2626 186.117 64.7196C183.58 63.1846 180.8 61.9606 177.958 60.6436Z" fill="white"/>
<path opacity="0.6" d="M200.082 61.0947C201.126 61.3047 202.159 61.6217 203.182 61.9987C203.665 62.2397 204.148 62.4947 204.629 62.7627C205.117 63.0217 205.596 63.3007 206.012 63.6787C206.443 64.0347 206.876 64.3977 207.298 64.7757C207.69 65.1867 208.028 65.6547 208.39 66.1027C208.777 66.5357 209.028 67.0637 209.299 67.5817C209.567 68.1017 209.835 68.6217 209.977 69.1937C210.726 71.4217 210.679 73.8477 210.053 75.9847C209.41 78.1197 208.307 80.0777 206.693 81.5277C207.225 79.4497 207.596 77.4767 207.732 75.5597C207.863 73.6447 207.687 71.8087 207.123 70.1167C207.037 69.6727 206.823 69.2767 206.635 68.8697C206.461 68.4557 206.292 68.0357 206.019 67.6647L205.291 66.4877C204.986 66.1327 204.691 65.7637 204.395 65.3857C204.238 65.2057 204.116 64.9897 203.941 64.8217L203.418 64.3077C203.07 63.9597 202.725 63.5987 202.379 63.2237C201.637 62.5397 200.836 61.8997 200.082 61.0947Z" fill="white"/>
<path opacity="0.6" d="M133.404 85.6444C136.287 84.1204 139.412 83.1374 142.601 82.4714C145.792 81.7914 149.09 81.5064 152.404 81.6944C154.06 81.7854 155.719 82.0314 157.35 82.4194C158.979 82.8094 160.591 83.3554 162.087 84.1544C163.591 84.9224 165.005 85.8864 166.198 87.0714C167.371 88.2744 168.359 89.6314 169.013 91.1244C167.812 90.0154 166.604 89.0224 165.284 88.2274C163.988 87.4034 162.576 86.8164 161.161 86.3054C158.307 85.3184 155.279 84.8884 152.222 84.6894C149.157 84.5044 146.049 84.5924 142.915 84.7834C139.783 84.9964 136.633 85.3134 133.404 85.6444Z" fill="white"/>
<path opacity="0.6" d="M121.697 100.011C124.204 98.0493 127.104 96.6403 130.101 95.5723C133.102 94.4873 136.262 93.8273 139.456 93.5363C141.052 93.3573 142.664 93.3843 144.267 93.3973C145.069 93.4493 145.87 93.5233 146.668 93.6053C147.067 93.6503 147.466 93.6763 147.863 93.7363L149.046 93.9733C152.21 94.4833 155.242 95.6803 157.997 97.2123C154.827 96.8603 151.828 96.3563 148.775 96.2993C147.264 96.1853 145.744 96.2753 144.241 96.2433C142.732 96.3363 141.227 96.3453 139.725 96.5233C136.72 96.7873 133.724 97.2323 130.726 97.8193C127.73 98.4313 124.749 99.1663 121.697 100.011Z" fill="white"/>
<path opacity="0.6" d="M126.674 110.686C128.951 110.242 131.087 109.855 133.224 109.401L139.587 107.939C141.705 107.423 143.831 106.913 145.986 106.425C148.147 105.948 150.318 105.476 152.608 105.157C150.814 106.631 148.801 107.716 146.735 108.662C144.659 109.587 142.5 110.322 140.283 110.856C138.061 111.372 135.78 111.688 133.481 111.737C131.181 111.732 128.847 111.491 126.674 110.686Z" fill="white"/>
<path d="M151.298 113.404C157.538 109.965 160.015 105.388 168.95 99.047C175.599 94.328 186.52 93.34 201.681 89.319C216.819 85.304 221.504 81.396 221.682 73.721C221.842 66.825 206.787 52.042 185.085 52.808C157.385 53.786 144.489 73.489 144.489 73.489C144.489 73.489 131.583 76.67 120.744 87.276C109.501 98.278 106.319 109.245 109.51 115.361C109.892 116.092 111.042 117.148 111.042 117.148" stroke="#3E2670" stroke-width="5" stroke-miterlimit="10" stroke-linecap="round"/>
</svg>
