<?xml version="1.0" encoding="utf-8"?>
<!-- Generator: Adobe Illustrator 23.0.1, SVG Export Plug-In . SVG Version: 6.00 Build 0)  -->
<svg version="1.1" id="lashes" xmlns="http://www.w3.org/2000/svg" xmlns:xlink="http://www.w3.org/1999/xlink" x="0px" y="0px"
	 width="450px" height="378px" viewBox="0 0 450 378" enable-background="new 0 0 450 378" xml:space="preserve">
<path fill="#3E2670" d="M175.409,130.923c-1.632,0-2.764-0.33-2.859-0.359c-0.67-0.203-1.049-0.91-0.846-1.58
	c0.203-0.67,0.913-1.049,1.58-0.846c0.149,0.042,3.817,1.079,7.168-1.334c0.568-0.409,1.361-0.28,1.769,0.288
	c0.409,0.568,0.28,1.36-0.288,1.769C179.627,130.52,177.212,130.923,175.409,130.923z"/>
<path fill="#3E2670" d="M173.1,133.826c-1.704,0-2.979-0.374-3.081-0.405c-0.67-0.203-1.049-0.91-0.846-1.58
	c0.203-0.668,0.911-1.047,1.576-0.848l0,0c0.038,0.012,3.773,1.083,6.35-0.928c0.552-0.429,1.349-0.331,1.779,0.22
	c0.43,0.552,0.332,1.348-0.22,1.779C176.861,133.465,174.773,133.826,173.1,133.826z"/>
<path fill="#3E2670" d="M179.747,128.549c-1.052,0-2.36-0.188-3.855-0.79c-0.649-0.261-0.964-1-0.703-1.649
	c0.261-0.649,0.998-0.966,1.649-0.703c2.808,1.131,4.542,0.364,4.614,0.331c0.63-0.29,1.383-0.023,1.681,0.601
	s0.05,1.369-0.57,1.677C182.495,128.05,181.458,128.549,179.747,128.549z"/>
<path fill="#3E2670" d="M228.155,106.212c-0.598,0-1.129-0.424-1.244-1.032c-0.13-0.688,0.322-1.351,1.01-1.48
	c4.058-0.768,5.833-4.139,5.906-4.282c0.319-0.62,1.079-0.869,1.703-0.553c0.622,0.316,0.872,1.073,0.559,1.696
	c-0.095,0.188-2.38,4.624-7.697,5.629C228.313,106.205,228.233,106.212,228.155,106.212z"/>
<path fill="#3E2670" d="M232.78,106.037c-0.616,0-1.157-0.451-1.251-1.08c-0.104-0.692,0.373-1.337,1.065-1.441
	c3.263-0.489,5.027-3.926,5.045-3.96c0.314-0.625,1.075-0.878,1.701-0.562c0.626,0.314,0.877,1.076,0.563,1.702
	c-0.095,0.189-2.386,4.646-6.934,5.328C232.906,106.032,232.843,106.037,232.78,106.037z"/>
<path fill="#3E2670" d="M226.91,106.142c-0.518,0-1.003-0.319-1.19-0.833c-0.24-0.657,0.099-1.385,0.756-1.625
	c0.057-0.023,1.806-0.75,2.922-3.565c0.259-0.651,0.998-0.965,1.645-0.711c0.65,0.258,0.969,0.995,0.711,1.645
	c-1.56,3.935-4.293,4.971-4.408,5.013C227.201,106.117,227.055,106.142,226.91,106.142z"/>
</svg>
