<?xml version="1.0" encoding="utf-8"?>
<!-- Generator: Adobe Illustrator 23.0.1, SVG Export Plug-In . SVG Version: 6.00 Build 0)  -->
<svg version="1.1" id="Lips" xmlns="http://www.w3.org/2000/svg" xmlns:xlink="http://www.w3.org/1999/xlink" x="0px" y="0px"
	 width="450px" height="378px" viewBox="0 0 450 378" enable-background="new 0 0 450 378" xml:space="preserve">
<path fill="#F3F3F3" d="M213.108,156.128c0,0,21.221-6.02,25.07-9.874c0,0,5.17,16.819-2.493,20.121
	C228.022,169.678,220.395,169.682,213.108,156.128"/>
<path fill="#3E2670" d="M219.098,161.765c0,0,14.35-2.791,18.402-7.242c0,0,1.739,10-5.184,11.558
	C225.393,167.638,221.907,165.011,219.098,161.765"/>
<path fill="#AD7A66" d="M228.588,170.453c-9.824,0.006-15.672-8.931-17.517-14.232c-0.203-0.584-0.146-1.227,0.157-1.766
	c0.303-0.538,0.823-0.922,1.427-1.052c0.155-0.033,15.524-3.382,23.695-8.933c0.536-0.365,1.203-0.469,1.824-0.284
	c0.62,0.183,1.125,0.635,1.376,1.231c0.194,0.461,4.717,11.386,0.932,18.72c-1.579,3.06-4.294,5.038-8.068,5.88
	C231.078,170.314,229.802,170.453,228.588,170.453 M216.124,157.014c1.915,3.749,6.727,10.714,15.35,8.792
	c2.5-0.557,4.192-1.748,5.171-3.641c1.853-3.583,0.835-9.145-0.226-12.67C229.647,153.333,220.524,155.91,216.124,157.014
	 M213.108,155.512h0.008H213.108z"/>
</svg>
