<?xml version="1.0" encoding="utf-8"?>
<!-- Generator: Adobe Illustrator 23.0.1, SVG Export Plug-In . SVG Version: 6.00 Build 0)  -->
<svg version="1.1" id="Lips" xmlns="http://www.w3.org/2000/svg" xmlns:xlink="http://www.w3.org/1999/xlink" x="0px" y="0px"
	 width="450px" height="378px" viewBox="0 0 450 378" enable-background="new 0 0 450 378" xml:space="preserve">
<path fill="#D23A34" d="M212.388,160.66c0,0,2.837-2.291,4.415-3.866c2.559-2.554,2.648-3.064,3.509-3.656
	c1.183-0.813,4.382,0.107,5.729-0.39c1.143-0.422,2.534-2.607,3.658-3.223c1.709-0.936,2.905,0.326,6.12,0.311
	c2.301-0.011,5.1,0.259,5.1,0.259l-0.285,0.74c0,0-0.607,1.491-1.02,4.818c-0.283,2.28,0.104,3.633-1.892,6.091
	c-1.207,1.488-3.432,1.958-6.109,2.938c-2.677,0.98-4.919,2.211-7.642,2.053c-3.736-0.217-3.756-1.59-5.867-2.844
	c-2.787-1.655-4.57-2.805-4.57-2.805L212.388,160.66z"/>
<path fill="none" stroke="#3E2670" stroke-width="3" stroke-linecap="round" stroke-linejoin="round" stroke-miterlimit="10" d="
	M227.933,152.175c-1.347,0.497-4.513-0.318-5.696,0.495c-0.862,0.592-1.964,1.551-4.522,4.105c-1.578,1.575-5.258,3.471-5.258,3.471
	s8.583-0.709,11.975-2.071c1.666-0.669,3.756,0.769,6.377-0.504c2.433-1.182,2.661-2.806,3.8-3.432
	c1.887-1.037,6.319-4.539,6.319-4.539s-0.771,0.056-3.072,0.066c-3.214,0.015-4.454-0.626-6.011-0.277
	C230.097,149.882,229.077,151.753,227.933,152.175z"/>
<path fill="none" stroke="#3E2670" stroke-width="3" stroke-linecap="round" stroke-linejoin="round" stroke-miterlimit="10" d="
	M212.941,160.473c0,0,2.391,1.215,4.892,3.296c1.887,1.571,3.478,2.758,6.533,2.919c2.723,0.144,4.625-0.853,7.302-1.832
	c2.677-0.98,4.635-1.453,5.842-2.94c1.995-2.458,1.563-4.499,1.846-6.78c0.413-3.327,1.365-5.118,1.365-5.118"/>
<path fill="none" stroke="#C2A87C" stroke-width="2" stroke-linecap="round" stroke-linejoin="round" stroke-miterlimit="10" d="
	M227.298,171.021c3.745-2.468,10.553-3.745,10.553-3.745"/>
</svg>
