<?xml version="1.0" encoding="utf-8"?>
<!-- Generator: Adobe Illustrator 23.0.1, SVG Export Plug-In . SVG Version: 6.00 Build 0)  -->
<svg version="1.1" id="Mouth_Style" xmlns="http://www.w3.org/2000/svg" xmlns:xlink="http://www.w3.org/1999/xlink" x="0px"
	 y="0px" width="450px" height="378px" viewBox="0 0 450 378" enable-background="new 0 0 450 378" xml:space="preserve">
<path fill="#FFFFFF" d="M240.902,159.39c-23.662,14.059-34.904-3.603-34.904-3.603s14.4,2.086,29.999-8.704
	c0.048-0.033-0.18,3.58,1.481,7.314C238.862,157.51,240.902,159.39,240.902,159.39z"/>
<path fill="#DBDCDD" d="M223.762,165.543c-12.248,0-18.313-9.222-18.396-9.353l0.74-1.145c0.139,0.019,14.313,1.901,29.465-8.578
	l0.769-0.052c0.409,0.209,0.414,0.591,0.418,0.871c0.035,2.499,0.508,4.789,1.406,6.808c1.307,2.937,3.229,4.727,3.247,4.745
	l-0.125,1.196C234.463,164.088,228.624,165.543,223.762,165.543z M207.602,156.676c3.08,3.687,13.448,13.18,32.1,2.545
	c-0.752-0.848-1.971-2.408-2.91-4.518c-0.84-1.889-1.34-3.986-1.489-6.247C223.024,156.515,211.788,156.881,207.602,156.676z"/>
<path fill="#DBDCDD" d="M220.678,161.109c-8.671,0-14.498-3.885-14.589-3.948l0.847-1.238c0.135,0.092,13.708,9.094,30.139-1.381
	l0.807,1.265C231.574,159.828,225.657,161.109,220.678,161.109z"/>
<path fill="#DBDCDD" d="M234.101,163.764l-0.422-0.621c-1.481-2.186-3.377-6.007-3.987-11.802l-0.078-0.746l1.491-0.157l0.079,0.746
	c0.577,5.486,2.351,9.074,3.737,11.118l0.421,0.621L234.101,163.764z"/>
<path fill="#DBDCDD" d="M227.298,165.785l-0.373-0.65c-2.848-4.962-3.181-10.558-3.115-11.785l0.041-0.749l1.498,0.081l-0.041,0.749
	c-0.062,1.133,0.254,6.315,2.918,10.957l0.373,0.651L227.298,165.785z"/>
<path fill="#DBDCDD" d="M219.661,165.335l-0.592-1.681c-0.87-2.433-1.622-4.534-1.76-8.48l-0.026-0.75l1.499-0.053l0.026,0.75
	c0.13,3.713,0.846,5.712,1.673,8.027l0.596,1.692L219.661,165.335z"/>
<path fill="#DBDCDD" d="M213.521,162.782c-0.072-0.141-1.765-3.494-1.428-6.92l1.493,0.146c-0.294,2.993,1.254,6.059,1.27,6.09
	L213.521,162.782z"/>
<path fill="#3E2670" d="M225.164,166.448c-12.485,0-20.364-9.637-20.475-9.776l1.473-2.404c0.146,0.029,15.067,2.802,32.155-10.725
	c0.648-0.513,1.592-0.404,2.106,0.245c0.515,0.65,0.404,1.593-0.245,2.107c-12.703,10.055-24.178,11.657-30.2,11.657
	c-0.065,0-0.128,0-0.192,0c4.997,4.266,16.412,10.87,31.434,0.032c0.671-0.484,1.607-0.334,2.095,0.339
	c0.484,0.672,0.333,1.609-0.339,2.094C236.39,164.769,230.375,166.448,225.164,166.448z"/>
</svg>
