<?xml version="1.0" encoding="utf-8"?>
<!-- Generator: Adobe Illustrator 23.0.1, SVG Export Plug-In . SVG Version: 6.00 Build 0)  -->
<svg version="1.1" id="Mouth_Style" xmlns="http://www.w3.org/2000/svg" xmlns:xlink="http://www.w3.org/1999/xlink" x="0px"
	 y="0px" width="450px" height="378px" viewBox="0 0 450 378" enable-background="new 0 0 450 378" xml:space="preserve">
<path fill="#3E2670" d="M204.643,156.9c0,0,12.904-2.267,21.566-5.87c9.99-4.156,15.324-9.237,15.324-9.237s0.27,7.562-2.426,14.12
	c-1.795,4.366-2.592,8.956-6.71,10.787C223.586,170.617,204.643,156.9,204.643,156.9z"/>
<path fill="#B96DAD" d="M219.581,157.742c-3.638,0.445-6.902,1.448-9.387,2.757c6.293,3.757,16.426,8.769,22.202,6.201
	c1.281-0.569,2.24-1.406,3.008-2.42c0.137-0.467,0.185-0.938,0.127-1.407C235.061,159.019,227.919,156.722,219.581,157.742z"/>
<path fill="#FFFFFF" d="M241.533,141.793c0,0-5.334,5.081-15.324,9.237c-8.663,3.603-21.566,5.87-21.566,5.87
	s2.686,1.944,6.504,4.16c9.111-0.063,24.864-6.455,29.867-12.229C241.639,144.888,241.533,141.793,241.533,141.793z"/>
<path fill="none" stroke="#3E2670" stroke-width="3" stroke-linecap="round" stroke-linejoin="bevel" stroke-miterlimit="10" d="
	M204.643,156.9c0,0,12.904-2.267,21.566-5.87c9.99-4.156,15.324-9.237,15.324-9.237s0.27,7.562-2.426,14.12
	c-1.795,4.366-2.592,8.956-6.71,10.787C223.586,170.617,204.643,156.9,204.643,156.9z"/>
<path fill="none" stroke="#C5AB86" stroke-width="2" stroke-linecap="round" stroke-miterlimit="10" d="M224.228,171.356
	c0,0,5.953,1.739,10.121,0.092c3.755-1.483,5.278-4.566,5.278-4.566"/>
</svg>
