<?xml version="1.0" encoding="utf-8"?>
<!-- Generator: Adobe Illustrator 23.0.1, SVG Export Plug-In . SVG Version: 6.00 Build 0)  -->
<svg version="1.1" id="Fakial_hair" xmlns="http://www.w3.org/2000/svg" xmlns:xlink="http://www.w3.org/1999/xlink" x="0px"
	 y="0px" width="450px" height="378px" viewBox="0 0 450 378" enable-background="new 0 0 450 378" xml:space="preserve">
<path fill="#453823" d="M243.426,142.83c0,0-3.466-4.968-7.764-5.384c-2.699-0.261-6.3,2.61-12.087,4.788
	c-5.426,2.043-9.082,1.61-12.87,4.64c-3.813,3.05-6.285,11.277-6.285,11.277s1.907,0.498,4.39,0.092
	c2.265-0.37,3.697-2.657,3.697-2.657s3.059,1.281,5.269,0.439c1.941-0.739,3.258-3.004,3.258-3.004s1.916,1.132,5.107,0.277
	c2.588-0.693,4.113-3.951,4.113-3.951s2.516,0.56,4.575-0.254c1.987-0.786,2.842-3.004,2.842-3.004s2.509-0.425,3.743-1.248
	C242.663,144.008,243.426,142.83,243.426,142.83z"/>
<path fill="#6A604F" d="M243.171,142.113c0,0-0.357,0.698-2.81,1.206c-2.468,0.511-4.404,0.128-4.404,0.128
	s-0.236,2.569-2.362,3.447c-2.5,1.033-5.106-1.064-5.106-1.064s-0.669,3.655-3.064,4.511c-2.588,0.924-5.404-0.979-5.404-0.979
	s-0.851,3.277-2.936,4.213c-2.291,1.029-5.447-0.936-5.447-0.936s-0.406,1.75-2.872,3.319c-2.106,1.34-4.601,1.477-4.601,1.477
	c0.898-0.008,1.907,0.498,4.39,0.092c2.265-0.37,3.697-2.657,3.697-2.657s3.059,1.281,5.269,0.439
	c1.941-0.739,3.258-3.004,3.258-3.004s1.916,1.132,5.107,0.277c2.588-0.693,4.113-3.951,4.113-3.951s2.516,0.56,4.575-0.254
	c1.987-0.786,2.842-3.004,2.842-3.004s2.509-0.425,3.743-1.248C242.409,143.292,243.171,142.113,243.171,142.113z"/>
<path fill="none" stroke="#3E2670" stroke-width="3" stroke-miterlimit="10" d="M243.426,142.83c0,0-3.466-4.968-7.764-5.384
	c-2.699-0.261-6.3,2.61-12.087,4.788c-5.426,2.043-9.082,1.61-12.87,4.64c-3.813,3.05-6.285,11.277-6.285,11.277
	s1.921,0.807,4.39,0.092c2.204-0.638,3.697-2.657,3.697-2.657s3.059,1.281,5.269,0.439c1.941-0.739,3.258-3.004,3.258-3.004
	s1.916,1.132,5.107,0.277c2.588-0.693,4.113-3.951,4.113-3.951s2.516,0.56,4.575-0.254c1.987-0.786,2.842-3.004,2.842-3.004
	s2.509-0.425,3.743-1.248C242.663,144.008,243.426,142.83,243.426,142.83z"/>
</svg>
