<?xml version="1.0" encoding="utf-8"?>
<!-- Generator: Adobe Illustrator 23.0.1, SVG Export Plug-In . SVG Version: 6.00 Build 0)  -->
<svg version="1.1" id="Fakial_hair" xmlns="http://www.w3.org/2000/svg" xmlns:xlink="http://www.w3.org/1999/xlink" x="0px"
	 y="0px" width="450px" height="378px" viewBox="0 0 450 378" enable-background="new 0 0 450 378" xml:space="preserve">
<path fill="#3E2670" d="M207.59,153.515c-0.055,0-0.111-0.003-0.167-0.009c-0.823-0.091-1.417-0.833-1.326-1.656l0.42-3.799
	c0.091-0.823,0.828-1.419,1.656-1.326c0.823,0.091,1.417,0.833,1.326,1.656l-0.42,3.799
	C208.994,152.947,208.344,153.515,207.59,153.515z"/>
<path fill="#3E2670" d="M212.619,152.776c-0.044,0-0.089-0.002-0.134-0.006c-0.825-0.073-1.435-0.801-1.362-1.626l0.383-4.34
	c0.073-0.825,0.809-1.437,1.626-1.362c0.825,0.073,1.435,0.801,1.362,1.626l-0.383,4.34
	C214.042,152.188,213.388,152.776,212.619,152.776z"/>
<path fill="#3E2670" d="M218.021,151.585c-0.81,0-1.477-0.645-1.499-1.459l-0.128-4.723c-0.022-0.828,0.631-1.518,1.459-1.54
	c0.784-0.021,1.518,0.63,1.54,1.459l0.128,4.723c0.022,0.828-0.631,1.518-1.459,1.54
	C218.048,151.585,218.035,151.585,218.021,151.585z"/>
<path fill="#3E2670" d="M223.446,149.798c-0.675,0-1.288-0.458-1.456-1.142l-0.958-3.894c-0.198-0.805,0.294-1.617,1.098-1.815
	c0.807-0.202,1.618,0.294,1.815,1.098l0.958,3.894c0.198,0.805-0.294,1.617-1.098,1.815
	C223.685,149.784,223.564,149.798,223.446,149.798z"/>
<path fill="#3E2670" d="M228.106,147.82c-0.595,0-1.158-0.357-1.393-0.943l-1.404-3.511c-0.308-0.769,0.066-1.642,0.836-1.95
	c0.769-0.308,1.642,0.066,1.949,0.835l1.404,3.511c0.308,0.769-0.066,1.642-0.836,1.95
	C228.48,147.785,228.292,147.82,228.106,147.82z"/>
<path fill="#3E2670" d="M232.384,145.394c-0.52,0-1.024-0.271-1.302-0.753l-1.724-3c-0.412-0.718-0.165-1.635,0.554-2.048
	c0.718-0.412,1.635-0.166,2.048,0.554l1.724,3c0.412,0.718,0.165,1.635-0.554,2.048C232.895,145.33,232.638,145.394,232.384,145.394
	z"/>
<path fill="#3E2670" d="M236.895,142.649c-0.425,0-0.846-0.179-1.143-0.527l-1.851-2.17c-0.537-0.63-0.462-1.577,0.168-2.115
	c0.633-0.537,1.578-0.461,2.115,0.168l1.851,2.17c0.537,0.63,0.462,1.577-0.168,2.115
	C237.584,142.531,237.238,142.649,236.895,142.649z"/>
<path fill="#3E2670" d="M239.914,139.649c-0.354,0-0.709-0.125-0.994-0.378l-1.511-1.34c-0.62-0.55-0.677-1.498-0.127-2.118
	s1.498-0.677,2.117-0.126l1.511,1.34c0.62,0.55,0.677,1.498,0.127,2.118C240.74,139.479,240.328,139.649,239.914,139.649z"/>
<path fill="#3E2670" d="M202.609,153.033c-0.099,0-0.199-0.01-0.3-0.03c-0.812-0.165-1.336-0.957-1.172-1.769l0.397-1.959
	c0.165-0.812,0.956-1.334,1.769-1.172c0.812,0.165,1.336,0.957,1.172,1.769l-0.397,1.959
	C203.934,152.542,203.308,153.033,202.609,153.033z"/>
</svg>
