<?xml version="1.0" encoding="utf-8"?>
<!-- Generator: Adobe Illustrator 23.0.1, SVG Export Plug-In . SVG Version: 6.00 Build 0)  -->
<svg version="1.1" id="Fakial_hair" xmlns="http://www.w3.org/2000/svg" xmlns:xlink="http://www.w3.org/1999/xlink" x="0px"
	 y="0px" width="450px" height="378px" viewBox="0 0 450 378" enable-background="new 0 0 450 378" xml:space="preserve">
<path fill="#2F2B2C" stroke="#3E2670" stroke-width="2.5" stroke-miterlimit="10" d="M248.473,142.796l3.096-3.568
	c0,0-6.711,1.071-15.074,0.33c-7.781-0.69-12.038,4.094-12.038,4.094s-7.278-0.605-13.681,6.699
	c-5.949,6.786-8.733,9.481-8.733,9.481l4.947,0.529l-5.371,4.898c0,0,4.676,1.107,9.884-2.568c9.24-6.52,14.569-15.47,14.569-15.47
	s11.594,3.902,21.969,0.804c4.026-1.202,7.357-4.951,7.357-4.951L248.473,142.796z"/>
<path fill="#2F2B2C" stroke="#3E2670" stroke-width="2.5" stroke-miterlimit="10" d="M230.787,177.596l3.924-0.49l0.386-5.201
	l3.582,3.287l2.192-2.128c0,0,3.474,6.136-0.967,9.104C234.617,185.702,230.787,177.596,230.787,177.596z"/>
</svg>
