<?xml version="1.0" encoding="utf-8"?>
<!-- Generator: Adobe Illustrator 23.0.1, SVG Export Plug-In . SVG Version: 6.00 Build 0)  -->
<svg version="1.1" id="Nose" xmlns="http://www.w3.org/2000/svg" xmlns:xlink="http://www.w3.org/1999/xlink" x="0px" y="0px"
	 width="450px" height="378px" viewBox="0 0 450 378" enable-background="new 0 0 450 378" xml:space="preserve">
<path fill="#3E2670" d="M219.517,141.372c-1.198,0-2.288-0.534-2.927-1.439c-0.532-0.753-1-2.086-0.209-4.164
	c0.294-0.774,1.162-1.165,1.935-0.869c0.774,0.294,1.164,1.161,0.869,1.935c-0.287,0.753-0.256,1.207-0.144,1.367
	c0.075,0.106,0.28,0.171,0.5,0.17c0.853-0.02,1.365-1.488,1.369-1.502l0.586-1.817l1.63,0.989c0.237,0.144,1.009,0.545,1.684,0.651
	c0.771,0.12,2.614,0.198,3.021-1.711c0.233-1.097-0.396-2.215-1.684-2.99c-1.012-0.609-1.948-1.062-2.853-1.5
	c-2.958-1.432-5.752-2.784-9.326-8.741c-0.426-0.71-0.196-1.631,0.515-2.058c0.709-0.427,1.631-0.196,2.058,0.515
	c3.114,5.189,5.189,6.194,8.061,7.584c0.92,0.445,1.963,0.951,3.092,1.63c2.398,1.443,3.575,3.813,3.07,6.185
	c-0.624,2.929-3.212,4.559-6.421,4.051c-0.464-0.073-0.914-0.206-1.312-0.354c-0.696,1.045-1.821,2.032-3.424,2.068
	C219.577,141.372,219.547,141.372,219.517,141.372z"/>
</svg>
