<?xml version="1.0" encoding="utf-8"?>
<!-- Generator: Adobe Illustrator 23.0.1, SVG Export Plug-In . SVG Version: 6.00 Build 0)  -->
<svg version="1.1" id="Nose" xmlns="http://www.w3.org/2000/svg" xmlns:xlink="http://www.w3.org/1999/xlink" x="0px" y="0px"
	 width="450px" height="378px" viewBox="0 0 450 378" enable-background="new 0 0 450 378" xml:space="preserve">
<path fill="#3E2670" d="M215.956,142.308c-0.192,0-0.391-0.009-0.598-0.028c-2.933-0.269-3.751-3.099-3.775-4.558
	c-0.013-0.828,0.647-1.51,1.476-1.524c0.814-0.018,1.51,0.647,1.524,1.476c0.005,0.145,0.079,1.529,1.048,1.618
	c1.446,0.131,1.801-0.67,1.804-0.679l0.393-1.027l1.1,0.065c0.026,0.002,2.595,0.146,4.815-0.527
	c2.037-0.617,3.063-2.913,2.744-4.67c-0.579-3.182-3.345-3.943-4.179-4.1c-1.944-0.366-4.095,0.49-4.117,0.499
	c-0.766,0.317-1.643-0.048-1.959-0.813c-0.316-0.766,0.048-1.643,0.813-1.959c0.12-0.05,2.974-1.21,5.818-0.674
	c2.699,0.51,5.842,2.487,6.574,6.511c0.63,3.458-1.535,7.082-4.826,8.078c-1.862,0.564-3.838,0.666-4.957,0.67
	C218.975,141.499,217.779,142.308,215.956,142.308z"/>
</svg>
