<?xml version="1.0" encoding="utf-8"?>
<!-- Generator: Adobe Illustrator 23.0.1, SVG Export Plug-In . SVG Version: 6.00 Build 0)  -->
<svg version="1.1" id="Nose" xmlns="http://www.w3.org/2000/svg" xmlns:xlink="http://www.w3.org/1999/xlink" x="0px" y="0px"
	 width="450px" height="378px" viewBox="0 0 450 378" enable-background="new 0 0 450 378" xml:space="preserve">
<path fill="#3E2670" d="M224.894,132.314c-0.059,1.243-0.491,2.368-1.133,3.414c-0.652,1.031-1.564,1.958-2.696,2.583
	c-0.563,0.315-1.171,0.555-1.798,0.712c-0.63,0.147-1.272,0.202-1.902,0.18c-1.259-0.072-2.444-0.456-3.435-1.094
	c-0.195-0.125-0.251-0.385-0.126-0.579c0.083-0.129,0.224-0.197,0.367-0.192h0.009c1.107,0.04,2.133,0.022,3.082-0.14
	c0.472-0.096,0.924-0.211,1.356-0.371c0.429-0.166,0.839-0.367,1.233-0.605c0.786-0.475,1.5-1.106,2.197-1.815
	c0.7-0.706,1.37-1.523,2.078-2.35l0.03-0.036c0.151-0.176,0.416-0.196,0.592-0.046C224.849,132.063,224.899,132.191,224.894,132.314
	"/>
</svg>
