<?xml version="1.0" encoding="utf-8"?>
<!-- Generator: Adobe Illustrator 23.0.1, SVG Export Plug-In . SVG Version: 6.00 Build 0)  -->
<svg version="1.1" id="Nose" xmlns="http://www.w3.org/2000/svg" xmlns:xlink="http://www.w3.org/1999/xlink" x="0px" y="0px"
	 width="450px" height="378px" viewBox="0 0 450 378" enable-background="new 0 0 450 378" xml:space="preserve">
<path fill="#3E2670" d="M216.994,141.823c-0.8,0-1.464-0.632-1.498-1.438c-0.034-0.828,0.609-1.526,1.437-1.56
	c4.552-0.188,7.41-1.803,9.005-3.125c0.391-0.325,0.453-0.749,0.455-0.973c0.003-0.405-0.17-0.788-0.477-1.051
	c-0.712-0.612-1.53-1.249-2.396-1.923c-3.305-2.575-7.418-5.779-9.911-10.88c-0.364-0.744-0.055-1.643,0.689-2.006
	c0.744-0.363,1.643-0.056,2.006,0.689c2.188,4.478,5.839,7.321,9.06,9.831c0.895,0.697,1.74,1.356,2.507,2.015
	c0.978,0.84,1.532,2.062,1.521,3.353c-0.012,1.267-0.573,2.454-1.541,3.256c-1.951,1.617-5.408,3.592-10.796,3.813
	C217.035,141.822,217.014,141.823,216.994,141.823z"/>
</svg>
