<?xml version="1.0" encoding="utf-8"?>
<!-- Generator: Adobe Illustrator 23.0.1, SVG Export Plug-In . SVG Version: 6.00 Build 0)  -->
<svg version="1.1" id="Nose" xmlns="http://www.w3.org/2000/svg" xmlns:xlink="http://www.w3.org/1999/xlink" x="0px" y="0px"
	 width="450px" height="378px" viewBox="0 0 450 378" enable-background="new 0 0 450 378" xml:space="preserve">
<path fill="#3E2670" d="M217.577,140.742c-0.578,0-1.192-0.107-1.826-0.371c-2.609-1.087-2.663-3.955-2.326-5.319
	c0.199-0.804,1.009-1.297,1.816-1.097c0.801,0.198,1.291,1.004,1.1,1.805c-0.019,0.082-0.317,1.474,0.565,1.841
	c1.069,0.447,1.96-0.322,2.058-0.411l0.809-0.734l0.963,0.53c0.079,0.041,2.512,1.277,6.903-0.689
	c3.767-1.687,5.022-4.695,5.437-6.338c0.491-1.953,0.194-3.434-0.029-3.794c-0.524-0.328-1.109,0.004-2.925,1.629
	c-1.88,1.685-4.454,3.989-7.845,2.766c-2.583-0.936-5.093-3.513-7.674-7.881l-0.053-0.097l-1.191-2.404
	c-0.368-0.742-0.064-1.642,0.678-2.01c0.742-0.368,1.642-0.064,2.01,0.678l1.167,2.354c2.171,3.663,4.218,5.863,6.085,6.54
	c1.584,0.572,2.879-0.44,4.822-2.179c1.732-1.552,4.105-3.678,6.732-1.793c1.348,0.966,1.625,3.322,1.435,5.204
	c-0.167,1.656-1.196,7.275-7.422,10.064c-4.177,1.87-7.2,1.406-8.655,0.949C219.53,140.395,218.614,140.742,217.577,140.742z
	 M233.023,126.132L233.023,126.132L233.023,126.132z"/>
</svg>
