<?xml version="1.0" encoding="utf-8"?>
<!-- Generator: Adobe Illustrator 23.0.1, SVG Export Plug-In . SVG Version: 6.00 Build 0)  -->
<svg version="1.1" id="Text" xmlns="http://www.w3.org/2000/svg" xmlns:xlink="http://www.w3.org/1999/xlink" x="0px" y="0px"
	 width="450px" height="378px" viewBox="0 0 450 378" enable-background="new 0 0 450 378" xml:space="preserve">
<path fill="#FFFFFF" d="M397.391,67.317c0,20.376-31.251,36.894-69.8,36.894c-19.313,0-36.795-4.146-49.432-10.846
	c-2.043-1.083-21.248,11.385-19.88,9.727c4.198-5.09,9.927-16.282,8.168-17.965c-5.517-5.28-8.657-11.351-8.657-17.81
	c0-20.376,31.251-36.894,69.801-36.894C366.14,30.423,397.391,46.941,397.391,67.317"/>
<path fill="#3E2670" d="M327.591,106.705c-18.824,0-36.563-3.847-50.04-10.843c-2.228,0.62-9.214,4.646-12.671,6.638
	c-1.517,0.874-2.856,1.646-3.833,2.179c-1.563,0.854-3.335,1.821-4.735,0.163c-0.66-0.781-0.928-2.158,0.045-3.336
	c3.873-4.695,7.676-12.664,7.916-15.016c-5.874-5.799-8.976-12.417-8.976-19.172c0-10.823,7.732-20.871,21.772-28.292
	c13.536-7.155,31.479-11.095,50.521-11.095s36.985,3.94,50.521,11.095c14.04,7.421,21.772,17.469,21.772,28.292
	s-7.732,20.871-21.772,28.292C364.576,102.764,346.634,106.705,327.591,106.705z M260.301,104.548
	c-0.059,0.079-0.092,0.123-0.099,0.131C260.236,104.637,260.27,104.593,260.301,104.548z M277.867,90.807
	c0.57,0,1.032,0.129,1.46,0.356c12.838,6.807,29.979,10.556,48.264,10.556c37.113,0,67.308-15.432,67.308-34.401
	s-30.194-34.401-67.308-34.401s-67.308,15.432-67.308,34.401c0,5.534,2.728,11.07,7.888,16.009c2.447,2.341,0.146,8.09-2.602,13.034
	C272.798,92.265,275.948,90.807,277.867,90.807z"/>
<polygon fill="#3D2A70" points="287.474,49.824 299.568,49.824 300.522,54.337 296.383,54.337 296.383,66.734 290.659,66.734 
	290.659,54.337 286.52,54.337 "/>
<polygon fill="#3D2A70" points="302.316,49.824 307.759,49.824 307.759,56.151 311.41,56.151 311.41,49.824 316.853,49.824 
	316.853,66.734 311.41,66.734 311.41,60.454 307.759,60.454 307.759,66.734 302.316,66.734 "/>
<path fill="#3D2A70" d="M318.578,66.733l4.256-16.909h7.606l4.279,16.909h-5.535l-0.349-1.814h-4.349l-0.372,1.814H318.578z
	 M325.23,61.314h2.838l-1.42-6.931L325.23,61.314z"/>
<polygon fill="#3D2A70" points="336.445,49.824 341.632,49.824 345.819,57.406 345.819,49.824 351.121,49.824 351.121,66.734 
	345.911,66.734 341.725,59.337 341.725,66.734 336.445,66.734 "/>
<polygon fill="#3D2A70" points="362.778,49.824 368.662,49.824 365.196,57.826 368.662,66.734 362.406,66.734 360.336,60.594 
	359.359,60.594 359.359,66.734 353.544,66.734 353.544,49.824 359.359,49.824 359.359,56.5 360.079,56.5 "/>
<polygon fill="#3D2A70" points="308.934,73.23 311.028,79.464 312.888,73.23 319.261,73.23 313.865,84.697 313.865,90.139 
	308.003,90.139 308.003,84.697 302.538,73.23 "/>
<path fill="#3D2A70" d="M320.357,87.232V76.161c0-1.698,1.163-2.931,2.908-2.931h8.652c1.768,0,2.931,1.233,2.931,2.931v11.071
	c0,1.721-1.396,2.907-3.14,2.907h-8.443C321.499,90.139,320.357,88.93,320.357,87.232 M328.732,85.627
	c0.628,0,0.791-0.186,0.791-0.814v-6.28c0-0.651-0.187-0.814-0.815-0.814h-2.255c-0.652,0-0.792,0.163-0.792,0.791v6.303
	c0,0.651,0.14,0.814,0.792,0.814H328.732z"/>
<path fill="#3D2A70" d="M341.063,90.139c-2.792,0-3.791-0.512-3.791-3.326V73.23h5.28v11.606c0,0.605,0.209,0.791,0.837,0.791h1.814
	c0.674,0,0.814-0.163,0.814-0.791V73.23h5.303v13.583c0,2.814-1.024,3.326-3.814,3.326H341.063z"/>
</svg>
