<?xml version="1.0" encoding="utf-8"?>
<!-- Generator: Adobe Illustrator 23.0.1, SVG Export Plug-In . SVG Version: 6.00 Build 0)  -->
<svg version="1.1" id="Text" xmlns="http://www.w3.org/2000/svg" xmlns:xlink="http://www.w3.org/1999/xlink" x="0px" y="0px"
	 width="450px" height="378px" viewBox="0 0 450 378" enable-background="new 0 0 450 378" xml:space="preserve">
<path fill="#3E2670" d="M50.567,340.652c-0.276-0.276-0.634-0.423-1.035-0.423h-6.154v-10.988c0-0.4-0.146-0.758-0.422-1.035
	c-0.544-0.543-1.492-0.557-2.047,0c-0.278,0.275-0.425,0.633-0.425,1.035v12.444c0,0.396,0.141,0.752,0.407,1.028h0
	c0.271,0.28,0.627,0.428,1.03,0.428h7.61c0.4,0,0.758-0.146,1.035-0.422c0.275-0.276,0.421-0.634,0.421-1.034
	C50.988,341.284,50.842,340.927,50.567,340.652z"/>
<path fill="#3E2670" d="M54.785,328.197c-0.534-0.532-1.504-0.551-2.068-0.006c-0.281,0.27-0.43,0.633-0.43,1.05v12.444
	c0,0.401,0.146,0.759,0.423,1.035c0.276,0.275,0.633,0.421,1.033,0.421c0.415,0,0.777-0.147,1.05-0.429
	c0.266-0.276,0.406-0.631,0.406-1.027v-12.444C55.199,328.829,55.056,328.469,54.785,328.197z"/>
<path fill="#3E2670" d="M69.692,335.107c-0.271-0.269-0.625-0.411-1.023-0.411h-3.437c-0.409,0-0.753,0.124-1.023,0.366
	c-0.283,0.253-0.433,0.592-0.433,0.979c0,0.389,0.15,0.728,0.432,0.979c0.27,0.244,0.615,0.367,1.024,0.367h2.036v2.494
	c-1.59,0.933-3.408,0.913-4.833,0.02c-0.724-0.452-1.309-1.077-1.738-1.857c-0.429-0.778-0.646-1.649-0.646-2.59
	c0-0.929,0.218-1.797,0.647-2.582s1.014-1.413,1.738-1.865c0.717-0.45,1.516-0.678,2.373-0.678c0.693,0,1.255,0.084,1.672,0.25
	c0.424,0.168,0.872,0.452,1.338,0.85c0.596,0.489,1.391,0.453,1.911-0.016c0.282-0.254,0.431-0.592,0.431-0.978
	c0-0.227-0.038-0.431-0.113-0.61c-0.085-0.199-0.238-0.382-0.439-0.533c-0.739-0.595-1.483-1.03-2.213-1.294
	c-0.731-0.263-1.601-0.396-2.586-0.396c-1.399,0-2.696,0.355-3.852,1.056c-1.154,0.696-2.077,1.655-2.742,2.85
	c-0.665,1.191-1.001,2.52-1.001,3.947c0,1.439,0.337,2.776,1,3.974c0.666,1.201,1.589,2.161,2.745,2.853
	c1.157,0.693,2.453,1.045,3.851,1.045c1.827,0,3.45-0.576,4.819-1.711c0.219-0.178,0.479-0.508,0.479-1.068v-4.394
	c0-0.41-0.143-0.771-0.413-1.042L69.692,335.107z"/>
<path fill="#3E2670" d="M85.079,328.197c-0.539-0.537-1.498-0.54-2.051-0.005c-0.28,0.271-0.429,0.633-0.429,1.049v4.775H75.07
	v-4.775c0-0.412-0.143-0.772-0.414-1.044c-0.534-0.532-1.504-0.551-2.068-0.006c-0.281,0.27-0.43,0.633-0.43,1.05v12.444
	c0,0.401,0.146,0.759,0.423,1.035c0.563,0.562,1.546,0.544,2.083-0.008c0.266-0.276,0.406-0.631,0.406-1.027v-4.978h7.529v4.978
	c0,0.399,0.146,0.757,0.423,1.035c0.276,0.275,0.634,0.421,1.033,0.421s0.753-0.143,1.024-0.413
	c0.271-0.271,0.414-0.631,0.414-1.043v-12.444C85.493,328.829,85.35,328.469,85.079,328.197z"/>
<path fill="#3E2670" d="M98.812,328.181c-0.257-0.259-0.599-0.396-0.988-0.396h-9.835c-0.389,0-0.73,0.137-0.988,0.395
	c-0.258,0.258-0.395,0.6-0.395,0.987c0,0.387,0.136,0.729,0.396,0.989c0.259,0.258,0.601,0.394,0.987,0.394h3.471v11.136
	c0,0.398,0.145,0.756,0.422,1.035c0.276,0.275,0.634,0.421,1.034,0.421c0.399,0,0.757-0.146,1.036-0.424
	c0.274-0.277,0.419-0.634,0.419-1.032V330.55h3.453c0.388,0,0.729-0.137,0.988-0.396c0.257-0.259,0.394-0.601,0.394-0.987
	C99.206,328.779,99.069,328.438,98.812,328.181z"/>
<path fill="#3E2670" d="M102.817,328.197c-0.531-0.529-1.509-0.547-2.068-0.006c-0.281,0.27-0.43,0.633-0.43,1.05v12.444
	c0,0.401,0.146,0.759,0.423,1.035c0.276,0.275,0.634,0.421,1.033,0.421c0.414,0,0.776-0.147,1.049-0.429
	c0.266-0.276,0.406-0.631,0.406-1.027v-12.444C103.231,328.829,103.088,328.469,102.817,328.197z"/>
<path fill="#3E2670" d="M118.075,328.198c-0.538-0.539-1.499-0.542-2.052-0.006c-0.28,0.271-0.428,0.634-0.428,1.049v8.558
	l-7.14-9.495c-0.129-0.146-0.292-0.27-0.483-0.365c-0.588-0.292-1.238-0.152-1.65,0.258c-0.271,0.27-0.415,0.631-0.415,1.045v12.444
	c0,0.412,0.143,0.773,0.414,1.044c0.55,0.55,1.544,0.531,2.073-0.016c0.266-0.276,0.407-0.632,0.407-1.028v-8.54l7.1,9.442
	c0.132,0.199,0.32,0.346,0.553,0.436c0.198,0.078,0.399,0.118,0.598,0.118c0.4,0,0.754-0.143,1.024-0.412
	c0.27-0.27,0.413-0.631,0.413-1.044v-12.444C118.487,328.826,118.344,328.466,118.075,328.198z"/>
<path fill="#3E2670" d="M132.981,335.107c-0.271-0.269-0.625-0.411-1.023-0.411h-3.437c-0.409,0-0.753,0.124-1.024,0.367
	c-0.283,0.253-0.432,0.591-0.432,0.979s0.149,0.727,0.432,0.979c0.271,0.243,0.615,0.366,1.024,0.366h2.036v2.494
	c-1.591,0.933-3.408,0.913-4.833,0.02c-0.724-0.452-1.309-1.077-1.738-1.857c-0.429-0.778-0.646-1.649-0.646-2.59
	c0-0.929,0.218-1.797,0.647-2.582s1.014-1.413,1.738-1.865c0.717-0.45,1.516-0.678,2.373-0.678c0.693,0,1.255,0.084,1.672,0.25
	c0.423,0.168,0.872,0.451,1.338,0.85c0.596,0.489,1.394,0.452,1.91-0.015c0.283-0.254,0.432-0.592,0.432-0.979
	c0-0.227-0.038-0.431-0.113-0.61c-0.085-0.199-0.238-0.382-0.439-0.533c-0.739-0.595-1.483-1.03-2.213-1.294
	c-0.731-0.263-1.601-0.396-2.586-0.396c-1.399,0-2.696,0.355-3.852,1.056c-1.154,0.696-2.077,1.655-2.742,2.85
	c-0.665,1.191-1.001,2.52-1.001,3.947c0,1.439,0.337,2.776,1,3.974c0.666,1.201,1.589,2.161,2.745,2.853
	c1.157,0.693,2.453,1.045,3.851,1.045c1.828,0,3.45-0.576,4.818-1.71c0.219-0.178,0.48-0.508,0.48-1.069v-4.394
	c0-0.41-0.143-0.771-0.413-1.042L132.981,335.107z"/>
<path fill="#3E2670" d="M154.776,331.405c-0.662-1.191-1.599-2.134-2.784-2.802c-1.18-0.665-2.534-1.002-4.023-1.002
	c-1.502,0-2.862,0.337-4.04,1.002c-1.188,0.668-2.121,1.611-2.776,2.804c-0.651,1.183-0.981,2.544-0.981,4.047
	s0.33,2.867,0.98,4.054c0.655,1.199,1.589,2.146,2.776,2.815c1.179,0.665,2.538,1.002,4.041,1.002s2.86-0.337,4.034-1.003
	c1.179-0.668,2.112-1.614,2.774-2.813c0.657-1.19,0.99-2.555,0.99-4.056C155.767,333.954,155.434,332.592,154.776,331.405z
	 M152.928,335.454c0,0.966-0.214,1.851-0.638,2.629c-0.42,0.773-1.014,1.393-1.764,1.84c-1.502,0.896-3.612,0.896-5.113,0
	c-0.762-0.453-1.339-1.055-1.766-1.84c-0.423-0.778-0.637-1.663-0.637-2.629s0.214-1.851,0.637-2.629
	c0.42-0.773,1.011-1.39,1.754-1.831c0.745-0.441,1.609-0.665,2.567-0.665s1.822,0.224,2.567,0.665
	c0.744,0.441,1.334,1.058,1.754,1.83C152.713,333.604,152.928,334.488,152.928,335.454z"/>
<path fill="#3E2670" d="M170.207,328.199c-0.537-0.539-1.502-0.543-2.053-0.007c-0.28,0.271-0.428,0.634-0.428,1.049v8.584
	c0,0.555-0.139,1.036-0.425,1.474c-0.287,0.44-0.681,0.776-1.204,1.026c-1.09,0.522-2.667,0.494-3.736-0.003
	c-0.54-0.251-0.949-0.588-1.25-1.031c-0.293-0.434-0.437-0.913-0.437-1.466v-8.584c0-0.412-0.143-0.773-0.414-1.044
	c-0.532-0.53-1.513-0.546-2.068-0.006c-0.282,0.271-0.431,0.634-0.431,1.05v8.584c0,1.087,0.285,2.07,0.847,2.923
	c0.557,0.846,1.342,1.515,2.334,1.986c0.977,0.466,2.098,0.701,3.331,0.701c1.198,0,2.289-0.236,3.244-0.703
	c0.969-0.475,1.735-1.147,2.278-2.001c0.546-0.855,0.824-1.834,0.824-2.906v-8.584C170.62,328.83,170.477,328.47,170.207,328.199z"
	/>
<path fill="#3E2670" d="M183.541,340.907l-2.528-4.064c0.614-0.365,1.121-0.851,1.511-1.446c0.493-0.756,0.742-1.627,0.742-2.59
	c0-0.967-0.224-1.843-0.665-2.604c-0.443-0.765-1.073-1.367-1.871-1.791c-0.787-0.416-1.686-0.627-2.671-0.627h-3.309
	c-0.397,0-0.752,0.141-1.026,0.406c-0.281,0.271-0.43,0.634-0.43,1.049v12.445c0,0.4,0.146,0.758,0.422,1.032
	c0.561,0.565,1.553,0.544,2.083-0.004c0.267-0.274,0.407-0.63,0.407-1.028v-4.077h1.853l3.072,4.843
	c0.289,0.451,0.72,0.69,1.248,0.69c0.418,0,0.763-0.133,1.025-0.396c0.257-0.259,0.394-0.594,0.394-0.969
	C183.799,341.477,183.712,341.184,183.541,340.907z M180.428,332.807c0,0.603-0.208,1.077-0.637,1.453
	c-0.449,0.393-1.016,0.584-1.731,0.584h-1.853v-4.294h1.853c0.707,0,1.268,0.207,1.715,0.633
	C180.214,331.603,180.428,332.134,180.428,332.807z"/>
<path fill="#3E2670" d="M199.978,330.344c-0.441-0.803-1.068-1.438-1.865-1.888c-0.79-0.445-1.692-0.671-2.682-0.671h-3.677
	c-0.397,0-0.752,0.141-1.025,0.406c-0.282,0.271-0.431,0.634-0.431,1.05v12.444c0,0.399,0.146,0.758,0.424,1.034
	c0.275,0.276,0.632,0.422,1.032,0.422c0.415,0,0.778-0.147,1.052-0.43c0.265-0.276,0.404-0.631,0.404-1.026v-3.525h2.221
	c0.987,0,1.888-0.219,2.676-0.65c0.796-0.436,1.424-1.05,1.866-1.826c0.44-0.771,0.664-1.658,0.664-2.638
	C200.637,332.045,200.415,331.135,199.978,330.344z M197.798,333.046c0,0.701-0.216,1.256-0.659,1.694
	c-0.446,0.441-1.004,0.655-1.708,0.655h-2.221v-4.846h2.221c0.697,0,1.253,0.227,1.698,0.691
	C197.579,331.712,197.798,332.302,197.798,333.046z"/>
<path fill="#3E2670" d="M212.895,341.106l-5.175-12.351c-0.231-0.626-0.718-0.971-1.37-0.971c-0.614,0-1.098,0.336-1.362,0.95
	l-5.17,12.349c-0.084,0.22-0.125,0.417-0.125,0.602c0,0.382,0.139,0.732,0.402,1.013c0.46,0.492,1.241,0.588,1.822,0.207
	c0.238-0.154,0.423-0.369,0.56-0.663l0.92-2.263h5.925l0.904,2.262c0.114,0.282,0.301,0.507,0.556,0.667
	c0.246,0.155,0.512,0.233,0.791,0.233c0.399,0,0.756-0.146,1.035-0.423c0.275-0.277,0.42-0.628,0.42-1.015
	C213.025,341.527,212.984,341.336,212.895,341.106z M208.275,337.399h-3.827l1.934-4.715L208.275,337.399z"/>
<path fill="#3E2670" d="M223.295,328.181c-0.257-0.259-0.599-0.396-0.988-0.396h-9.835c-0.389,0-0.73,0.137-0.988,0.395
	c-0.258,0.258-0.395,0.6-0.395,0.987c0,0.387,0.136,0.729,0.396,0.989c0.259,0.258,0.601,0.394,0.987,0.394h3.471v11.136
	c0,0.398,0.145,0.756,0.422,1.035c0.276,0.275,0.634,0.421,1.034,0.421c0.399,0,0.757-0.146,1.036-0.424
	c0.274-0.277,0.419-0.634,0.419-1.032V330.55h3.453c0.388,0,0.729-0.137,0.988-0.396c0.257-0.259,0.394-0.601,0.394-0.987
	C223.689,328.779,223.553,328.438,223.295,328.181z"/>
<path fill="#3E2670" d="M237.724,328.198c-0.538-0.539-1.499-0.543-2.052-0.006c-0.28,0.271-0.429,0.634-0.429,1.049v4.775h-7.528
	v-4.775c0-0.413-0.144-0.774-0.414-1.043c-0.537-0.537-1.498-0.556-2.069-0.007c-0.28,0.271-0.429,0.633-0.429,1.05v12.444
	c0,0.4,0.146,0.758,0.422,1.034l0.001,0.001c0.564,0.563,1.551,0.544,2.081-0.007c0.267-0.275,0.408-0.632,0.408-1.028v-4.978h7.528
	v4.978c0,0.398,0.146,0.756,0.423,1.034c0.276,0.276,0.633,0.422,1.033,0.422s0.754-0.143,1.023-0.412
	c0.271-0.27,0.415-0.631,0.415-1.044v-12.444C238.138,328.828,237.994,328.467,237.724,328.198z"/>
<path fill="#3E2670" d="M262.1,328.185c-0.152-0.183-0.438-0.399-0.934-0.399c-0.353,0-0.65,0.075-0.888,0.227
	c-0.257,0.167-0.44,0.432-0.529,0.761l-2.557,8.913l-2.343-8.71c-0.077-0.319-0.267-0.583-0.545-0.762
	c-0.519-0.336-1.214-0.327-1.723,0.033c-0.267,0.192-0.442,0.44-0.521,0.736l-2.309,8.628l-2.521-8.758
	c-0.104-0.333-0.284-0.598-0.539-0.787c-0.253-0.187-0.548-0.281-0.875-0.281c-0.481,0-0.777,0.204-0.938,0.372
	c-0.234,0.241-0.354,0.563-0.354,0.955c0,0.226,0.033,0.444,0.096,0.641l3.695,12.286c0.105,0.33,0.285,0.598,0.535,0.793
	c0.522,0.411,1.293,0.41,1.802-0.021c0.231-0.198,0.406-0.457,0.535-0.814l2.289-8.714l2.268,8.763
	c0.102,0.309,0.277,0.567,0.525,0.772c0.263,0.215,0.567,0.324,0.905,0.324c0.341,0,0.645-0.11,0.904-0.331
	c0.231-0.198,0.406-0.457,0.53-0.797l3.694-12.259c0.063-0.209,0.096-0.431,0.096-0.661
	C262.401,328.729,262.3,328.423,262.1,328.185z"/>
<path fill="#3E2670" d="M265.939,328.198c-0.535-0.535-1.502-0.553-2.069-0.007c-0.28,0.271-0.429,0.633-0.429,1.05v12.444
	c0,0.4,0.146,0.758,0.422,1.034l0.001,0.001c0.276,0.275,0.634,0.421,1.033,0.421c0.415,0,0.777-0.147,1.048-0.428
	c0.267-0.275,0.408-0.632,0.408-1.028v-12.444C266.354,328.828,266.21,328.467,265.939,328.198z"/>
<path fill="#3E2670" d="M279.672,328.181c-0.257-0.259-0.599-0.396-0.988-0.396h-9.835c-0.389,0-0.73,0.137-0.988,0.395
	s-0.395,0.6-0.395,0.987c0,0.387,0.136,0.729,0.396,0.989c0.259,0.258,0.601,0.394,0.987,0.394h3.471v11.136
	c0,0.397,0.146,0.755,0.423,1.035c0.276,0.275,0.634,0.421,1.033,0.421s0.757-0.146,1.036-0.424
	c0.274-0.277,0.419-0.634,0.419-1.032V330.55h3.453c0.388,0,0.729-0.137,0.988-0.396c0.258-0.259,0.394-0.601,0.394-0.987
	C280.065,328.779,279.93,328.438,279.672,328.181z"/>
<path fill="#3E2670" d="M294.101,328.198c-0.539-0.539-1.499-0.543-2.052-0.006c-0.28,0.271-0.429,0.634-0.429,1.049v4.775h-7.528
	v-4.775c0-0.413-0.144-0.774-0.414-1.043c-0.538-0.537-1.498-0.556-2.069-0.007c-0.28,0.271-0.429,0.633-0.429,1.05v12.444
	c0,0.4,0.146,0.758,0.422,1.034l0.001,0.001c0.564,0.563,1.552,0.544,2.081-0.007c0.267-0.275,0.408-0.632,0.408-1.028v-4.978h7.528
	v4.978c0,0.398,0.146,0.756,0.423,1.034c0.276,0.276,0.633,0.422,1.033,0.422s0.754-0.143,1.023-0.412
	c0.271-0.27,0.415-0.631,0.415-1.044v-12.444C294.515,328.828,294.371,328.467,294.101,328.198z"/>
<path fill="#3E2670" d="M312.255,330.343c-0.441-0.803-1.069-1.438-1.864-1.887c-0.79-0.445-1.692-0.671-2.683-0.671h-3.677
	c-0.397,0-0.753,0.142-1.024,0.405c-0.282,0.271-0.432,0.634-0.432,1.051v12.444c0,0.4,0.146,0.758,0.424,1.034
	c0.275,0.276,0.632,0.422,1.032,0.422c0.414,0,0.777-0.147,1.052-0.43c0.265-0.276,0.404-0.631,0.404-1.026v-3.525h2.221
	c0.988,0,1.889-0.219,2.677-0.65c0.795-0.435,1.423-1.049,1.865-1.826c0.44-0.77,0.664-1.657,0.664-2.638
	C312.914,332.043,312.692,331.134,312.255,330.343z M310.075,333.046c0,0.701-0.216,1.256-0.659,1.694
	c-0.446,0.441-1.005,0.655-1.708,0.655h-2.221v-4.846h2.221c0.697,0,1.253,0.227,1.698,0.691
	C309.856,331.712,310.075,332.302,310.075,333.046z"/>
<path fill="#3E2670" d="M327.972,331.405c-0.662-1.19-1.599-2.134-2.784-2.802c-1.181-0.665-2.534-1.002-4.023-1.002
	c-1.503,0-2.862,0.337-4.04,1.002c-1.187,0.668-2.12,1.611-2.776,2.804c-0.65,1.183-0.98,2.544-0.98,4.047s0.33,2.867,0.98,4.054
	c0.655,1.2,1.589,2.147,2.776,2.815c1.178,0.665,2.537,1.002,4.04,1.002c1.502,0,2.859-0.337,4.033-1.003
	c1.18-0.668,2.113-1.614,2.774-2.812c0.657-1.19,0.99-2.555,0.99-4.057C328.962,333.953,328.629,332.591,327.972,331.405z
	 M326.123,335.454c0,0.966-0.215,1.85-0.638,2.629c-0.42,0.773-1.014,1.393-1.765,1.84c-1.503,0.897-3.614,0.896-5.113,0
	c-0.762-0.453-1.339-1.055-1.765-1.841c-0.423-0.776-0.638-1.661-0.638-2.628s0.215-1.852,0.638-2.63
	c0.42-0.773,1.011-1.389,1.754-1.83c0.745-0.441,1.608-0.665,2.567-0.665s1.822,0.224,2.567,0.665
	c0.744,0.442,1.334,1.058,1.754,1.83C325.908,333.604,326.123,334.489,326.123,335.454z"/>
<path fill="#3E2670" d="M340.307,335.371c-0.886-0.813-2.134-1.305-3.707-1.462c-1.517-0.154-2.188-0.483-2.486-0.732
	c-0.399-0.333-0.594-0.73-0.594-1.216c0-0.514,0.2-0.878,0.63-1.147c0.492-0.31,1.164-0.466,1.995-0.466
	c0.669,0,1.219,0.122,1.635,0.364c0.42,0.243,0.776,0.608,1.05,1.064c0.13,0.24,0.318,0.433,0.557,0.57
	c0.477,0.278,1.072,0.281,1.53-0.012c0.382-0.267,0.583-0.638,0.583-1.072c0-0.302-0.101-0.614-0.298-0.928
	c-0.543-0.86-1.218-1.534-2.007-2.002c-0.799-0.474-1.782-0.714-2.921-0.714c-1.025,0-1.967,0.163-2.798,0.484
	c-0.861,0.332-1.553,0.823-2.054,1.463c-0.516,0.659-0.777,1.446-0.777,2.34c0,1.263,0.499,2.328,1.482,3.166
	c0.945,0.806,2.244,1.293,3.858,1.45c0.987,0.098,1.719,0.359,2.175,0.778c0.435,0.401,0.646,0.868,0.646,1.426
	c0,0.569-0.232,0.988-0.732,1.319c-0.551,0.366-1.243,0.552-2.058,0.552c-0.7,0-1.348-0.148-1.924-0.441
	c-0.543-0.276-0.906-0.605-1.074-0.97c-0.125-0.283-0.318-0.514-0.579-0.687c-0.26-0.17-0.541-0.256-0.835-0.256
	c-0.138,0-0.244,0.014-0.288,0.029c-0.333,0.071-0.605,0.216-0.808,0.429c-0.223,0.232-0.341,0.521-0.341,0.833
	c0,0.166,0.042,0.349,0.13,0.563c0.412,0.972,1.162,1.765,2.231,2.356c1.046,0.578,2.22,0.871,3.487,0.871
	c0.965,0,1.884-0.17,2.729-0.504c0.876-0.346,1.588-0.877,2.117-1.578c0.543-0.716,0.818-1.581,0.818-2.572
	C341.682,337.316,341.219,336.206,340.307,335.371z"/>
<path fill="#3E2670" d="M346.103,328.198c-0.535-0.535-1.503-0.553-2.069-0.007c-0.28,0.271-0.429,0.633-0.429,1.05v12.444
	c0,0.4,0.146,0.758,0.422,1.034l0.001,0.001c0.276,0.275,0.634,0.421,1.033,0.421c0.415,0,0.777-0.147,1.048-0.428
	c0.267-0.275,0.408-0.632,0.408-1.028v-12.444C346.517,328.828,346.373,328.467,346.103,328.198z"/>
<path fill="#3E2670" d="M359.835,328.181c-0.257-0.259-0.599-0.396-0.988-0.396h-9.835c-0.389,0-0.73,0.137-0.988,0.395
	s-0.395,0.6-0.395,0.987c0,0.387,0.136,0.729,0.396,0.989c0.259,0.258,0.601,0.394,0.987,0.394h3.471v11.136
	c0,0.397,0.146,0.755,0.422,1.034c0.276,0.276,0.634,0.422,1.034,0.422c0.399,0,0.757-0.146,1.036-0.424
	c0.274-0.277,0.419-0.634,0.419-1.032V330.55h3.453c0.388,0,0.729-0.137,0.988-0.396c0.258-0.259,0.394-0.601,0.394-0.987
	C360.229,328.779,360.093,328.438,359.835,328.181z"/>
<path fill="#3E2670" d="M378.889,328.146c-0.438-0.422-1.267-0.465-1.771-0.17c-0.233,0.141-0.409,0.368-0.533,0.684l-4.242,10.009
	l-4.175-10.007c-0.236-0.564-0.714-0.876-1.344-0.876c-0.396,0-0.722,0.115-0.973,0.344c-0.256,0.236-0.392,0.563-0.392,0.946
	c0,0.232,0.059,0.501,0.189,0.844l5.39,12.325c0.266,0.578,0.733,0.897,1.318,0.897c0.624,0,1.096-0.328,1.323-0.906l5.442-12.485
	c0.1-0.234,0.15-0.461,0.15-0.675C379.272,328.707,379.14,328.386,378.889,328.146z"/>
<path fill="#3E2670" d="M361.771,328.191c-0.28,0.271-0.429,0.633-0.429,1.05v12.444c0,0.4,0.146,0.758,0.422,1.034l0.001,0.001
	c0.276,0.275,0.634,0.421,1.033,0.421c0.415,0,0.777-0.147,1.048-0.428c0.267-0.275,0.408-0.632,0.408-1.028v-12.444
	c0-0.413-0.144-0.774-0.414-1.043C363.306,327.663,362.339,327.646,361.771,328.191z"/>
<path fill="#3E2670" d="M382.977,328.198c-0.535-0.535-1.503-0.553-2.069-0.007c-0.28,0.271-0.429,0.633-0.429,1.05v12.444
	c0,0.4,0.146,0.758,0.422,1.034l0.001,0.001c0.276,0.275,0.634,0.421,1.033,0.421c0.415,0,0.777-0.147,1.048-0.428
	c0.267-0.275,0.408-0.632,0.408-1.028v-12.444C383.391,328.828,383.247,328.467,382.977,328.198z"/>
<path fill="#3E2670" d="M396.709,328.181c-0.257-0.259-0.599-0.396-0.988-0.396h-9.835c-0.389,0-0.73,0.137-0.988,0.395
	s-0.395,0.6-0.395,0.987c0,0.387,0.136,0.729,0.396,0.989c0.259,0.258,0.601,0.394,0.987,0.394h3.471v11.136
	c0,0.397,0.146,0.755,0.422,1.034c0.276,0.276,0.634,0.422,1.034,0.422c0.399,0,0.757-0.146,1.036-0.424
	c0.274-0.277,0.419-0.634,0.419-1.032V330.55h3.453c0.388,0,0.729-0.137,0.988-0.396c0.258-0.259,0.394-0.601,0.394-0.987
	C397.103,328.779,396.967,328.438,396.709,328.181z"/>
<path fill="#3E2670" d="M409.245,328.209c-0.247-0.277-0.576-0.424-0.951-0.424c-0.541,0-0.979,0.238-1.268,0.691l-3.952,6.226
	l-3.887-6.161c-0.16-0.241-0.324-0.417-0.496-0.536c-0.472-0.329-1.273-0.284-1.77,0.165c-0.295,0.265-0.451,0.616-0.451,1.016
	c0,0.283,0.096,0.573,0.281,0.858l4.828,7.505v4.137c0,0.397,0.146,0.755,0.423,1.035c0.276,0.275,0.628,0.421,1.016,0.421
	c0.4,0,0.757-0.146,1.033-0.422s0.423-0.634,0.423-1.034v-4.136l4.868-7.512c0.173-0.275,0.26-0.568,0.26-0.871
	C409.603,328.797,409.482,328.475,409.245,328.209z"/>
<path fill="#3E2670" d="M409.686,340.404c-0.687-0.686-1.806-0.686-2.49,0c-0.343,0.343-0.523,0.779-0.523,1.263
	c0,0.479,0.176,0.897,0.523,1.245c0.343,0.343,0.773,0.523,1.246,0.523c0.486,0,0.922-0.183,1.257-0.527
	c0.339-0.347,0.511-0.765,0.511-1.241C410.209,341.184,410.028,340.747,409.686,340.404z"/>
</svg>
