<?xml version="1.0" encoding="utf-8"?>
<!-- Generator: Adobe Illustrator 23.0.1, SVG Export Plug-In . SVG Version: 6.00 Build 0)  -->
<svg version="1.1" id="Text_dark" xmlns="http://www.w3.org/2000/svg" xmlns:xlink="http://www.w3.org/1999/xlink" x="0px" y="0px"
	 width="450px" height="378px" viewBox="0 0 450 378" style="enable-background:new 0 0 450 378;" xml:space="preserve">
<style type="text/css">
	.st0{fill:#F6EB16;}
</style>
<path class="st0" d="M41.251,342.366c-0.178-0.185-0.267-0.411-0.267-0.681v-12.444c0-0.27,0.092-0.497,0.277-0.681
	c0.183-0.183,0.404-0.275,0.661-0.275c0.269,0,0.497,0.092,0.681,0.275c0.183,0.184,0.275,0.411,0.275,0.681v11.488h6.654
	c0.27,0,0.497,0.092,0.681,0.277c0.184,0.183,0.275,0.41,0.275,0.679c0,0.27-0.091,0.496-0.275,0.681
	c-0.184,0.184-0.411,0.275-0.681,0.275h-7.61C41.652,342.641,41.429,342.55,41.251,342.366"/>
<path class="st0" d="M53.063,342.366c-0.185-0.185-0.276-0.411-0.276-0.681v-12.444c0-0.282,0.091-0.512,0.276-0.689
	c0.184-0.178,0.41-0.267,0.68-0.267c0.282,0,0.511,0.089,0.689,0.267c0.178,0.177,0.267,0.407,0.267,0.689v12.444
	c0,0.27-0.089,0.496-0.267,0.681c-0.178,0.184-0.407,0.275-0.689,0.275C53.473,342.641,53.247,342.55,53.063,342.366"/>
<path class="st0" d="M69.34,335.463c0.177,0.178,0.267,0.408,0.267,0.689v4.394c0,0.294-0.099,0.521-0.295,0.681
	c-1.286,1.065-2.788,1.598-4.503,1.598c-1.312,0-2.51-0.324-3.594-0.973c-1.085-0.65-1.939-1.538-2.564-2.666
	c-0.625-1.127-0.938-2.371-0.938-3.732c0-1.347,0.313-2.583,0.938-3.704s1.479-2.01,2.564-2.665
	c1.084-0.656,2.282-0.983,3.594-0.983c0.93,0,1.736,0.122,2.417,0.367c0.679,0.245,1.369,0.649,2.068,1.213
	c0.147,0.11,0.244,0.223,0.294,0.341c0.049,0.116,0.073,0.253,0.073,0.413c0,0.245-0.089,0.447-0.266,0.606
	c-0.178,0.16-0.389,0.239-0.634,0.239c-0.221,0-0.43-0.079-0.625-0.239c-0.503-0.429-0.993-0.738-1.471-0.928
	c-0.478-0.19-1.096-0.285-1.856-0.285c-0.956,0-1.836,0.251-2.639,0.754c-0.803,0.502-1.439,1.186-1.911,2.05
	c-0.472,0.863-0.708,1.804-0.708,2.821c0,1.03,0.236,1.974,0.708,2.831c0.472,0.858,1.108,1.538,1.911,2.04
	c0.803,0.503,1.683,0.754,2.639,0.754c1.029,0,2.015-0.306,2.959-0.919v-3.272h-2.536c-0.283,0-0.513-0.079-0.69-0.238
	c-0.178-0.16-0.266-0.362-0.266-0.608c0-0.245,0.088-0.447,0.266-0.606c0.177-0.16,0.407-0.24,0.69-0.24h3.437
	C68.938,335.196,69.162,335.286,69.34,335.463"/>
<path class="st0" d="M72.934,342.366c-0.185-0.185-0.276-0.411-0.276-0.681v-12.444c0-0.282,0.091-0.512,0.276-0.689
	c0.184-0.178,0.41-0.267,0.68-0.267c0.282,0,0.511,0.089,0.689,0.267c0.178,0.177,0.267,0.407,0.267,0.689v5.275h8.529v-5.275
	c0-0.282,0.092-0.512,0.276-0.689c0.184-0.178,0.411-0.267,0.68-0.267c0.27,0,0.493,0.089,0.671,0.267
	c0.178,0.177,0.267,0.407,0.267,0.689v12.444c0,0.283-0.089,0.512-0.267,0.69c-0.178,0.178-0.401,0.266-0.671,0.266
	c-0.269,0-0.496-0.091-0.68-0.275c-0.184-0.185-0.276-0.411-0.276-0.681v-5.477H74.57v5.477c0,0.27-0.089,0.496-0.267,0.681
	c-0.178,0.184-0.407,0.275-0.689,0.275C73.344,342.641,73.118,342.55,72.934,342.366"/>
<path class="st0" d="M98.457,328.533c0.165,0.165,0.248,0.377,0.248,0.634c0,0.258-0.083,0.469-0.248,0.635
	c-0.165,0.165-0.377,0.248-0.634,0.248H93.87v11.635c0,0.27-0.092,0.496-0.275,0.681c-0.184,0.184-0.411,0.275-0.68,0.275
	c-0.27,0-0.497-0.091-0.681-0.275c-0.183-0.185-0.275-0.411-0.275-0.681V330.05h-3.971c-0.258,0-0.469-0.083-0.635-0.248
	c-0.165-0.166-0.248-0.377-0.248-0.635c0-0.257,0.083-0.469,0.248-0.634c0.166-0.166,0.377-0.248,0.635-0.248h9.835
	C98.08,328.285,98.292,328.367,98.457,328.533"/>
<path class="st0" d="M101.095,342.366c-0.185-0.185-0.276-0.411-0.276-0.681v-12.444c0-0.282,0.091-0.512,0.276-0.689
	c0.184-0.178,0.41-0.267,0.68-0.267c0.282,0,0.511,0.089,0.689,0.267c0.178,0.177,0.267,0.407,0.267,0.689v12.444
	c0,0.27-0.089,0.496-0.267,0.681c-0.178,0.184-0.407,0.275-0.689,0.275C101.505,342.641,101.279,342.55,101.095,342.366"/>
<path class="st0" d="M106.673,342.375c-0.178-0.178-0.267-0.407-0.267-0.689v-12.445c0-0.282,0.089-0.512,0.267-0.689
	c0.178-0.178,0.401-0.267,0.671-0.267c0.135,0,0.269,0.033,0.404,0.101c0.135,0.067,0.245,0.15,0.331,0.248l8.015,10.662v-10.055
	c0-0.282,0.093-0.512,0.276-0.689c0.184-0.178,0.41-0.267,0.68-0.267c0.269,0,0.493,0.089,0.671,0.267
	c0.178,0.177,0.266,0.407,0.266,0.689v12.445c0,0.282-0.088,0.511-0.266,0.689c-0.178,0.178-0.402,0.267-0.671,0.267
	c-0.135,0-0.273-0.028-0.413-0.083c-0.142-0.055-0.248-0.138-0.322-0.248l-8.015-10.663v10.038c0,0.269-0.089,0.496-0.267,0.68
	c-0.177,0.184-0.407,0.276-0.689,0.276C107.074,342.642,106.851,342.553,106.673,342.375"/>
<path class="st0" d="M132.629,335.463c0.177,0.178,0.267,0.408,0.267,0.689v4.394c0,0.294-0.099,0.521-0.295,0.681
	c-1.286,1.065-2.788,1.598-4.503,1.598c-1.312,0-2.51-0.324-3.594-0.973c-1.085-0.65-1.939-1.538-2.564-2.666
	c-0.625-1.127-0.938-2.371-0.938-3.732c0-1.347,0.313-2.583,0.938-3.704s1.479-2.01,2.564-2.665
	c1.084-0.656,2.282-0.983,3.594-0.983c0.93,0,1.736,0.122,2.417,0.367c0.679,0.245,1.369,0.649,2.068,1.213
	c0.147,0.11,0.244,0.223,0.294,0.341c0.049,0.116,0.073,0.253,0.073,0.413c0,0.245-0.089,0.447-0.266,0.606
	c-0.178,0.16-0.389,0.239-0.634,0.239c-0.221,0-0.43-0.079-0.625-0.239c-0.503-0.429-0.993-0.738-1.471-0.928
	c-0.478-0.19-1.096-0.285-1.856-0.285c-0.956,0-1.836,0.251-2.639,0.754c-0.803,0.502-1.439,1.186-1.911,2.05
	c-0.472,0.863-0.708,1.804-0.708,2.821c0,1.03,0.236,1.974,0.708,2.831c0.472,0.858,1.108,1.538,1.911,2.04
	c0.803,0.503,1.683,0.754,2.639,0.754c1.029,0,2.015-0.306,2.959-0.919v-3.272h-2.536c-0.283,0-0.513-0.079-0.69-0.238
	c-0.178-0.16-0.266-0.362-0.266-0.608c0-0.245,0.088-0.447,0.266-0.606c0.177-0.16,0.407-0.24,0.69-0.24h3.437
	C132.227,335.196,132.451,335.286,132.629,335.463"/>
<path class="st0" d="M144.174,341.888c-1.11-0.625-1.971-1.498-2.583-2.619c-0.614-1.121-0.919-2.393-0.919-3.814
	c0-1.422,0.305-2.69,0.919-3.806c0.612-1.114,1.473-1.984,2.583-2.609c1.108-0.625,2.374-0.938,3.795-0.938
	c1.41,0,2.668,0.313,3.778,0.938c1.109,0.625,1.973,1.495,2.592,2.609c0.619,1.116,0.928,2.384,0.928,3.806
	c0,1.421-0.309,2.693-0.928,3.814c-0.619,1.121-1.48,1.994-2.583,2.619c-1.103,0.625-2.366,0.938-3.787,0.938
	C146.548,342.826,145.282,342.513,144.174,341.888 M150.782,340.353c0.833-0.496,1.482-1.173,1.948-2.031
	c0.466-0.858,0.698-1.814,0.698-2.867c0-1.054-0.232-2.01-0.698-2.869c-0.466-0.857-1.112-1.531-1.939-2.021
	c-0.827-0.49-1.768-0.735-2.822-0.735s-1.995,0.245-2.822,0.735c-0.827,0.49-1.473,1.164-1.939,2.021
	c-0.466,0.859-0.698,1.815-0.698,2.869c0,1.053,0.232,2.009,0.698,2.867s1.115,1.535,1.949,2.031
	c0.833,0.497,1.771,0.745,2.812,0.745C149.011,341.098,149.948,340.85,150.782,340.353"/>
<path class="st0" d="M161.158,342.283c-0.913-0.435-1.624-1.039-2.132-1.811c-0.509-0.772-0.764-1.654-0.764-2.647v-8.584
	c0-0.282,0.092-0.512,0.277-0.689c0.183-0.178,0.41-0.267,0.68-0.267c0.282,0,0.511,0.089,0.689,0.267
	c0.178,0.177,0.267,0.407,0.267,0.689v8.584c0,0.65,0.174,1.231,0.523,1.746c0.35,0.516,0.834,0.917,1.453,1.204
	c0.618,0.288,1.326,0.433,2.123,0.433c0.76,0,1.44-0.145,2.04-0.433c0.601-0.287,1.07-0.688,1.406-1.204
	c0.337-0.515,0.506-1.096,0.506-1.746v-8.584c0-0.282,0.092-0.512,0.276-0.689c0.183-0.178,0.41-0.267,0.68-0.267
	c0.269,0,0.494,0.089,0.671,0.267c0.177,0.177,0.267,0.407,0.267,0.689v8.584c0,0.98-0.249,1.86-0.745,2.638
	c-0.496,0.778-1.189,1.385-2.077,1.82c-0.889,0.435-1.897,0.652-3.024,0.652C163.109,342.935,162.071,342.718,161.158,342.283"/>
<path class="st0" d="M183.299,341.778c0,0.245-0.083,0.45-0.248,0.616c-0.165,0.165-0.388,0.248-0.671,0.248
	c-0.355,0-0.631-0.153-0.827-0.46l-3.162-5.073h-0.331h-2.353v4.577c0,0.269-0.088,0.496-0.266,0.68
	c-0.178,0.184-0.407,0.276-0.69,0.276c-0.269,0-0.496-0.092-0.679-0.276c-0.185-0.184-0.277-0.411-0.277-0.68v-12.445
	c0-0.282,0.092-0.511,0.277-0.689c0.183-0.178,0.41-0.267,0.679-0.267h3.309c0.907,0,1.719,0.19,2.437,0.57
	c0.716,0.38,1.274,0.913,1.672,1.599c0.398,0.687,0.597,1.471,0.597,2.353c0,0.871-0.221,1.642-0.661,2.316
	c-0.441,0.674-1.042,1.183-1.802,1.527l2.813,4.521C183.238,341.367,183.299,341.57,183.299,341.778 M178.06,335.344
	c0.834,0,1.52-0.235,2.06-0.708c0.539-0.472,0.808-1.081,0.808-1.829c0-0.809-0.269-1.471-0.808-1.985
	c-0.54-0.515-1.226-0.772-2.06-0.772h-2.353v5.294H178.06z"/>
<path class="st0" d="M191.075,342.367c-0.185-0.185-0.277-0.411-0.277-0.681v-12.444c0-0.283,0.092-0.512,0.277-0.69
	c0.183-0.177,0.41-0.266,0.679-0.266h3.677c0.906,0,1.719,0.202,2.436,0.606c0.716,0.404,1.274,0.968,1.672,1.692
	c0.399,0.722,0.598,1.543,0.598,2.462c0,0.895-0.199,1.692-0.598,2.39c-0.398,0.698-0.956,1.244-1.672,1.636
	c-0.717,0.392-1.53,0.589-2.436,0.589h-2.721v4.025c0,0.27-0.089,0.496-0.266,0.681c-0.178,0.183-0.408,0.275-0.69,0.275
	C191.485,342.642,191.258,342.55,191.075,342.367 M195.431,335.896c0.833,0,1.52-0.267,2.059-0.8
	c0.539-0.533,0.808-1.216,0.808-2.05c0-0.87-0.269-1.587-0.808-2.15c-0.539-0.563-1.226-0.846-2.059-0.846h-2.721v5.846H195.431z"/>
<path class="st0" d="M212.526,341.704c0,0.257-0.092,0.477-0.275,0.662c-0.184,0.183-0.41,0.275-0.68,0.275
	c-0.184,0-0.358-0.052-0.524-0.156c-0.165-0.104-0.285-0.248-0.359-0.432l-1.029-2.574h-6.6l-1.047,2.574
	c-0.086,0.184-0.208,0.328-0.368,0.432c-0.159,0.104-0.331,0.156-0.514,0.156c-0.27,0-0.493-0.095-0.671-0.285
	c-0.178-0.189-0.267-0.413-0.267-0.671c0-0.122,0.031-0.264,0.092-0.423l5.165-12.334c0.185-0.429,0.484-0.643,0.901-0.643
	c0.441,0,0.742,0.214,0.901,0.643l5.183,12.371C212.496,341.46,212.526,341.594,212.526,341.704 M203.703,337.9h5.312l-2.628-6.545
	L203.703,337.9z"/>
<path class="st0" d="M222.941,328.533c0.165,0.165,0.248,0.377,0.248,0.634c0,0.258-0.083,0.469-0.248,0.635
	c-0.165,0.165-0.377,0.248-0.634,0.248h-3.953v11.635c0,0.27-0.092,0.496-0.275,0.681c-0.184,0.184-0.411,0.275-0.68,0.275
	c-0.27,0-0.497-0.091-0.681-0.275c-0.183-0.185-0.275-0.411-0.275-0.681V330.05h-3.971c-0.258,0-0.469-0.083-0.635-0.248
	c-0.165-0.166-0.248-0.377-0.248-0.635c0-0.257,0.083-0.469,0.248-0.634c0.166-0.166,0.377-0.248,0.635-0.248h9.835
	C222.564,328.285,222.776,328.367,222.941,328.533"/>
<path class="st0" d="M225.579,342.366c-0.185-0.185-0.276-0.411-0.276-0.681v-12.444c0-0.282,0.091-0.512,0.276-0.689
	c0.184-0.178,0.41-0.267,0.68-0.267c0.282,0,0.511,0.089,0.689,0.267c0.178,0.177,0.267,0.407,0.267,0.689v5.275h8.529v-5.275
	c0-0.282,0.092-0.512,0.276-0.689c0.184-0.178,0.411-0.267,0.68-0.267c0.27,0,0.493,0.089,0.671,0.267
	c0.178,0.177,0.267,0.407,0.267,0.689v12.444c0,0.283-0.089,0.512-0.267,0.69c-0.178,0.178-0.401,0.266-0.671,0.266
	c-0.269,0-0.496-0.091-0.68-0.275c-0.184-0.185-0.276-0.411-0.276-0.681v-5.477h-8.529v5.477c0,0.27-0.089,0.496-0.267,0.681
	c-0.178,0.184-0.407,0.275-0.689,0.275C225.989,342.641,225.763,342.55,225.579,342.366"/>
<path class="st0" d="M261.717,328.506c0.123,0.146,0.184,0.343,0.184,0.588c0,0.183-0.025,0.355-0.074,0.515l-3.694,12.26
	c-0.086,0.234-0.212,0.42-0.377,0.562c-0.166,0.14-0.358,0.211-0.579,0.211s-0.417-0.071-0.589-0.211
	c-0.171-0.142-0.294-0.322-0.367-0.543l-2.739-10.588l-2.776,10.569c-0.086,0.234-0.212,0.42-0.377,0.562
	c-0.165,0.14-0.358,0.211-0.579,0.211c-0.221,0-0.417-0.068-0.588-0.202c-0.172-0.135-0.294-0.319-0.368-0.552l-3.694-12.279
	c-0.05-0.16-0.074-0.325-0.074-0.497c0-0.257,0.07-0.46,0.212-0.606c0.14-0.147,0.333-0.221,0.579-0.221
	c0.22,0,0.413,0.062,0.579,0.184c0.165,0.123,0.285,0.301,0.358,0.533l3.015,10.478l2.775-10.368
	c0.049-0.183,0.159-0.336,0.331-0.46c0.172-0.122,0.368-0.183,0.588-0.183c0.209,0,0.399,0.055,0.57,0.165
	c0.172,0.11,0.283,0.264,0.331,0.46l2.813,10.46l3.052-10.644c0.06-0.22,0.168-0.38,0.321-0.478
	c0.153-0.098,0.358-0.147,0.616-0.147C261.41,328.285,261.595,328.359,261.717,328.506"/>
<path class="st0" d="M264.217,342.366c-0.185-0.185-0.276-0.411-0.276-0.681v-12.444c0-0.282,0.091-0.512,0.276-0.689
	c0.184-0.178,0.41-0.267,0.68-0.267c0.282,0,0.511,0.089,0.689,0.267c0.178,0.177,0.267,0.407,0.267,0.689v12.444
	c0,0.27-0.089,0.496-0.267,0.681c-0.178,0.184-0.407,0.275-0.689,0.275C264.627,342.641,264.401,342.55,264.217,342.366"/>
<path class="st0" d="M279.318,328.533c0.165,0.165,0.248,0.377,0.248,0.634c0,0.258-0.083,0.469-0.248,0.635
	c-0.165,0.165-0.377,0.248-0.634,0.248h-3.953v11.635c0,0.27-0.092,0.496-0.275,0.681c-0.184,0.184-0.411,0.275-0.68,0.275
	c-0.27,0-0.497-0.091-0.681-0.275c-0.183-0.185-0.275-0.411-0.275-0.681V330.05h-3.971c-0.258,0-0.469-0.083-0.635-0.248
	c-0.165-0.166-0.248-0.377-0.248-0.635c0-0.257,0.083-0.469,0.248-0.634c0.166-0.166,0.377-0.248,0.635-0.248h9.835
	C278.941,328.285,279.153,328.367,279.318,328.533"/>
<path class="st0" d="M281.956,342.366c-0.185-0.185-0.276-0.411-0.276-0.681v-12.444c0-0.282,0.091-0.512,0.276-0.689
	c0.184-0.178,0.41-0.267,0.68-0.267c0.282,0,0.511,0.089,0.689,0.267c0.178,0.177,0.267,0.407,0.267,0.689v5.275h8.529v-5.275
	c0-0.282,0.092-0.512,0.276-0.689c0.184-0.178,0.411-0.267,0.68-0.267c0.27,0,0.493,0.089,0.671,0.267
	c0.178,0.177,0.267,0.407,0.267,0.689v12.444c0,0.283-0.089,0.512-0.267,0.69c-0.178,0.178-0.401,0.266-0.671,0.266
	c-0.269,0-0.496-0.091-0.68-0.275c-0.184-0.185-0.276-0.411-0.276-0.681v-5.477h-8.529v5.477c0,0.27-0.089,0.496-0.267,0.681
	c-0.178,0.184-0.407,0.275-0.689,0.275C282.365,342.641,282.139,342.55,281.956,342.366"/>
<path class="st0" d="M303.352,342.367c-0.185-0.185-0.277-0.411-0.277-0.681v-12.444c0-0.283,0.092-0.512,0.277-0.69
	c0.183-0.177,0.41-0.266,0.679-0.266h3.677c0.906,0,1.719,0.202,2.436,0.606c0.716,0.404,1.274,0.968,1.672,1.692
	c0.399,0.722,0.598,1.543,0.598,2.462c0,0.895-0.199,1.692-0.598,2.39c-0.398,0.698-0.956,1.244-1.672,1.636
	c-0.717,0.392-1.53,0.589-2.436,0.589h-2.721v4.025c0,0.27-0.089,0.496-0.266,0.681c-0.178,0.183-0.408,0.275-0.69,0.275
	C303.762,342.642,303.535,342.55,303.352,342.367 M307.708,335.896c0.833,0,1.52-0.267,2.059-0.8
	c0.539-0.533,0.808-1.216,0.808-2.05c0-0.87-0.269-1.587-0.808-2.15c-0.539-0.563-1.226-0.846-2.059-0.846h-2.721v5.846H307.708z"/>
<path class="st0" d="M317.369,341.888c-1.11-0.625-1.971-1.498-2.583-2.619c-0.614-1.121-0.919-2.393-0.919-3.814
	c0-1.422,0.305-2.69,0.919-3.806c0.612-1.114,1.473-1.984,2.583-2.609c1.108-0.625,2.374-0.938,3.795-0.938
	c1.41,0,2.668,0.313,3.778,0.938c1.109,0.625,1.973,1.495,2.592,2.609c0.619,1.116,0.928,2.384,0.928,3.806
	c0,1.421-0.309,2.693-0.928,3.814c-0.619,1.121-1.48,1.994-2.583,2.619c-1.103,0.625-2.366,0.938-3.787,0.938
	S318.477,342.513,317.369,341.888 M323.977,340.353c0.833-0.496,1.482-1.173,1.948-2.031c0.466-0.858,0.698-1.814,0.698-2.867
	c0-1.054-0.232-2.01-0.698-2.869c-0.466-0.857-1.112-1.531-1.939-2.021c-0.827-0.49-1.768-0.735-2.822-0.735
	c-1.054,0-1.995,0.245-2.822,0.735c-0.827,0.49-1.473,1.164-1.939,2.021c-0.466,0.859-0.698,1.815-0.698,2.869
	c0,1.053,0.232,2.009,0.698,2.867s1.115,1.535,1.949,2.031c0.833,0.497,1.771,0.745,2.812,0.745
	C322.206,341.098,323.143,340.85,323.977,340.353"/>
<path class="st0" d="M332.772,342.017c-0.974-0.539-1.645-1.244-2.013-2.114c-0.061-0.147-0.091-0.27-0.091-0.367
	c0-0.184,0.067-0.347,0.202-0.488c0.134-0.14,0.318-0.235,0.551-0.285c0.037-0.012,0.098-0.018,0.184-0.018
	c0.196,0,0.383,0.058,0.561,0.174c0.177,0.118,0.309,0.274,0.395,0.469c0.221,0.479,0.655,0.883,1.305,1.214
	c0.649,0.33,1.366,0.496,2.151,0.496c0.919,0,1.697-0.212,2.334-0.635c0.638-0.423,0.956-1.001,0.956-1.736
	c0-0.699-0.269-1.296-0.808-1.793c-0.54-0.496-1.361-0.8-2.464-0.909c-1.52-0.148-2.714-0.592-3.584-1.333s-1.306-1.67-1.306-2.785
	c0-0.785,0.224-1.461,0.671-2.032c0.447-0.57,1.06-1.004,1.839-1.304c0.778-0.301,1.651-0.451,2.619-0.451
	c1.054,0,1.942,0.214,2.666,0.643c0.723,0.43,1.335,1.042,1.838,1.839c0.147,0.232,0.221,0.453,0.221,0.661
	c0,0.27-0.123,0.49-0.369,0.662c-0.134,0.086-0.294,0.129-0.477,0.129c-0.184,0-0.356-0.046-0.515-0.139
	c-0.159-0.091-0.282-0.216-0.368-0.376c-0.33-0.551-0.744-0.971-1.24-1.259s-1.125-0.432-1.885-0.432
	c-0.931,0-1.685,0.181-2.261,0.542c-0.576,0.361-0.864,0.886-0.864,1.571c0,0.638,0.258,1.171,0.773,1.6
	c0.514,0.43,1.433,0.711,2.756,0.846c1.471,0.147,2.611,0.591,3.42,1.333c0.809,0.741,1.213,1.718,1.213,2.931
	c0,0.883-0.239,1.64-0.717,2.271c-0.477,0.631-1.112,1.102-1.902,1.415c-0.791,0.312-1.64,0.469-2.546,0.469
	C334.828,342.826,333.747,342.556,332.772,342.017"/>
<path class="st0" d="M344.38,342.366c-0.185-0.185-0.276-0.411-0.276-0.681v-12.444c0-0.282,0.091-0.512,0.276-0.689
	c0.184-0.178,0.41-0.267,0.68-0.267c0.282,0,0.511,0.089,0.689,0.267c0.178,0.177,0.267,0.407,0.267,0.689v12.444
	c0,0.27-0.089,0.496-0.267,0.681c-0.178,0.184-0.407,0.275-0.689,0.275C344.79,342.641,344.564,342.55,344.38,342.366"/>
<path class="st0" d="M359.481,328.533c0.165,0.165,0.248,0.377,0.248,0.634c0,0.258-0.083,0.469-0.248,0.635
	c-0.165,0.165-0.377,0.248-0.634,0.248h-3.953v11.635c0,0.27-0.092,0.496-0.275,0.681c-0.184,0.184-0.411,0.275-0.68,0.275
	c-0.27,0-0.497-0.091-0.681-0.275c-0.183-0.185-0.275-0.411-0.275-0.681V330.05h-3.971c-0.258,0-0.469-0.083-0.635-0.248
	c-0.165-0.166-0.248-0.377-0.248-0.635c0-0.257,0.083-0.469,0.248-0.634c0.166-0.166,0.377-0.248,0.635-0.248h9.835
	C359.104,328.285,359.316,328.367,359.481,328.533"/>
<path class="st0" d="M362.119,342.366c-0.185-0.185-0.276-0.411-0.276-0.681v-12.444c0-0.282,0.091-0.512,0.276-0.689
	c0.184-0.178,0.41-0.267,0.68-0.267c0.282,0,0.511,0.089,0.689,0.267c0.178,0.177,0.267,0.407,0.267,0.689v12.444
	c0,0.27-0.089,0.496-0.267,0.681c-0.178,0.184-0.407,0.275-0.689,0.275C362.529,342.641,362.303,342.55,362.119,342.366"/>
<path class="st0" d="M378.542,328.506c0.153,0.146,0.23,0.337,0.23,0.569c0,0.148-0.037,0.307-0.11,0.479l-5.441,12.481
	c-0.159,0.405-0.448,0.607-0.865,0.607c-0.392,0-0.679-0.202-0.864-0.607l-5.386-12.316c-0.098-0.258-0.147-0.472-0.147-0.644
	c0-0.245,0.077-0.437,0.23-0.579c0.154-0.14,0.365-0.211,0.634-0.211c0.429,0,0.723,0.19,0.883,0.57l4.632,11.103l4.706-11.103
	c0.086-0.221,0.196-0.37,0.331-0.451c0.135-0.079,0.313-0.119,0.533-0.119C378.178,328.285,378.389,328.359,378.542,328.506"/>
<path class="st0" d="M381.254,342.366c-0.185-0.185-0.276-0.411-0.276-0.681v-12.444c0-0.282,0.091-0.512,0.276-0.689
	c0.184-0.178,0.41-0.267,0.68-0.267c0.282,0,0.511,0.089,0.689,0.267c0.178,0.177,0.267,0.407,0.267,0.689v12.444
	c0,0.27-0.089,0.496-0.267,0.681c-0.178,0.184-0.407,0.275-0.689,0.275C381.664,342.641,381.438,342.55,381.254,342.366"/>
<path class="st0" d="M396.355,328.533c0.165,0.165,0.248,0.377,0.248,0.634c0,0.258-0.083,0.469-0.248,0.635
	c-0.165,0.165-0.377,0.248-0.634,0.248h-3.953v11.635c0,0.27-0.092,0.496-0.275,0.681c-0.184,0.184-0.411,0.275-0.68,0.275
	c-0.27,0-0.497-0.091-0.681-0.275c-0.183-0.185-0.275-0.411-0.275-0.681V330.05h-3.971c-0.258,0-0.469-0.083-0.635-0.248
	c-0.165-0.166-0.248-0.377-0.248-0.635c0-0.257,0.083-0.469,0.248-0.634c0.166-0.166,0.377-0.248,0.635-0.248h9.835
	C395.978,328.285,396.19,328.367,396.355,328.533"/>
<path class="st0" d="M408.872,328.542c0.153,0.172,0.23,0.38,0.23,0.625c0,0.209-0.061,0.411-0.184,0.606l-4.944,7.629v4.284
	c0,0.269-0.092,0.496-0.276,0.68c-0.184,0.184-0.411,0.276-0.68,0.276c-0.257,0-0.478-0.092-0.663-0.276
	c-0.183-0.184-0.275-0.411-0.275-0.68v-4.284l-4.908-7.629c-0.135-0.208-0.202-0.404-0.202-0.587c0-0.257,0.094-0.472,0.285-0.644
	c0.189-0.171,0.413-0.257,0.671-0.257c0.196,0,0.355,0.043,0.477,0.129c0.123,0.085,0.245,0.22,0.368,0.404l4.302,6.82l4.375-6.894
	c0.195-0.306,0.478-0.459,0.845-0.459C408.526,328.285,408.719,328.371,408.872,328.542"/>
<path class="st0" d="M407.549,342.559c-0.251-0.251-0.377-0.548-0.377-0.892c0-0.354,0.126-0.658,0.377-0.909
	c0.251-0.251,0.549-0.377,0.892-0.377c0.342,0,0.64,0.126,0.891,0.377c0.251,0.251,0.377,0.555,0.377,0.909
	c0,0.344-0.123,0.641-0.368,0.892c-0.245,0.251-0.545,0.377-0.9,0.377C408.098,342.936,407.8,342.81,407.549,342.559"/>
</svg>
